%FSLAX34Y34*%
G04 Gerber Fmt 3.4, Leading zero omitted, Abs format*
G04 (created by PCBNEW (2014-jan-25)-product) date Sun 17 Aug 2014 06:32:25 PM PDT*
%MOIN*%
G01*
G70*
G90*
G04 APERTURE LIST*
%ADD10C,0.003937*%
%ADD11C,0.008000*%
%ADD12C,0.012000*%
%ADD13C,0.015000*%
%ADD14C,0.010000*%
%ADD15C,0.005906*%
G04 APERTURE END LIST*
G54D10*
G54D11*
X51714Y-43030D02*
X51485Y-43030D01*
X51600Y-43030D02*
X51600Y-42630D01*
X51561Y-42688D01*
X51523Y-42726D01*
X51485Y-42745D01*
X76669Y-47630D02*
X76535Y-47440D01*
X76440Y-47630D02*
X76440Y-47230D01*
X76592Y-47230D01*
X76630Y-47250D01*
X76650Y-47269D01*
X76669Y-47307D01*
X76669Y-47364D01*
X76650Y-47402D01*
X76630Y-47421D01*
X76592Y-47440D01*
X76440Y-47440D01*
X76840Y-47421D02*
X76973Y-47421D01*
X77030Y-47630D02*
X76840Y-47630D01*
X76840Y-47230D01*
X77030Y-47230D01*
X77183Y-47611D02*
X77240Y-47630D01*
X77335Y-47630D01*
X77373Y-47611D01*
X77392Y-47592D01*
X77411Y-47554D01*
X77411Y-47516D01*
X77392Y-47478D01*
X77373Y-47459D01*
X77335Y-47440D01*
X77259Y-47421D01*
X77221Y-47402D01*
X77202Y-47383D01*
X77183Y-47345D01*
X77183Y-47307D01*
X77202Y-47269D01*
X77221Y-47250D01*
X77259Y-47230D01*
X77354Y-47230D01*
X77411Y-47250D01*
X77583Y-47421D02*
X77716Y-47421D01*
X77773Y-47630D02*
X77583Y-47630D01*
X77583Y-47230D01*
X77773Y-47230D01*
X77888Y-47230D02*
X78116Y-47230D01*
X78002Y-47630D02*
X78002Y-47230D01*
X40876Y-53480D02*
X41104Y-53480D01*
X40990Y-53880D02*
X40990Y-53480D01*
X41238Y-53671D02*
X41371Y-53671D01*
X41428Y-53880D02*
X41238Y-53880D01*
X41238Y-53480D01*
X41428Y-53480D01*
X41828Y-53880D02*
X41695Y-53690D01*
X41600Y-53880D02*
X41600Y-53480D01*
X41752Y-53480D01*
X41790Y-53500D01*
X41809Y-53519D01*
X41828Y-53557D01*
X41828Y-53614D01*
X41809Y-53652D01*
X41790Y-53671D01*
X41752Y-53690D01*
X41600Y-53690D01*
X42000Y-53880D02*
X42000Y-53480D01*
X42133Y-53766D01*
X42266Y-53480D01*
X42266Y-53880D01*
X73464Y-53381D02*
X73521Y-53400D01*
X73540Y-53419D01*
X73559Y-53457D01*
X73559Y-53514D01*
X73540Y-53552D01*
X73521Y-53571D01*
X73483Y-53590D01*
X73330Y-53590D01*
X73330Y-53190D01*
X73464Y-53190D01*
X73502Y-53210D01*
X73521Y-53229D01*
X73540Y-53267D01*
X73540Y-53305D01*
X73521Y-53343D01*
X73502Y-53362D01*
X73464Y-53381D01*
X73330Y-53381D01*
X73730Y-53190D02*
X73730Y-53514D01*
X73750Y-53552D01*
X73769Y-53571D01*
X73807Y-53590D01*
X73883Y-53590D01*
X73921Y-53571D01*
X73940Y-53552D01*
X73959Y-53514D01*
X73959Y-53190D01*
X74130Y-53571D02*
X74188Y-53590D01*
X74283Y-53590D01*
X74321Y-53571D01*
X74340Y-53552D01*
X74359Y-53514D01*
X74359Y-53476D01*
X74340Y-53438D01*
X74321Y-53419D01*
X74283Y-53400D01*
X74207Y-53381D01*
X74169Y-53362D01*
X74150Y-53343D01*
X74130Y-53305D01*
X74130Y-53267D01*
X74150Y-53229D01*
X74169Y-53210D01*
X74207Y-53190D01*
X74302Y-53190D01*
X74359Y-53210D01*
X74435Y-53629D02*
X74740Y-53629D01*
X74816Y-53571D02*
X74873Y-53590D01*
X74969Y-53590D01*
X75007Y-53571D01*
X75026Y-53552D01*
X75045Y-53514D01*
X75045Y-53476D01*
X75026Y-53438D01*
X75007Y-53419D01*
X74969Y-53400D01*
X74892Y-53381D01*
X74854Y-53362D01*
X74835Y-53343D01*
X74816Y-53305D01*
X74816Y-53267D01*
X74835Y-53229D01*
X74854Y-53210D01*
X74892Y-53190D01*
X74988Y-53190D01*
X75045Y-53210D01*
X75292Y-53190D02*
X75369Y-53190D01*
X75407Y-53210D01*
X75445Y-53248D01*
X75464Y-53324D01*
X75464Y-53457D01*
X75445Y-53533D01*
X75407Y-53571D01*
X75369Y-53590D01*
X75292Y-53590D01*
X75254Y-53571D01*
X75216Y-53533D01*
X75197Y-53457D01*
X75197Y-53324D01*
X75216Y-53248D01*
X75254Y-53210D01*
X75292Y-53190D01*
X75635Y-53590D02*
X75635Y-53190D01*
X75864Y-53590D01*
X75864Y-53190D01*
X76035Y-53476D02*
X76226Y-53476D01*
X75997Y-53590D02*
X76130Y-53190D01*
X76264Y-53590D01*
X76626Y-53590D02*
X76492Y-53400D01*
X76397Y-53590D02*
X76397Y-53190D01*
X76550Y-53190D01*
X76588Y-53210D01*
X76607Y-53229D01*
X76626Y-53267D01*
X76626Y-53324D01*
X76607Y-53362D01*
X76588Y-53381D01*
X76550Y-53400D01*
X76397Y-53400D01*
X77007Y-53590D02*
X76778Y-53590D01*
X76892Y-53590D02*
X76892Y-53190D01*
X76854Y-53248D01*
X76816Y-53286D01*
X76778Y-53305D01*
X77254Y-53190D02*
X77292Y-53190D01*
X77330Y-53210D01*
X77350Y-53229D01*
X77369Y-53267D01*
X77388Y-53343D01*
X77388Y-53438D01*
X77369Y-53514D01*
X77350Y-53552D01*
X77330Y-53571D01*
X77292Y-53590D01*
X77254Y-53590D01*
X77216Y-53571D01*
X77197Y-53552D01*
X77178Y-53514D01*
X77159Y-53438D01*
X77159Y-53343D01*
X77178Y-53267D01*
X77197Y-53229D01*
X77216Y-53210D01*
X77254Y-53190D01*
X72826Y-54230D02*
X72692Y-54040D01*
X72597Y-54230D02*
X72597Y-53830D01*
X72750Y-53830D01*
X72788Y-53850D01*
X72807Y-53869D01*
X72826Y-53907D01*
X72826Y-53964D01*
X72807Y-54002D01*
X72788Y-54021D01*
X72750Y-54040D01*
X72597Y-54040D01*
X72997Y-54021D02*
X73130Y-54021D01*
X73188Y-54230D02*
X72997Y-54230D01*
X72997Y-53830D01*
X73188Y-53830D01*
X73302Y-53830D02*
X73435Y-54230D01*
X73569Y-53830D01*
X73702Y-54192D02*
X73721Y-54211D01*
X73702Y-54230D01*
X73683Y-54211D01*
X73702Y-54192D01*
X73702Y-54230D01*
X74178Y-54116D02*
X74369Y-54116D01*
X74140Y-54230D02*
X74273Y-53830D01*
X74407Y-54230D01*
X75054Y-54230D02*
X74826Y-54230D01*
X74940Y-54230D02*
X74940Y-53830D01*
X74902Y-53888D01*
X74864Y-53926D01*
X74826Y-53945D01*
X75188Y-53830D02*
X75454Y-53830D01*
X75283Y-54230D01*
X75588Y-54116D02*
X75778Y-54116D01*
X75550Y-54230D02*
X75683Y-53830D01*
X75816Y-54230D01*
X75950Y-53830D02*
X75950Y-54154D01*
X75969Y-54192D01*
X75988Y-54211D01*
X76026Y-54230D01*
X76102Y-54230D01*
X76140Y-54211D01*
X76159Y-54192D01*
X76178Y-54154D01*
X76178Y-53830D01*
X76578Y-53850D02*
X76540Y-53830D01*
X76483Y-53830D01*
X76426Y-53850D01*
X76388Y-53888D01*
X76369Y-53926D01*
X76350Y-54002D01*
X76350Y-54059D01*
X76369Y-54135D01*
X76388Y-54173D01*
X76426Y-54211D01*
X76483Y-54230D01*
X76521Y-54230D01*
X76578Y-54211D01*
X76597Y-54192D01*
X76597Y-54059D01*
X76521Y-54059D01*
X76750Y-53869D02*
X76769Y-53850D01*
X76807Y-53830D01*
X76902Y-53830D01*
X76940Y-53850D01*
X76959Y-53869D01*
X76978Y-53907D01*
X76978Y-53945D01*
X76959Y-54002D01*
X76730Y-54230D01*
X76978Y-54230D01*
X77226Y-53830D02*
X77264Y-53830D01*
X77302Y-53850D01*
X77321Y-53869D01*
X77340Y-53907D01*
X77359Y-53983D01*
X77359Y-54078D01*
X77340Y-54154D01*
X77321Y-54192D01*
X77302Y-54211D01*
X77264Y-54230D01*
X77226Y-54230D01*
X77188Y-54211D01*
X77169Y-54192D01*
X77150Y-54154D01*
X77130Y-54078D01*
X77130Y-53983D01*
X77150Y-53907D01*
X77169Y-53869D01*
X77188Y-53850D01*
X77226Y-53830D01*
X77740Y-54230D02*
X77511Y-54230D01*
X77626Y-54230D02*
X77626Y-53830D01*
X77588Y-53888D01*
X77550Y-53926D01*
X77511Y-53945D01*
X78083Y-53964D02*
X78083Y-54230D01*
X77988Y-53811D02*
X77892Y-54097D01*
X78140Y-54097D01*
X73502Y-55023D02*
X73483Y-55004D01*
X73445Y-54947D01*
X73426Y-54909D01*
X73407Y-54851D01*
X73388Y-54756D01*
X73388Y-54680D01*
X73407Y-54585D01*
X73426Y-54528D01*
X73445Y-54490D01*
X73483Y-54432D01*
X73502Y-54413D01*
X73826Y-54851D02*
X73788Y-54870D01*
X73711Y-54870D01*
X73673Y-54851D01*
X73654Y-54832D01*
X73635Y-54794D01*
X73635Y-54680D01*
X73654Y-54642D01*
X73673Y-54623D01*
X73711Y-54604D01*
X73788Y-54604D01*
X73826Y-54623D01*
X73959Y-55023D02*
X73978Y-55004D01*
X74016Y-54947D01*
X74035Y-54909D01*
X74054Y-54851D01*
X74073Y-54756D01*
X74073Y-54680D01*
X74054Y-54585D01*
X74035Y-54528D01*
X74016Y-54490D01*
X73978Y-54432D01*
X73959Y-54413D01*
X74778Y-54490D02*
X74740Y-54470D01*
X74683Y-54470D01*
X74626Y-54490D01*
X74588Y-54528D01*
X74569Y-54566D01*
X74550Y-54642D01*
X74550Y-54699D01*
X74569Y-54775D01*
X74588Y-54813D01*
X74626Y-54851D01*
X74683Y-54870D01*
X74721Y-54870D01*
X74778Y-54851D01*
X74797Y-54832D01*
X74797Y-54699D01*
X74721Y-54699D01*
X75197Y-54870D02*
X75064Y-54680D01*
X74969Y-54870D02*
X74969Y-54470D01*
X75121Y-54470D01*
X75159Y-54490D01*
X75178Y-54509D01*
X75197Y-54547D01*
X75197Y-54604D01*
X75178Y-54642D01*
X75159Y-54661D01*
X75121Y-54680D01*
X74969Y-54680D01*
X75350Y-54756D02*
X75540Y-54756D01*
X75311Y-54870D02*
X75445Y-54470D01*
X75578Y-54870D01*
X75711Y-54870D02*
X75711Y-54470D01*
X75845Y-54756D01*
X75978Y-54470D01*
X75978Y-54870D01*
X76359Y-54870D02*
X76169Y-54870D01*
X76169Y-54470D01*
X76492Y-54870D02*
X76492Y-54470D01*
X76911Y-54832D02*
X76892Y-54851D01*
X76835Y-54870D01*
X76797Y-54870D01*
X76740Y-54851D01*
X76702Y-54813D01*
X76683Y-54775D01*
X76664Y-54699D01*
X76664Y-54642D01*
X76683Y-54566D01*
X76702Y-54528D01*
X76740Y-54490D01*
X76797Y-54470D01*
X76835Y-54470D01*
X76892Y-54490D01*
X76911Y-54509D01*
X77083Y-54870D02*
X77083Y-54470D01*
X77083Y-54661D02*
X77311Y-54661D01*
X77311Y-54870D02*
X77311Y-54470D01*
X41064Y-45030D02*
X40835Y-45030D01*
X40950Y-45030D02*
X40950Y-44630D01*
X40911Y-44688D01*
X40873Y-44726D01*
X40835Y-44745D01*
X51764Y-57730D02*
X51535Y-57730D01*
X51650Y-57730D02*
X51650Y-57330D01*
X51611Y-57388D01*
X51573Y-57426D01*
X51535Y-57445D01*
X40740Y-55280D02*
X40816Y-55280D01*
X40854Y-55300D01*
X40892Y-55338D01*
X40911Y-55414D01*
X40911Y-55547D01*
X40892Y-55623D01*
X40854Y-55661D01*
X40816Y-55680D01*
X40740Y-55680D01*
X40702Y-55661D01*
X40664Y-55623D01*
X40645Y-55547D01*
X40645Y-55414D01*
X40664Y-55338D01*
X40702Y-55300D01*
X40740Y-55280D01*
X41083Y-55680D02*
X41083Y-55280D01*
X41311Y-55680D01*
X41311Y-55280D01*
X41788Y-55261D02*
X41445Y-55776D01*
X41997Y-55280D02*
X42073Y-55280D01*
X42111Y-55300D01*
X42150Y-55338D01*
X42169Y-55414D01*
X42169Y-55547D01*
X42150Y-55623D01*
X42111Y-55661D01*
X42073Y-55680D01*
X41997Y-55680D01*
X41959Y-55661D01*
X41921Y-55623D01*
X41902Y-55547D01*
X41902Y-55414D01*
X41921Y-55338D01*
X41959Y-55300D01*
X41997Y-55280D01*
X42473Y-55471D02*
X42340Y-55471D01*
X42340Y-55680D02*
X42340Y-55280D01*
X42530Y-55280D01*
X42816Y-55471D02*
X42683Y-55471D01*
X42683Y-55680D02*
X42683Y-55280D01*
X42873Y-55280D01*
X44014Y-58130D02*
X43785Y-58130D01*
X43900Y-58130D02*
X43900Y-57730D01*
X43861Y-57788D01*
X43823Y-57826D01*
X43785Y-57845D01*
X44773Y-57071D02*
X44830Y-57090D01*
X44850Y-57109D01*
X44869Y-57147D01*
X44869Y-57204D01*
X44850Y-57242D01*
X44830Y-57261D01*
X44792Y-57280D01*
X44640Y-57280D01*
X44640Y-56880D01*
X44773Y-56880D01*
X44811Y-56900D01*
X44830Y-56919D01*
X44850Y-56957D01*
X44850Y-56995D01*
X44830Y-57033D01*
X44811Y-57052D01*
X44773Y-57071D01*
X44640Y-57071D01*
X45783Y-57071D02*
X45840Y-57090D01*
X45859Y-57109D01*
X45878Y-57147D01*
X45878Y-57204D01*
X45859Y-57242D01*
X45840Y-57261D01*
X45802Y-57280D01*
X45650Y-57280D01*
X45650Y-56880D01*
X45783Y-56880D01*
X45821Y-56900D01*
X45840Y-56919D01*
X45859Y-56957D01*
X45859Y-56995D01*
X45840Y-57033D01*
X45821Y-57052D01*
X45783Y-57071D01*
X45650Y-57071D01*
X46888Y-57280D02*
X46754Y-57090D01*
X46659Y-57280D02*
X46659Y-56880D01*
X46811Y-56880D01*
X46850Y-56900D01*
X46869Y-56919D01*
X46888Y-56957D01*
X46888Y-57014D01*
X46869Y-57052D01*
X46850Y-57071D01*
X46811Y-57090D01*
X46659Y-57090D01*
X47745Y-57090D02*
X47745Y-57280D01*
X47611Y-56880D02*
X47745Y-57090D01*
X47878Y-56880D01*
X48697Y-56880D02*
X48773Y-56880D01*
X48811Y-56900D01*
X48849Y-56938D01*
X48869Y-57014D01*
X48869Y-57147D01*
X48849Y-57223D01*
X48811Y-57261D01*
X48773Y-57280D01*
X48697Y-57280D01*
X48659Y-57261D01*
X48621Y-57223D01*
X48602Y-57147D01*
X48602Y-57014D01*
X48621Y-56938D01*
X48659Y-56900D01*
X48697Y-56880D01*
X49859Y-56900D02*
X49821Y-56880D01*
X49764Y-56880D01*
X49707Y-56900D01*
X49669Y-56938D01*
X49649Y-56976D01*
X49630Y-57052D01*
X49630Y-57109D01*
X49649Y-57185D01*
X49669Y-57223D01*
X49707Y-57261D01*
X49764Y-57280D01*
X49802Y-57280D01*
X49859Y-57261D01*
X49878Y-57242D01*
X49878Y-57109D01*
X49802Y-57109D01*
X48902Y-50028D02*
X48597Y-50028D01*
X48750Y-50180D02*
X48750Y-49876D01*
X44152Y-50028D02*
X43847Y-50028D01*
X44000Y-50180D02*
X44000Y-49876D01*
G54D12*
X48250Y-48730D02*
X48250Y-46750D01*
X48250Y-46750D02*
X49250Y-46750D01*
X49250Y-46750D02*
X49250Y-48750D01*
X49250Y-48750D02*
X48250Y-48750D01*
X48500Y-48750D02*
X48250Y-48500D01*
X63980Y-48000D02*
X62000Y-48000D01*
X62000Y-48000D02*
X62000Y-47000D01*
X62000Y-47000D02*
X64000Y-47000D01*
X64000Y-47000D02*
X64000Y-48000D01*
X64000Y-47750D02*
X63750Y-48000D01*
X49750Y-51270D02*
X49750Y-53250D01*
X49750Y-53250D02*
X48750Y-53250D01*
X48750Y-53250D02*
X48750Y-51250D01*
X48750Y-51250D02*
X49750Y-51250D01*
X49500Y-51250D02*
X49750Y-51500D01*
X73000Y-49270D02*
X73000Y-51250D01*
X73000Y-51250D02*
X72000Y-51250D01*
X72000Y-51250D02*
X72000Y-49250D01*
X72000Y-49250D02*
X73000Y-49250D01*
X72750Y-49250D02*
X73000Y-49500D01*
G54D13*
X73750Y-51250D02*
X73750Y-51650D01*
X73750Y-49350D02*
X73750Y-48850D01*
G54D14*
X73250Y-49450D02*
X74250Y-49450D01*
X73250Y-49550D02*
X74250Y-49550D01*
X73250Y-49650D02*
X74250Y-49650D01*
X73250Y-49350D02*
X74250Y-49350D01*
X73250Y-49750D02*
X74250Y-49250D01*
X73250Y-49250D02*
X74250Y-49750D01*
X73250Y-49750D02*
X74250Y-49750D01*
X73250Y-49500D02*
X74250Y-49500D01*
X74250Y-49250D02*
X73250Y-49250D01*
X73250Y-49250D02*
X73250Y-51250D01*
X73250Y-51250D02*
X74250Y-51250D01*
X74250Y-51250D02*
X74250Y-49250D01*
X41250Y-55000D02*
X43250Y-55000D01*
X43250Y-55000D02*
X43250Y-54000D01*
X43250Y-54000D02*
X41250Y-54000D01*
X40250Y-54000D02*
X41250Y-54000D01*
X41250Y-54000D02*
X41250Y-55000D01*
X40250Y-54000D02*
X40250Y-55000D01*
X40250Y-55000D02*
X41250Y-55000D01*
G54D15*
X39300Y-47250D02*
X39600Y-47050D01*
X39300Y-47250D02*
X39600Y-47450D01*
G54D14*
X39600Y-50150D02*
X39800Y-50150D01*
X39800Y-50150D02*
X39800Y-48350D01*
X39800Y-48350D02*
X39600Y-48350D01*
X43400Y-45250D02*
X43400Y-53250D01*
X43400Y-53250D02*
X39600Y-53250D01*
X39600Y-53250D02*
X39600Y-45250D01*
X39600Y-45250D02*
X43400Y-45250D01*
X45250Y-57500D02*
X50250Y-57500D01*
X50250Y-57500D02*
X50250Y-58500D01*
X50250Y-58500D02*
X45250Y-58500D01*
X44250Y-57500D02*
X45250Y-57500D01*
X45250Y-57500D02*
X45250Y-58500D01*
X44250Y-57500D02*
X44250Y-58500D01*
X44250Y-58500D02*
X45250Y-58500D01*
G54D15*
X49500Y-45000D02*
X49500Y-45500D01*
X49500Y-43000D02*
X49500Y-42500D01*
X50000Y-43000D02*
X49000Y-43000D01*
X49000Y-43000D02*
X49000Y-45000D01*
X49000Y-45000D02*
X50000Y-45000D01*
X50000Y-45000D02*
X50000Y-43000D01*
X57750Y-54000D02*
X58250Y-54000D01*
X55750Y-54000D02*
X55250Y-54000D01*
X55750Y-53500D02*
X55750Y-54500D01*
X55750Y-54500D02*
X57750Y-54500D01*
X57750Y-54500D02*
X57750Y-53500D01*
X57750Y-53500D02*
X55750Y-53500D01*
X52250Y-54000D02*
X52750Y-54000D01*
X50250Y-54000D02*
X49750Y-54000D01*
X50250Y-53500D02*
X50250Y-54500D01*
X50250Y-54500D02*
X52250Y-54500D01*
X52250Y-54500D02*
X52250Y-53500D01*
X52250Y-53500D02*
X50250Y-53500D01*
X52250Y-51500D02*
X52250Y-52000D01*
X52250Y-49500D02*
X52250Y-49000D01*
X52750Y-49500D02*
X51750Y-49500D01*
X51750Y-49500D02*
X51750Y-51500D01*
X51750Y-51500D02*
X52750Y-51500D01*
X52750Y-51500D02*
X52750Y-49500D01*
X54000Y-51500D02*
X54000Y-52000D01*
X54000Y-49500D02*
X54000Y-49000D01*
X54500Y-49500D02*
X53500Y-49500D01*
X53500Y-49500D02*
X53500Y-51500D01*
X53500Y-51500D02*
X54500Y-51500D01*
X54500Y-51500D02*
X54500Y-49500D01*
X45250Y-55000D02*
X44750Y-55000D01*
X47250Y-55000D02*
X47750Y-55000D01*
X47250Y-55500D02*
X47250Y-54500D01*
X47250Y-54500D02*
X45250Y-54500D01*
X45250Y-54500D02*
X45250Y-55500D01*
X45250Y-55500D02*
X47250Y-55500D01*
G54D13*
X76561Y-50681D02*
X76659Y-50681D01*
X76561Y-48319D02*
X76659Y-48319D01*
X77939Y-50681D02*
X77841Y-50681D01*
X77939Y-48319D02*
X77841Y-48319D01*
X76561Y-48319D02*
X76561Y-50681D01*
X77939Y-48319D02*
X77939Y-50681D01*
X53250Y-44750D02*
X61250Y-44750D01*
X61250Y-46750D02*
X53250Y-46750D01*
X53250Y-46750D02*
X53250Y-44750D01*
X53250Y-45250D02*
X53750Y-45250D01*
X53750Y-45250D02*
X53750Y-46250D01*
X53750Y-46250D02*
X53250Y-46250D01*
X61250Y-44750D02*
X61250Y-46750D01*
X45250Y-46300D02*
X45250Y-46850D01*
X46250Y-46300D02*
X46250Y-46850D01*
X47250Y-46300D02*
X47250Y-46850D01*
X47239Y-41150D02*
G75*
G03X47239Y-41150I-989J0D01*
G74*
G01*
X48350Y-42950D02*
X48350Y-39800D01*
X48350Y-39800D02*
X44150Y-39800D01*
X44150Y-39800D02*
X44150Y-42950D01*
X48350Y-46300D02*
X48350Y-42950D01*
X48350Y-42950D02*
X44150Y-42950D01*
X44150Y-42950D02*
X44150Y-46300D01*
X46250Y-46300D02*
X44150Y-46300D01*
X46250Y-46300D02*
X48350Y-46300D01*
G54D14*
X44250Y-51750D02*
X44750Y-51750D01*
X44750Y-51750D02*
X44750Y-52750D01*
X44750Y-52750D02*
X44250Y-52750D01*
X44250Y-51250D02*
X48250Y-51250D01*
X48250Y-51250D02*
X48250Y-53250D01*
X48250Y-53250D02*
X44250Y-53250D01*
X44250Y-53250D02*
X44250Y-51250D01*
G54D13*
X55500Y-49250D02*
X70500Y-49250D01*
X70500Y-49250D02*
X70500Y-51250D01*
X70500Y-51250D02*
X55500Y-51250D01*
X55500Y-51250D02*
X55500Y-49250D01*
X55500Y-49750D02*
X56000Y-49750D01*
X56000Y-49750D02*
X56000Y-50750D01*
X56000Y-50750D02*
X55500Y-50750D01*
X65500Y-44750D02*
X73500Y-44750D01*
X73500Y-46750D02*
X65500Y-46750D01*
X65500Y-46750D02*
X65500Y-44750D01*
X65500Y-45250D02*
X66000Y-45250D01*
X66000Y-45250D02*
X66000Y-46250D01*
X66000Y-46250D02*
X65500Y-46250D01*
X73500Y-44750D02*
X73500Y-46750D01*
X68350Y-53356D02*
X68429Y-53514D01*
X68429Y-53514D02*
X68469Y-53750D01*
X68469Y-53750D02*
X68429Y-53947D01*
X68429Y-53947D02*
X68272Y-54222D01*
X68272Y-54222D02*
X68035Y-54380D01*
X68035Y-54380D02*
X67799Y-54459D01*
X67799Y-54459D02*
X65201Y-54459D01*
X65201Y-54459D02*
X64925Y-54380D01*
X64925Y-54380D02*
X64768Y-54262D01*
X64768Y-54262D02*
X64610Y-54065D01*
X64610Y-54065D02*
X64531Y-53829D01*
X64531Y-53829D02*
X64531Y-53632D01*
X64531Y-53632D02*
X64610Y-53435D01*
X64610Y-53435D02*
X64807Y-53199D01*
X64807Y-53199D02*
X65004Y-53081D01*
X65004Y-53081D02*
X65201Y-53041D01*
X65240Y-53041D02*
X67839Y-53041D01*
X67839Y-53041D02*
X67996Y-53081D01*
X67996Y-53081D02*
X68193Y-53199D01*
X68193Y-53199D02*
X68390Y-53396D01*
X65244Y-52833D02*
X65063Y-52852D01*
X65063Y-52852D02*
X64906Y-52896D01*
X64906Y-52896D02*
X64736Y-52982D01*
X64736Y-52982D02*
X64622Y-53073D01*
X64622Y-53073D02*
X64492Y-53211D01*
X64492Y-53211D02*
X64378Y-53423D01*
X64378Y-53423D02*
X64327Y-53659D01*
X64327Y-53659D02*
X64327Y-53860D01*
X64327Y-53860D02*
X64394Y-54136D01*
X64394Y-54136D02*
X64551Y-54368D01*
X64551Y-54368D02*
X64732Y-54514D01*
X64732Y-54514D02*
X64898Y-54596D01*
X64898Y-54596D02*
X65075Y-54659D01*
X65075Y-54659D02*
X65248Y-54671D01*
X68138Y-54585D02*
X68287Y-54498D01*
X68287Y-54498D02*
X68413Y-54388D01*
X68413Y-54388D02*
X68512Y-54258D01*
X68512Y-54258D02*
X68630Y-54041D01*
X68630Y-54041D02*
X68673Y-53856D01*
X68673Y-53856D02*
X68681Y-53675D01*
X68681Y-53675D02*
X68646Y-53494D01*
X68646Y-53494D02*
X68571Y-53317D01*
X68571Y-53317D02*
X68429Y-53132D01*
X68429Y-53132D02*
X68291Y-53006D01*
X68291Y-53006D02*
X68138Y-52915D01*
X68138Y-52915D02*
X67969Y-52860D01*
X67969Y-52860D02*
X67795Y-52833D01*
X65240Y-54667D02*
X67780Y-54667D01*
X67780Y-54667D02*
X67945Y-54652D01*
X67945Y-54652D02*
X68138Y-54585D01*
X65240Y-52833D02*
X67780Y-52833D01*
G54D15*
X62615Y-43290D02*
X62615Y-42760D01*
X62615Y-42760D02*
X64385Y-42760D01*
X64385Y-42760D02*
X64385Y-43290D01*
X52000Y-39710D02*
X75000Y-39710D01*
X75000Y-39710D02*
X75000Y-43290D01*
X75000Y-43290D02*
X52000Y-43290D01*
X52000Y-43290D02*
X52000Y-39710D01*
X62615Y-58790D02*
X62615Y-58260D01*
X62615Y-58260D02*
X64385Y-58260D01*
X64385Y-58260D02*
X64385Y-58790D01*
X52000Y-55210D02*
X75000Y-55210D01*
X75000Y-55210D02*
X75000Y-58790D01*
X75000Y-58790D02*
X52000Y-58790D01*
X52000Y-58790D02*
X52000Y-55210D01*
G54D12*
X63980Y-54750D02*
X62000Y-54750D01*
X62000Y-54750D02*
X62000Y-53750D01*
X62000Y-53750D02*
X64000Y-53750D01*
X64000Y-53750D02*
X64000Y-54750D01*
X64000Y-54500D02*
X63750Y-54750D01*
G54D13*
X46050Y-49000D02*
X44450Y-49000D01*
X44450Y-50000D02*
X46050Y-50000D01*
G54D12*
X69000Y-54730D02*
X69000Y-52750D01*
X69000Y-52750D02*
X70000Y-52750D01*
X70000Y-52750D02*
X70000Y-54750D01*
X70000Y-54750D02*
X69000Y-54750D01*
X69250Y-54750D02*
X69000Y-54500D01*
G54D13*
X46700Y-50000D02*
X48300Y-50000D01*
X48300Y-49000D02*
X46700Y-49000D01*
G54D12*
X62020Y-52500D02*
X64000Y-52500D01*
X64000Y-52500D02*
X64000Y-53500D01*
X64000Y-53500D02*
X62000Y-53500D01*
X62000Y-53500D02*
X62000Y-52500D01*
X62000Y-52750D02*
X62250Y-52500D01*
X52000Y-46730D02*
X52000Y-44750D01*
X52000Y-44750D02*
X53000Y-44750D01*
X53000Y-44750D02*
X53000Y-46750D01*
X53000Y-46750D02*
X52000Y-46750D01*
X52250Y-46750D02*
X52000Y-46500D01*
X65250Y-44770D02*
X65250Y-46750D01*
X65250Y-46750D02*
X64250Y-46750D01*
X64250Y-46750D02*
X64250Y-44750D01*
X64250Y-44750D02*
X65250Y-44750D01*
X65000Y-44750D02*
X65250Y-45000D01*
G54D15*
X75250Y-49250D02*
X75250Y-48750D01*
X75250Y-51250D02*
X75250Y-51750D01*
X74750Y-51250D02*
X75750Y-51250D01*
X75750Y-51250D02*
X75750Y-49250D01*
X75750Y-49250D02*
X74750Y-49250D01*
X74750Y-49250D02*
X74750Y-51250D01*
G54D11*
X49683Y-47942D02*
X49664Y-47961D01*
X49607Y-47980D01*
X49569Y-47980D01*
X49511Y-47961D01*
X49473Y-47923D01*
X49454Y-47885D01*
X49435Y-47809D01*
X49435Y-47752D01*
X49454Y-47676D01*
X49473Y-47638D01*
X49511Y-47600D01*
X49569Y-47580D01*
X49607Y-47580D01*
X49664Y-47600D01*
X49683Y-47619D01*
X50026Y-47714D02*
X50026Y-47980D01*
X49930Y-47561D02*
X49835Y-47847D01*
X50083Y-47847D01*
X62883Y-46792D02*
X62864Y-46811D01*
X62807Y-46830D01*
X62769Y-46830D01*
X62711Y-46811D01*
X62673Y-46773D01*
X62654Y-46735D01*
X62635Y-46659D01*
X62635Y-46602D01*
X62654Y-46526D01*
X62673Y-46488D01*
X62711Y-46450D01*
X62769Y-46430D01*
X62807Y-46430D01*
X62864Y-46450D01*
X62883Y-46469D01*
X63016Y-46430D02*
X63283Y-46430D01*
X63111Y-46830D01*
X50183Y-52392D02*
X50164Y-52411D01*
X50107Y-52430D01*
X50069Y-52430D01*
X50011Y-52411D01*
X49973Y-52373D01*
X49954Y-52335D01*
X49935Y-52259D01*
X49935Y-52202D01*
X49954Y-52126D01*
X49973Y-52088D01*
X50011Y-52050D01*
X50069Y-52030D01*
X50107Y-52030D01*
X50164Y-52050D01*
X50183Y-52069D01*
X50411Y-52202D02*
X50373Y-52183D01*
X50354Y-52164D01*
X50335Y-52126D01*
X50335Y-52107D01*
X50354Y-52069D01*
X50373Y-52050D01*
X50411Y-52030D01*
X50488Y-52030D01*
X50526Y-52050D01*
X50545Y-52069D01*
X50564Y-52107D01*
X50564Y-52126D01*
X50545Y-52164D01*
X50526Y-52183D01*
X50488Y-52202D01*
X50411Y-52202D01*
X50373Y-52221D01*
X50354Y-52240D01*
X50335Y-52278D01*
X50335Y-52354D01*
X50354Y-52392D01*
X50373Y-52411D01*
X50411Y-52430D01*
X50488Y-52430D01*
X50526Y-52411D01*
X50545Y-52392D01*
X50564Y-52354D01*
X50564Y-52278D01*
X50545Y-52240D01*
X50526Y-52221D01*
X50488Y-52202D01*
X71892Y-51842D02*
X71873Y-51861D01*
X71816Y-51880D01*
X71778Y-51880D01*
X71721Y-51861D01*
X71683Y-51823D01*
X71664Y-51785D01*
X71645Y-51709D01*
X71645Y-51652D01*
X71664Y-51576D01*
X71683Y-51538D01*
X71721Y-51500D01*
X71778Y-51480D01*
X71816Y-51480D01*
X71873Y-51500D01*
X71892Y-51519D01*
X72273Y-51880D02*
X72045Y-51880D01*
X72159Y-51880D02*
X72159Y-51480D01*
X72121Y-51538D01*
X72083Y-51576D01*
X72045Y-51595D01*
X72521Y-51480D02*
X72559Y-51480D01*
X72597Y-51500D01*
X72616Y-51519D01*
X72635Y-51557D01*
X72654Y-51633D01*
X72654Y-51728D01*
X72635Y-51804D01*
X72616Y-51842D01*
X72597Y-51861D01*
X72559Y-51880D01*
X72521Y-51880D01*
X72483Y-51861D01*
X72464Y-51842D01*
X72445Y-51804D01*
X72426Y-51728D01*
X72426Y-51633D01*
X72445Y-51557D01*
X72464Y-51519D01*
X72483Y-51500D01*
X72521Y-51480D01*
X74904Y-47430D02*
X74904Y-47030D01*
X75000Y-47030D01*
X75057Y-47050D01*
X75095Y-47088D01*
X75114Y-47126D01*
X75133Y-47202D01*
X75133Y-47259D01*
X75114Y-47335D01*
X75095Y-47373D01*
X75057Y-47411D01*
X75000Y-47430D01*
X74904Y-47430D01*
X75514Y-47430D02*
X75285Y-47430D01*
X75400Y-47430D02*
X75400Y-47030D01*
X75361Y-47088D01*
X75323Y-47126D01*
X75285Y-47145D01*
X74451Y-49166D02*
X74451Y-48861D01*
X74392Y-51748D02*
X74392Y-51444D01*
X74545Y-51596D02*
X74240Y-51596D01*
X41033Y-41519D02*
X41033Y-41119D01*
X41033Y-41310D02*
X41262Y-41310D01*
X41262Y-41519D02*
X41262Y-41119D01*
X41662Y-41519D02*
X41433Y-41519D01*
X41548Y-41519D02*
X41548Y-41119D01*
X41510Y-41176D01*
X41471Y-41214D01*
X41433Y-41233D01*
X76466Y-41519D02*
X76466Y-41119D01*
X76466Y-41310D02*
X76695Y-41310D01*
X76695Y-41519D02*
X76695Y-41119D01*
X76866Y-41157D02*
X76885Y-41138D01*
X76924Y-41119D01*
X77019Y-41119D01*
X77057Y-41138D01*
X77076Y-41157D01*
X77095Y-41195D01*
X77095Y-41233D01*
X77076Y-41290D01*
X76847Y-41519D01*
X77095Y-41519D01*
X41033Y-57267D02*
X41033Y-56867D01*
X41033Y-57058D02*
X41262Y-57058D01*
X41262Y-57267D02*
X41262Y-56867D01*
X41414Y-56867D02*
X41662Y-56867D01*
X41529Y-57019D01*
X41586Y-57019D01*
X41624Y-57038D01*
X41643Y-57058D01*
X41662Y-57096D01*
X41662Y-57191D01*
X41643Y-57229D01*
X41624Y-57248D01*
X41586Y-57267D01*
X41471Y-57267D01*
X41433Y-57248D01*
X41414Y-57229D01*
X76466Y-57267D02*
X76466Y-56867D01*
X76466Y-57058D02*
X76695Y-57058D01*
X76695Y-57267D02*
X76695Y-56867D01*
X77057Y-57000D02*
X77057Y-57267D01*
X76962Y-56848D02*
X76866Y-57134D01*
X77114Y-57134D01*
X39616Y-54280D02*
X39616Y-54566D01*
X39597Y-54623D01*
X39559Y-54661D01*
X39502Y-54680D01*
X39464Y-54680D01*
X40016Y-54680D02*
X39788Y-54680D01*
X39902Y-54680D02*
X39902Y-54280D01*
X39864Y-54338D01*
X39826Y-54376D01*
X39788Y-54395D01*
X41945Y-44930D02*
X41945Y-44530D01*
X42173Y-44930D01*
X42173Y-44530D01*
X42573Y-44930D02*
X42345Y-44930D01*
X42459Y-44930D02*
X42459Y-44530D01*
X42421Y-44588D01*
X42383Y-44626D01*
X42345Y-44645D01*
X50495Y-58180D02*
X50495Y-57780D01*
X50723Y-58180D01*
X50723Y-57780D01*
X50895Y-57819D02*
X50914Y-57800D01*
X50952Y-57780D01*
X51047Y-57780D01*
X51085Y-57800D01*
X51104Y-57819D01*
X51123Y-57857D01*
X51123Y-57895D01*
X51104Y-57952D01*
X50876Y-58180D01*
X51123Y-58180D01*
X50383Y-44230D02*
X50250Y-44040D01*
X50154Y-44230D02*
X50154Y-43830D01*
X50307Y-43830D01*
X50345Y-43850D01*
X50364Y-43869D01*
X50383Y-43907D01*
X50383Y-43964D01*
X50364Y-44002D01*
X50345Y-44021D01*
X50307Y-44040D01*
X50154Y-44040D01*
X50764Y-44230D02*
X50535Y-44230D01*
X50650Y-44230D02*
X50650Y-43830D01*
X50611Y-43888D01*
X50573Y-43926D01*
X50535Y-43945D01*
X56671Y-53263D02*
X56538Y-53073D01*
X56442Y-53263D02*
X56442Y-52863D01*
X56595Y-52863D01*
X56633Y-52882D01*
X56652Y-52901D01*
X56671Y-52939D01*
X56671Y-52996D01*
X56652Y-53035D01*
X56633Y-53054D01*
X56595Y-53073D01*
X56442Y-53073D01*
X56823Y-52901D02*
X56842Y-52882D01*
X56881Y-52863D01*
X56976Y-52863D01*
X57014Y-52882D01*
X57033Y-52901D01*
X57052Y-52939D01*
X57052Y-52977D01*
X57033Y-53035D01*
X56804Y-53263D01*
X57052Y-53263D01*
X51171Y-53263D02*
X51038Y-53073D01*
X50942Y-53263D02*
X50942Y-52863D01*
X51095Y-52863D01*
X51133Y-52882D01*
X51152Y-52901D01*
X51171Y-52939D01*
X51171Y-52996D01*
X51152Y-53035D01*
X51133Y-53054D01*
X51095Y-53073D01*
X50942Y-53073D01*
X51304Y-52863D02*
X51552Y-52863D01*
X51419Y-53016D01*
X51476Y-53016D01*
X51514Y-53035D01*
X51533Y-53054D01*
X51552Y-53092D01*
X51552Y-53187D01*
X51533Y-53225D01*
X51514Y-53244D01*
X51476Y-53263D01*
X51361Y-53263D01*
X51323Y-53244D01*
X51304Y-53225D01*
X51233Y-50680D02*
X51100Y-50490D01*
X51004Y-50680D02*
X51004Y-50280D01*
X51157Y-50280D01*
X51195Y-50300D01*
X51214Y-50319D01*
X51233Y-50357D01*
X51233Y-50414D01*
X51214Y-50452D01*
X51195Y-50471D01*
X51157Y-50490D01*
X51004Y-50490D01*
X51576Y-50414D02*
X51576Y-50680D01*
X51480Y-50261D02*
X51385Y-50547D01*
X51633Y-50547D01*
X54583Y-52030D02*
X54450Y-51840D01*
X54354Y-52030D02*
X54354Y-51630D01*
X54507Y-51630D01*
X54545Y-51650D01*
X54564Y-51669D01*
X54583Y-51707D01*
X54583Y-51764D01*
X54564Y-51802D01*
X54545Y-51821D01*
X54507Y-51840D01*
X54354Y-51840D01*
X54945Y-51630D02*
X54754Y-51630D01*
X54735Y-51821D01*
X54754Y-51802D01*
X54792Y-51783D01*
X54888Y-51783D01*
X54926Y-51802D01*
X54945Y-51821D01*
X54964Y-51859D01*
X54964Y-51954D01*
X54945Y-51992D01*
X54926Y-52011D01*
X54888Y-52030D01*
X54792Y-52030D01*
X54754Y-52011D01*
X54735Y-51992D01*
X46183Y-56030D02*
X46050Y-55840D01*
X45954Y-56030D02*
X45954Y-55630D01*
X46107Y-55630D01*
X46145Y-55650D01*
X46164Y-55669D01*
X46183Y-55707D01*
X46183Y-55764D01*
X46164Y-55802D01*
X46145Y-55821D01*
X46107Y-55840D01*
X45954Y-55840D01*
X46526Y-55630D02*
X46450Y-55630D01*
X46411Y-55650D01*
X46392Y-55669D01*
X46354Y-55726D01*
X46335Y-55802D01*
X46335Y-55954D01*
X46354Y-55992D01*
X46373Y-56011D01*
X46411Y-56030D01*
X46488Y-56030D01*
X46526Y-56011D01*
X46545Y-55992D01*
X46564Y-55954D01*
X46564Y-55859D01*
X46545Y-55821D01*
X46526Y-55802D01*
X46488Y-55783D01*
X46411Y-55783D01*
X46373Y-55802D01*
X46354Y-55821D01*
X46335Y-55859D01*
X76866Y-51911D02*
X76923Y-51930D01*
X77019Y-51930D01*
X77057Y-51911D01*
X77076Y-51892D01*
X77095Y-51854D01*
X77095Y-51816D01*
X77076Y-51778D01*
X77057Y-51759D01*
X77019Y-51740D01*
X76942Y-51721D01*
X76904Y-51702D01*
X76885Y-51683D01*
X76866Y-51645D01*
X76866Y-51607D01*
X76885Y-51569D01*
X76904Y-51550D01*
X76942Y-51530D01*
X77038Y-51530D01*
X77095Y-51550D01*
X77228Y-51530D02*
X77323Y-51930D01*
X77400Y-51645D01*
X77476Y-51930D01*
X77571Y-51530D01*
X77933Y-51930D02*
X77704Y-51930D01*
X77819Y-51930D02*
X77819Y-51530D01*
X77780Y-51588D01*
X77742Y-51626D01*
X77704Y-51645D01*
X61445Y-45580D02*
X61445Y-45904D01*
X61464Y-45942D01*
X61483Y-45961D01*
X61521Y-45980D01*
X61597Y-45980D01*
X61635Y-45961D01*
X61654Y-45942D01*
X61673Y-45904D01*
X61673Y-45580D01*
X62073Y-45980D02*
X61845Y-45980D01*
X61959Y-45980D02*
X61959Y-45580D01*
X61921Y-45638D01*
X61883Y-45676D01*
X61845Y-45695D01*
X43045Y-42430D02*
X43045Y-42754D01*
X43064Y-42792D01*
X43083Y-42811D01*
X43121Y-42830D01*
X43197Y-42830D01*
X43235Y-42811D01*
X43254Y-42792D01*
X43273Y-42754D01*
X43273Y-42430D01*
X43445Y-42469D02*
X43464Y-42450D01*
X43502Y-42430D01*
X43597Y-42430D01*
X43635Y-42450D01*
X43654Y-42469D01*
X43673Y-42507D01*
X43673Y-42545D01*
X43654Y-42602D01*
X43426Y-42830D01*
X43673Y-42830D01*
X43495Y-53330D02*
X43495Y-53654D01*
X43514Y-53692D01*
X43533Y-53711D01*
X43571Y-53730D01*
X43647Y-53730D01*
X43685Y-53711D01*
X43704Y-53692D01*
X43723Y-53654D01*
X43723Y-53330D01*
X43876Y-53330D02*
X44123Y-53330D01*
X43990Y-53483D01*
X44047Y-53483D01*
X44085Y-53502D01*
X44104Y-53521D01*
X44123Y-53559D01*
X44123Y-53654D01*
X44104Y-53692D01*
X44085Y-53711D01*
X44047Y-53730D01*
X43933Y-53730D01*
X43895Y-53711D01*
X43876Y-53692D01*
X54995Y-48530D02*
X54995Y-48854D01*
X55014Y-48892D01*
X55033Y-48911D01*
X55071Y-48930D01*
X55147Y-48930D01*
X55185Y-48911D01*
X55204Y-48892D01*
X55223Y-48854D01*
X55223Y-48530D01*
X55585Y-48664D02*
X55585Y-48930D01*
X55490Y-48511D02*
X55395Y-48797D01*
X55642Y-48797D01*
X73695Y-45580D02*
X73695Y-45904D01*
X73714Y-45942D01*
X73733Y-45961D01*
X73771Y-45980D01*
X73847Y-45980D01*
X73885Y-45961D01*
X73904Y-45942D01*
X73923Y-45904D01*
X73923Y-45580D01*
X74304Y-45580D02*
X74114Y-45580D01*
X74095Y-45771D01*
X74114Y-45752D01*
X74152Y-45733D01*
X74247Y-45733D01*
X74285Y-45752D01*
X74304Y-45771D01*
X74323Y-45809D01*
X74323Y-45904D01*
X74304Y-45942D01*
X74285Y-45961D01*
X74247Y-45980D01*
X74152Y-45980D01*
X74114Y-45961D01*
X74095Y-45942D01*
X68176Y-52280D02*
X68442Y-52680D01*
X68442Y-52280D02*
X68176Y-52680D01*
X68804Y-52680D02*
X68576Y-52680D01*
X68690Y-52680D02*
X68690Y-52280D01*
X68652Y-52338D01*
X68614Y-52376D01*
X68576Y-52395D01*
X50945Y-40630D02*
X50945Y-40230D01*
X51173Y-40630D01*
X51173Y-40230D01*
X51326Y-40230D02*
X51573Y-40230D01*
X51440Y-40383D01*
X51497Y-40383D01*
X51535Y-40402D01*
X51554Y-40421D01*
X51573Y-40459D01*
X51573Y-40554D01*
X51554Y-40592D01*
X51535Y-40611D01*
X51497Y-40630D01*
X51383Y-40630D01*
X51345Y-40611D01*
X51326Y-40592D01*
X51095Y-56080D02*
X51095Y-55680D01*
X51323Y-56080D01*
X51323Y-55680D01*
X51685Y-55814D02*
X51685Y-56080D01*
X51590Y-55661D02*
X51495Y-55947D01*
X51742Y-55947D01*
X61383Y-54392D02*
X61364Y-54411D01*
X61307Y-54430D01*
X61269Y-54430D01*
X61211Y-54411D01*
X61173Y-54373D01*
X61154Y-54335D01*
X61135Y-54259D01*
X61135Y-54202D01*
X61154Y-54126D01*
X61173Y-54088D01*
X61211Y-54050D01*
X61269Y-54030D01*
X61307Y-54030D01*
X61364Y-54050D01*
X61383Y-54069D01*
X61764Y-54430D02*
X61535Y-54430D01*
X61650Y-54430D02*
X61650Y-54030D01*
X61611Y-54088D01*
X61573Y-54126D01*
X61535Y-54145D01*
X43933Y-49642D02*
X43914Y-49661D01*
X43857Y-49680D01*
X43819Y-49680D01*
X43761Y-49661D01*
X43723Y-49623D01*
X43704Y-49585D01*
X43685Y-49509D01*
X43685Y-49452D01*
X43704Y-49376D01*
X43723Y-49338D01*
X43761Y-49300D01*
X43819Y-49280D01*
X43857Y-49280D01*
X43914Y-49300D01*
X43933Y-49319D01*
X44085Y-49319D02*
X44104Y-49300D01*
X44142Y-49280D01*
X44238Y-49280D01*
X44276Y-49300D01*
X44295Y-49319D01*
X44314Y-49357D01*
X44314Y-49395D01*
X44295Y-49452D01*
X44066Y-49680D01*
X44314Y-49680D01*
X70333Y-53892D02*
X70314Y-53911D01*
X70257Y-53930D01*
X70219Y-53930D01*
X70161Y-53911D01*
X70123Y-53873D01*
X70104Y-53835D01*
X70085Y-53759D01*
X70085Y-53702D01*
X70104Y-53626D01*
X70123Y-53588D01*
X70161Y-53550D01*
X70219Y-53530D01*
X70257Y-53530D01*
X70314Y-53550D01*
X70333Y-53569D01*
X70466Y-53530D02*
X70714Y-53530D01*
X70580Y-53683D01*
X70638Y-53683D01*
X70676Y-53702D01*
X70695Y-53721D01*
X70714Y-53759D01*
X70714Y-53854D01*
X70695Y-53892D01*
X70676Y-53911D01*
X70638Y-53930D01*
X70523Y-53930D01*
X70485Y-53911D01*
X70466Y-53892D01*
X48933Y-49642D02*
X48914Y-49661D01*
X48857Y-49680D01*
X48819Y-49680D01*
X48761Y-49661D01*
X48723Y-49623D01*
X48704Y-49585D01*
X48685Y-49509D01*
X48685Y-49452D01*
X48704Y-49376D01*
X48723Y-49338D01*
X48761Y-49300D01*
X48819Y-49280D01*
X48857Y-49280D01*
X48914Y-49300D01*
X48933Y-49319D01*
X49295Y-49280D02*
X49104Y-49280D01*
X49085Y-49471D01*
X49104Y-49452D01*
X49142Y-49433D01*
X49238Y-49433D01*
X49276Y-49452D01*
X49295Y-49471D01*
X49314Y-49509D01*
X49314Y-49604D01*
X49295Y-49642D01*
X49276Y-49661D01*
X49238Y-49680D01*
X49142Y-49680D01*
X49104Y-49661D01*
X49085Y-49642D01*
X61433Y-53192D02*
X61414Y-53211D01*
X61357Y-53230D01*
X61319Y-53230D01*
X61261Y-53211D01*
X61223Y-53173D01*
X61204Y-53135D01*
X61185Y-53059D01*
X61185Y-53002D01*
X61204Y-52926D01*
X61223Y-52888D01*
X61261Y-52850D01*
X61319Y-52830D01*
X61357Y-52830D01*
X61414Y-52850D01*
X61433Y-52869D01*
X61776Y-52830D02*
X61700Y-52830D01*
X61661Y-52850D01*
X61642Y-52869D01*
X61604Y-52926D01*
X61585Y-53002D01*
X61585Y-53154D01*
X61604Y-53192D01*
X61623Y-53211D01*
X61661Y-53230D01*
X61738Y-53230D01*
X61776Y-53211D01*
X61795Y-53192D01*
X61814Y-53154D01*
X61814Y-53059D01*
X61795Y-53021D01*
X61776Y-53002D01*
X61738Y-52983D01*
X61661Y-52983D01*
X61623Y-53002D01*
X61604Y-53021D01*
X61585Y-53059D01*
X51333Y-45842D02*
X51314Y-45861D01*
X51257Y-45880D01*
X51219Y-45880D01*
X51161Y-45861D01*
X51123Y-45823D01*
X51104Y-45785D01*
X51085Y-45709D01*
X51085Y-45652D01*
X51104Y-45576D01*
X51123Y-45538D01*
X51161Y-45500D01*
X51219Y-45480D01*
X51257Y-45480D01*
X51314Y-45500D01*
X51333Y-45519D01*
X51523Y-45880D02*
X51600Y-45880D01*
X51638Y-45861D01*
X51657Y-45842D01*
X51695Y-45785D01*
X51714Y-45709D01*
X51714Y-45557D01*
X51695Y-45519D01*
X51676Y-45500D01*
X51638Y-45480D01*
X51561Y-45480D01*
X51523Y-45500D01*
X51504Y-45519D01*
X51485Y-45557D01*
X51485Y-45652D01*
X51504Y-45690D01*
X51523Y-45709D01*
X51561Y-45728D01*
X51638Y-45728D01*
X51676Y-45709D01*
X51695Y-45690D01*
X51714Y-45652D01*
X63442Y-45842D02*
X63423Y-45861D01*
X63366Y-45880D01*
X63328Y-45880D01*
X63271Y-45861D01*
X63233Y-45823D01*
X63214Y-45785D01*
X63195Y-45709D01*
X63195Y-45652D01*
X63214Y-45576D01*
X63233Y-45538D01*
X63271Y-45500D01*
X63328Y-45480D01*
X63366Y-45480D01*
X63423Y-45500D01*
X63442Y-45519D01*
X63823Y-45880D02*
X63595Y-45880D01*
X63709Y-45880D02*
X63709Y-45480D01*
X63671Y-45538D01*
X63633Y-45576D01*
X63595Y-45595D01*
X64204Y-45880D02*
X63976Y-45880D01*
X64090Y-45880D02*
X64090Y-45480D01*
X64052Y-45538D01*
X64014Y-45576D01*
X63976Y-45595D01*
X73683Y-47580D02*
X73550Y-47390D01*
X73454Y-47580D02*
X73454Y-47180D01*
X73607Y-47180D01*
X73645Y-47200D01*
X73664Y-47219D01*
X73683Y-47257D01*
X73683Y-47314D01*
X73664Y-47352D01*
X73645Y-47371D01*
X73607Y-47390D01*
X73454Y-47390D01*
X73816Y-47180D02*
X74083Y-47180D01*
X73911Y-47580D01*
M02*
