%FSLAX34Y34*%
G04 Gerber Fmt 3.4, Leading zero omitted, Abs format*
G04 (created by PCBNEW (2014-jan-25)-product) date Sun 17 Aug 2014 06:32:25 PM PDT*
%MOIN*%
G01*
G70*
G90*
G04 APERTURE LIST*
%ADD10C,0.003937*%
%ADD11C,0.059100*%
%ADD12C,0.078700*%
%ADD13R,0.078700X0.078700*%
%ADD14C,0.236220*%
%ADD15R,0.068000X0.068000*%
%ADD16C,0.068000*%
%ADD17R,0.060000X0.060000*%
%ADD18C,0.060000*%
%ADD19R,0.055000X0.055000*%
%ADD20C,0.055000*%
%ADD21O,0.066900X0.137800*%
%ADD22R,0.380000X0.620000*%
%ADD23O,0.068000X0.068000*%
G04 APERTURE END LIST*
G54D10*
G54D11*
X48750Y-48250D03*
X48750Y-47250D03*
X63500Y-47500D03*
X62500Y-47500D03*
X49250Y-51750D03*
X49250Y-52750D03*
X72500Y-49750D03*
X72500Y-50750D03*
G54D12*
X73750Y-52250D03*
G54D13*
X73750Y-48250D03*
G54D14*
X41338Y-41338D03*
X76771Y-41338D03*
X41338Y-57086D03*
X76771Y-57086D03*
G54D15*
X40750Y-54500D03*
G54D16*
X41750Y-54500D03*
X42750Y-54500D03*
G54D17*
X41000Y-47250D03*
G54D18*
X42000Y-47250D03*
X41000Y-48250D03*
X42000Y-48250D03*
X41000Y-49250D03*
X42000Y-49250D03*
X41000Y-50250D03*
X42000Y-50250D03*
X41000Y-51250D03*
X42000Y-51250D03*
G54D15*
X44750Y-58000D03*
G54D16*
X45750Y-58000D03*
X46750Y-58000D03*
X47750Y-58000D03*
X48750Y-58000D03*
X49750Y-58000D03*
G54D12*
X49500Y-42000D03*
X49500Y-46000D03*
X54750Y-54000D03*
X58750Y-54000D03*
X49250Y-54000D03*
X53250Y-54000D03*
X52250Y-48500D03*
X52250Y-52500D03*
X54000Y-48500D03*
X54000Y-52500D03*
X48250Y-55000D03*
X44250Y-55000D03*
G54D13*
X77250Y-48220D03*
G54D12*
X77250Y-50780D03*
G54D19*
X54250Y-47250D03*
G54D20*
X55250Y-47250D03*
X56250Y-47250D03*
X57250Y-47250D03*
X58250Y-47250D03*
X59250Y-47250D03*
X60250Y-47250D03*
X60250Y-44250D03*
X59250Y-44250D03*
X58250Y-44250D03*
X57250Y-44250D03*
X56250Y-44250D03*
X55250Y-44250D03*
X54250Y-44250D03*
G54D21*
X46250Y-47750D03*
X45250Y-47750D03*
X47250Y-47750D03*
G54D22*
X46250Y-43050D03*
G54D19*
X44750Y-53750D03*
G54D20*
X45750Y-53750D03*
X46750Y-53750D03*
X47750Y-53750D03*
X47750Y-50750D03*
X46750Y-50750D03*
X45750Y-50750D03*
X44750Y-50750D03*
X57500Y-51750D03*
X58500Y-51750D03*
X59500Y-51750D03*
X60500Y-51750D03*
X61500Y-51750D03*
X62500Y-51750D03*
X63500Y-51750D03*
X64500Y-51750D03*
X65500Y-51750D03*
X66500Y-51750D03*
X67500Y-51750D03*
X68500Y-51750D03*
X69500Y-51750D03*
G54D19*
X56500Y-51750D03*
G54D20*
X69500Y-48750D03*
X68500Y-48750D03*
X67500Y-48750D03*
X66500Y-48750D03*
X65500Y-48750D03*
X64500Y-48750D03*
X63500Y-48750D03*
X62500Y-48750D03*
X61500Y-48750D03*
X60500Y-48750D03*
X59500Y-48750D03*
X58500Y-48750D03*
X57500Y-48750D03*
X56500Y-48750D03*
G54D19*
X66500Y-47250D03*
G54D20*
X67500Y-47250D03*
X68500Y-47250D03*
X69500Y-47250D03*
X70500Y-47250D03*
X71500Y-47250D03*
X72500Y-47250D03*
X72500Y-44250D03*
X71500Y-44250D03*
X70500Y-44250D03*
X69500Y-44250D03*
X68500Y-44250D03*
X67500Y-44250D03*
X66500Y-44250D03*
G54D11*
X65539Y-53750D03*
X67461Y-53750D03*
G54D15*
X54000Y-42000D03*
G54D23*
X54000Y-41000D03*
X55000Y-42000D03*
X55000Y-41000D03*
X56000Y-42000D03*
X56000Y-41000D03*
X57000Y-42000D03*
X57000Y-41000D03*
X58000Y-42000D03*
X58000Y-41000D03*
X59000Y-42000D03*
X59000Y-41000D03*
X60000Y-42000D03*
X60000Y-41000D03*
X61000Y-42000D03*
X61000Y-41000D03*
X62000Y-42000D03*
X62000Y-41000D03*
X63000Y-42000D03*
X63000Y-41000D03*
X64000Y-42000D03*
X64000Y-41000D03*
X65000Y-42000D03*
X65000Y-41000D03*
X66000Y-42000D03*
X66000Y-41000D03*
X67000Y-42000D03*
X67000Y-41000D03*
X68000Y-42000D03*
X68000Y-41000D03*
X69000Y-42000D03*
X69000Y-41000D03*
X70000Y-42000D03*
X70000Y-41000D03*
X71000Y-42000D03*
X71000Y-41000D03*
X72000Y-42000D03*
X72000Y-41000D03*
X73000Y-42000D03*
X73000Y-41000D03*
G54D15*
X54000Y-57500D03*
G54D23*
X54000Y-56500D03*
X55000Y-57500D03*
X55000Y-56500D03*
X56000Y-57500D03*
X56000Y-56500D03*
X57000Y-57500D03*
X57000Y-56500D03*
X58000Y-57500D03*
X58000Y-56500D03*
X59000Y-57500D03*
X59000Y-56500D03*
X60000Y-57500D03*
X60000Y-56500D03*
X61000Y-57500D03*
X61000Y-56500D03*
X62000Y-57500D03*
X62000Y-56500D03*
X63000Y-57500D03*
X63000Y-56500D03*
X64000Y-57500D03*
X64000Y-56500D03*
X65000Y-57500D03*
X65000Y-56500D03*
X66000Y-57500D03*
X66000Y-56500D03*
X67000Y-57500D03*
X67000Y-56500D03*
X68000Y-57500D03*
X68000Y-56500D03*
X69000Y-57500D03*
X69000Y-56500D03*
X70000Y-57500D03*
X70000Y-56500D03*
X71000Y-57500D03*
X71000Y-56500D03*
X72000Y-57500D03*
X72000Y-56500D03*
X73000Y-57500D03*
X73000Y-56500D03*
G54D11*
X63500Y-54250D03*
X62500Y-54250D03*
X44750Y-49500D03*
X45750Y-49500D03*
X69500Y-54250D03*
X69500Y-53250D03*
X48000Y-49500D03*
X47000Y-49500D03*
X62500Y-53000D03*
X63500Y-53000D03*
X52500Y-46250D03*
X52500Y-45250D03*
X64750Y-45250D03*
X64750Y-46250D03*
G54D12*
X75250Y-52250D03*
X75250Y-48250D03*
M02*
