%FSLAX36Y36*%
G04 Gerber Fmt 3.6, Leading zero omitted, Abs format (unit inch)*
G04 Created by KiCad (PCBNEW (2014-jul-16 BZR unknown)-product) date Sat 31 Jan 2015 11:05:03 PM PST*
%MOIN*%
G01*
G04 APERTURE LIST*
%ADD10C,0.003937*%
%ADD11C,0.008000*%
%ADD12C,0.012000*%
%ADD13C,0.015000*%
%ADD14C,0.010000*%
%ADD15C,0.005906*%
G04 APERTURE END LIST*
D10*
D11*
X5586429Y-5193095D02*
X5563571Y-5193095D01*
X5575000Y-5193095D02*
X5575000Y-5153095D01*
X5571191Y-5158810D01*
X5567381Y-5162619D01*
X5563571Y-5164524D01*
X5361429Y-4743095D02*
X5338571Y-4743095D01*
X5350000Y-4743095D02*
X5350000Y-4703095D01*
X5346191Y-4708810D01*
X5342381Y-4712619D01*
X5338571Y-4714524D01*
X6586429Y-4743095D02*
X6563571Y-4743095D01*
X6575000Y-4743095D02*
X6575000Y-4703095D01*
X6571191Y-4708810D01*
X6567381Y-4712619D01*
X6563571Y-4714524D01*
X7686429Y-5143095D02*
X7663571Y-5143095D01*
X7675000Y-5143095D02*
X7675000Y-5103095D01*
X7671191Y-5108810D01*
X7667381Y-5112619D01*
X7663571Y-5114524D01*
X3937008Y-5905512D02*
X3937008Y-3937008D01*
X7874016Y-5905512D02*
X3937008Y-5905512D01*
X7874016Y-3937008D02*
X7874016Y-5905512D01*
X3937008Y-3937008D02*
X7874016Y-3937008D01*
X5171429Y-4303095D02*
X5148571Y-4303095D01*
X5160000Y-4303095D02*
X5160000Y-4263095D01*
X5156191Y-4268810D01*
X5152381Y-4272619D01*
X5148571Y-4274524D01*
X7491905Y-5318095D02*
X7478571Y-5299048D01*
X7469048Y-5318095D02*
X7469048Y-5278095D01*
X7484286Y-5278095D01*
X7488095Y-5280000D01*
X7490000Y-5281905D01*
X7491905Y-5285714D01*
X7491905Y-5291429D01*
X7490000Y-5295238D01*
X7488095Y-5297143D01*
X7484286Y-5299048D01*
X7469048Y-5299048D01*
X7509048Y-5297143D02*
X7522381Y-5297143D01*
X7528095Y-5318095D02*
X7509048Y-5318095D01*
X7509048Y-5278095D01*
X7528095Y-5278095D01*
X7543333Y-5316190D02*
X7549048Y-5318095D01*
X7558571Y-5318095D01*
X7562381Y-5316190D01*
X7564286Y-5314286D01*
X7566190Y-5310476D01*
X7566190Y-5306667D01*
X7564286Y-5302857D01*
X7562381Y-5300952D01*
X7558571Y-5299048D01*
X7550952Y-5297143D01*
X7547143Y-5295238D01*
X7545238Y-5293333D01*
X7543333Y-5289524D01*
X7543333Y-5285714D01*
X7545238Y-5281905D01*
X7547143Y-5280000D01*
X7550952Y-5278095D01*
X7560476Y-5278095D01*
X7566190Y-5280000D01*
X7583333Y-5297143D02*
X7596667Y-5297143D01*
X7602381Y-5318095D02*
X7583333Y-5318095D01*
X7583333Y-5278095D01*
X7602381Y-5278095D01*
X7613810Y-5278095D02*
X7636667Y-5278095D01*
X7625238Y-5318095D02*
X7625238Y-5278095D01*
X4087619Y-5348095D02*
X4110476Y-5348095D01*
X4099048Y-5388095D02*
X4099048Y-5348095D01*
X4123810Y-5367143D02*
X4137143Y-5367143D01*
X4142857Y-5388095D02*
X4123810Y-5388095D01*
X4123810Y-5348095D01*
X4142857Y-5348095D01*
X4182857Y-5388095D02*
X4169524Y-5369048D01*
X4160000Y-5388095D02*
X4160000Y-5348095D01*
X4175238Y-5348095D01*
X4179048Y-5350000D01*
X4180952Y-5351905D01*
X4182857Y-5355714D01*
X4182857Y-5361429D01*
X4180952Y-5365238D01*
X4179048Y-5367143D01*
X4175238Y-5369048D01*
X4160000Y-5369048D01*
X4200000Y-5388095D02*
X4200000Y-5348095D01*
X4213333Y-5376667D01*
X4226667Y-5348095D01*
X4226667Y-5388095D01*
X7126429Y-5348143D02*
X7132143Y-5350048D01*
X7134048Y-5351952D01*
X7135952Y-5355762D01*
X7135952Y-5361476D01*
X7134048Y-5365286D01*
X7132143Y-5367190D01*
X7128333Y-5369095D01*
X7113095Y-5369095D01*
X7113095Y-5329095D01*
X7126429Y-5329095D01*
X7130238Y-5331000D01*
X7132143Y-5332905D01*
X7134048Y-5336714D01*
X7134048Y-5340524D01*
X7132143Y-5344333D01*
X7130238Y-5346238D01*
X7126429Y-5348143D01*
X7113095Y-5348143D01*
X7153095Y-5329095D02*
X7153095Y-5361476D01*
X7155000Y-5365286D01*
X7156905Y-5367190D01*
X7160714Y-5369095D01*
X7168333Y-5369095D01*
X7172143Y-5367190D01*
X7174048Y-5365286D01*
X7175952Y-5361476D01*
X7175952Y-5329095D01*
X7193095Y-5367190D02*
X7198810Y-5369095D01*
X7208333Y-5369095D01*
X7212143Y-5367190D01*
X7214048Y-5365286D01*
X7215952Y-5361476D01*
X7215952Y-5357667D01*
X7214048Y-5353857D01*
X7212143Y-5351952D01*
X7208333Y-5350048D01*
X7200714Y-5348143D01*
X7196905Y-5346238D01*
X7195000Y-5344333D01*
X7193095Y-5340524D01*
X7193095Y-5336714D01*
X7195000Y-5332905D01*
X7196905Y-5331000D01*
X7200714Y-5329095D01*
X7210238Y-5329095D01*
X7215952Y-5331000D01*
X7223571Y-5372905D02*
X7254048Y-5372905D01*
X7261667Y-5367190D02*
X7267381Y-5369095D01*
X7276905Y-5369095D01*
X7280714Y-5367190D01*
X7282619Y-5365286D01*
X7284524Y-5361476D01*
X7284524Y-5357667D01*
X7282619Y-5353857D01*
X7280714Y-5351952D01*
X7276905Y-5350048D01*
X7269286Y-5348143D01*
X7265476Y-5346238D01*
X7263571Y-5344333D01*
X7261667Y-5340524D01*
X7261667Y-5336714D01*
X7263571Y-5332905D01*
X7265476Y-5331000D01*
X7269286Y-5329095D01*
X7278810Y-5329095D01*
X7284524Y-5331000D01*
X7309286Y-5329095D02*
X7316905Y-5329095D01*
X7320714Y-5331000D01*
X7324524Y-5334810D01*
X7326429Y-5342429D01*
X7326429Y-5355762D01*
X7324524Y-5363381D01*
X7320714Y-5367190D01*
X7316905Y-5369095D01*
X7309286Y-5369095D01*
X7305476Y-5367190D01*
X7301667Y-5363381D01*
X7299762Y-5355762D01*
X7299762Y-5342429D01*
X7301667Y-5334810D01*
X7305476Y-5331000D01*
X7309286Y-5329095D01*
X7343571Y-5369095D02*
X7343571Y-5329095D01*
X7366429Y-5369095D01*
X7366429Y-5329095D01*
X7383571Y-5357667D02*
X7402619Y-5357667D01*
X7379762Y-5369095D02*
X7393095Y-5329095D01*
X7406429Y-5369095D01*
X7442619Y-5369095D02*
X7429286Y-5350048D01*
X7419762Y-5369095D02*
X7419762Y-5329095D01*
X7435000Y-5329095D01*
X7438810Y-5331000D01*
X7440714Y-5332905D01*
X7442619Y-5336714D01*
X7442619Y-5342429D01*
X7440714Y-5346238D01*
X7438810Y-5348143D01*
X7435000Y-5350048D01*
X7419762Y-5350048D01*
X7480714Y-5369095D02*
X7457857Y-5369095D01*
X7469286Y-5369095D02*
X7469286Y-5329095D01*
X7465476Y-5334810D01*
X7461667Y-5338619D01*
X7457857Y-5340524D01*
X7505476Y-5329095D02*
X7509286Y-5329095D01*
X7513095Y-5331000D01*
X7515000Y-5332905D01*
X7516905Y-5336714D01*
X7518810Y-5344333D01*
X7518810Y-5353857D01*
X7516905Y-5361476D01*
X7515000Y-5365286D01*
X7513095Y-5367190D01*
X7509286Y-5369095D01*
X7505476Y-5369095D01*
X7501667Y-5367190D01*
X7499762Y-5365286D01*
X7497857Y-5361476D01*
X7495952Y-5353857D01*
X7495952Y-5344333D01*
X7497857Y-5336714D01*
X7499762Y-5332905D01*
X7501667Y-5331000D01*
X7505476Y-5329095D01*
X7081667Y-5433095D02*
X7068333Y-5414048D01*
X7058810Y-5433095D02*
X7058810Y-5393095D01*
X7074048Y-5393095D01*
X7077857Y-5395000D01*
X7079762Y-5396905D01*
X7081667Y-5400714D01*
X7081667Y-5406429D01*
X7079762Y-5410238D01*
X7077857Y-5412143D01*
X7074048Y-5414048D01*
X7058810Y-5414048D01*
X7098810Y-5412143D02*
X7112143Y-5412143D01*
X7117857Y-5433095D02*
X7098810Y-5433095D01*
X7098810Y-5393095D01*
X7117857Y-5393095D01*
X7129286Y-5393095D02*
X7142619Y-5433095D01*
X7155952Y-5393095D01*
X7169286Y-5429286D02*
X7171191Y-5431190D01*
X7169286Y-5433095D01*
X7167381Y-5431190D01*
X7169286Y-5429286D01*
X7169286Y-5433095D01*
X7218810Y-5433095D02*
X7218810Y-5393095D01*
X7228333Y-5393095D01*
X7234048Y-5395000D01*
X7237857Y-5398810D01*
X7239762Y-5402619D01*
X7241667Y-5410238D01*
X7241667Y-5415952D01*
X7239762Y-5423571D01*
X7237857Y-5427381D01*
X7234048Y-5431190D01*
X7228333Y-5433095D01*
X7218810Y-5433095D01*
X7310238Y-5433095D02*
X7287381Y-5433095D01*
X7298810Y-5433095D02*
X7298810Y-5393095D01*
X7295000Y-5398810D01*
X7291191Y-5402619D01*
X7287381Y-5404524D01*
X7340714Y-5412143D02*
X7327381Y-5412143D01*
X7327381Y-5433095D02*
X7327381Y-5393095D01*
X7346429Y-5393095D01*
X7361667Y-5412143D02*
X7375000Y-5412143D01*
X7380714Y-5433095D02*
X7361667Y-5433095D01*
X7361667Y-5393095D01*
X7380714Y-5393095D01*
X7411190Y-5412143D02*
X7416905Y-5414048D01*
X7418810Y-5415952D01*
X7420714Y-5419762D01*
X7420714Y-5425476D01*
X7418810Y-5429286D01*
X7416905Y-5431190D01*
X7413095Y-5433095D01*
X7397857Y-5433095D01*
X7397857Y-5393095D01*
X7411190Y-5393095D01*
X7415000Y-5395000D01*
X7416905Y-5396905D01*
X7418810Y-5400714D01*
X7418810Y-5404524D01*
X7416905Y-5408333D01*
X7415000Y-5410238D01*
X7411190Y-5412143D01*
X7397857Y-5412143D01*
X7435952Y-5396905D02*
X7437857Y-5395000D01*
X7441667Y-5393095D01*
X7451190Y-5393095D01*
X7455000Y-5395000D01*
X7456905Y-5396905D01*
X7458810Y-5400714D01*
X7458810Y-5404524D01*
X7456905Y-5410238D01*
X7434048Y-5433095D01*
X7458810Y-5433095D01*
X7483571Y-5393095D02*
X7487381Y-5393095D01*
X7491190Y-5395000D01*
X7493095Y-5396905D01*
X7495000Y-5400714D01*
X7496905Y-5408333D01*
X7496905Y-5417857D01*
X7495000Y-5425476D01*
X7493095Y-5429286D01*
X7491190Y-5431190D01*
X7487381Y-5433095D01*
X7483571Y-5433095D01*
X7479762Y-5431190D01*
X7477857Y-5429286D01*
X7475952Y-5425476D01*
X7474048Y-5417857D01*
X7474048Y-5408333D01*
X7475952Y-5400714D01*
X7477857Y-5396905D01*
X7479762Y-5395000D01*
X7483571Y-5393095D01*
X7535000Y-5433095D02*
X7512143Y-5433095D01*
X7523571Y-5433095D02*
X7523571Y-5393095D01*
X7519762Y-5398810D01*
X7515952Y-5402619D01*
X7512143Y-5404524D01*
X7571190Y-5393095D02*
X7552143Y-5393095D01*
X7550238Y-5412143D01*
X7552143Y-5410238D01*
X7555952Y-5408333D01*
X7565476Y-5408333D01*
X7569286Y-5410238D01*
X7571190Y-5412143D01*
X7573095Y-5415952D01*
X7573095Y-5425476D01*
X7571190Y-5429286D01*
X7569286Y-5431190D01*
X7565476Y-5433095D01*
X7555952Y-5433095D01*
X7552143Y-5431190D01*
X7550238Y-5429286D01*
X7127381Y-5512333D02*
X7125476Y-5510429D01*
X7121667Y-5504714D01*
X7119762Y-5500905D01*
X7117857Y-5495190D01*
X7115952Y-5485667D01*
X7115952Y-5478048D01*
X7117857Y-5468524D01*
X7119762Y-5462810D01*
X7121667Y-5459000D01*
X7125476Y-5453286D01*
X7127381Y-5451381D01*
X7165476Y-5493286D02*
X7163571Y-5495190D01*
X7157857Y-5497095D01*
X7154048Y-5497095D01*
X7148333Y-5495190D01*
X7144524Y-5491381D01*
X7142619Y-5487571D01*
X7140714Y-5479952D01*
X7140714Y-5474238D01*
X7142619Y-5466619D01*
X7144524Y-5462810D01*
X7148333Y-5459000D01*
X7154048Y-5457095D01*
X7157857Y-5457095D01*
X7163571Y-5459000D01*
X7165476Y-5460905D01*
X7178810Y-5512333D02*
X7180714Y-5510429D01*
X7184524Y-5504714D01*
X7186429Y-5500905D01*
X7188333Y-5495190D01*
X7190238Y-5485667D01*
X7190238Y-5478048D01*
X7188333Y-5468524D01*
X7186429Y-5462810D01*
X7184524Y-5459000D01*
X7180714Y-5453286D01*
X7178810Y-5451381D01*
X7260714Y-5459000D02*
X7256905Y-5457095D01*
X7251190Y-5457095D01*
X7245476Y-5459000D01*
X7241667Y-5462810D01*
X7239762Y-5466619D01*
X7237857Y-5474238D01*
X7237857Y-5479952D01*
X7239762Y-5487571D01*
X7241667Y-5491381D01*
X7245476Y-5495190D01*
X7251190Y-5497095D01*
X7255000Y-5497095D01*
X7260714Y-5495190D01*
X7262619Y-5493286D01*
X7262619Y-5479952D01*
X7255000Y-5479952D01*
X7302619Y-5497095D02*
X7289286Y-5478048D01*
X7279762Y-5497095D02*
X7279762Y-5457095D01*
X7295000Y-5457095D01*
X7298809Y-5459000D01*
X7300714Y-5460905D01*
X7302619Y-5464714D01*
X7302619Y-5470429D01*
X7300714Y-5474238D01*
X7298809Y-5476143D01*
X7295000Y-5478048D01*
X7279762Y-5478048D01*
X7317857Y-5485667D02*
X7336905Y-5485667D01*
X7314048Y-5497095D02*
X7327381Y-5457095D01*
X7340714Y-5497095D01*
X7354048Y-5497095D02*
X7354048Y-5457095D01*
X7367381Y-5485667D01*
X7380714Y-5457095D01*
X7380714Y-5497095D01*
X7418809Y-5497095D02*
X7399762Y-5497095D01*
X7399762Y-5457095D01*
X7432143Y-5497095D02*
X7432143Y-5457095D01*
X7474048Y-5493286D02*
X7472143Y-5495190D01*
X7466429Y-5497095D01*
X7462619Y-5497095D01*
X7456905Y-5495190D01*
X7453095Y-5491381D01*
X7451190Y-5487571D01*
X7449286Y-5479952D01*
X7449286Y-5474238D01*
X7451190Y-5466619D01*
X7453095Y-5462810D01*
X7456905Y-5459000D01*
X7462619Y-5457095D01*
X7466429Y-5457095D01*
X7472143Y-5459000D01*
X7474048Y-5460905D01*
X7491190Y-5497095D02*
X7491190Y-5457095D01*
X7491190Y-5476143D02*
X7514048Y-5476143D01*
X7514048Y-5497095D02*
X7514048Y-5457095D01*
X4106429Y-4503095D02*
X4083571Y-4503095D01*
X4095000Y-4503095D02*
X4095000Y-4463095D01*
X4091191Y-4468810D01*
X4087381Y-4472619D01*
X4083571Y-4474524D01*
X5176429Y-5773095D02*
X5153571Y-5773095D01*
X5165000Y-5773095D02*
X5165000Y-5733095D01*
X5161191Y-5738810D01*
X5157381Y-5742619D01*
X5153571Y-5744524D01*
X4074048Y-5528095D02*
X4081667Y-5528095D01*
X4085476Y-5530000D01*
X4089286Y-5533810D01*
X4091190Y-5541429D01*
X4091190Y-5554762D01*
X4089286Y-5562381D01*
X4085476Y-5566190D01*
X4081667Y-5568095D01*
X4074048Y-5568095D01*
X4070238Y-5566190D01*
X4066429Y-5562381D01*
X4064524Y-5554762D01*
X4064524Y-5541429D01*
X4066429Y-5533810D01*
X4070238Y-5530000D01*
X4074048Y-5528095D01*
X4108333Y-5568095D02*
X4108333Y-5528095D01*
X4131190Y-5568095D01*
X4131190Y-5528095D01*
X4178810Y-5526190D02*
X4144524Y-5577619D01*
X4199762Y-5528095D02*
X4207381Y-5528095D01*
X4211190Y-5530000D01*
X4215000Y-5533810D01*
X4216905Y-5541429D01*
X4216905Y-5554762D01*
X4215000Y-5562381D01*
X4211190Y-5566190D01*
X4207381Y-5568095D01*
X4199762Y-5568095D01*
X4195952Y-5566190D01*
X4192143Y-5562381D01*
X4190238Y-5554762D01*
X4190238Y-5541429D01*
X4192143Y-5533810D01*
X4195952Y-5530000D01*
X4199762Y-5528095D01*
X4247381Y-5547143D02*
X4234048Y-5547143D01*
X4234048Y-5568095D02*
X4234048Y-5528095D01*
X4253095Y-5528095D01*
X4281667Y-5547143D02*
X4268333Y-5547143D01*
X4268333Y-5568095D02*
X4268333Y-5528095D01*
X4287381Y-5528095D01*
X4401429Y-5813095D02*
X4378571Y-5813095D01*
X4390000Y-5813095D02*
X4390000Y-5773095D01*
X4386191Y-5778810D01*
X4382381Y-5782619D01*
X4378571Y-5784524D01*
X4477381Y-5707143D02*
X4483095Y-5709048D01*
X4485000Y-5710952D01*
X4486905Y-5714762D01*
X4486905Y-5720476D01*
X4485000Y-5724286D01*
X4483095Y-5726190D01*
X4479286Y-5728095D01*
X4464048Y-5728095D01*
X4464048Y-5688095D01*
X4477381Y-5688095D01*
X4481191Y-5690000D01*
X4483095Y-5691905D01*
X4485000Y-5695714D01*
X4485000Y-5699524D01*
X4483095Y-5703333D01*
X4481191Y-5705238D01*
X4477381Y-5707143D01*
X4464048Y-5707143D01*
X4578333Y-5707143D02*
X4584048Y-5709048D01*
X4585952Y-5710952D01*
X4587857Y-5714762D01*
X4587857Y-5720476D01*
X4585952Y-5724286D01*
X4584048Y-5726190D01*
X4580238Y-5728095D01*
X4565000Y-5728095D01*
X4565000Y-5688095D01*
X4578333Y-5688095D01*
X4582143Y-5690000D01*
X4584048Y-5691905D01*
X4585952Y-5695714D01*
X4585952Y-5699524D01*
X4584048Y-5703333D01*
X4582143Y-5705238D01*
X4578333Y-5707143D01*
X4565000Y-5707143D01*
X4688810Y-5728095D02*
X4675476Y-5709048D01*
X4665952Y-5728095D02*
X4665952Y-5688095D01*
X4681190Y-5688095D01*
X4685000Y-5690000D01*
X4686905Y-5691905D01*
X4688810Y-5695714D01*
X4688810Y-5701429D01*
X4686905Y-5705238D01*
X4685000Y-5707143D01*
X4681190Y-5709048D01*
X4665952Y-5709048D01*
X4774524Y-5709048D02*
X4774524Y-5728095D01*
X4761190Y-5688095D02*
X4774524Y-5709048D01*
X4787857Y-5688095D01*
X4869762Y-5688095D02*
X4877381Y-5688095D01*
X4881190Y-5690000D01*
X4885000Y-5693810D01*
X4886905Y-5701429D01*
X4886905Y-5714762D01*
X4885000Y-5722381D01*
X4881190Y-5726190D01*
X4877381Y-5728095D01*
X4869762Y-5728095D01*
X4865952Y-5726190D01*
X4862143Y-5722381D01*
X4860238Y-5714762D01*
X4860238Y-5701429D01*
X4862143Y-5693810D01*
X4865952Y-5690000D01*
X4869762Y-5688095D01*
X4985952Y-5690000D02*
X4982143Y-5688095D01*
X4976429Y-5688095D01*
X4970714Y-5690000D01*
X4966905Y-5693810D01*
X4965000Y-5697619D01*
X4963095Y-5705238D01*
X4963095Y-5710952D01*
X4965000Y-5718571D01*
X4966905Y-5722381D01*
X4970714Y-5726190D01*
X4976429Y-5728095D01*
X4980238Y-5728095D01*
X4985952Y-5726190D01*
X4987857Y-5724286D01*
X4987857Y-5710952D01*
X4980238Y-5710952D01*
X4890238Y-5002857D02*
X4859762Y-5002857D01*
X4875000Y-5018095D02*
X4875000Y-4987619D01*
X4415238Y-5002857D02*
X4384762Y-5002857D01*
X4400000Y-5018095D02*
X4400000Y-4987619D01*
D12*
X6398000Y-5475000D02*
X6200000Y-5475000D01*
X6200000Y-5475000D02*
X6200000Y-5375000D01*
X6200000Y-5375000D02*
X6400000Y-5375000D01*
X6400000Y-5375000D02*
X6400000Y-5475000D01*
X6400000Y-5450000D02*
X6375000Y-5475000D01*
D13*
X4605000Y-4900000D02*
X4445000Y-4900000D01*
X4445000Y-5000000D02*
X4605000Y-5000000D01*
D12*
X6900000Y-5473000D02*
X6900000Y-5275000D01*
X6900000Y-5275000D02*
X7000000Y-5275000D01*
X7000000Y-5275000D02*
X7000000Y-5475000D01*
X7000000Y-5475000D02*
X6900000Y-5475000D01*
X6925000Y-5475000D02*
X6900000Y-5450000D01*
X4825000Y-4873000D02*
X4825000Y-4675000D01*
X4825000Y-4675000D02*
X4925000Y-4675000D01*
X4925000Y-4675000D02*
X4925000Y-4875000D01*
X4925000Y-4875000D02*
X4825000Y-4875000D01*
X4850000Y-4875000D02*
X4825000Y-4850000D01*
D13*
X4670000Y-5000000D02*
X4830000Y-5000000D01*
X4830000Y-4900000D02*
X4670000Y-4900000D01*
D12*
X6202000Y-5250000D02*
X6400000Y-5250000D01*
X6400000Y-5250000D02*
X6400000Y-5350000D01*
X6400000Y-5350000D02*
X6200000Y-5350000D01*
X6200000Y-5350000D02*
X6200000Y-5250000D01*
X6200000Y-5275000D02*
X6225000Y-5250000D01*
X6398000Y-4800000D02*
X6200000Y-4800000D01*
X6200000Y-4800000D02*
X6200000Y-4700000D01*
X6200000Y-4700000D02*
X6400000Y-4700000D01*
X6400000Y-4700000D02*
X6400000Y-4800000D01*
X6400000Y-4775000D02*
X6375000Y-4800000D01*
X4975000Y-5127000D02*
X4975000Y-5325000D01*
X4975000Y-5325000D02*
X4875000Y-5325000D01*
X4875000Y-5325000D02*
X4875000Y-5125000D01*
X4875000Y-5125000D02*
X4975000Y-5125000D01*
X4950000Y-5125000D02*
X4975000Y-5150000D01*
X5200000Y-4673000D02*
X5200000Y-4475000D01*
X5200000Y-4475000D02*
X5300000Y-4475000D01*
X5300000Y-4475000D02*
X5300000Y-4675000D01*
X5300000Y-4675000D02*
X5200000Y-4675000D01*
X5225000Y-4675000D02*
X5200000Y-4650000D01*
X7300000Y-4927000D02*
X7300000Y-5125000D01*
X7300000Y-5125000D02*
X7200000Y-5125000D01*
X7200000Y-5125000D02*
X7200000Y-4925000D01*
X7200000Y-4925000D02*
X7300000Y-4925000D01*
X7275000Y-4925000D02*
X7300000Y-4950000D01*
X7525000Y-4477000D02*
X7525000Y-4675000D01*
X7525000Y-4675000D02*
X7425000Y-4675000D01*
X7425000Y-4675000D02*
X7425000Y-4475000D01*
X7425000Y-4475000D02*
X7525000Y-4475000D01*
X7500000Y-4475000D02*
X7525000Y-4500000D01*
D13*
X7375000Y-5125000D02*
X7375000Y-5165000D01*
X7375000Y-4935000D02*
X7375000Y-4885000D01*
D14*
X7325000Y-4945000D02*
X7425000Y-4945000D01*
X7325000Y-4955000D02*
X7425000Y-4955000D01*
X7325000Y-4965000D02*
X7425000Y-4965000D01*
X7325000Y-4935000D02*
X7425000Y-4935000D01*
X7325000Y-4975000D02*
X7425000Y-4925000D01*
X7325000Y-4925000D02*
X7425000Y-4975000D01*
X7325000Y-4975000D02*
X7425000Y-4975000D01*
X7325000Y-4950000D02*
X7425000Y-4950000D01*
X7425000Y-4925000D02*
X7325000Y-4925000D01*
X7325000Y-4925000D02*
X7325000Y-5125000D01*
X7325000Y-5125000D02*
X7425000Y-5125000D01*
X7425000Y-5125000D02*
X7425000Y-4925000D01*
X4125000Y-5500000D02*
X4325000Y-5500000D01*
X4325000Y-5500000D02*
X4325000Y-5400000D01*
X4325000Y-5400000D02*
X4125000Y-5400000D01*
X4025000Y-5400000D02*
X4125000Y-5400000D01*
X4125000Y-5400000D02*
X4125000Y-5500000D01*
X4025000Y-5400000D02*
X4025000Y-5500000D01*
X4025000Y-5500000D02*
X4125000Y-5500000D01*
D15*
X3930000Y-4725000D02*
X3960000Y-4705000D01*
X3930000Y-4725000D02*
X3960000Y-4745000D01*
D14*
X3960000Y-5015000D02*
X3980000Y-5015000D01*
X3980000Y-5015000D02*
X3980000Y-4835000D01*
X3980000Y-4835000D02*
X3960000Y-4835000D01*
X4340000Y-4525000D02*
X4340000Y-5325000D01*
X4340000Y-5325000D02*
X3960000Y-5325000D01*
X3960000Y-5325000D02*
X3960000Y-4525000D01*
X3960000Y-4525000D02*
X4340000Y-4525000D01*
X4525000Y-5750000D02*
X5025000Y-5750000D01*
X5025000Y-5750000D02*
X5025000Y-5850000D01*
X5025000Y-5850000D02*
X4525000Y-5850000D01*
X4425000Y-5750000D02*
X4525000Y-5750000D01*
X4525000Y-5750000D02*
X4525000Y-5850000D01*
X4425000Y-5750000D02*
X4425000Y-5850000D01*
X4425000Y-5850000D02*
X4525000Y-5850000D01*
D15*
X6261500Y-4329000D02*
X6261500Y-4276000D01*
X6261500Y-4276000D02*
X6438500Y-4276000D01*
X6438500Y-4276000D02*
X6438500Y-4329000D01*
X5200000Y-3971000D02*
X7500000Y-3971000D01*
X7500000Y-3971000D02*
X7500000Y-4329000D01*
X7500000Y-4329000D02*
X5200000Y-4329000D01*
X5200000Y-4329000D02*
X5200000Y-3971000D01*
X6261500Y-5879000D02*
X6261500Y-5826000D01*
X6261500Y-5826000D02*
X6438500Y-5826000D01*
X6438500Y-5826000D02*
X6438500Y-5879000D01*
X5200000Y-5521000D02*
X7500000Y-5521000D01*
X7500000Y-5521000D02*
X7500000Y-5879000D01*
X7500000Y-5879000D02*
X5200000Y-5879000D01*
X5200000Y-5879000D02*
X5200000Y-5521000D01*
X4950000Y-4500000D02*
X4950000Y-4550000D01*
X4950000Y-4300000D02*
X4950000Y-4250000D01*
X5000000Y-4300000D02*
X4900000Y-4300000D01*
X4900000Y-4300000D02*
X4900000Y-4500000D01*
X4900000Y-4500000D02*
X5000000Y-4500000D01*
X5000000Y-4500000D02*
X5000000Y-4300000D01*
X5775000Y-5400000D02*
X5825000Y-5400000D01*
X5575000Y-5400000D02*
X5525000Y-5400000D01*
X5575000Y-5350000D02*
X5575000Y-5450000D01*
X5575000Y-5450000D02*
X5775000Y-5450000D01*
X5775000Y-5450000D02*
X5775000Y-5350000D01*
X5775000Y-5350000D02*
X5575000Y-5350000D01*
X5225000Y-5400000D02*
X5275000Y-5400000D01*
X5025000Y-5400000D02*
X4975000Y-5400000D01*
X5025000Y-5350000D02*
X5025000Y-5450000D01*
X5025000Y-5450000D02*
X5225000Y-5450000D01*
X5225000Y-5450000D02*
X5225000Y-5350000D01*
X5225000Y-5350000D02*
X5025000Y-5350000D01*
X5250000Y-5150000D02*
X5250000Y-5200000D01*
X5250000Y-4950000D02*
X5250000Y-4900000D01*
X5300000Y-4950000D02*
X5200000Y-4950000D01*
X5200000Y-4950000D02*
X5200000Y-5150000D01*
X5200000Y-5150000D02*
X5300000Y-5150000D01*
X5300000Y-5150000D02*
X5300000Y-4950000D01*
X5400000Y-5150000D02*
X5400000Y-5200000D01*
X5400000Y-4950000D02*
X5400000Y-4900000D01*
X5450000Y-4950000D02*
X5350000Y-4950000D01*
X5350000Y-4950000D02*
X5350000Y-5150000D01*
X5350000Y-5150000D02*
X5450000Y-5150000D01*
X5450000Y-5150000D02*
X5450000Y-4950000D01*
X4525000Y-5500000D02*
X4475000Y-5500000D01*
X4725000Y-5500000D02*
X4775000Y-5500000D01*
X4725000Y-5550000D02*
X4725000Y-5450000D01*
X4725000Y-5450000D02*
X4525000Y-5450000D01*
X4525000Y-5450000D02*
X4525000Y-5550000D01*
X4525000Y-5550000D02*
X4725000Y-5550000D01*
X7525000Y-4925000D02*
X7525000Y-4875000D01*
X7525000Y-5125000D02*
X7525000Y-5175000D01*
X7475000Y-5125000D02*
X7575000Y-5125000D01*
X7575000Y-5125000D02*
X7575000Y-4925000D01*
X7575000Y-4925000D02*
X7475000Y-4925000D01*
X7475000Y-4925000D02*
X7475000Y-5125000D01*
D13*
X7656100Y-5518100D02*
X7665900Y-5518100D01*
X7656100Y-5281900D02*
X7665900Y-5281900D01*
X7793900Y-5518100D02*
X7784100Y-5518100D01*
X7793900Y-5281900D02*
X7784100Y-5281900D01*
X7656100Y-5281900D02*
X7656100Y-5518100D01*
X7793900Y-5281900D02*
X7793900Y-5518100D01*
X5325000Y-4475000D02*
X6125000Y-4475000D01*
X6125000Y-4675000D02*
X5325000Y-4675000D01*
X5325000Y-4675000D02*
X5325000Y-4475000D01*
X5325000Y-4525000D02*
X5375000Y-4525000D01*
X5375000Y-4525000D02*
X5375000Y-4625000D01*
X5375000Y-4625000D02*
X5325000Y-4625000D01*
X6125000Y-4475000D02*
X6125000Y-4675000D01*
X4525000Y-4630000D02*
X4525000Y-4685000D01*
X4625000Y-4630000D02*
X4625000Y-4685000D01*
X4725000Y-4630000D02*
X4725000Y-4685000D01*
X4723995Y-4115000D02*
G75*
G03X4723995Y-4115000I-98995J0D01*
G74*
G01*
X4835000Y-4295000D02*
X4835000Y-3980000D01*
X4835000Y-3980000D02*
X4415000Y-3980000D01*
X4415000Y-3980000D02*
X4415000Y-4295000D01*
X4835000Y-4630000D02*
X4835000Y-4295000D01*
X4835000Y-4295000D02*
X4415000Y-4295000D01*
X4415000Y-4295000D02*
X4415000Y-4630000D01*
X4625000Y-4630000D02*
X4415000Y-4630000D01*
X4625000Y-4630000D02*
X4835000Y-4630000D01*
D14*
X4425000Y-5175000D02*
X4475000Y-5175000D01*
X4475000Y-5175000D02*
X4475000Y-5275000D01*
X4475000Y-5275000D02*
X4425000Y-5275000D01*
X4425000Y-5125000D02*
X4825000Y-5125000D01*
X4825000Y-5125000D02*
X4825000Y-5325000D01*
X4825000Y-5325000D02*
X4425000Y-5325000D01*
X4425000Y-5325000D02*
X4425000Y-5125000D01*
D13*
X5550000Y-4925000D02*
X7050000Y-4925000D01*
X7050000Y-4925000D02*
X7050000Y-5125000D01*
X7050000Y-5125000D02*
X5550000Y-5125000D01*
X5550000Y-5125000D02*
X5550000Y-4925000D01*
X5550000Y-4975000D02*
X5600000Y-4975000D01*
X5600000Y-4975000D02*
X5600000Y-5075000D01*
X5600000Y-5075000D02*
X5550000Y-5075000D01*
X6550000Y-4475000D02*
X7350000Y-4475000D01*
X7350000Y-4675000D02*
X6550000Y-4675000D01*
X6550000Y-4675000D02*
X6550000Y-4475000D01*
X6550000Y-4525000D02*
X6600000Y-4525000D01*
X6600000Y-4525000D02*
X6600000Y-4625000D01*
X6600000Y-4625000D02*
X6550000Y-4625000D01*
X7350000Y-4475000D02*
X7350000Y-4675000D01*
X6835000Y-5335600D02*
X6842900Y-5351400D01*
X6842900Y-5351400D02*
X6846900Y-5375000D01*
X6846900Y-5375000D02*
X6842900Y-5394700D01*
X6842900Y-5394700D02*
X6827200Y-5422200D01*
X6827200Y-5422200D02*
X6803500Y-5438000D01*
X6803500Y-5438000D02*
X6779900Y-5445900D01*
X6779900Y-5445900D02*
X6520100Y-5445900D01*
X6520100Y-5445900D02*
X6492500Y-5438000D01*
X6492500Y-5438000D02*
X6476800Y-5426200D01*
X6476800Y-5426200D02*
X6461000Y-5406500D01*
X6461000Y-5406500D02*
X6453100Y-5382900D01*
X6453100Y-5382900D02*
X6453100Y-5363200D01*
X6453100Y-5363200D02*
X6461000Y-5343500D01*
X6461000Y-5343500D02*
X6480700Y-5319900D01*
X6480700Y-5319900D02*
X6500400Y-5308100D01*
X6500400Y-5308100D02*
X6520100Y-5304100D01*
X6524000Y-5304100D02*
X6783900Y-5304100D01*
X6783900Y-5304100D02*
X6799600Y-5308100D01*
X6799600Y-5308100D02*
X6819300Y-5319900D01*
X6819300Y-5319900D02*
X6839000Y-5339600D01*
X6524400Y-5283300D02*
X6506300Y-5285200D01*
X6506300Y-5285200D02*
X6490600Y-5289600D01*
X6490600Y-5289600D02*
X6473600Y-5298200D01*
X6473600Y-5298200D02*
X6462200Y-5307300D01*
X6462200Y-5307300D02*
X6449200Y-5321100D01*
X6449200Y-5321100D02*
X6437800Y-5342300D01*
X6437800Y-5342300D02*
X6432700Y-5365900D01*
X6432700Y-5365900D02*
X6432700Y-5386000D01*
X6432700Y-5386000D02*
X6439400Y-5413600D01*
X6439400Y-5413600D02*
X6455100Y-5436800D01*
X6455100Y-5436800D02*
X6473200Y-5451400D01*
X6473200Y-5451400D02*
X6489800Y-5459600D01*
X6489800Y-5459600D02*
X6507500Y-5465900D01*
X6507500Y-5465900D02*
X6524800Y-5467100D01*
X6813800Y-5458500D02*
X6828700Y-5449800D01*
X6828700Y-5449800D02*
X6841300Y-5438800D01*
X6841300Y-5438800D02*
X6851200Y-5425800D01*
X6851200Y-5425800D02*
X6863000Y-5404100D01*
X6863000Y-5404100D02*
X6867300Y-5385600D01*
X6867300Y-5385600D02*
X6868100Y-5367500D01*
X6868100Y-5367500D02*
X6864600Y-5349400D01*
X6864600Y-5349400D02*
X6857100Y-5331700D01*
X6857100Y-5331700D02*
X6842900Y-5313200D01*
X6842900Y-5313200D02*
X6829100Y-5300600D01*
X6829100Y-5300600D02*
X6813800Y-5291500D01*
X6813800Y-5291500D02*
X6796900Y-5286000D01*
X6796900Y-5286000D02*
X6779500Y-5283300D01*
X6524000Y-5466700D02*
X6778000Y-5466700D01*
X6778000Y-5466700D02*
X6794500Y-5465200D01*
X6794500Y-5465200D02*
X6813800Y-5458500D01*
X6524000Y-5283300D02*
X6778000Y-5283300D01*
D15*
X4525000Y-5625000D02*
X4475000Y-5625000D01*
X4725000Y-5625000D02*
X4775000Y-5625000D01*
X4725000Y-5675000D02*
X4725000Y-5575000D01*
X4725000Y-5575000D02*
X4525000Y-5575000D01*
X4525000Y-5575000D02*
X4525000Y-5675000D01*
X4525000Y-5675000D02*
X4725000Y-5675000D01*
X5125000Y-4675000D02*
X5125000Y-4725000D01*
X5125000Y-4475000D02*
X5125000Y-4425000D01*
X5175000Y-4475000D02*
X5075000Y-4475000D01*
X5075000Y-4475000D02*
X5075000Y-4675000D01*
X5075000Y-4675000D02*
X5175000Y-4675000D01*
X5175000Y-4675000D02*
X5175000Y-4475000D01*
X4955000Y-4885000D02*
G75*
G03X4985000Y-5045000I95000J-65000D01*
G74*
G01*
X4985000Y-5045000D02*
X5115000Y-5045000D01*
X5115000Y-5045000D02*
G75*
G03X4955000Y-5015000I-65000J95000D01*
G74*
G01*
X7700000Y-5075000D02*
X7700000Y-4275000D01*
X7700000Y-4275000D02*
X7800000Y-4275000D01*
X7800000Y-4275000D02*
X7800000Y-5075000D01*
X7700000Y-5175000D02*
X7700000Y-5075000D01*
X7700000Y-5075000D02*
X7800000Y-5075000D01*
X7700000Y-5175000D02*
X7800000Y-5175000D01*
X7800000Y-5175000D02*
X7800000Y-5075000D01*
X6175000Y-4450000D02*
X6275000Y-4450000D01*
X6275000Y-4450000D02*
X6275000Y-4550000D01*
X6175000Y-4550000D02*
X6475000Y-4550000D01*
X6475000Y-4550000D02*
X6475000Y-4350000D01*
X6475000Y-4350000D02*
X6275000Y-4350000D01*
X6175000Y-4550000D02*
X6175000Y-4450000D01*
X6175000Y-4350000D02*
X6175000Y-4450000D01*
X6275000Y-4350000D02*
X6175000Y-4350000D01*
D11*
X6143333Y-5439286D02*
X6141429Y-5441190D01*
X6135714Y-5443095D01*
X6131905Y-5443095D01*
X6126191Y-5441190D01*
X6122381Y-5437381D01*
X6120476Y-5433571D01*
X6118571Y-5425952D01*
X6118571Y-5420238D01*
X6120476Y-5412619D01*
X6122381Y-5408810D01*
X6126191Y-5405000D01*
X6131905Y-5403095D01*
X6135714Y-5403095D01*
X6141429Y-5405000D01*
X6143333Y-5406905D01*
X6181429Y-5443095D02*
X6158571Y-5443095D01*
X6170000Y-5443095D02*
X6170000Y-5403095D01*
X6166191Y-5408810D01*
X6162381Y-5412619D01*
X6158571Y-5414524D01*
X4393333Y-4964286D02*
X4391429Y-4966190D01*
X4385714Y-4968095D01*
X4381905Y-4968095D01*
X4376191Y-4966190D01*
X4372381Y-4962381D01*
X4370476Y-4958571D01*
X4368571Y-4950952D01*
X4368571Y-4945238D01*
X4370476Y-4937619D01*
X4372381Y-4933810D01*
X4376191Y-4930000D01*
X4381905Y-4928095D01*
X4385714Y-4928095D01*
X4391429Y-4930000D01*
X4393333Y-4931905D01*
X4408571Y-4931905D02*
X4410476Y-4930000D01*
X4414286Y-4928095D01*
X4423810Y-4928095D01*
X4427619Y-4930000D01*
X4429524Y-4931905D01*
X4431429Y-4935714D01*
X4431429Y-4939524D01*
X4429524Y-4945238D01*
X4406667Y-4968095D01*
X4431429Y-4968095D01*
X7043333Y-5314286D02*
X7041429Y-5316190D01*
X7035714Y-5318095D01*
X7031905Y-5318095D01*
X7026191Y-5316190D01*
X7022381Y-5312381D01*
X7020476Y-5308571D01*
X7018571Y-5300952D01*
X7018571Y-5295238D01*
X7020476Y-5287619D01*
X7022381Y-5283810D01*
X7026191Y-5280000D01*
X7031905Y-5278095D01*
X7035714Y-5278095D01*
X7041429Y-5280000D01*
X7043333Y-5281905D01*
X7056667Y-5278095D02*
X7081429Y-5278095D01*
X7068095Y-5293333D01*
X7073810Y-5293333D01*
X7077619Y-5295238D01*
X7079524Y-5297143D01*
X7081429Y-5300952D01*
X7081429Y-5310476D01*
X7079524Y-5314286D01*
X7077619Y-5316190D01*
X7073810Y-5318095D01*
X7062381Y-5318095D01*
X7058571Y-5316190D01*
X7056667Y-5314286D01*
X4968333Y-4739286D02*
X4966429Y-4741190D01*
X4960714Y-4743095D01*
X4956905Y-4743095D01*
X4951191Y-4741190D01*
X4947381Y-4737381D01*
X4945476Y-4733571D01*
X4943571Y-4725952D01*
X4943571Y-4720238D01*
X4945476Y-4712619D01*
X4947381Y-4708810D01*
X4951191Y-4705000D01*
X4956905Y-4703095D01*
X4960714Y-4703095D01*
X4966429Y-4705000D01*
X4968333Y-4706905D01*
X5002619Y-4716429D02*
X5002619Y-4743095D01*
X4993095Y-4701190D02*
X4983571Y-4729762D01*
X5008333Y-4729762D01*
X4868333Y-4964286D02*
X4866429Y-4966190D01*
X4860714Y-4968095D01*
X4856905Y-4968095D01*
X4851191Y-4966190D01*
X4847381Y-4962381D01*
X4845476Y-4958571D01*
X4843571Y-4950952D01*
X4843571Y-4945238D01*
X4845476Y-4937619D01*
X4847381Y-4933810D01*
X4851191Y-4930000D01*
X4856905Y-4928095D01*
X4860714Y-4928095D01*
X4866429Y-4930000D01*
X4868333Y-4931905D01*
X4904524Y-4928095D02*
X4885476Y-4928095D01*
X4883571Y-4947143D01*
X4885476Y-4945238D01*
X4889286Y-4943333D01*
X4898810Y-4943333D01*
X4902619Y-4945238D01*
X4904524Y-4947143D01*
X4906429Y-4950952D01*
X4906429Y-4960476D01*
X4904524Y-4964286D01*
X4902619Y-4966190D01*
X4898810Y-4968095D01*
X4889286Y-4968095D01*
X4885476Y-4966190D01*
X4883571Y-4964286D01*
X6143333Y-5314286D02*
X6141429Y-5316190D01*
X6135714Y-5318095D01*
X6131905Y-5318095D01*
X6126191Y-5316190D01*
X6122381Y-5312381D01*
X6120476Y-5308571D01*
X6118571Y-5300952D01*
X6118571Y-5295238D01*
X6120476Y-5287619D01*
X6122381Y-5283810D01*
X6126191Y-5280000D01*
X6131905Y-5278095D01*
X6135714Y-5278095D01*
X6141429Y-5280000D01*
X6143333Y-5281905D01*
X6177619Y-5278095D02*
X6170000Y-5278095D01*
X6166191Y-5280000D01*
X6164286Y-5281905D01*
X6160476Y-5287619D01*
X6158571Y-5295238D01*
X6158571Y-5310476D01*
X6160476Y-5314286D01*
X6162381Y-5316190D01*
X6166191Y-5318095D01*
X6173810Y-5318095D01*
X6177619Y-5316190D01*
X6179524Y-5314286D01*
X6181429Y-5310476D01*
X6181429Y-5300952D01*
X6179524Y-5297143D01*
X6177619Y-5295238D01*
X6173810Y-5293333D01*
X6166191Y-5293333D01*
X6162381Y-5295238D01*
X6160476Y-5297143D01*
X6158571Y-5300952D01*
X6443333Y-4764286D02*
X6441429Y-4766190D01*
X6435714Y-4768095D01*
X6431905Y-4768095D01*
X6426191Y-4766190D01*
X6422381Y-4762381D01*
X6420476Y-4758571D01*
X6418571Y-4750952D01*
X6418571Y-4745238D01*
X6420476Y-4737619D01*
X6422381Y-4733810D01*
X6426191Y-4730000D01*
X6431905Y-4728095D01*
X6435714Y-4728095D01*
X6441429Y-4730000D01*
X6443333Y-4731905D01*
X6456667Y-4728095D02*
X6483333Y-4728095D01*
X6466191Y-4768095D01*
X5018333Y-5239286D02*
X5016429Y-5241190D01*
X5010714Y-5243095D01*
X5006905Y-5243095D01*
X5001191Y-5241190D01*
X4997381Y-5237381D01*
X4995476Y-5233571D01*
X4993571Y-5225952D01*
X4993571Y-5220238D01*
X4995476Y-5212619D01*
X4997381Y-5208810D01*
X5001191Y-5205000D01*
X5006905Y-5203095D01*
X5010714Y-5203095D01*
X5016429Y-5205000D01*
X5018333Y-5206905D01*
X5041191Y-5220238D02*
X5037381Y-5218333D01*
X5035476Y-5216429D01*
X5033571Y-5212619D01*
X5033571Y-5210714D01*
X5035476Y-5206905D01*
X5037381Y-5205000D01*
X5041191Y-5203095D01*
X5048810Y-5203095D01*
X5052619Y-5205000D01*
X5054524Y-5206905D01*
X5056429Y-5210714D01*
X5056429Y-5212619D01*
X5054524Y-5216429D01*
X5052619Y-5218333D01*
X5048810Y-5220238D01*
X5041191Y-5220238D01*
X5037381Y-5222143D01*
X5035476Y-5224048D01*
X5033571Y-5227857D01*
X5033571Y-5235476D01*
X5035476Y-5239286D01*
X5037381Y-5241190D01*
X5041191Y-5243095D01*
X5048810Y-5243095D01*
X5052619Y-5241190D01*
X5054524Y-5239286D01*
X5056429Y-5235476D01*
X5056429Y-5227857D01*
X5054524Y-5224048D01*
X5052619Y-5222143D01*
X5048810Y-5220238D01*
X5243333Y-4439286D02*
X5241429Y-4441190D01*
X5235714Y-4443095D01*
X5231905Y-4443095D01*
X5226191Y-4441190D01*
X5222381Y-4437381D01*
X5220476Y-4433571D01*
X5218571Y-4425952D01*
X5218571Y-4420238D01*
X5220476Y-4412619D01*
X5222381Y-4408810D01*
X5226191Y-4405000D01*
X5231905Y-4403095D01*
X5235714Y-4403095D01*
X5241429Y-4405000D01*
X5243333Y-4406905D01*
X5262381Y-4443095D02*
X5270000Y-4443095D01*
X5273810Y-4441190D01*
X5275714Y-4439286D01*
X5279524Y-4433571D01*
X5281429Y-4425952D01*
X5281429Y-4410714D01*
X5279524Y-4406905D01*
X5277619Y-4405000D01*
X5273810Y-4403095D01*
X5266191Y-4403095D01*
X5262381Y-4405000D01*
X5260476Y-4406905D01*
X5258571Y-4410714D01*
X5258571Y-4420238D01*
X5260476Y-4424048D01*
X5262381Y-4425952D01*
X5266191Y-4427857D01*
X5273810Y-4427857D01*
X5277619Y-4425952D01*
X5279524Y-4424048D01*
X5281429Y-4420238D01*
X7209286Y-4899286D02*
X7207381Y-4901190D01*
X7201667Y-4903095D01*
X7197857Y-4903095D01*
X7192143Y-4901190D01*
X7188333Y-4897381D01*
X7186429Y-4893571D01*
X7184524Y-4885952D01*
X7184524Y-4880238D01*
X7186429Y-4872619D01*
X7188333Y-4868810D01*
X7192143Y-4865000D01*
X7197857Y-4863095D01*
X7201667Y-4863095D01*
X7207381Y-4865000D01*
X7209286Y-4866905D01*
X7247381Y-4903095D02*
X7224524Y-4903095D01*
X7235952Y-4903095D02*
X7235952Y-4863095D01*
X7232143Y-4868810D01*
X7228333Y-4872619D01*
X7224524Y-4874524D01*
X7272143Y-4863095D02*
X7275952Y-4863095D01*
X7279762Y-4865000D01*
X7281667Y-4866905D01*
X7283571Y-4870714D01*
X7285476Y-4878333D01*
X7285476Y-4887857D01*
X7283571Y-4895476D01*
X7281667Y-4899286D01*
X7279762Y-4901190D01*
X7275952Y-4903095D01*
X7272143Y-4903095D01*
X7268333Y-4901190D01*
X7266429Y-4899286D01*
X7264524Y-4895476D01*
X7262619Y-4887857D01*
X7262619Y-4878333D01*
X7264524Y-4870714D01*
X7266429Y-4866905D01*
X7268333Y-4865000D01*
X7272143Y-4863095D01*
X7449286Y-4454286D02*
X7447381Y-4456190D01*
X7441667Y-4458095D01*
X7437857Y-4458095D01*
X7432143Y-4456190D01*
X7428333Y-4452381D01*
X7426429Y-4448571D01*
X7424524Y-4440952D01*
X7424524Y-4435238D01*
X7426429Y-4427619D01*
X7428333Y-4423810D01*
X7432143Y-4420000D01*
X7437857Y-4418095D01*
X7441667Y-4418095D01*
X7447381Y-4420000D01*
X7449286Y-4421905D01*
X7487381Y-4458095D02*
X7464524Y-4458095D01*
X7475952Y-4458095D02*
X7475952Y-4418095D01*
X7472143Y-4423810D01*
X7468333Y-4427619D01*
X7464524Y-4429524D01*
X7525476Y-4458095D02*
X7502619Y-4458095D01*
X7514048Y-4458095D02*
X7514048Y-4418095D01*
X7510238Y-4423810D01*
X7506429Y-4427619D01*
X7502619Y-4429524D01*
X7345476Y-4768095D02*
X7345476Y-4728095D01*
X7355000Y-4728095D01*
X7360714Y-4730000D01*
X7364524Y-4733810D01*
X7366429Y-4737619D01*
X7368333Y-4745238D01*
X7368333Y-4750952D01*
X7366429Y-4758571D01*
X7364524Y-4762381D01*
X7360714Y-4766190D01*
X7355000Y-4768095D01*
X7345476Y-4768095D01*
X7406429Y-4768095D02*
X7383571Y-4768095D01*
X7395000Y-4768095D02*
X7395000Y-4728095D01*
X7391191Y-4733810D01*
X7387381Y-4737619D01*
X7383571Y-4739524D01*
X7445180Y-4916616D02*
X7445180Y-4886140D01*
X7439274Y-5174884D02*
X7439274Y-5144408D01*
X7454513Y-5159646D02*
X7424036Y-5159646D01*
X4361667Y-5378095D02*
X4361667Y-5406667D01*
X4359762Y-5412381D01*
X4355952Y-5416190D01*
X4350238Y-5418095D01*
X4346429Y-5418095D01*
X4401667Y-5418095D02*
X4378810Y-5418095D01*
X4390238Y-5418095D02*
X4390238Y-5378095D01*
X4386429Y-5383810D01*
X4382619Y-5387619D01*
X4378810Y-5389524D01*
X4219524Y-4493095D02*
X4219524Y-4453095D01*
X4242381Y-4493095D01*
X4242381Y-4453095D01*
X4282381Y-4493095D02*
X4259524Y-4493095D01*
X4270952Y-4493095D02*
X4270952Y-4453095D01*
X4267143Y-4458810D01*
X4263333Y-4462619D01*
X4259524Y-4464524D01*
X5044524Y-5818095D02*
X5044524Y-5778095D01*
X5067381Y-5818095D01*
X5067381Y-5778095D01*
X5084524Y-5781905D02*
X5086429Y-5780000D01*
X5090238Y-5778095D01*
X5099762Y-5778095D01*
X5103571Y-5780000D01*
X5105476Y-5781905D01*
X5107381Y-5785714D01*
X5107381Y-5789524D01*
X5105476Y-5795238D01*
X5082619Y-5818095D01*
X5107381Y-5818095D01*
X5119524Y-4018095D02*
X5119524Y-3978095D01*
X5142381Y-4018095D01*
X5142381Y-3978095D01*
X5157619Y-3978095D02*
X5182381Y-3978095D01*
X5169048Y-3993333D01*
X5174762Y-3993333D01*
X5178571Y-3995238D01*
X5180476Y-3997143D01*
X5182381Y-4000952D01*
X5182381Y-4010476D01*
X5180476Y-4014286D01*
X5178571Y-4016190D01*
X5174762Y-4018095D01*
X5163333Y-4018095D01*
X5159524Y-4016190D01*
X5157619Y-4014286D01*
X5119524Y-5568095D02*
X5119524Y-5528095D01*
X5142381Y-5568095D01*
X5142381Y-5528095D01*
X5178571Y-5541429D02*
X5178571Y-5568095D01*
X5169048Y-5526190D02*
X5159524Y-5554762D01*
X5184286Y-5554762D01*
X5043333Y-4318095D02*
X5030000Y-4299048D01*
X5020476Y-4318095D02*
X5020476Y-4278095D01*
X5035714Y-4278095D01*
X5039524Y-4280000D01*
X5041429Y-4281905D01*
X5043333Y-4285714D01*
X5043333Y-4291429D01*
X5041429Y-4295238D01*
X5039524Y-4297143D01*
X5035714Y-4299048D01*
X5020476Y-4299048D01*
X5081429Y-4318095D02*
X5058571Y-4318095D01*
X5070000Y-4318095D02*
X5070000Y-4278095D01*
X5066191Y-4283810D01*
X5062381Y-4287619D01*
X5058571Y-4289524D01*
X5667152Y-5326363D02*
X5653819Y-5307315D01*
X5644295Y-5326363D02*
X5644295Y-5286363D01*
X5659533Y-5286363D01*
X5663343Y-5288268D01*
X5665247Y-5290172D01*
X5667152Y-5293982D01*
X5667152Y-5299696D01*
X5665247Y-5303506D01*
X5663343Y-5305411D01*
X5659533Y-5307315D01*
X5644295Y-5307315D01*
X5682390Y-5290172D02*
X5684295Y-5288268D01*
X5688105Y-5286363D01*
X5697628Y-5286363D01*
X5701438Y-5288268D01*
X5703343Y-5290172D01*
X5705247Y-5293982D01*
X5705247Y-5297792D01*
X5703343Y-5303506D01*
X5680486Y-5326363D01*
X5705247Y-5326363D01*
X5117152Y-5326363D02*
X5103819Y-5307315D01*
X5094295Y-5326363D02*
X5094295Y-5286363D01*
X5109533Y-5286363D01*
X5113343Y-5288268D01*
X5115247Y-5290172D01*
X5117152Y-5293982D01*
X5117152Y-5299696D01*
X5115247Y-5303506D01*
X5113343Y-5305411D01*
X5109533Y-5307315D01*
X5094295Y-5307315D01*
X5130486Y-5286363D02*
X5155247Y-5286363D01*
X5141914Y-5301601D01*
X5147628Y-5301601D01*
X5151438Y-5303506D01*
X5153343Y-5305411D01*
X5155247Y-5309220D01*
X5155247Y-5318744D01*
X5153343Y-5322553D01*
X5151438Y-5324458D01*
X5147628Y-5326363D01*
X5136200Y-5326363D01*
X5132390Y-5324458D01*
X5130486Y-5322553D01*
X5143333Y-5168095D02*
X5130000Y-5149048D01*
X5120476Y-5168095D02*
X5120476Y-5128095D01*
X5135714Y-5128095D01*
X5139524Y-5130000D01*
X5141429Y-5131905D01*
X5143333Y-5135714D01*
X5143333Y-5141429D01*
X5141429Y-5145238D01*
X5139524Y-5147143D01*
X5135714Y-5149048D01*
X5120476Y-5149048D01*
X5177619Y-5141429D02*
X5177619Y-5168095D01*
X5168095Y-5126190D02*
X5158571Y-5154762D01*
X5183333Y-5154762D01*
X5493333Y-5193095D02*
X5480000Y-5174048D01*
X5470476Y-5193095D02*
X5470476Y-5153095D01*
X5485714Y-5153095D01*
X5489524Y-5155000D01*
X5491429Y-5156905D01*
X5493333Y-5160714D01*
X5493333Y-5166429D01*
X5491429Y-5170238D01*
X5489524Y-5172143D01*
X5485714Y-5174048D01*
X5470476Y-5174048D01*
X5529524Y-5153095D02*
X5510476Y-5153095D01*
X5508571Y-5172143D01*
X5510476Y-5170238D01*
X5514286Y-5168333D01*
X5523810Y-5168333D01*
X5527619Y-5170238D01*
X5529524Y-5172143D01*
X5531429Y-5175952D01*
X5531429Y-5185476D01*
X5529524Y-5189286D01*
X5527619Y-5191190D01*
X5523810Y-5193095D01*
X5514286Y-5193095D01*
X5510476Y-5191190D01*
X5508571Y-5189286D01*
X4918333Y-5543095D02*
X4905000Y-5524048D01*
X4895476Y-5543095D02*
X4895476Y-5503095D01*
X4910714Y-5503095D01*
X4914524Y-5505000D01*
X4916429Y-5506905D01*
X4918333Y-5510714D01*
X4918333Y-5516429D01*
X4916429Y-5520238D01*
X4914524Y-5522143D01*
X4910714Y-5524048D01*
X4895476Y-5524048D01*
X4952619Y-5503095D02*
X4945000Y-5503095D01*
X4941191Y-5505000D01*
X4939286Y-5506905D01*
X4935476Y-5512619D01*
X4933571Y-5520238D01*
X4933571Y-5535476D01*
X4935476Y-5539286D01*
X4937381Y-5541190D01*
X4941191Y-5543095D01*
X4948810Y-5543095D01*
X4952619Y-5541190D01*
X4954524Y-5539286D01*
X4956429Y-5535476D01*
X4956429Y-5525952D01*
X4954524Y-5522143D01*
X4952619Y-5520238D01*
X4948810Y-5518333D01*
X4941191Y-5518333D01*
X4937381Y-5520238D01*
X4935476Y-5522143D01*
X4933571Y-5525952D01*
X7518333Y-4768095D02*
X7505000Y-4749048D01*
X7495476Y-4768095D02*
X7495476Y-4728095D01*
X7510714Y-4728095D01*
X7514524Y-4730000D01*
X7516429Y-4731905D01*
X7518333Y-4735714D01*
X7518333Y-4741429D01*
X7516429Y-4745238D01*
X7514524Y-4747143D01*
X7510714Y-4749048D01*
X7495476Y-4749048D01*
X7531667Y-4728095D02*
X7558333Y-4728095D01*
X7541191Y-4768095D01*
X7531667Y-5556190D02*
X7537381Y-5558095D01*
X7546905Y-5558095D01*
X7550714Y-5556190D01*
X7552619Y-5554286D01*
X7554524Y-5550476D01*
X7554524Y-5546667D01*
X7552619Y-5542857D01*
X7550714Y-5540952D01*
X7546905Y-5539048D01*
X7539286Y-5537143D01*
X7535476Y-5535238D01*
X7533571Y-5533333D01*
X7531667Y-5529524D01*
X7531667Y-5525714D01*
X7533571Y-5521905D01*
X7535476Y-5520000D01*
X7539286Y-5518095D01*
X7548810Y-5518095D01*
X7554524Y-5520000D01*
X7567857Y-5518095D02*
X7577381Y-5558095D01*
X7585000Y-5529524D01*
X7592619Y-5558095D01*
X7602143Y-5518095D01*
X7638333Y-5558095D02*
X7615476Y-5558095D01*
X7626905Y-5558095D02*
X7626905Y-5518095D01*
X7623095Y-5523810D01*
X7619286Y-5527619D01*
X7615476Y-5529524D01*
X6144524Y-4583095D02*
X6144524Y-4615476D01*
X6146429Y-4619286D01*
X6148333Y-4621190D01*
X6152143Y-4623095D01*
X6159762Y-4623095D01*
X6163571Y-4621190D01*
X6165476Y-4619286D01*
X6167381Y-4615476D01*
X6167381Y-4583095D01*
X6207381Y-4623095D02*
X6184524Y-4623095D01*
X6195952Y-4623095D02*
X6195952Y-4583095D01*
X6192143Y-4588810D01*
X6188333Y-4592619D01*
X6184524Y-4594524D01*
X4319524Y-4253095D02*
X4319524Y-4285476D01*
X4321429Y-4289286D01*
X4323333Y-4291190D01*
X4327143Y-4293095D01*
X4334762Y-4293095D01*
X4338571Y-4291190D01*
X4340476Y-4289286D01*
X4342381Y-4285476D01*
X4342381Y-4253095D01*
X4359524Y-4256905D02*
X4361429Y-4255000D01*
X4365238Y-4253095D01*
X4374762Y-4253095D01*
X4378571Y-4255000D01*
X4380476Y-4256905D01*
X4382381Y-4260714D01*
X4382381Y-4264524D01*
X4380476Y-4270238D01*
X4357619Y-4293095D01*
X4382381Y-4293095D01*
X4869524Y-5053095D02*
X4869524Y-5085476D01*
X4871429Y-5089286D01*
X4873333Y-5091190D01*
X4877143Y-5093095D01*
X4884762Y-5093095D01*
X4888571Y-5091190D01*
X4890476Y-5089286D01*
X4892381Y-5085476D01*
X4892381Y-5053095D01*
X4907619Y-5053095D02*
X4932381Y-5053095D01*
X4919048Y-5068333D01*
X4924762Y-5068333D01*
X4928571Y-5070238D01*
X4930476Y-5072143D01*
X4932381Y-5075952D01*
X4932381Y-5085476D01*
X4930476Y-5089286D01*
X4928571Y-5091190D01*
X4924762Y-5093095D01*
X4913333Y-5093095D01*
X4909524Y-5091190D01*
X4907619Y-5089286D01*
X5494524Y-4853095D02*
X5494524Y-4885476D01*
X5496429Y-4889286D01*
X5498333Y-4891190D01*
X5502143Y-4893095D01*
X5509762Y-4893095D01*
X5513571Y-4891190D01*
X5515476Y-4889286D01*
X5517381Y-4885476D01*
X5517381Y-4853095D01*
X5553571Y-4866429D02*
X5553571Y-4893095D01*
X5544048Y-4851190D02*
X5534524Y-4879762D01*
X5559286Y-4879762D01*
X6469524Y-4568095D02*
X6469524Y-4600476D01*
X6471429Y-4604286D01*
X6473333Y-4606190D01*
X6477143Y-4608095D01*
X6484762Y-4608095D01*
X6488571Y-4606190D01*
X6490476Y-4604286D01*
X6492381Y-4600476D01*
X6492381Y-4568095D01*
X6530476Y-4568095D02*
X6511429Y-4568095D01*
X6509524Y-4587143D01*
X6511429Y-4585238D01*
X6515238Y-4583333D01*
X6524762Y-4583333D01*
X6528571Y-4585238D01*
X6530476Y-4587143D01*
X6532381Y-4590952D01*
X6532381Y-4600476D01*
X6530476Y-4604286D01*
X6528571Y-4606190D01*
X6524762Y-4608095D01*
X6515238Y-4608095D01*
X6511429Y-4606190D01*
X6509524Y-4604286D01*
X6817619Y-5228095D02*
X6844286Y-5268095D01*
X6844286Y-5228095D02*
X6817619Y-5268095D01*
X6880476Y-5268095D02*
X6857619Y-5268095D01*
X6869048Y-5268095D02*
X6869048Y-5228095D01*
X6865238Y-5233810D01*
X6861429Y-5237619D01*
X6857619Y-5239524D01*
X4918333Y-5643095D02*
X4905000Y-5624048D01*
X4895476Y-5643095D02*
X4895476Y-5603095D01*
X4910714Y-5603095D01*
X4914524Y-5605000D01*
X4916429Y-5606905D01*
X4918333Y-5610714D01*
X4918333Y-5616429D01*
X4916429Y-5620238D01*
X4914524Y-5622143D01*
X4910714Y-5624048D01*
X4895476Y-5624048D01*
X4941191Y-5620238D02*
X4937381Y-5618333D01*
X4935476Y-5616429D01*
X4933571Y-5612619D01*
X4933571Y-5610714D01*
X4935476Y-5606905D01*
X4937381Y-5605000D01*
X4941191Y-5603095D01*
X4948810Y-5603095D01*
X4952619Y-5605000D01*
X4954524Y-5606905D01*
X4956429Y-5610714D01*
X4956429Y-5612619D01*
X4954524Y-5616429D01*
X4952619Y-5618333D01*
X4948810Y-5620238D01*
X4941191Y-5620238D01*
X4937381Y-5622143D01*
X4935476Y-5624048D01*
X4933571Y-5627857D01*
X4933571Y-5635476D01*
X4935476Y-5639286D01*
X4937381Y-5641190D01*
X4941191Y-5643095D01*
X4948810Y-5643095D01*
X4952619Y-5641190D01*
X4954524Y-5639286D01*
X4956429Y-5635476D01*
X4956429Y-5627857D01*
X4954524Y-5624048D01*
X4952619Y-5622143D01*
X4948810Y-5620238D01*
X5193333Y-4743095D02*
X5180000Y-4724048D01*
X5170476Y-4743095D02*
X5170476Y-4703095D01*
X5185714Y-4703095D01*
X5189524Y-4705000D01*
X5191429Y-4706905D01*
X5193333Y-4710714D01*
X5193333Y-4716429D01*
X5191429Y-4720238D01*
X5189524Y-4722143D01*
X5185714Y-4724048D01*
X5170476Y-4724048D01*
X5212381Y-4743095D02*
X5220000Y-4743095D01*
X5223810Y-4741190D01*
X5225714Y-4739286D01*
X5229524Y-4733571D01*
X5231429Y-4725952D01*
X5231429Y-4710714D01*
X5229524Y-4706905D01*
X5227619Y-4705000D01*
X5223810Y-4703095D01*
X5216191Y-4703095D01*
X5212381Y-4705000D01*
X5210476Y-4706905D01*
X5208571Y-4710714D01*
X5208571Y-4720238D01*
X5210476Y-4724048D01*
X5212381Y-4725952D01*
X5216191Y-4727857D01*
X5223810Y-4727857D01*
X5227619Y-4725952D01*
X5229524Y-4724048D01*
X5231429Y-4720238D01*
X5070476Y-5093095D02*
X5070476Y-5053095D01*
X5080000Y-5053095D01*
X5085714Y-5055000D01*
X5089524Y-5058810D01*
X5091429Y-5062619D01*
X5093333Y-5070238D01*
X5093333Y-5075952D01*
X5091429Y-5083571D01*
X5089524Y-5087381D01*
X5085714Y-5091190D01*
X5080000Y-5093095D01*
X5070476Y-5093095D01*
X5108571Y-5056905D02*
X5110476Y-5055000D01*
X5114286Y-5053095D01*
X5123810Y-5053095D01*
X5127619Y-5055000D01*
X5129524Y-5056905D01*
X5131429Y-5060714D01*
X5131429Y-5064524D01*
X5129524Y-5070238D01*
X5106667Y-5093095D01*
X5131429Y-5093095D01*
X4984762Y-5077857D02*
X5015238Y-5077857D01*
X5034762Y-4802857D02*
X5065238Y-4802857D01*
X5050000Y-4818095D02*
X5050000Y-4787619D01*
X7599286Y-4343095D02*
X7585952Y-4324048D01*
X7576429Y-4343095D02*
X7576429Y-4303095D01*
X7591667Y-4303095D01*
X7595476Y-4305000D01*
X7597381Y-4306905D01*
X7599286Y-4310714D01*
X7599286Y-4316429D01*
X7597381Y-4320238D01*
X7595476Y-4322143D01*
X7591667Y-4324048D01*
X7576429Y-4324048D01*
X7637381Y-4343095D02*
X7614524Y-4343095D01*
X7625952Y-4343095D02*
X7625952Y-4303095D01*
X7622143Y-4308810D01*
X7618333Y-4312619D01*
X7614524Y-4314524D01*
X7662143Y-4303095D02*
X7665952Y-4303095D01*
X7669762Y-4305000D01*
X7671667Y-4306905D01*
X7673571Y-4310714D01*
X7675476Y-4318333D01*
X7675476Y-4327857D01*
X7673571Y-4335476D01*
X7671667Y-4339286D01*
X7669762Y-4341190D01*
X7665952Y-4343095D01*
X7662143Y-4343095D01*
X7658333Y-4341190D01*
X7656429Y-4339286D01*
X7654524Y-4335476D01*
X7652619Y-4327857D01*
X7652619Y-4318333D01*
X7654524Y-4310714D01*
X7656429Y-4306905D01*
X7658333Y-4305000D01*
X7662143Y-4303095D01*
X6289524Y-4598095D02*
X6289524Y-4558095D01*
X6312381Y-4598095D01*
X6312381Y-4558095D01*
X6350476Y-4558095D02*
X6331429Y-4558095D01*
X6329524Y-4577143D01*
X6331429Y-4575238D01*
X6335238Y-4573333D01*
X6344762Y-4573333D01*
X6348571Y-4575238D01*
X6350476Y-4577143D01*
X6352381Y-4580952D01*
X6352381Y-4590476D01*
X6350476Y-4594286D01*
X6348571Y-4596190D01*
X6344762Y-4598095D01*
X6335238Y-4598095D01*
X6331429Y-4596190D01*
X6329524Y-4594286D01*
X7646689Y-5726757D02*
X7646689Y-5686757D01*
X7646689Y-5705804D02*
X7669546Y-5705804D01*
X7669546Y-5726757D02*
X7669546Y-5686757D01*
X7705737Y-5700090D02*
X7705737Y-5726757D01*
X7696213Y-5684852D02*
X7686689Y-5713423D01*
X7711451Y-5713423D01*
X4103382Y-5726757D02*
X4103382Y-5686757D01*
X4103382Y-5705804D02*
X4126239Y-5705804D01*
X4126239Y-5726757D02*
X4126239Y-5686757D01*
X4141477Y-5686757D02*
X4166239Y-5686757D01*
X4152906Y-5701995D01*
X4158620Y-5701995D01*
X4162430Y-5703900D01*
X4164334Y-5705804D01*
X4166239Y-5709614D01*
X4166239Y-5719138D01*
X4164334Y-5722947D01*
X4162430Y-5724852D01*
X4158620Y-5726757D01*
X4147192Y-5726757D01*
X4143382Y-5724852D01*
X4141477Y-5722947D01*
X7646689Y-4151954D02*
X7646689Y-4111954D01*
X7646689Y-4131001D02*
X7669546Y-4131001D01*
X7669546Y-4151954D02*
X7669546Y-4111954D01*
X7686689Y-4115763D02*
X7688594Y-4113858D01*
X7692403Y-4111954D01*
X7701927Y-4111954D01*
X7705737Y-4113858D01*
X7707642Y-4115763D01*
X7709546Y-4119573D01*
X7709546Y-4123382D01*
X7707642Y-4129096D01*
X7684784Y-4151954D01*
X7709546Y-4151954D01*
X4103382Y-4151954D02*
X4103382Y-4111954D01*
X4103382Y-4131001D02*
X4126239Y-4131001D01*
X4126239Y-4151954D02*
X4126239Y-4111954D01*
X4166239Y-4151954D02*
X4143382Y-4151954D01*
X4154811Y-4151954D02*
X4154811Y-4111954D01*
X4151001Y-4117668D01*
X4147192Y-4121477D01*
X4143382Y-4123382D01*
M02*
