%FSLAX36Y36*%
G04 Gerber Fmt 3.6, Leading zero omitted, Abs format (unit inch)*
G04 Created by KiCad (PCBNEW (2014-jul-16 BZR unknown)-product) date Mon 02 Feb 2015 04:42:00 PM PST*
%MOIN*%
G01*
G04 APERTURE LIST*
%ADD10C,0.003937*%
%ADD11C,0.059100*%
%ADD12C,0.078700*%
%ADD13R,0.078700X0.078700*%
%ADD14R,0.068000X0.068000*%
%ADD15C,0.068000*%
%ADD16R,0.060000X0.060000*%
%ADD17C,0.060000*%
%ADD18O,0.068000X0.068000*%
%ADD19R,0.055000X0.055000*%
%ADD20C,0.055000*%
%ADD21O,0.066900X0.137800*%
%ADD22R,0.380000X0.620000*%
%ADD23C,0.236220*%
%ADD24C,0.035000*%
%ADD25C,0.008000*%
%ADD26C,0.040000*%
%ADD27C,0.010000*%
G04 APERTURE END LIST*
D10*
D11*
X6350000Y-5425000D03*
X6250000Y-5425000D03*
X4475000Y-4950000D03*
X4575000Y-4950000D03*
X6950000Y-5425000D03*
X6950000Y-5325000D03*
X4875000Y-4825000D03*
X4875000Y-4725000D03*
X4800000Y-4950000D03*
X4700000Y-4950000D03*
X6250000Y-5300000D03*
X6350000Y-5300000D03*
X6350000Y-4750000D03*
X6250000Y-4750000D03*
X4925000Y-5175000D03*
X4925000Y-5275000D03*
X5250000Y-4625000D03*
X5250000Y-4525000D03*
X7250000Y-4975000D03*
X7250000Y-5075000D03*
X7475000Y-4525000D03*
X7475000Y-4625000D03*
D12*
X7375000Y-5225000D03*
D13*
X7375000Y-4825000D03*
D14*
X4075000Y-5450000D03*
D15*
X4175000Y-5450000D03*
X4275000Y-5450000D03*
D16*
X4100000Y-4725000D03*
D17*
X4200000Y-4725000D03*
X4100000Y-4825000D03*
X4200000Y-4825000D03*
X4100000Y-4925000D03*
X4200000Y-4925000D03*
X4100000Y-5025000D03*
X4200000Y-5025000D03*
X4100000Y-5125000D03*
X4200000Y-5125000D03*
D14*
X4475000Y-5800000D03*
D15*
X4575000Y-5800000D03*
X4675000Y-5800000D03*
X4775000Y-5800000D03*
X4875000Y-5800000D03*
X4975000Y-5800000D03*
D14*
X5400000Y-4200000D03*
D18*
X5400000Y-4100000D03*
X5500000Y-4200000D03*
X5500000Y-4100000D03*
X5600000Y-4200000D03*
X5600000Y-4100000D03*
X5700000Y-4200000D03*
X5700000Y-4100000D03*
X5800000Y-4200000D03*
X5800000Y-4100000D03*
X5900000Y-4200000D03*
X5900000Y-4100000D03*
X6000000Y-4200000D03*
X6000000Y-4100000D03*
X6100000Y-4200000D03*
X6100000Y-4100000D03*
X6200000Y-4200000D03*
X6200000Y-4100000D03*
X6300000Y-4200000D03*
X6300000Y-4100000D03*
X6400000Y-4200000D03*
X6400000Y-4100000D03*
X6500000Y-4200000D03*
X6500000Y-4100000D03*
X6600000Y-4200000D03*
X6600000Y-4100000D03*
X6700000Y-4200000D03*
X6700000Y-4100000D03*
X6800000Y-4200000D03*
X6800000Y-4100000D03*
X6900000Y-4200000D03*
X6900000Y-4100000D03*
X7000000Y-4200000D03*
X7000000Y-4100000D03*
X7100000Y-4200000D03*
X7100000Y-4100000D03*
X7200000Y-4200000D03*
X7200000Y-4100000D03*
X7300000Y-4200000D03*
X7300000Y-4100000D03*
D14*
X5400000Y-5750000D03*
D18*
X5400000Y-5650000D03*
X5500000Y-5750000D03*
X5500000Y-5650000D03*
X5600000Y-5750000D03*
X5600000Y-5650000D03*
X5700000Y-5750000D03*
X5700000Y-5650000D03*
X5800000Y-5750000D03*
X5800000Y-5650000D03*
X5900000Y-5750000D03*
X5900000Y-5650000D03*
X6000000Y-5750000D03*
X6000000Y-5650000D03*
X6100000Y-5750000D03*
X6100000Y-5650000D03*
X6200000Y-5750000D03*
X6200000Y-5650000D03*
X6300000Y-5750000D03*
X6300000Y-5650000D03*
X6400000Y-5750000D03*
X6400000Y-5650000D03*
X6500000Y-5750000D03*
X6500000Y-5650000D03*
X6600000Y-5750000D03*
X6600000Y-5650000D03*
X6700000Y-5750000D03*
X6700000Y-5650000D03*
X6800000Y-5750000D03*
X6800000Y-5650000D03*
X6900000Y-5750000D03*
X6900000Y-5650000D03*
X7000000Y-5750000D03*
X7000000Y-5650000D03*
X7100000Y-5750000D03*
X7100000Y-5650000D03*
X7200000Y-5750000D03*
X7200000Y-5650000D03*
X7300000Y-5750000D03*
X7300000Y-5650000D03*
D12*
X4950000Y-4200000D03*
X4950000Y-4600000D03*
X5475000Y-5400000D03*
X5875000Y-5400000D03*
X4925000Y-5400000D03*
X5325000Y-5400000D03*
X5250000Y-4850000D03*
X5250000Y-5250000D03*
X5400000Y-4850000D03*
X5400000Y-5250000D03*
X4825000Y-5500000D03*
X4425000Y-5500000D03*
X7525000Y-5225000D03*
X7525000Y-4825000D03*
D13*
X7725000Y-5272000D03*
D12*
X7725000Y-5528000D03*
D19*
X5425000Y-4725000D03*
D20*
X5525000Y-4725000D03*
X5625000Y-4725000D03*
X5725000Y-4725000D03*
X5825000Y-4725000D03*
X5925000Y-4725000D03*
X6025000Y-4725000D03*
X6025000Y-4425000D03*
X5925000Y-4425000D03*
X5825000Y-4425000D03*
X5725000Y-4425000D03*
X5625000Y-4425000D03*
X5525000Y-4425000D03*
X5425000Y-4425000D03*
D21*
X4625000Y-4775000D03*
X4525000Y-4775000D03*
X4725000Y-4775000D03*
D22*
X4625000Y-4305000D03*
D19*
X4475000Y-5375000D03*
D20*
X4575000Y-5375000D03*
X4675000Y-5375000D03*
X4775000Y-5375000D03*
X4775000Y-5075000D03*
X4675000Y-5075000D03*
X4575000Y-5075000D03*
X4475000Y-5075000D03*
X5750000Y-5175000D03*
X5850000Y-5175000D03*
X5950000Y-5175000D03*
X6050000Y-5175000D03*
X6150000Y-5175000D03*
X6250000Y-5175000D03*
X6350000Y-5175000D03*
X6450000Y-5175000D03*
X6550000Y-5175000D03*
X6650000Y-5175000D03*
X6750000Y-5175000D03*
X6850000Y-5175000D03*
X6950000Y-5175000D03*
D19*
X5650000Y-5175000D03*
D20*
X6950000Y-4875000D03*
X6850000Y-4875000D03*
X6750000Y-4875000D03*
X6650000Y-4875000D03*
X6550000Y-4875000D03*
X6450000Y-4875000D03*
X6350000Y-4875000D03*
X6250000Y-4875000D03*
X6150000Y-4875000D03*
X6050000Y-4875000D03*
X5950000Y-4875000D03*
X5850000Y-4875000D03*
X5750000Y-4875000D03*
X5650000Y-4875000D03*
D19*
X6650000Y-4725000D03*
D20*
X6750000Y-4725000D03*
X6850000Y-4725000D03*
X6950000Y-4725000D03*
X7050000Y-4725000D03*
X7150000Y-4725000D03*
X7250000Y-4725000D03*
X7250000Y-4425000D03*
X7150000Y-4425000D03*
X7050000Y-4425000D03*
X6950000Y-4425000D03*
X6850000Y-4425000D03*
X6750000Y-4425000D03*
X6650000Y-4425000D03*
D11*
X6553900Y-5375000D03*
X6746100Y-5375000D03*
D12*
X4825000Y-5625000D03*
X4425000Y-5625000D03*
X5125000Y-4375000D03*
X5125000Y-4775000D03*
D17*
X5050000Y-4900000D03*
X5050000Y-5000000D03*
D14*
X7750000Y-5125000D03*
D15*
X7750000Y-5025000D03*
X7750000Y-4925000D03*
X7750000Y-4825000D03*
X7750000Y-4725000D03*
X7750000Y-4625000D03*
X7750000Y-4525000D03*
X7750000Y-4425000D03*
X7750000Y-4325000D03*
D14*
X6225000Y-4500000D03*
D18*
X6225000Y-4400000D03*
X6325000Y-4500000D03*
X6325000Y-4400000D03*
X6425000Y-4500000D03*
X6425000Y-4400000D03*
D23*
X7677165Y-5708661D03*
X4133858Y-5708661D03*
X7677165Y-4133858D03*
X4133858Y-4133858D03*
D24*
X7250000Y-5550000D03*
X6300000Y-4975000D03*
X7300000Y-5025000D03*
X7150000Y-5125000D03*
X6900000Y-5550000D03*
X7200000Y-4575000D03*
X7000000Y-4575000D03*
X6375000Y-4950000D03*
X6900000Y-4500000D03*
X6250000Y-4000000D03*
X6950000Y-4050000D03*
X6550000Y-4800000D03*
X6100000Y-4775000D03*
X7625000Y-4775000D03*
X7625000Y-4975000D03*
X7625000Y-4600000D03*
X7150000Y-5250000D03*
X6850000Y-4975000D03*
X7050000Y-4975000D03*
X7050000Y-5150000D03*
X6600000Y-4550000D03*
X6475000Y-4650000D03*
X5925000Y-4500000D03*
X5775000Y-4525000D03*
X5200000Y-4775000D03*
X5625000Y-4975000D03*
X5850000Y-5000000D03*
X6050000Y-5000000D03*
X5950000Y-5000000D03*
X5750000Y-4975000D03*
X6250000Y-5075000D03*
X5950000Y-4325000D03*
X6500000Y-4275000D03*
X7000000Y-4350000D03*
X6900000Y-4325000D03*
X7300000Y-4575000D03*
X7125000Y-4350000D03*
X7300000Y-4300000D03*
X5975000Y-4525000D03*
X6050000Y-5100000D03*
X5575000Y-4350000D03*
X6525000Y-4375000D03*
X6750000Y-4325000D03*
X6050000Y-4325000D03*
X6350000Y-4050000D03*
X6050000Y-4050000D03*
X5575000Y-4525000D03*
X5725000Y-4625000D03*
X7200000Y-5550000D03*
X5675000Y-4475000D03*
X4725000Y-5025000D03*
X4900000Y-4925000D03*
X5025000Y-5500000D03*
D25*
X5950000Y-5175000D02*
X5950000Y-5225000D01*
X5975000Y-5250000D02*
X6950000Y-5250000D01*
X5950000Y-5225000D02*
X5975000Y-5250000D01*
X6950000Y-5250000D02*
X7250000Y-5550000D01*
X6350000Y-5025000D02*
X7300000Y-5025000D01*
X6300000Y-4975000D02*
X6350000Y-5025000D01*
X6650000Y-5175000D02*
X6725000Y-5100000D01*
X7125000Y-5100000D02*
X7150000Y-5125000D01*
X6725000Y-5100000D02*
X7125000Y-5100000D01*
X7150000Y-4750000D02*
X7150000Y-4725000D01*
X6450000Y-5700000D02*
X6400000Y-5750000D01*
X6450000Y-5625000D02*
X6450000Y-5700000D01*
X6875000Y-5575000D02*
X6750000Y-5575000D01*
X6750000Y-5575000D02*
X6725000Y-5600000D01*
X6725000Y-5600000D02*
X6475000Y-5600000D01*
X6475000Y-5600000D02*
X6450000Y-5625000D01*
X6900000Y-5550000D02*
X6875000Y-5575000D01*
X7000000Y-4575000D02*
X7200000Y-4575000D01*
X6850000Y-4875000D02*
X6775000Y-4950000D01*
X6775000Y-4950000D02*
X6375000Y-4950000D01*
X6950000Y-4425000D02*
X6900000Y-4475000D01*
X6900000Y-4475000D02*
X6900000Y-4500000D01*
X6250000Y-4000000D02*
X6900000Y-4000000D01*
X6900000Y-4000000D02*
X6950000Y-4050000D01*
X6650000Y-4875000D02*
X6725000Y-4800000D01*
X7375000Y-5025000D02*
X7750000Y-5025000D01*
X7150000Y-4800000D02*
X7375000Y-5025000D01*
X6725000Y-4800000D02*
X7150000Y-4800000D01*
X6575000Y-4800000D02*
X6550000Y-4800000D01*
X6650000Y-4875000D02*
X6575000Y-4800000D01*
X6550000Y-4875000D02*
X6475000Y-4800000D01*
X6125000Y-4800000D02*
X6100000Y-4775000D01*
X6475000Y-4800000D02*
X6125000Y-4800000D01*
D26*
X7250000Y-4725000D02*
X7350000Y-4725000D01*
X7375000Y-4750000D02*
X7600000Y-4750000D01*
X7350000Y-4725000D02*
X7375000Y-4750000D01*
X7600000Y-4750000D02*
X7625000Y-4775000D01*
X6025000Y-4725000D02*
X6225000Y-4725000D01*
X6225000Y-4725000D02*
X6250000Y-4750000D01*
X6350000Y-5175000D02*
X6250000Y-5075000D01*
X6250000Y-5075000D02*
X6250000Y-4875000D01*
X7150000Y-5250000D02*
X7050000Y-5150000D01*
X7628000Y-5272000D02*
X7575000Y-5325000D01*
X7575000Y-5325000D02*
X7225000Y-5325000D01*
X7225000Y-5325000D02*
X7150000Y-5250000D01*
X7725000Y-5272000D02*
X7628000Y-5272000D01*
X7050000Y-4975000D02*
X6850000Y-4975000D01*
X4625000Y-4675000D02*
X4425000Y-4675000D01*
X4050000Y-4825000D02*
X4100000Y-4825000D01*
X4025000Y-4800000D02*
X4050000Y-4825000D01*
X4025000Y-4675000D02*
X4025000Y-4800000D01*
X4050000Y-4650000D02*
X4025000Y-4675000D01*
X4375000Y-4650000D02*
X4050000Y-4650000D01*
X4400000Y-4675000D02*
X4375000Y-4650000D01*
X4425000Y-4675000D02*
X4400000Y-4675000D01*
X4700000Y-4950000D02*
X4575000Y-4950000D01*
X5400000Y-4200000D02*
X4950000Y-4200000D01*
X4625000Y-4775000D02*
X4625000Y-4675000D01*
X4625000Y-4675000D02*
X4625000Y-4115000D01*
X4950000Y-4200000D02*
X4710000Y-4200000D01*
X4710000Y-4200000D02*
X4625000Y-4115000D01*
X4200000Y-4825000D02*
X4100000Y-4825000D01*
D25*
X6600000Y-4550000D02*
X6500000Y-4650000D01*
X6500000Y-4650000D02*
X6475000Y-4650000D01*
X5925000Y-4500000D02*
X5900000Y-4525000D01*
X5900000Y-4525000D02*
X5775000Y-4525000D01*
X5850000Y-5000000D02*
X5775000Y-5000000D01*
X5950000Y-5000000D02*
X6050000Y-5000000D01*
X6125000Y-5000000D02*
X6050000Y-5000000D01*
X6125000Y-5000000D02*
X6250000Y-4875000D01*
X5850000Y-5000000D02*
X5950000Y-5000000D01*
X5775000Y-5000000D02*
X5750000Y-4975000D01*
X5625000Y-4975000D02*
X5750000Y-4975000D01*
X7000000Y-4350000D02*
X6975000Y-4325000D01*
X6975000Y-4325000D02*
X6900000Y-4325000D01*
X7125000Y-4350000D02*
X7150000Y-4350000D01*
X7125000Y-4350000D02*
X7000000Y-4350000D01*
X7275000Y-4325000D02*
X7300000Y-4300000D01*
X7175000Y-4325000D02*
X7275000Y-4325000D01*
X7150000Y-4350000D02*
X7175000Y-4325000D01*
X6025000Y-4825000D02*
X6475000Y-4825000D01*
X6525000Y-4925000D02*
X6675000Y-4925000D01*
X6500000Y-4900000D02*
X6525000Y-4925000D01*
X6500000Y-4850000D02*
X6500000Y-4900000D01*
X6475000Y-4825000D02*
X6500000Y-4850000D01*
X7100000Y-4825000D02*
X6725000Y-4825000D01*
X6700000Y-4900000D02*
X6675000Y-4925000D01*
X6700000Y-4850000D02*
X6700000Y-4900000D01*
X6725000Y-4825000D02*
X6700000Y-4850000D01*
X7250000Y-4975000D02*
X7100000Y-4825000D01*
X6025000Y-4825000D02*
X5925000Y-4725000D01*
X5650000Y-5175000D02*
X5700000Y-5125000D01*
X7572000Y-5375000D02*
X7725000Y-5528000D01*
X7125000Y-5375000D02*
X7572000Y-5375000D01*
X6975000Y-5225000D02*
X7125000Y-5375000D01*
X6025000Y-5225000D02*
X6975000Y-5225000D01*
X6000000Y-5200000D02*
X6025000Y-5225000D01*
X6000000Y-5150000D02*
X6000000Y-5200000D01*
X5975000Y-5125000D02*
X6000000Y-5150000D01*
X5700000Y-5125000D02*
X5975000Y-5125000D01*
X7375000Y-5225000D02*
X7525000Y-5225000D01*
X6375000Y-4450000D02*
X6100000Y-4450000D01*
X6100000Y-4450000D02*
X6025000Y-4525000D01*
X6025000Y-4525000D02*
X5975000Y-4525000D01*
X6050000Y-5100000D02*
X6000000Y-5150000D01*
X6425000Y-4500000D02*
X6375000Y-4450000D01*
X4100000Y-4925000D02*
X4150000Y-4975000D01*
X4525000Y-5125000D02*
X4575000Y-5075000D01*
X4450000Y-5125000D02*
X4525000Y-5125000D01*
X4300000Y-4975000D02*
X4450000Y-5125000D01*
X4150000Y-4975000D02*
X4300000Y-4975000D01*
X5475000Y-4775000D02*
X5325000Y-4775000D01*
X5325000Y-4775000D02*
X5250000Y-4850000D01*
X5475000Y-4775000D02*
X5525000Y-4725000D01*
X5325000Y-5400000D02*
X5475000Y-5400000D01*
X5450000Y-4800000D02*
X5400000Y-4850000D01*
X5500000Y-4800000D02*
X5450000Y-4800000D01*
X5775000Y-4775000D02*
X5525000Y-4775000D01*
X5525000Y-4775000D02*
X5500000Y-4800000D01*
X5825000Y-4725000D02*
X5775000Y-4775000D01*
X5875000Y-5400000D02*
X5800000Y-5325000D01*
X5800000Y-5325000D02*
X5225000Y-5325000D01*
X5125000Y-5225000D02*
X4625000Y-5225000D01*
X5225000Y-5325000D02*
X5125000Y-5225000D01*
X4625000Y-5225000D02*
X4475000Y-5375000D01*
D26*
X4525000Y-4775000D02*
X4425000Y-4775000D01*
X4375000Y-4725000D02*
X4200000Y-4725000D01*
X4425000Y-4775000D02*
X4375000Y-4725000D01*
X4200000Y-4725000D02*
X4100000Y-4725000D01*
D25*
X6350000Y-5425000D02*
X6503900Y-5425000D01*
X6503900Y-5425000D02*
X6553900Y-5375000D01*
X6950000Y-5425000D02*
X6796100Y-5425000D01*
X6796100Y-5425000D02*
X6746100Y-5375000D01*
X4675000Y-5075000D02*
X4625000Y-5025000D01*
X4300000Y-4925000D02*
X4200000Y-4925000D01*
X4400000Y-5025000D02*
X4300000Y-4925000D01*
X4625000Y-5025000D02*
X4400000Y-5025000D01*
X4425000Y-5500000D02*
X4225000Y-5500000D01*
X4225000Y-5500000D02*
X4175000Y-5450000D01*
D26*
X4200000Y-5025000D02*
X4100000Y-5025000D01*
X4200000Y-5125000D02*
X4100000Y-5125000D01*
D25*
X7400000Y-4650000D02*
X7425000Y-4675000D01*
X7425000Y-4675000D02*
X7700000Y-4675000D01*
X6650000Y-4725000D02*
X6725000Y-4650000D01*
X7700000Y-4675000D02*
X7750000Y-4725000D01*
X6725000Y-4650000D02*
X7400000Y-4650000D01*
X5650000Y-4350000D02*
X5575000Y-4350000D01*
X5675000Y-4375000D02*
X5650000Y-4350000D01*
X6100000Y-4375000D02*
X5675000Y-4375000D01*
X6525000Y-4375000D02*
X6500000Y-4350000D01*
X6500000Y-4350000D02*
X6125000Y-4350000D01*
X6125000Y-4350000D02*
X6100000Y-4375000D01*
X6750000Y-4725000D02*
X6800000Y-4775000D01*
X7325000Y-4925000D02*
X7750000Y-4925000D01*
X7175000Y-4775000D02*
X7325000Y-4925000D01*
X6800000Y-4775000D02*
X7175000Y-4775000D01*
X6750000Y-4325000D02*
X6050000Y-4325000D01*
X6350000Y-4050000D02*
X6050000Y-4050000D01*
X7750000Y-4825000D02*
X7625958Y-4700958D01*
X7400958Y-4700958D02*
X7375000Y-4675000D01*
X7625958Y-4700958D02*
X7400958Y-4700958D01*
X7050000Y-4725000D02*
X7100000Y-4675000D01*
X7100000Y-4675000D02*
X7375000Y-4675000D01*
X6975000Y-4500000D02*
X6925000Y-4550000D01*
X6925000Y-4550000D02*
X6875000Y-4550000D01*
X7300000Y-4500000D02*
X6975000Y-4500000D01*
X7750000Y-4525000D02*
X7675000Y-4450000D01*
X7350000Y-4450000D02*
X7300000Y-4500000D01*
X7675000Y-4450000D02*
X7350000Y-4450000D01*
X6850000Y-4425000D02*
X6850000Y-4525000D01*
X6850000Y-4525000D02*
X6875000Y-4550000D01*
X5625000Y-4575000D02*
X6475000Y-4575000D01*
X6475000Y-4575000D02*
X6525000Y-4525000D01*
X6525000Y-4525000D02*
X6525000Y-4425000D01*
X6600000Y-4350000D02*
X6525000Y-4425000D01*
X6800000Y-4375000D02*
X6750000Y-4375000D01*
X6800000Y-4375000D02*
X6850000Y-4425000D01*
X6725000Y-4350000D02*
X6600000Y-4350000D01*
X6750000Y-4375000D02*
X6725000Y-4350000D01*
X5575000Y-4525000D02*
X5625000Y-4575000D01*
X7000000Y-4525000D02*
X6950000Y-4575000D01*
X6950000Y-4575000D02*
X6850000Y-4575000D01*
X7750000Y-4625000D02*
X7600000Y-4475000D01*
X7375000Y-4475000D02*
X7325000Y-4525000D01*
X7600000Y-4475000D02*
X7375000Y-4475000D01*
X6750000Y-4425000D02*
X6750000Y-4475000D01*
X6750000Y-4475000D02*
X6850000Y-4575000D01*
X7000000Y-4525000D02*
X7325000Y-4525000D01*
X6625000Y-4375000D02*
X6575000Y-4425000D01*
X6500000Y-4600000D02*
X5750000Y-4600000D01*
X6575000Y-4525000D02*
X6500000Y-4600000D01*
X6575000Y-4425000D02*
X6575000Y-4525000D01*
X5750000Y-4600000D02*
X5725000Y-4625000D01*
X6750000Y-4425000D02*
X6700000Y-4375000D01*
X6700000Y-4375000D02*
X6625000Y-4375000D01*
X7750000Y-4325000D02*
X7700000Y-4375000D01*
X7700000Y-4375000D02*
X7200000Y-4375000D01*
X7150000Y-4425000D02*
X7200000Y-4375000D01*
X6700000Y-5750000D02*
X6750000Y-5700000D01*
X7150000Y-5600000D02*
X7200000Y-5550000D01*
X6775000Y-5600000D02*
X7150000Y-5600000D01*
X6750000Y-5625000D02*
X6775000Y-5600000D01*
X6750000Y-5700000D02*
X6750000Y-5625000D01*
X7050000Y-4425000D02*
X7100000Y-4475000D01*
X7325000Y-4425000D02*
X7750000Y-4425000D01*
X7275000Y-4475000D02*
X7325000Y-4425000D01*
X7100000Y-4475000D02*
X7275000Y-4475000D01*
X5300000Y-4375000D02*
X5125000Y-4375000D01*
X5400000Y-4475000D02*
X5300000Y-4375000D01*
X5675000Y-4475000D02*
X5400000Y-4475000D01*
X5925000Y-4425000D02*
X5825000Y-4425000D01*
X5825000Y-4425000D02*
X5725000Y-4425000D01*
X5575000Y-4950000D02*
X5650000Y-4875000D01*
X4975000Y-4950000D02*
X5575000Y-4950000D01*
X4900000Y-5025000D02*
X4975000Y-4950000D01*
X4725000Y-5025000D02*
X4900000Y-5025000D01*
X4775000Y-5375000D02*
X4750000Y-5400000D01*
X4750000Y-5550000D02*
X4825000Y-5625000D01*
X4750000Y-5400000D02*
X4750000Y-5550000D01*
X5425000Y-4725000D02*
X5350000Y-4725000D01*
X5350000Y-4725000D02*
X5325000Y-4700000D01*
X5325000Y-4700000D02*
X5100000Y-4700000D01*
X5100000Y-4700000D02*
X5075000Y-4700000D01*
X5075000Y-4700000D02*
X4900000Y-4875000D01*
X4900000Y-4875000D02*
X4900000Y-4925000D01*
X7475000Y-4525000D02*
X7375000Y-4625000D01*
X6850000Y-4625000D02*
X6650000Y-4425000D01*
X7375000Y-4625000D02*
X6850000Y-4625000D01*
D26*
X5625000Y-5825000D02*
X5350000Y-5825000D01*
X5350000Y-5825000D02*
X5025000Y-5500000D01*
X4425000Y-5625000D02*
X4575000Y-5625000D01*
X4675000Y-5525000D02*
X4675000Y-5375000D01*
X4575000Y-5625000D02*
X4675000Y-5525000D01*
X5225000Y-5250000D02*
X5150000Y-5175000D01*
X5150000Y-5175000D02*
X4925000Y-5175000D01*
X5400000Y-5250000D02*
X5225000Y-5250000D01*
X5700000Y-5750000D02*
X5625000Y-5825000D01*
X6100000Y-5750000D02*
X6025000Y-5825000D01*
X5775000Y-5825000D02*
X5700000Y-5750000D01*
X6025000Y-5825000D02*
X5775000Y-5825000D01*
X6500000Y-5750000D02*
X6425000Y-5825000D01*
X6175000Y-5825000D02*
X6100000Y-5750000D01*
X6425000Y-5825000D02*
X6175000Y-5825000D01*
X6900000Y-5750000D02*
X6825000Y-5825000D01*
X6575000Y-5825000D02*
X6500000Y-5750000D01*
X6825000Y-5825000D02*
X6575000Y-5825000D01*
X7300000Y-5750000D02*
X7225000Y-5825000D01*
X6975000Y-5825000D02*
X6900000Y-5750000D01*
X7225000Y-5825000D02*
X6975000Y-5825000D01*
X7525000Y-4825000D02*
X7375000Y-4825000D01*
X6350000Y-4750000D02*
X6250000Y-4650000D01*
X5800000Y-4650000D02*
X5725000Y-4725000D01*
X6250000Y-4650000D02*
X5800000Y-4650000D01*
X5250000Y-4625000D02*
X5625000Y-4625000D01*
X5625000Y-4625000D02*
X5725000Y-4725000D01*
X4875000Y-4825000D02*
X5075000Y-4625000D01*
X5075000Y-4625000D02*
X5250000Y-4625000D01*
X5700000Y-4200000D02*
X5625000Y-4275000D01*
X5625000Y-4275000D02*
X5550000Y-4275000D01*
X6100000Y-4200000D02*
X6025000Y-4275000D01*
X5775000Y-4275000D02*
X5700000Y-4200000D01*
X6025000Y-4275000D02*
X5775000Y-4275000D01*
X6500000Y-4200000D02*
X6425000Y-4275000D01*
X6175000Y-4275000D02*
X6100000Y-4200000D01*
X6425000Y-4275000D02*
X6175000Y-4275000D01*
X6900000Y-4200000D02*
X6825000Y-4275000D01*
X6575000Y-4275000D02*
X6500000Y-4200000D01*
X6825000Y-4275000D02*
X6575000Y-4275000D01*
X7300000Y-4200000D02*
X7225000Y-4275000D01*
X6975000Y-4275000D02*
X6900000Y-4200000D01*
X7225000Y-4275000D02*
X6975000Y-4275000D01*
X4725000Y-4775000D02*
X4775000Y-4775000D01*
X4775000Y-4775000D02*
X4825000Y-4825000D01*
X4825000Y-4825000D02*
X4875000Y-4825000D01*
X4925000Y-5175000D02*
X4825000Y-5075000D01*
X4825000Y-5075000D02*
X4775000Y-5075000D01*
D25*
X6500000Y-5750000D02*
X6475000Y-5750000D01*
X5625000Y-4425000D02*
X5525000Y-4425000D01*
X5525000Y-4425000D02*
X5425000Y-4425000D01*
D26*
X6475000Y-4750000D02*
X6650000Y-4575000D01*
X6650000Y-4575000D02*
X6650000Y-4425000D01*
X6350000Y-4750000D02*
X6475000Y-4750000D01*
X5425000Y-4400000D02*
X5550000Y-4275000D01*
X5425000Y-4425000D02*
X5425000Y-4400000D01*
D27*
G36*
X6005204Y-4845980D02*
X5999996Y-4858521D01*
X5994533Y-4845300D01*
X5979778Y-4830519D01*
X5960489Y-4822509D01*
X5939603Y-4822491D01*
X5920300Y-4830467D01*
X5905519Y-4845222D01*
X5899996Y-4858521D01*
X5894533Y-4845300D01*
X5879778Y-4830519D01*
X5860489Y-4822509D01*
X5839603Y-4822491D01*
X5820300Y-4830467D01*
X5805519Y-4845222D01*
X5799996Y-4858521D01*
X5794533Y-4845300D01*
X5779778Y-4830519D01*
X5760489Y-4822509D01*
X5739603Y-4822491D01*
X5720300Y-4830467D01*
X5705519Y-4845222D01*
X5699996Y-4858521D01*
X5694533Y-4845300D01*
X5679778Y-4830519D01*
X5660489Y-4822509D01*
X5639603Y-4822491D01*
X5620300Y-4830467D01*
X5605519Y-4845222D01*
X5597509Y-4864511D01*
X5597491Y-4885397D01*
X5597812Y-4886175D01*
X5562988Y-4921000D01*
X5100833Y-4921000D01*
X5104990Y-4910988D01*
X5105010Y-4889108D01*
X5096654Y-4868886D01*
X5081196Y-4853400D01*
X5060988Y-4845010D01*
X5039108Y-4844990D01*
X5018886Y-4853346D01*
X5003400Y-4868804D01*
X4995010Y-4889012D01*
X4994990Y-4910892D01*
X4999167Y-4921000D01*
X4975000Y-4921000D01*
X4963902Y-4923207D01*
X4954494Y-4929494D01*
X4936809Y-4947179D01*
X4942493Y-4933491D01*
X4942507Y-4916583D01*
X4936051Y-4900957D01*
X4929000Y-4893894D01*
X4929000Y-4887012D01*
X5065485Y-4750527D01*
X5060661Y-4762144D01*
X5060639Y-4787744D01*
X5070415Y-4811404D01*
X5088501Y-4829521D01*
X5112144Y-4839339D01*
X5137744Y-4839361D01*
X5161404Y-4829585D01*
X5179521Y-4811499D01*
X5189339Y-4787856D01*
X5189361Y-4762256D01*
X5179585Y-4738596D01*
X5170006Y-4729000D01*
X5312988Y-4729000D01*
X5329494Y-4745506D01*
X5330233Y-4746000D01*
X5325000Y-4746000D01*
X5313902Y-4748207D01*
X5304494Y-4754494D01*
X5270255Y-4788733D01*
X5262856Y-4785661D01*
X5237256Y-4785639D01*
X5213596Y-4795415D01*
X5195479Y-4813501D01*
X5185661Y-4837144D01*
X5185639Y-4862744D01*
X5195415Y-4886404D01*
X5213501Y-4904521D01*
X5237144Y-4914339D01*
X5262744Y-4914361D01*
X5286404Y-4904585D01*
X5304521Y-4886499D01*
X5314339Y-4862856D01*
X5314361Y-4837256D01*
X5311260Y-4829752D01*
X5337012Y-4804000D01*
X5354996Y-4804000D01*
X5345479Y-4813501D01*
X5335661Y-4837144D01*
X5335639Y-4862744D01*
X5345415Y-4886404D01*
X5363501Y-4904521D01*
X5387144Y-4914339D01*
X5412744Y-4914361D01*
X5436404Y-4904585D01*
X5454521Y-4886499D01*
X5464339Y-4862856D01*
X5464361Y-4837256D01*
X5461260Y-4829752D01*
X5462012Y-4829000D01*
X5500000Y-4829000D01*
X5511098Y-4826793D01*
X5520506Y-4820506D01*
X5537012Y-4804000D01*
X5775000Y-4804000D01*
X5786098Y-4801793D01*
X5795506Y-4795506D01*
X5813812Y-4777200D01*
X5814511Y-4777491D01*
X5835397Y-4777509D01*
X5854700Y-4769533D01*
X5869481Y-4754778D01*
X5875004Y-4741478D01*
X5880467Y-4754700D01*
X5895222Y-4769481D01*
X5914511Y-4777491D01*
X5935397Y-4777509D01*
X5936175Y-4777188D01*
X6004494Y-4845506D01*
X6005204Y-4845980D01*
X6005204Y-4845980D01*
G37*
X6005204Y-4845980D02*
X5999996Y-4858521D01*
X5994533Y-4845300D01*
X5979778Y-4830519D01*
X5960489Y-4822509D01*
X5939603Y-4822491D01*
X5920300Y-4830467D01*
X5905519Y-4845222D01*
X5899996Y-4858521D01*
X5894533Y-4845300D01*
X5879778Y-4830519D01*
X5860489Y-4822509D01*
X5839603Y-4822491D01*
X5820300Y-4830467D01*
X5805519Y-4845222D01*
X5799996Y-4858521D01*
X5794533Y-4845300D01*
X5779778Y-4830519D01*
X5760489Y-4822509D01*
X5739603Y-4822491D01*
X5720300Y-4830467D01*
X5705519Y-4845222D01*
X5699996Y-4858521D01*
X5694533Y-4845300D01*
X5679778Y-4830519D01*
X5660489Y-4822509D01*
X5639603Y-4822491D01*
X5620300Y-4830467D01*
X5605519Y-4845222D01*
X5597509Y-4864511D01*
X5597491Y-4885397D01*
X5597812Y-4886175D01*
X5562988Y-4921000D01*
X5100833Y-4921000D01*
X5104990Y-4910988D01*
X5105010Y-4889108D01*
X5096654Y-4868886D01*
X5081196Y-4853400D01*
X5060988Y-4845010D01*
X5039108Y-4844990D01*
X5018886Y-4853346D01*
X5003400Y-4868804D01*
X4995010Y-4889012D01*
X4994990Y-4910892D01*
X4999167Y-4921000D01*
X4975000Y-4921000D01*
X4963902Y-4923207D01*
X4954494Y-4929494D01*
X4936809Y-4947179D01*
X4942493Y-4933491D01*
X4942507Y-4916583D01*
X4936051Y-4900957D01*
X4929000Y-4893894D01*
X4929000Y-4887012D01*
X5065485Y-4750527D01*
X5060661Y-4762144D01*
X5060639Y-4787744D01*
X5070415Y-4811404D01*
X5088501Y-4829521D01*
X5112144Y-4839339D01*
X5137744Y-4839361D01*
X5161404Y-4829585D01*
X5179521Y-4811499D01*
X5189339Y-4787856D01*
X5189361Y-4762256D01*
X5179585Y-4738596D01*
X5170006Y-4729000D01*
X5312988Y-4729000D01*
X5329494Y-4745506D01*
X5330233Y-4746000D01*
X5325000Y-4746000D01*
X5313902Y-4748207D01*
X5304494Y-4754494D01*
X5270255Y-4788733D01*
X5262856Y-4785661D01*
X5237256Y-4785639D01*
X5213596Y-4795415D01*
X5195479Y-4813501D01*
X5185661Y-4837144D01*
X5185639Y-4862744D01*
X5195415Y-4886404D01*
X5213501Y-4904521D01*
X5237144Y-4914339D01*
X5262744Y-4914361D01*
X5286404Y-4904585D01*
X5304521Y-4886499D01*
X5314339Y-4862856D01*
X5314361Y-4837256D01*
X5311260Y-4829752D01*
X5337012Y-4804000D01*
X5354996Y-4804000D01*
X5345479Y-4813501D01*
X5335661Y-4837144D01*
X5335639Y-4862744D01*
X5345415Y-4886404D01*
X5363501Y-4904521D01*
X5387144Y-4914339D01*
X5412744Y-4914361D01*
X5436404Y-4904585D01*
X5454521Y-4886499D01*
X5464339Y-4862856D01*
X5464361Y-4837256D01*
X5461260Y-4829752D01*
X5462012Y-4829000D01*
X5500000Y-4829000D01*
X5511098Y-4826793D01*
X5520506Y-4820506D01*
X5537012Y-4804000D01*
X5775000Y-4804000D01*
X5786098Y-4801793D01*
X5795506Y-4795506D01*
X5813812Y-4777200D01*
X5814511Y-4777491D01*
X5835397Y-4777509D01*
X5854700Y-4769533D01*
X5869481Y-4754778D01*
X5875004Y-4741478D01*
X5880467Y-4754700D01*
X5895222Y-4769481D01*
X5914511Y-4777491D01*
X5935397Y-4777509D01*
X5936175Y-4777188D01*
X6004494Y-4845506D01*
X6005204Y-4845980D01*
G36*
X6012692Y-4346000D02*
X5687012Y-4346000D01*
X5670506Y-4329494D01*
X5661098Y-4323207D01*
X5650000Y-4321000D01*
X5606102Y-4321000D01*
X5605104Y-4320000D01*
X5625000Y-4320000D01*
X5642221Y-4316575D01*
X5656820Y-4306820D01*
X5700000Y-4263640D01*
X5743180Y-4306820D01*
X5757779Y-4316575D01*
X5775000Y-4320000D01*
X6007504Y-4320000D01*
X6007493Y-4333417D01*
X6012692Y-4346000D01*
X6012692Y-4346000D01*
G37*
X6012692Y-4346000D02*
X5687012Y-4346000D01*
X5670506Y-4329494D01*
X5661098Y-4323207D01*
X5650000Y-4321000D01*
X5606102Y-4321000D01*
X5605104Y-4320000D01*
X5625000Y-4320000D01*
X5642221Y-4316575D01*
X5656820Y-4306820D01*
X5700000Y-4263640D01*
X5743180Y-4306820D01*
X5757779Y-4316575D01*
X5775000Y-4320000D01*
X6007504Y-4320000D01*
X6007493Y-4333417D01*
X6012692Y-4346000D01*
G36*
X6026971Y-4725557D02*
X6025557Y-4726971D01*
X6025000Y-4726414D01*
X6024443Y-4726971D01*
X6023029Y-4725557D01*
X6023586Y-4725000D01*
X6023029Y-4724443D01*
X6024443Y-4723029D01*
X6025000Y-4723586D01*
X6025557Y-4723029D01*
X6026971Y-4724443D01*
X6026414Y-4725000D01*
X6026971Y-4725557D01*
X6026971Y-4725557D01*
G37*
X6026971Y-4725557D02*
X6025557Y-4726971D01*
X6025000Y-4726414D01*
X6024443Y-4726971D01*
X6023029Y-4725557D01*
X6023586Y-4725000D01*
X6023029Y-4724443D01*
X6024443Y-4723029D01*
X6025000Y-4723586D01*
X6025557Y-4723029D01*
X6026971Y-4724443D01*
X6026414Y-4725000D01*
X6026971Y-4725557D01*
G36*
X6031482Y-4477506D02*
X6012988Y-4496000D01*
X6006102Y-4496000D01*
X5999106Y-4488991D01*
X5983491Y-4482507D01*
X5966583Y-4482493D01*
X5950957Y-4488949D01*
X5938991Y-4500894D01*
X5932507Y-4516509D01*
X5932493Y-4533417D01*
X5937692Y-4546000D01*
X5637012Y-4546000D01*
X5617499Y-4526486D01*
X5617507Y-4516583D01*
X5612308Y-4504000D01*
X5643898Y-4504000D01*
X5650894Y-4511009D01*
X5666509Y-4517493D01*
X5683417Y-4517507D01*
X5699043Y-4511051D01*
X5711009Y-4499106D01*
X5717493Y-4483491D01*
X5717498Y-4477493D01*
X5735397Y-4477509D01*
X5754700Y-4469533D01*
X5769481Y-4454778D01*
X5769804Y-4454000D01*
X5780177Y-4454000D01*
X5780467Y-4454700D01*
X5795222Y-4469481D01*
X5814511Y-4477491D01*
X5835397Y-4477509D01*
X5854700Y-4469533D01*
X5869481Y-4454778D01*
X5869804Y-4454000D01*
X5880177Y-4454000D01*
X5880467Y-4454700D01*
X5895222Y-4469481D01*
X5914511Y-4477491D01*
X5935397Y-4477509D01*
X5954700Y-4469533D01*
X5969481Y-4454778D01*
X5975004Y-4441478D01*
X5980467Y-4454700D01*
X5995222Y-4469481D01*
X6014511Y-4477491D01*
X6031482Y-4477506D01*
X6031482Y-4477506D01*
G37*
X6031482Y-4477506D02*
X6012988Y-4496000D01*
X6006102Y-4496000D01*
X5999106Y-4488991D01*
X5983491Y-4482507D01*
X5966583Y-4482493D01*
X5950957Y-4488949D01*
X5938991Y-4500894D01*
X5932507Y-4516509D01*
X5932493Y-4533417D01*
X5937692Y-4546000D01*
X5637012Y-4546000D01*
X5617499Y-4526486D01*
X5617507Y-4516583D01*
X5612308Y-4504000D01*
X5643898Y-4504000D01*
X5650894Y-4511009D01*
X5666509Y-4517493D01*
X5683417Y-4517507D01*
X5699043Y-4511051D01*
X5711009Y-4499106D01*
X5717493Y-4483491D01*
X5717498Y-4477493D01*
X5735397Y-4477509D01*
X5754700Y-4469533D01*
X5769481Y-4454778D01*
X5769804Y-4454000D01*
X5780177Y-4454000D01*
X5780467Y-4454700D01*
X5795222Y-4469481D01*
X5814511Y-4477491D01*
X5835397Y-4477509D01*
X5854700Y-4469533D01*
X5869481Y-4454778D01*
X5869804Y-4454000D01*
X5880177Y-4454000D01*
X5880467Y-4454700D01*
X5895222Y-4469481D01*
X5914511Y-4477491D01*
X5935397Y-4477509D01*
X5954700Y-4469533D01*
X5969481Y-4454778D01*
X5975004Y-4441478D01*
X5980467Y-4454700D01*
X5995222Y-4469481D01*
X6014511Y-4477491D01*
X6031482Y-4477506D01*
G36*
X6251971Y-4750557D02*
X6250557Y-4751971D01*
X6250000Y-4751414D01*
X6249443Y-4751971D01*
X6248029Y-4750557D01*
X6248586Y-4750000D01*
X6208948Y-4710363D01*
X6196173Y-4712129D01*
X6185778Y-4735610D01*
X6185160Y-4761282D01*
X6188913Y-4771000D01*
X6142504Y-4771000D01*
X6142507Y-4766583D01*
X6136051Y-4750957D01*
X6124106Y-4738991D01*
X6108491Y-4732507D01*
X6091583Y-4732493D01*
X6087299Y-4734263D01*
X6087776Y-4714045D01*
X6080408Y-4695000D01*
X6213884Y-4695000D01*
X6212129Y-4696173D01*
X6210363Y-4708948D01*
X6250000Y-4748586D01*
X6250557Y-4748029D01*
X6251971Y-4749443D01*
X6251414Y-4750000D01*
X6251971Y-4750557D01*
X6251971Y-4750557D01*
G37*
X6251971Y-4750557D02*
X6250557Y-4751971D01*
X6250000Y-4751414D01*
X6249443Y-4751971D01*
X6248029Y-4750557D01*
X6248586Y-4750000D01*
X6208948Y-4710363D01*
X6196173Y-4712129D01*
X6185778Y-4735610D01*
X6185160Y-4761282D01*
X6188913Y-4771000D01*
X6142504Y-4771000D01*
X6142507Y-4766583D01*
X6136051Y-4750957D01*
X6124106Y-4738991D01*
X6108491Y-4732507D01*
X6091583Y-4732493D01*
X6087299Y-4734263D01*
X6087776Y-4714045D01*
X6080408Y-4695000D01*
X6213884Y-4695000D01*
X6212129Y-4696173D01*
X6210363Y-4708948D01*
X6250000Y-4748586D01*
X6250557Y-4748029D01*
X6251971Y-4749443D01*
X6251414Y-4750000D01*
X6251971Y-4750557D01*
G36*
X6426787Y-4401000D02*
X6426000Y-4401000D01*
X6426000Y-4401787D01*
X6424000Y-4401787D01*
X6424000Y-4401000D01*
X6423213Y-4401000D01*
X6423213Y-4399000D01*
X6424000Y-4399000D01*
X6424000Y-4398213D01*
X6426000Y-4398213D01*
X6426000Y-4399000D01*
X6426787Y-4399000D01*
X6426787Y-4401000D01*
X6426787Y-4401000D01*
G37*
X6426787Y-4401000D02*
X6426000Y-4401000D01*
X6426000Y-4401787D01*
X6424000Y-4401787D01*
X6424000Y-4401000D01*
X6423213Y-4401000D01*
X6423213Y-4399000D01*
X6424000Y-4399000D01*
X6424000Y-4398213D01*
X6426000Y-4398213D01*
X6426000Y-4399000D01*
X6426787Y-4399000D01*
X6426787Y-4401000D01*
G36*
X6532360Y-4296000D02*
X6467640Y-4296000D01*
X6500000Y-4263640D01*
X6532360Y-4296000D01*
X6532360Y-4296000D01*
G37*
X6532360Y-4296000D02*
X6467640Y-4296000D01*
X6500000Y-4263640D01*
X6532360Y-4296000D01*
G36*
X6605000Y-4556360D02*
X6456360Y-4705000D01*
X6382157Y-4705000D01*
X6380940Y-4703782D01*
X6360898Y-4695459D01*
X6359098Y-4695458D01*
X6292640Y-4629000D01*
X6500000Y-4629000D01*
X6511098Y-4626793D01*
X6520506Y-4620506D01*
X6595506Y-4545506D01*
X6601793Y-4536098D01*
X6601793Y-4536098D01*
X6604000Y-4525000D01*
X6604000Y-4451150D01*
X6605000Y-4453571D01*
X6605000Y-4556360D01*
X6605000Y-4556360D01*
G37*
X6605000Y-4556360D02*
X6456360Y-4705000D01*
X6382157Y-4705000D01*
X6380940Y-4703782D01*
X6360898Y-4695459D01*
X6359098Y-4695458D01*
X6292640Y-4629000D01*
X6500000Y-4629000D01*
X6511098Y-4626793D01*
X6520506Y-4620506D01*
X6595506Y-4545506D01*
X6601793Y-4536098D01*
X6601793Y-4536098D01*
X6604000Y-4525000D01*
X6604000Y-4451150D01*
X6605000Y-4453571D01*
X6605000Y-4556360D01*
G36*
X6701787Y-5651000D02*
X6701000Y-5651000D01*
X6701000Y-5651787D01*
X6699000Y-5651787D01*
X6699000Y-5651000D01*
X6660242Y-5651000D01*
X6639758Y-5651000D01*
X6601000Y-5651000D01*
X6601000Y-5689757D01*
X6601000Y-5710243D01*
X6601000Y-5749000D01*
X6601787Y-5749000D01*
X6601787Y-5751000D01*
X6601000Y-5751000D01*
X6601000Y-5751787D01*
X6599000Y-5751787D01*
X6599000Y-5751000D01*
X6598213Y-5751000D01*
X6598213Y-5749000D01*
X6599000Y-5749000D01*
X6599000Y-5710243D01*
X6599000Y-5689757D01*
X6599000Y-5651000D01*
X6560242Y-5651000D01*
X6539758Y-5651000D01*
X6501000Y-5651000D01*
X6501000Y-5651787D01*
X6499000Y-5651787D01*
X6499000Y-5651000D01*
X6498213Y-5651000D01*
X6498213Y-5649000D01*
X6499000Y-5649000D01*
X6499000Y-5648213D01*
X6501000Y-5648213D01*
X6501000Y-5649000D01*
X6539758Y-5649000D01*
X6560242Y-5649000D01*
X6599000Y-5649000D01*
X6599000Y-5648213D01*
X6601000Y-5648213D01*
X6601000Y-5649000D01*
X6639758Y-5649000D01*
X6660242Y-5649000D01*
X6699000Y-5649000D01*
X6699000Y-5648213D01*
X6701000Y-5648213D01*
X6701000Y-5649000D01*
X6701787Y-5649000D01*
X6701787Y-5651000D01*
X6701787Y-5651000D01*
G37*
X6701787Y-5651000D02*
X6701000Y-5651000D01*
X6701000Y-5651787D01*
X6699000Y-5651787D01*
X6699000Y-5651000D01*
X6660242Y-5651000D01*
X6639758Y-5651000D01*
X6601000Y-5651000D01*
X6601000Y-5689757D01*
X6601000Y-5710243D01*
X6601000Y-5749000D01*
X6601787Y-5749000D01*
X6601787Y-5751000D01*
X6601000Y-5751000D01*
X6601000Y-5751787D01*
X6599000Y-5751787D01*
X6599000Y-5751000D01*
X6598213Y-5751000D01*
X6598213Y-5749000D01*
X6599000Y-5749000D01*
X6599000Y-5710243D01*
X6599000Y-5689757D01*
X6599000Y-5651000D01*
X6560242Y-5651000D01*
X6539758Y-5651000D01*
X6501000Y-5651000D01*
X6501000Y-5651787D01*
X6499000Y-5651787D01*
X6499000Y-5651000D01*
X6498213Y-5651000D01*
X6498213Y-5649000D01*
X6499000Y-5649000D01*
X6499000Y-5648213D01*
X6501000Y-5648213D01*
X6501000Y-5649000D01*
X6539758Y-5649000D01*
X6560242Y-5649000D01*
X6599000Y-5649000D01*
X6599000Y-5648213D01*
X6601000Y-5648213D01*
X6601000Y-5649000D01*
X6639758Y-5649000D01*
X6660242Y-5649000D01*
X6699000Y-5649000D01*
X6699000Y-5648213D01*
X6701000Y-5648213D01*
X6701000Y-5649000D01*
X6701787Y-5649000D01*
X6701787Y-5651000D01*
G36*
X7199654Y-4996000D02*
X6362012Y-4996000D01*
X6352821Y-4986809D01*
X6366509Y-4992493D01*
X6383417Y-4992507D01*
X6399043Y-4986051D01*
X6406106Y-4979000D01*
X6775000Y-4979000D01*
X6786098Y-4976793D01*
X6795506Y-4970506D01*
X6838812Y-4927200D01*
X6839511Y-4927491D01*
X6860397Y-4927509D01*
X6879700Y-4919533D01*
X6894481Y-4904778D01*
X6900004Y-4891478D01*
X6905467Y-4904700D01*
X6920222Y-4919481D01*
X6939511Y-4927491D01*
X6960397Y-4927509D01*
X6979700Y-4919533D01*
X6994481Y-4904778D01*
X7002491Y-4885489D01*
X7002509Y-4864603D01*
X6998128Y-4854000D01*
X7087988Y-4854000D01*
X7196231Y-4962243D01*
X7195459Y-4964102D01*
X7195441Y-4985803D01*
X7199654Y-4996000D01*
X7199654Y-4996000D01*
G37*
X7199654Y-4996000D02*
X6362012Y-4996000D01*
X6352821Y-4986809D01*
X6366509Y-4992493D01*
X6383417Y-4992507D01*
X6399043Y-4986051D01*
X6406106Y-4979000D01*
X6775000Y-4979000D01*
X6786098Y-4976793D01*
X6795506Y-4970506D01*
X6838812Y-4927200D01*
X6839511Y-4927491D01*
X6860397Y-4927509D01*
X6879700Y-4919533D01*
X6894481Y-4904778D01*
X6900004Y-4891478D01*
X6905467Y-4904700D01*
X6920222Y-4919481D01*
X6939511Y-4927491D01*
X6960397Y-4927509D01*
X6979700Y-4919533D01*
X6994481Y-4904778D01*
X7002491Y-4885489D01*
X7002509Y-4864603D01*
X6998128Y-4854000D01*
X7087988Y-4854000D01*
X7196231Y-4962243D01*
X7195459Y-4964102D01*
X7195441Y-4985803D01*
X7199654Y-4996000D01*
G36*
X7424654Y-4504000D02*
X7420459Y-4514102D01*
X7420441Y-4535803D01*
X7421243Y-4537745D01*
X7362988Y-4596000D01*
X7237298Y-4596000D01*
X7242493Y-4583491D01*
X7242507Y-4566583D01*
X7237308Y-4554000D01*
X7325000Y-4554000D01*
X7336098Y-4551793D01*
X7345506Y-4545506D01*
X7387012Y-4504000D01*
X7424654Y-4504000D01*
X7424654Y-4504000D01*
G37*
X7424654Y-4504000D02*
X7420459Y-4514102D01*
X7420441Y-4535803D01*
X7421243Y-4537745D01*
X7362988Y-4596000D01*
X7237298Y-4596000D01*
X7242493Y-4583491D01*
X7242507Y-4566583D01*
X7237308Y-4554000D01*
X7325000Y-4554000D01*
X7336098Y-4551793D01*
X7345506Y-4545506D01*
X7387012Y-4504000D01*
X7424654Y-4504000D01*
G36*
X7694839Y-4646000D02*
X7536296Y-4646000D01*
X7539222Y-4639390D01*
X7539840Y-4613718D01*
X7530587Y-4589763D01*
X7528827Y-4587129D01*
X7516052Y-4585363D01*
X7476414Y-4625000D01*
X7476971Y-4625557D01*
X7475557Y-4626971D01*
X7475000Y-4626414D01*
X7474443Y-4626971D01*
X7473029Y-4625557D01*
X7473586Y-4625000D01*
X7473029Y-4624443D01*
X7474443Y-4623029D01*
X7475000Y-4623586D01*
X7514637Y-4583948D01*
X7512871Y-4571173D01*
X7508083Y-4569053D01*
X7521218Y-4555940D01*
X7529541Y-4535898D01*
X7529559Y-4514197D01*
X7525346Y-4504000D01*
X7587988Y-4504000D01*
X7692826Y-4608839D01*
X7691010Y-4613213D01*
X7690990Y-4636684D01*
X7694839Y-4646000D01*
X7694839Y-4646000D01*
G37*
X7694839Y-4646000D02*
X7536296Y-4646000D01*
X7539222Y-4639390D01*
X7539840Y-4613718D01*
X7530587Y-4589763D01*
X7528827Y-4587129D01*
X7516052Y-4585363D01*
X7476414Y-4625000D01*
X7476971Y-4625557D01*
X7475557Y-4626971D01*
X7475000Y-4626414D01*
X7474443Y-4626971D01*
X7473029Y-4625557D01*
X7473586Y-4625000D01*
X7473029Y-4624443D01*
X7474443Y-4623029D01*
X7475000Y-4623586D01*
X7514637Y-4583948D01*
X7512871Y-4571173D01*
X7508083Y-4569053D01*
X7521218Y-4555940D01*
X7529541Y-4535898D01*
X7529559Y-4514197D01*
X7525346Y-4504000D01*
X7587988Y-4504000D01*
X7692826Y-4608839D01*
X7691010Y-4613213D01*
X7690990Y-4636684D01*
X7694839Y-4646000D01*
G36*
X7716572Y-4875004D02*
X7700011Y-4891536D01*
X7698158Y-4896000D01*
X7337012Y-4896000D01*
X7330139Y-4889127D01*
X7330677Y-4889350D01*
X7340623Y-4889350D01*
X7419323Y-4889350D01*
X7428511Y-4885544D01*
X7435544Y-4878511D01*
X7439069Y-4870000D01*
X7478996Y-4870000D01*
X7488501Y-4879521D01*
X7512144Y-4889339D01*
X7537744Y-4889361D01*
X7561404Y-4879585D01*
X7579521Y-4861499D01*
X7589339Y-4837856D01*
X7589361Y-4812256D01*
X7579585Y-4788596D01*
X7561499Y-4770479D01*
X7537856Y-4760661D01*
X7512256Y-4760639D01*
X7488596Y-4770415D01*
X7478994Y-4780000D01*
X7439069Y-4780000D01*
X7435544Y-4771489D01*
X7428511Y-4764456D01*
X7419323Y-4760650D01*
X7409377Y-4760650D01*
X7330677Y-4760650D01*
X7321489Y-4764456D01*
X7314456Y-4771489D01*
X7310650Y-4780677D01*
X7310650Y-4790623D01*
X7310650Y-4869323D01*
X7310873Y-4869861D01*
X7221944Y-4780932D01*
X7236098Y-4787190D01*
X7260955Y-4787776D01*
X7284145Y-4778805D01*
X7286643Y-4777136D01*
X7288159Y-4764573D01*
X7250000Y-4726414D01*
X7249443Y-4726971D01*
X7248029Y-4725557D01*
X7248586Y-4725000D01*
X7248029Y-4724443D01*
X7249443Y-4723029D01*
X7250000Y-4723586D01*
X7250557Y-4723029D01*
X7251971Y-4724443D01*
X7251414Y-4725000D01*
X7289573Y-4763159D01*
X7302136Y-4761643D01*
X7312190Y-4738902D01*
X7312776Y-4714045D01*
X7308890Y-4704000D01*
X7362988Y-4704000D01*
X7380452Y-4721464D01*
X7389860Y-4727751D01*
X7400958Y-4729958D01*
X7613946Y-4729958D01*
X7692826Y-4808839D01*
X7691010Y-4813213D01*
X7690990Y-4836684D01*
X7699953Y-4858377D01*
X7716536Y-4874989D01*
X7716572Y-4875004D01*
X7716572Y-4875004D01*
G37*
X7716572Y-4875004D02*
X7700011Y-4891536D01*
X7698158Y-4896000D01*
X7337012Y-4896000D01*
X7330139Y-4889127D01*
X7330677Y-4889350D01*
X7340623Y-4889350D01*
X7419323Y-4889350D01*
X7428511Y-4885544D01*
X7435544Y-4878511D01*
X7439069Y-4870000D01*
X7478996Y-4870000D01*
X7488501Y-4879521D01*
X7512144Y-4889339D01*
X7537744Y-4889361D01*
X7561404Y-4879585D01*
X7579521Y-4861499D01*
X7589339Y-4837856D01*
X7589361Y-4812256D01*
X7579585Y-4788596D01*
X7561499Y-4770479D01*
X7537856Y-4760661D01*
X7512256Y-4760639D01*
X7488596Y-4770415D01*
X7478994Y-4780000D01*
X7439069Y-4780000D01*
X7435544Y-4771489D01*
X7428511Y-4764456D01*
X7419323Y-4760650D01*
X7409377Y-4760650D01*
X7330677Y-4760650D01*
X7321489Y-4764456D01*
X7314456Y-4771489D01*
X7310650Y-4780677D01*
X7310650Y-4790623D01*
X7310650Y-4869323D01*
X7310873Y-4869861D01*
X7221944Y-4780932D01*
X7236098Y-4787190D01*
X7260955Y-4787776D01*
X7284145Y-4778805D01*
X7286643Y-4777136D01*
X7288159Y-4764573D01*
X7250000Y-4726414D01*
X7249443Y-4726971D01*
X7248029Y-4725557D01*
X7248586Y-4725000D01*
X7248029Y-4724443D01*
X7249443Y-4723029D01*
X7250000Y-4723586D01*
X7250557Y-4723029D01*
X7251971Y-4724443D01*
X7251414Y-4725000D01*
X7289573Y-4763159D01*
X7302136Y-4761643D01*
X7312190Y-4738902D01*
X7312776Y-4714045D01*
X7308890Y-4704000D01*
X7362988Y-4704000D01*
X7380452Y-4721464D01*
X7389860Y-4727751D01*
X7400958Y-4729958D01*
X7613946Y-4729958D01*
X7692826Y-4808839D01*
X7691010Y-4813213D01*
X7690990Y-4836684D01*
X7699953Y-4858377D01*
X7716536Y-4874989D01*
X7716572Y-4875004D01*
G36*
X7716572Y-4975004D02*
X7700011Y-4991536D01*
X7698158Y-4996000D01*
X7387012Y-4996000D01*
X7345012Y-4954000D01*
X7698144Y-4954000D01*
X7699953Y-4958377D01*
X7716536Y-4974989D01*
X7716572Y-4975004D01*
X7716572Y-4975004D01*
G37*
X7716572Y-4975004D02*
X7700011Y-4991536D01*
X7698158Y-4996000D01*
X7387012Y-4996000D01*
X7345012Y-4954000D01*
X7698144Y-4954000D01*
X7699953Y-4958377D01*
X7716536Y-4974989D01*
X7716572Y-4975004D01*
G36*
X7845000Y-5870000D02*
X7225000Y-5870000D01*
X7242221Y-5866575D01*
X7256820Y-5856820D01*
X7305505Y-5808135D01*
X7323734Y-5804509D01*
X7342875Y-5791719D01*
X7355665Y-5772578D01*
X7360156Y-5750000D01*
X7355665Y-5727422D01*
X7342875Y-5708281D01*
X7339380Y-5705945D01*
X7356404Y-5689744D01*
X7367320Y-5665134D01*
X7367987Y-5661781D01*
X7367987Y-5638219D01*
X7367320Y-5634866D01*
X7356404Y-5610256D01*
X7336901Y-5591696D01*
X7311781Y-5582013D01*
X7301000Y-5589757D01*
X7301000Y-5649000D01*
X7360242Y-5649000D01*
X7367987Y-5638219D01*
X7367987Y-5661781D01*
X7360242Y-5651000D01*
X7301000Y-5651000D01*
X7301000Y-5651787D01*
X7299000Y-5651787D01*
X7299000Y-5651000D01*
X7260242Y-5651000D01*
X7239758Y-5651000D01*
X7201000Y-5651000D01*
X7201000Y-5651787D01*
X7199000Y-5651787D01*
X7199000Y-5651000D01*
X7160242Y-5651000D01*
X7139758Y-5651000D01*
X7101000Y-5651000D01*
X7101000Y-5651787D01*
X7099000Y-5651787D01*
X7099000Y-5651000D01*
X7060242Y-5651000D01*
X7039758Y-5651000D01*
X7001000Y-5651000D01*
X7001000Y-5689757D01*
X7001000Y-5710243D01*
X7001000Y-5749000D01*
X7001787Y-5749000D01*
X7001787Y-5751000D01*
X7001000Y-5751000D01*
X7001000Y-5751787D01*
X6999000Y-5751787D01*
X6999000Y-5751000D01*
X6998213Y-5751000D01*
X6998213Y-5749000D01*
X6999000Y-5749000D01*
X6999000Y-5710243D01*
X6999000Y-5689757D01*
X6999000Y-5651000D01*
X6960242Y-5651000D01*
X6939758Y-5651000D01*
X6901000Y-5651000D01*
X6901000Y-5651787D01*
X6899000Y-5651787D01*
X6899000Y-5651000D01*
X6860242Y-5651000D01*
X6839758Y-5651000D01*
X6801000Y-5651000D01*
X6801000Y-5651787D01*
X6799000Y-5651787D01*
X6799000Y-5651000D01*
X6798213Y-5651000D01*
X6798213Y-5649000D01*
X6799000Y-5649000D01*
X6799000Y-5648213D01*
X6801000Y-5648213D01*
X6801000Y-5649000D01*
X6839758Y-5649000D01*
X6860242Y-5649000D01*
X6899000Y-5649000D01*
X6899000Y-5648213D01*
X6901000Y-5648213D01*
X6901000Y-5649000D01*
X6939758Y-5649000D01*
X6960242Y-5649000D01*
X6999000Y-5649000D01*
X6999000Y-5648213D01*
X7001000Y-5648213D01*
X7001000Y-5649000D01*
X7039758Y-5649000D01*
X7060242Y-5649000D01*
X7099000Y-5649000D01*
X7099000Y-5648213D01*
X7101000Y-5648213D01*
X7101000Y-5649000D01*
X7139758Y-5649000D01*
X7160242Y-5649000D01*
X7199000Y-5649000D01*
X7199000Y-5648213D01*
X7201000Y-5648213D01*
X7201000Y-5649000D01*
X7239758Y-5649000D01*
X7260242Y-5649000D01*
X7299000Y-5649000D01*
X7299000Y-5589757D01*
X7288219Y-5582013D01*
X7263099Y-5591696D01*
X7250000Y-5604162D01*
X7236901Y-5591696D01*
X7223180Y-5586407D01*
X7224043Y-5586051D01*
X7224991Y-5585104D01*
X7225894Y-5586009D01*
X7241509Y-5592493D01*
X7258417Y-5592507D01*
X7274043Y-5586051D01*
X7286009Y-5574106D01*
X7292493Y-5558491D01*
X7292507Y-5541583D01*
X7286051Y-5525957D01*
X7274106Y-5513991D01*
X7258491Y-5507507D01*
X7248511Y-5507499D01*
X7145012Y-5404000D01*
X7559988Y-5404000D01*
X7663733Y-5507745D01*
X7660661Y-5515144D01*
X7660639Y-5540744D01*
X7670415Y-5564404D01*
X7671555Y-5565546D01*
X7648824Y-5565526D01*
X7596206Y-5587268D01*
X7555913Y-5627490D01*
X7534080Y-5680070D01*
X7534030Y-5737003D01*
X7555772Y-5789621D01*
X7595994Y-5829914D01*
X7648574Y-5851747D01*
X7705507Y-5851796D01*
X7758125Y-5830055D01*
X7798418Y-5789833D01*
X7820251Y-5737253D01*
X7820300Y-5680320D01*
X7820300Y-4105517D01*
X7798559Y-4052899D01*
X7758337Y-4012606D01*
X7705757Y-3990773D01*
X7648824Y-3990723D01*
X7596206Y-4012465D01*
X7555913Y-4052687D01*
X7534080Y-4105267D01*
X7534030Y-4162200D01*
X7555772Y-4214818D01*
X7595994Y-4255110D01*
X7648574Y-4276944D01*
X7705507Y-4276993D01*
X7758125Y-4255252D01*
X7798418Y-4215030D01*
X7820251Y-4162450D01*
X7820300Y-4105517D01*
X7820300Y-5680320D01*
X7819000Y-5677173D01*
X7819000Y-5165962D01*
X7819000Y-5134750D01*
X7819000Y-5115250D01*
X7819000Y-5084038D01*
X7813672Y-5071174D01*
X7803826Y-5061328D01*
X7799086Y-5059365D01*
X7799989Y-5058464D01*
X7808990Y-5036787D01*
X7809010Y-5013316D01*
X7800047Y-4991623D01*
X7783464Y-4975011D01*
X7783428Y-4974996D01*
X7799989Y-4958464D01*
X7808990Y-4936787D01*
X7809010Y-4913316D01*
X7800047Y-4891623D01*
X7783464Y-4875011D01*
X7783428Y-4874996D01*
X7799989Y-4858464D01*
X7808990Y-4836787D01*
X7809010Y-4813316D01*
X7800047Y-4791623D01*
X7783464Y-4775011D01*
X7783428Y-4774996D01*
X7799989Y-4758464D01*
X7808990Y-4736787D01*
X7809010Y-4713316D01*
X7800047Y-4691623D01*
X7783464Y-4675011D01*
X7783428Y-4674996D01*
X7799989Y-4658464D01*
X7808990Y-4636787D01*
X7809010Y-4613316D01*
X7800047Y-4591623D01*
X7783464Y-4575011D01*
X7783428Y-4574996D01*
X7799989Y-4558464D01*
X7808990Y-4536787D01*
X7809010Y-4513316D01*
X7800047Y-4491623D01*
X7783464Y-4475011D01*
X7783428Y-4474996D01*
X7799989Y-4458464D01*
X7808990Y-4436787D01*
X7809010Y-4413316D01*
X7800047Y-4391623D01*
X7783464Y-4375011D01*
X7783428Y-4374996D01*
X7799989Y-4358464D01*
X7808990Y-4336787D01*
X7809010Y-4313316D01*
X7800047Y-4291623D01*
X7783464Y-4275011D01*
X7761787Y-4266010D01*
X7738316Y-4265990D01*
X7716623Y-4274953D01*
X7700011Y-4291536D01*
X7691010Y-4313213D01*
X7690990Y-4336684D01*
X7692836Y-4341152D01*
X7687988Y-4346000D01*
X7200000Y-4346000D01*
X7188902Y-4348207D01*
X7179494Y-4354494D01*
X7161188Y-4372800D01*
X7160489Y-4372509D01*
X7139603Y-4372491D01*
X7120300Y-4380467D01*
X7105519Y-4395222D01*
X7099996Y-4408521D01*
X7094533Y-4395300D01*
X7079778Y-4380519D01*
X7060489Y-4372509D01*
X7039603Y-4372491D01*
X7020300Y-4380467D01*
X7005519Y-4395222D01*
X6999996Y-4408521D01*
X6994533Y-4395300D01*
X6979778Y-4380519D01*
X6960489Y-4372509D01*
X6939603Y-4372491D01*
X6920300Y-4380467D01*
X6905519Y-4395222D01*
X6899996Y-4408521D01*
X6894533Y-4395300D01*
X6879778Y-4380519D01*
X6860489Y-4372509D01*
X6839603Y-4372491D01*
X6838825Y-4372812D01*
X6820506Y-4354494D01*
X6811098Y-4348207D01*
X6800000Y-4346000D01*
X6787298Y-4346000D01*
X6792493Y-4333491D01*
X6792504Y-4320000D01*
X6825000Y-4320000D01*
X6842221Y-4316575D01*
X6856820Y-4306820D01*
X6900000Y-4263640D01*
X6943180Y-4306820D01*
X6957779Y-4316575D01*
X6975000Y-4320000D01*
X7225000Y-4320000D01*
X7242221Y-4316575D01*
X7256820Y-4306820D01*
X7305505Y-4258135D01*
X7323734Y-4254509D01*
X7342875Y-4241719D01*
X7355665Y-4222578D01*
X7360156Y-4200000D01*
X7355665Y-4177422D01*
X7342875Y-4158281D01*
X7339380Y-4155945D01*
X7356404Y-4139744D01*
X7367320Y-4115134D01*
X7367987Y-4111781D01*
X7367987Y-4088219D01*
X7367320Y-4084866D01*
X7356404Y-4060256D01*
X7336901Y-4041696D01*
X7311781Y-4032013D01*
X7301000Y-4039757D01*
X7301000Y-4099000D01*
X7360242Y-4099000D01*
X7367987Y-4088219D01*
X7367987Y-4111781D01*
X7360242Y-4101000D01*
X7301000Y-4101000D01*
X7301000Y-4101787D01*
X7299000Y-4101787D01*
X7299000Y-4101000D01*
X7299000Y-4099000D01*
X7299000Y-4039757D01*
X7288219Y-4032013D01*
X7263099Y-4041696D01*
X7250000Y-4054162D01*
X7236901Y-4041696D01*
X7211781Y-4032013D01*
X7201000Y-4039757D01*
X7201000Y-4099000D01*
X7239758Y-4099000D01*
X7260242Y-4099000D01*
X7299000Y-4099000D01*
X7299000Y-4101000D01*
X7260242Y-4101000D01*
X7239758Y-4101000D01*
X7201000Y-4101000D01*
X7201000Y-4101787D01*
X7199000Y-4101787D01*
X7199000Y-4101000D01*
X7199000Y-4099000D01*
X7199000Y-4039757D01*
X7188219Y-4032013D01*
X7163099Y-4041696D01*
X7150000Y-4054162D01*
X7136901Y-4041696D01*
X7111781Y-4032013D01*
X7101000Y-4039757D01*
X7101000Y-4099000D01*
X7139758Y-4099000D01*
X7160242Y-4099000D01*
X7199000Y-4099000D01*
X7199000Y-4101000D01*
X7160242Y-4101000D01*
X7139758Y-4101000D01*
X7101000Y-4101000D01*
X7101000Y-4101787D01*
X7099000Y-4101787D01*
X7099000Y-4101000D01*
X7099000Y-4099000D01*
X7099000Y-4039757D01*
X7088219Y-4032013D01*
X7063099Y-4041696D01*
X7050000Y-4054162D01*
X7036901Y-4041696D01*
X7011781Y-4032013D01*
X7001000Y-4039757D01*
X7001000Y-4099000D01*
X7039758Y-4099000D01*
X7060242Y-4099000D01*
X7099000Y-4099000D01*
X7099000Y-4101000D01*
X7060242Y-4101000D01*
X7039758Y-4101000D01*
X7001000Y-4101000D01*
X7001000Y-4139757D01*
X7001000Y-4160243D01*
X7001000Y-4199000D01*
X7001787Y-4199000D01*
X7001787Y-4201000D01*
X7001000Y-4201000D01*
X7001000Y-4201787D01*
X6999000Y-4201787D01*
X6999000Y-4201000D01*
X6998213Y-4201000D01*
X6998213Y-4199000D01*
X6999000Y-4199000D01*
X6999000Y-4160243D01*
X6999000Y-4139757D01*
X6999000Y-4101000D01*
X6960242Y-4101000D01*
X6939758Y-4101000D01*
X6901000Y-4101000D01*
X6901000Y-4101787D01*
X6899000Y-4101787D01*
X6899000Y-4101000D01*
X6860242Y-4101000D01*
X6839758Y-4101000D01*
X6801000Y-4101000D01*
X6801000Y-4101787D01*
X6799000Y-4101787D01*
X6799000Y-4101000D01*
X6799000Y-4099000D01*
X6799000Y-4039757D01*
X6788219Y-4032013D01*
X6763099Y-4041696D01*
X6750000Y-4054162D01*
X6736901Y-4041696D01*
X6711781Y-4032013D01*
X6701000Y-4039757D01*
X6701000Y-4099000D01*
X6739758Y-4099000D01*
X6760242Y-4099000D01*
X6799000Y-4099000D01*
X6799000Y-4101000D01*
X6760242Y-4101000D01*
X6739758Y-4101000D01*
X6701000Y-4101000D01*
X6701000Y-4101787D01*
X6699000Y-4101787D01*
X6699000Y-4101000D01*
X6699000Y-4099000D01*
X6699000Y-4039757D01*
X6688219Y-4032013D01*
X6663099Y-4041696D01*
X6650000Y-4054162D01*
X6636901Y-4041696D01*
X6611781Y-4032013D01*
X6601000Y-4039757D01*
X6601000Y-4099000D01*
X6639758Y-4099000D01*
X6660242Y-4099000D01*
X6699000Y-4099000D01*
X6699000Y-4101000D01*
X6660242Y-4101000D01*
X6639758Y-4101000D01*
X6601000Y-4101000D01*
X6601000Y-4139757D01*
X6601000Y-4160243D01*
X6601000Y-4199000D01*
X6601787Y-4199000D01*
X6601787Y-4201000D01*
X6601000Y-4201000D01*
X6601000Y-4201787D01*
X6599000Y-4201787D01*
X6599000Y-4201000D01*
X6598213Y-4201000D01*
X6598213Y-4199000D01*
X6599000Y-4199000D01*
X6599000Y-4160243D01*
X6599000Y-4139757D01*
X6599000Y-4101000D01*
X6599000Y-4099000D01*
X6599000Y-4039757D01*
X6588219Y-4032013D01*
X6563099Y-4041696D01*
X6550000Y-4054162D01*
X6536901Y-4041696D01*
X6511781Y-4032013D01*
X6501000Y-4039757D01*
X6501000Y-4099000D01*
X6539758Y-4099000D01*
X6560242Y-4099000D01*
X6599000Y-4099000D01*
X6599000Y-4101000D01*
X6560242Y-4101000D01*
X6539758Y-4101000D01*
X6501000Y-4101000D01*
X6501000Y-4101787D01*
X6499000Y-4101787D01*
X6499000Y-4101000D01*
X6499000Y-4099000D01*
X6499000Y-4039757D01*
X6488219Y-4032013D01*
X6463099Y-4041696D01*
X6450000Y-4054162D01*
X6436901Y-4041696D01*
X6411781Y-4032013D01*
X6401000Y-4039757D01*
X6401000Y-4099000D01*
X6439758Y-4099000D01*
X6460242Y-4099000D01*
X6499000Y-4099000D01*
X6499000Y-4101000D01*
X6460242Y-4101000D01*
X6439758Y-4101000D01*
X6401000Y-4101000D01*
X6401000Y-4101787D01*
X6399000Y-4101787D01*
X6399000Y-4101000D01*
X6360242Y-4101000D01*
X6339758Y-4101000D01*
X6301000Y-4101000D01*
X6301000Y-4101787D01*
X6299000Y-4101787D01*
X6299000Y-4101000D01*
X6260242Y-4101000D01*
X6239758Y-4101000D01*
X6201000Y-4101000D01*
X6201000Y-4139757D01*
X6201000Y-4160243D01*
X6201000Y-4199000D01*
X6201787Y-4199000D01*
X6201787Y-4201000D01*
X6201000Y-4201000D01*
X6201000Y-4201787D01*
X6199000Y-4201787D01*
X6199000Y-4201000D01*
X6198213Y-4201000D01*
X6198213Y-4199000D01*
X6199000Y-4199000D01*
X6199000Y-4160243D01*
X6199000Y-4139757D01*
X6199000Y-4101000D01*
X6160242Y-4101000D01*
X6139758Y-4101000D01*
X6101000Y-4101000D01*
X6101000Y-4101787D01*
X6099000Y-4101787D01*
X6099000Y-4101000D01*
X6060242Y-4101000D01*
X6039758Y-4101000D01*
X6001000Y-4101000D01*
X6001000Y-4101787D01*
X5999000Y-4101787D01*
X5999000Y-4101000D01*
X5999000Y-4099000D01*
X5999000Y-4039757D01*
X5988219Y-4032013D01*
X5963099Y-4041696D01*
X5950000Y-4054162D01*
X5936901Y-4041696D01*
X5911781Y-4032013D01*
X5901000Y-4039757D01*
X5901000Y-4099000D01*
X5939758Y-4099000D01*
X5960242Y-4099000D01*
X5999000Y-4099000D01*
X5999000Y-4101000D01*
X5960242Y-4101000D01*
X5939758Y-4101000D01*
X5901000Y-4101000D01*
X5901000Y-4101787D01*
X5899000Y-4101787D01*
X5899000Y-4101000D01*
X5899000Y-4099000D01*
X5899000Y-4039757D01*
X5888219Y-4032013D01*
X5863099Y-4041696D01*
X5850000Y-4054162D01*
X5836901Y-4041696D01*
X5811781Y-4032013D01*
X5801000Y-4039757D01*
X5801000Y-4099000D01*
X5839758Y-4099000D01*
X5860242Y-4099000D01*
X5899000Y-4099000D01*
X5899000Y-4101000D01*
X5860242Y-4101000D01*
X5839758Y-4101000D01*
X5801000Y-4101000D01*
X5801000Y-4139757D01*
X5801000Y-4160243D01*
X5801000Y-4199000D01*
X5801787Y-4199000D01*
X5801787Y-4201000D01*
X5801000Y-4201000D01*
X5801000Y-4201787D01*
X5799000Y-4201787D01*
X5799000Y-4201000D01*
X5798213Y-4201000D01*
X5798213Y-4199000D01*
X5799000Y-4199000D01*
X5799000Y-4160243D01*
X5799000Y-4139757D01*
X5799000Y-4101000D01*
X5799000Y-4099000D01*
X5799000Y-4039757D01*
X5788219Y-4032013D01*
X5763099Y-4041696D01*
X5750000Y-4054162D01*
X5736901Y-4041696D01*
X5711781Y-4032013D01*
X5701000Y-4039757D01*
X5701000Y-4099000D01*
X5739758Y-4099000D01*
X5760242Y-4099000D01*
X5799000Y-4099000D01*
X5799000Y-4101000D01*
X5760242Y-4101000D01*
X5739758Y-4101000D01*
X5701000Y-4101000D01*
X5701000Y-4101787D01*
X5699000Y-4101787D01*
X5699000Y-4101000D01*
X5699000Y-4099000D01*
X5699000Y-4039757D01*
X5688219Y-4032013D01*
X5663099Y-4041696D01*
X5650000Y-4054162D01*
X5636901Y-4041696D01*
X5611781Y-4032013D01*
X5601000Y-4039757D01*
X5601000Y-4099000D01*
X5639758Y-4099000D01*
X5660242Y-4099000D01*
X5699000Y-4099000D01*
X5699000Y-4101000D01*
X5660242Y-4101000D01*
X5639758Y-4101000D01*
X5601000Y-4101000D01*
X5601000Y-4101787D01*
X5599000Y-4101787D01*
X5599000Y-4101000D01*
X5599000Y-4099000D01*
X5599000Y-4039757D01*
X5588219Y-4032013D01*
X5563099Y-4041696D01*
X5550000Y-4054162D01*
X5536901Y-4041696D01*
X5511781Y-4032013D01*
X5501000Y-4039757D01*
X5501000Y-4099000D01*
X5539758Y-4099000D01*
X5560242Y-4099000D01*
X5599000Y-4099000D01*
X5599000Y-4101000D01*
X5560242Y-4101000D01*
X5539758Y-4101000D01*
X5501000Y-4101000D01*
X5501000Y-4101787D01*
X5499000Y-4101787D01*
X5499000Y-4101000D01*
X5499000Y-4099000D01*
X5499000Y-4039757D01*
X5488219Y-4032013D01*
X5463099Y-4041696D01*
X5450000Y-4054162D01*
X5436901Y-4041696D01*
X5411781Y-4032013D01*
X5401000Y-4039757D01*
X5401000Y-4099000D01*
X5439758Y-4099000D01*
X5460242Y-4099000D01*
X5499000Y-4099000D01*
X5499000Y-4101000D01*
X5460242Y-4101000D01*
X5439758Y-4101000D01*
X5401000Y-4101000D01*
X5401000Y-4139750D01*
X5401000Y-4160243D01*
X5401000Y-4199000D01*
X5401787Y-4199000D01*
X5401787Y-4201000D01*
X5401000Y-4201000D01*
X5401000Y-4260250D01*
X5409750Y-4269000D01*
X5440962Y-4269000D01*
X5453826Y-4263672D01*
X5463672Y-4253826D01*
X5466180Y-4247770D01*
X5476266Y-4254509D01*
X5498844Y-4259000D01*
X5501156Y-4259000D01*
X5502659Y-4258701D01*
X5399000Y-4362360D01*
X5399000Y-4260250D01*
X5399000Y-4201000D01*
X5399000Y-4199000D01*
X5399000Y-4160243D01*
X5399000Y-4139750D01*
X5399000Y-4101000D01*
X5399000Y-4099000D01*
X5399000Y-4039757D01*
X5388219Y-4032013D01*
X5363099Y-4041696D01*
X5343596Y-4060256D01*
X5332680Y-4084866D01*
X5332013Y-4088219D01*
X5339758Y-4099000D01*
X5399000Y-4099000D01*
X5399000Y-4101000D01*
X5339758Y-4101000D01*
X5332013Y-4111781D01*
X5332680Y-4115134D01*
X5343339Y-4139164D01*
X5336328Y-4146174D01*
X5331000Y-4159038D01*
X5331000Y-4172962D01*
X5331000Y-4190250D01*
X5339750Y-4199000D01*
X5399000Y-4199000D01*
X5399000Y-4201000D01*
X5339750Y-4201000D01*
X5331000Y-4209750D01*
X5331000Y-4227038D01*
X5331000Y-4240962D01*
X5336328Y-4253826D01*
X5346174Y-4263672D01*
X5359038Y-4269000D01*
X5390250Y-4269000D01*
X5399000Y-4260250D01*
X5399000Y-4362360D01*
X5393180Y-4368180D01*
X5383425Y-4382779D01*
X5381057Y-4394685D01*
X5380519Y-4395222D01*
X5374861Y-4408848D01*
X5320506Y-4354494D01*
X5311098Y-4348207D01*
X5300000Y-4346000D01*
X5182644Y-4346000D01*
X5179585Y-4338596D01*
X5161499Y-4320479D01*
X5137856Y-4310661D01*
X5112256Y-4310639D01*
X5088596Y-4320415D01*
X5070479Y-4338501D01*
X5060661Y-4362144D01*
X5060639Y-4387744D01*
X5070415Y-4411404D01*
X5088501Y-4429521D01*
X5112144Y-4439339D01*
X5137744Y-4439361D01*
X5161404Y-4429585D01*
X5179521Y-4411499D01*
X5182635Y-4404000D01*
X5287988Y-4404000D01*
X5379494Y-4495506D01*
X5388902Y-4501793D01*
X5400000Y-4504000D01*
X5537702Y-4504000D01*
X5532507Y-4516509D01*
X5532493Y-4533417D01*
X5538949Y-4549043D01*
X5550894Y-4561009D01*
X5566509Y-4567493D01*
X5576489Y-4567501D01*
X5588988Y-4580000D01*
X5314840Y-4580000D01*
X5314840Y-4513718D01*
X5305587Y-4489763D01*
X5303827Y-4487129D01*
X5291052Y-4485363D01*
X5289637Y-4486777D01*
X5289637Y-4483948D01*
X5287871Y-4471173D01*
X5264390Y-4460778D01*
X5238718Y-4460160D01*
X5214763Y-4469413D01*
X5212129Y-4471173D01*
X5210363Y-4483948D01*
X5250000Y-4523586D01*
X5289637Y-4483948D01*
X5289637Y-4486777D01*
X5251414Y-4525000D01*
X5291052Y-4564637D01*
X5303827Y-4562871D01*
X5314222Y-4539390D01*
X5314840Y-4513718D01*
X5314840Y-4580000D01*
X5286116Y-4580000D01*
X5287871Y-4578827D01*
X5289637Y-4566052D01*
X5250000Y-4526414D01*
X5248586Y-4527828D01*
X5248586Y-4525000D01*
X5208948Y-4485363D01*
X5196173Y-4487129D01*
X5185778Y-4510610D01*
X5185160Y-4536282D01*
X5194413Y-4560237D01*
X5196173Y-4562871D01*
X5208948Y-4564637D01*
X5248586Y-4525000D01*
X5248586Y-4527828D01*
X5210363Y-4566052D01*
X5212129Y-4578827D01*
X5214779Y-4580000D01*
X5075000Y-4580000D01*
X5057779Y-4583425D01*
X5043180Y-4593180D01*
X5024710Y-4611650D01*
X5024710Y-4187155D01*
X5014108Y-4159542D01*
X5011911Y-4156255D01*
X4998118Y-4153296D01*
X4996704Y-4154710D01*
X4996704Y-4151882D01*
X4993745Y-4138089D01*
X4966723Y-4126061D01*
X4937155Y-4125290D01*
X4909542Y-4135892D01*
X4906255Y-4138089D01*
X4903296Y-4151882D01*
X4950000Y-4198586D01*
X4996704Y-4151882D01*
X4996704Y-4154710D01*
X4951414Y-4200000D01*
X4998118Y-4246704D01*
X5011911Y-4243745D01*
X5023939Y-4216723D01*
X5024710Y-4187155D01*
X5024710Y-4611650D01*
X5007831Y-4628530D01*
X5014339Y-4612856D01*
X5014361Y-4587256D01*
X5004585Y-4563596D01*
X4996704Y-4555701D01*
X4996704Y-4248118D01*
X4950000Y-4201414D01*
X4948586Y-4202828D01*
X4948586Y-4200000D01*
X4901882Y-4153296D01*
X4888089Y-4156255D01*
X4876061Y-4183277D01*
X4875290Y-4212845D01*
X4885892Y-4240458D01*
X4888089Y-4243745D01*
X4901882Y-4246704D01*
X4948586Y-4200000D01*
X4948586Y-4202828D01*
X4903296Y-4248118D01*
X4906255Y-4261911D01*
X4933277Y-4273939D01*
X4962845Y-4274710D01*
X4990458Y-4264108D01*
X4993745Y-4261911D01*
X4996704Y-4248118D01*
X4996704Y-4555701D01*
X4986499Y-4545479D01*
X4962856Y-4535661D01*
X4937256Y-4535639D01*
X4913596Y-4545415D01*
X4895479Y-4563501D01*
X4885661Y-4587144D01*
X4885639Y-4612744D01*
X4895415Y-4636404D01*
X4913501Y-4654521D01*
X4937144Y-4664339D01*
X4962744Y-4664361D01*
X4978516Y-4657844D01*
X4927397Y-4708963D01*
X4921272Y-4694140D01*
X4905940Y-4678782D01*
X4885898Y-4670459D01*
X4864197Y-4670441D01*
X4850000Y-4676307D01*
X4850000Y-4621962D01*
X4850000Y-4314750D01*
X4841250Y-4306000D01*
X4626000Y-4306000D01*
X4626000Y-4641250D01*
X4634750Y-4650000D01*
X4808038Y-4650000D01*
X4821962Y-4650000D01*
X4834826Y-4644672D01*
X4844672Y-4634826D01*
X4850000Y-4621962D01*
X4850000Y-4676307D01*
X4844140Y-4678728D01*
X4828782Y-4694060D01*
X4820459Y-4714102D01*
X4820441Y-4735803D01*
X4828728Y-4755860D01*
X4844060Y-4771218D01*
X4853165Y-4774999D01*
X4844140Y-4778728D01*
X4843253Y-4779613D01*
X4806820Y-4743180D01*
X4792221Y-4733425D01*
X4782201Y-4731432D01*
X4779001Y-4715343D01*
X4766330Y-4696380D01*
X4747368Y-4683710D01*
X4725000Y-4679260D01*
X4702632Y-4683710D01*
X4683670Y-4696380D01*
X4680283Y-4701448D01*
X4672694Y-4690441D01*
X4650271Y-4675928D01*
X4636694Y-4672106D01*
X4626000Y-4679858D01*
X4626000Y-4774000D01*
X4626787Y-4774000D01*
X4626787Y-4776000D01*
X4626000Y-4776000D01*
X4626000Y-4870142D01*
X4636694Y-4877894D01*
X4650271Y-4874072D01*
X4672694Y-4859559D01*
X4680283Y-4848552D01*
X4683670Y-4853620D01*
X4702632Y-4866290D01*
X4725000Y-4870740D01*
X4747368Y-4866290D01*
X4766330Y-4853620D01*
X4775803Y-4839443D01*
X4793180Y-4856820D01*
X4807779Y-4866575D01*
X4825000Y-4870000D01*
X4842843Y-4870000D01*
X4844060Y-4871218D01*
X4864102Y-4879541D01*
X4871000Y-4879546D01*
X4871000Y-4893898D01*
X4863991Y-4900894D01*
X4857507Y-4916509D01*
X4857493Y-4933417D01*
X4863949Y-4949043D01*
X4875894Y-4961009D01*
X4891509Y-4967493D01*
X4908417Y-4967507D01*
X4922158Y-4961829D01*
X4887988Y-4996000D01*
X4831132Y-4996000D01*
X4846218Y-4980940D01*
X4854541Y-4960898D01*
X4854559Y-4939197D01*
X4846272Y-4919140D01*
X4830940Y-4903782D01*
X4810898Y-4895459D01*
X4789197Y-4895441D01*
X4769140Y-4903728D01*
X4756282Y-4916563D01*
X4755587Y-4914763D01*
X4753827Y-4912129D01*
X4741052Y-4910363D01*
X4739637Y-4911777D01*
X4739637Y-4908948D01*
X4737871Y-4896173D01*
X4714390Y-4885778D01*
X4688718Y-4885160D01*
X4664763Y-4894413D01*
X4662129Y-4896173D01*
X4660363Y-4908948D01*
X4700000Y-4948586D01*
X4739637Y-4908948D01*
X4739637Y-4911777D01*
X4701414Y-4950000D01*
X4701971Y-4950557D01*
X4700557Y-4951971D01*
X4700000Y-4951414D01*
X4698586Y-4952828D01*
X4660363Y-4991052D01*
X4662129Y-5003827D01*
X4683791Y-5013417D01*
X4682507Y-5016509D01*
X4682502Y-5022506D01*
X4664603Y-5022491D01*
X4663825Y-5022812D01*
X4645506Y-5004494D01*
X4636098Y-4998207D01*
X4625000Y-4996000D01*
X4621937Y-4996000D01*
X4622176Y-4995762D01*
X4616052Y-4989637D01*
X4628827Y-4987871D01*
X4637694Y-4967842D01*
X4644413Y-4985237D01*
X4646173Y-4987871D01*
X4658948Y-4989637D01*
X4698586Y-4950000D01*
X4658948Y-4910363D01*
X4646173Y-4912129D01*
X4637306Y-4932157D01*
X4630587Y-4914763D01*
X4628827Y-4912129D01*
X4624000Y-4911461D01*
X4624000Y-4870142D01*
X4624000Y-4776000D01*
X4623213Y-4776000D01*
X4623213Y-4774000D01*
X4624000Y-4774000D01*
X4624000Y-4679858D01*
X4624000Y-4641250D01*
X4624000Y-4306000D01*
X4408750Y-4306000D01*
X4400000Y-4314750D01*
X4400000Y-4621962D01*
X4405328Y-4634826D01*
X4415174Y-4644672D01*
X4428038Y-4650000D01*
X4441962Y-4650000D01*
X4615250Y-4650000D01*
X4624000Y-4641250D01*
X4624000Y-4679858D01*
X4613306Y-4672106D01*
X4599729Y-4675928D01*
X4577306Y-4690441D01*
X4569717Y-4701448D01*
X4566330Y-4696380D01*
X4547368Y-4683710D01*
X4525000Y-4679260D01*
X4502632Y-4683710D01*
X4483670Y-4696380D01*
X4470999Y-4715343D01*
X4468084Y-4730000D01*
X4443640Y-4730000D01*
X4406820Y-4693180D01*
X4392221Y-4683425D01*
X4375000Y-4680000D01*
X4276993Y-4680000D01*
X4276993Y-4105517D01*
X4255252Y-4052899D01*
X4215030Y-4012606D01*
X4162450Y-3990773D01*
X4105517Y-3990723D01*
X4052899Y-4012465D01*
X4012606Y-4052687D01*
X3990773Y-4105267D01*
X3990723Y-4162200D01*
X4012465Y-4214818D01*
X4052687Y-4255110D01*
X4105267Y-4276944D01*
X4162200Y-4276993D01*
X4214818Y-4255252D01*
X4255110Y-4215030D01*
X4276944Y-4162450D01*
X4276993Y-4105517D01*
X4276993Y-4680000D01*
X4232792Y-4680000D01*
X4231196Y-4678400D01*
X4210988Y-4670010D01*
X4189108Y-4669990D01*
X4168886Y-4678346D01*
X4167229Y-4680000D01*
X4150355Y-4680000D01*
X4144161Y-4673806D01*
X4134973Y-4670000D01*
X4125027Y-4670000D01*
X4065027Y-4670000D01*
X4055839Y-4673806D01*
X4048806Y-4680839D01*
X4045000Y-4690027D01*
X4045000Y-4699973D01*
X4045000Y-4759973D01*
X4048806Y-4769161D01*
X4055839Y-4776194D01*
X4060801Y-4778250D01*
X4060038Y-4783624D01*
X4100000Y-4823586D01*
X4139962Y-4783624D01*
X4139199Y-4778250D01*
X4144161Y-4776194D01*
X4150355Y-4770000D01*
X4163059Y-4770000D01*
X4161859Y-4770802D01*
X4160038Y-4783624D01*
X4200000Y-4823586D01*
X4239962Y-4783624D01*
X4238141Y-4770802D01*
X4236330Y-4770000D01*
X4356360Y-4770000D01*
X4393180Y-4806820D01*
X4407779Y-4816575D01*
X4425000Y-4820000D01*
X4468084Y-4820000D01*
X4470999Y-4834657D01*
X4483670Y-4853620D01*
X4502632Y-4866290D01*
X4525000Y-4870740D01*
X4547368Y-4866290D01*
X4566330Y-4853620D01*
X4569717Y-4848552D01*
X4577306Y-4859559D01*
X4599729Y-4874072D01*
X4613306Y-4877894D01*
X4624000Y-4870142D01*
X4624000Y-4911461D01*
X4616052Y-4910363D01*
X4614637Y-4911777D01*
X4614637Y-4908948D01*
X4612871Y-4896173D01*
X4589390Y-4885778D01*
X4563718Y-4885160D01*
X4539763Y-4894413D01*
X4537129Y-4896173D01*
X4535363Y-4908948D01*
X4575000Y-4948586D01*
X4614637Y-4908948D01*
X4614637Y-4911777D01*
X4576414Y-4950000D01*
X4576971Y-4950557D01*
X4575557Y-4951971D01*
X4575000Y-4951414D01*
X4574443Y-4951971D01*
X4573029Y-4950557D01*
X4573586Y-4950000D01*
X4533948Y-4910363D01*
X4521173Y-4912129D01*
X4519053Y-4916917D01*
X4505940Y-4903782D01*
X4485898Y-4895459D01*
X4464197Y-4895441D01*
X4444140Y-4903728D01*
X4428782Y-4919060D01*
X4420459Y-4939102D01*
X4420441Y-4960803D01*
X4428728Y-4980860D01*
X4443842Y-4996000D01*
X4412012Y-4996000D01*
X4320506Y-4904494D01*
X4311098Y-4898207D01*
X4300000Y-4896000D01*
X4265294Y-4896000D01*
X4265294Y-4813646D01*
X4255978Y-4789524D01*
X4254198Y-4786859D01*
X4241376Y-4785038D01*
X4201414Y-4825000D01*
X4241376Y-4864962D01*
X4254198Y-4863141D01*
X4264668Y-4839497D01*
X4265294Y-4813646D01*
X4265294Y-4896000D01*
X4247528Y-4896000D01*
X4246654Y-4893886D01*
X4234244Y-4881454D01*
X4235476Y-4880978D01*
X4238141Y-4879198D01*
X4239962Y-4866376D01*
X4200000Y-4826414D01*
X4198586Y-4827828D01*
X4198586Y-4825000D01*
X4158624Y-4785038D01*
X4150000Y-4786263D01*
X4141376Y-4785038D01*
X4101414Y-4825000D01*
X4141376Y-4864962D01*
X4150000Y-4863737D01*
X4158624Y-4864962D01*
X4198586Y-4825000D01*
X4198586Y-4827828D01*
X4160038Y-4866376D01*
X4161859Y-4879198D01*
X4166135Y-4881092D01*
X4153400Y-4893804D01*
X4150002Y-4901989D01*
X4146654Y-4893886D01*
X4134244Y-4881454D01*
X4135476Y-4880978D01*
X4138141Y-4879198D01*
X4139962Y-4866376D01*
X4100000Y-4826414D01*
X4098586Y-4827828D01*
X4098586Y-4825000D01*
X4058624Y-4785038D01*
X4045802Y-4786859D01*
X4035332Y-4810503D01*
X4034706Y-4836354D01*
X4044022Y-4860476D01*
X4045802Y-4863141D01*
X4058624Y-4864962D01*
X4098586Y-4825000D01*
X4098586Y-4827828D01*
X4060038Y-4866376D01*
X4061859Y-4879198D01*
X4066135Y-4881092D01*
X4053400Y-4893804D01*
X4045010Y-4914012D01*
X4044990Y-4935892D01*
X4053346Y-4956114D01*
X4068804Y-4971600D01*
X4076989Y-4974998D01*
X4068886Y-4978346D01*
X4053400Y-4993804D01*
X4045010Y-5014012D01*
X4044990Y-5035892D01*
X4053346Y-5056114D01*
X4068804Y-5071600D01*
X4076989Y-5074998D01*
X4068886Y-5078346D01*
X4053400Y-5093804D01*
X4045010Y-5114012D01*
X4044990Y-5135892D01*
X4053346Y-5156114D01*
X4068804Y-5171600D01*
X4089012Y-5179990D01*
X4110892Y-5180010D01*
X4131114Y-5171654D01*
X4132771Y-5170000D01*
X4167208Y-5170000D01*
X4168804Y-5171600D01*
X4189012Y-5179990D01*
X4210892Y-5180010D01*
X4231114Y-5171654D01*
X4246600Y-5156196D01*
X4254990Y-5135988D01*
X4255010Y-5114108D01*
X4246654Y-5093886D01*
X4231196Y-5078400D01*
X4223011Y-5075002D01*
X4231114Y-5071654D01*
X4246600Y-5056196D01*
X4254990Y-5035988D01*
X4255010Y-5014108D01*
X4250833Y-5004000D01*
X4287988Y-5004000D01*
X4429494Y-5145506D01*
X4438902Y-5151793D01*
X4438902Y-5151793D01*
X4450000Y-5154000D01*
X4525000Y-5154000D01*
X4536098Y-5151793D01*
X4545506Y-5145506D01*
X4563812Y-5127200D01*
X4564511Y-5127491D01*
X4585397Y-5127509D01*
X4604700Y-5119533D01*
X4619481Y-5104778D01*
X4625004Y-5091478D01*
X4630467Y-5104700D01*
X4645222Y-5119481D01*
X4664511Y-5127491D01*
X4685397Y-5127509D01*
X4704700Y-5119533D01*
X4719481Y-5104778D01*
X4725004Y-5091478D01*
X4730467Y-5104700D01*
X4745222Y-5119481D01*
X4764511Y-5127491D01*
X4785397Y-5127509D01*
X4803571Y-5120000D01*
X4806360Y-5120000D01*
X4870442Y-5184082D01*
X4870441Y-5185803D01*
X4874654Y-5196000D01*
X4625000Y-5196000D01*
X4613902Y-5198207D01*
X4604494Y-5204494D01*
X4486488Y-5322500D01*
X4442527Y-5322500D01*
X4433339Y-5326306D01*
X4426306Y-5333339D01*
X4422500Y-5342527D01*
X4422500Y-5352473D01*
X4422500Y-5407473D01*
X4426306Y-5416661D01*
X4433339Y-5423694D01*
X4442527Y-5427500D01*
X4452473Y-5427500D01*
X4507473Y-5427500D01*
X4516661Y-5423694D01*
X4523694Y-5416661D01*
X4525634Y-5411977D01*
X4535427Y-5413159D01*
X4573586Y-5375000D01*
X4573029Y-5374443D01*
X4574443Y-5373029D01*
X4575000Y-5373586D01*
X4613159Y-5335427D01*
X4611643Y-5322864D01*
X4588902Y-5312810D01*
X4578448Y-5312564D01*
X4637012Y-5254000D01*
X4863704Y-5254000D01*
X4860778Y-5260610D01*
X4860160Y-5286282D01*
X4869413Y-5310237D01*
X4871173Y-5312871D01*
X4883948Y-5314637D01*
X4923586Y-5275000D01*
X4923029Y-5274443D01*
X4924443Y-5273029D01*
X4925000Y-5273586D01*
X4925557Y-5273029D01*
X4926971Y-5274443D01*
X4926414Y-5275000D01*
X4966052Y-5314637D01*
X4978827Y-5312871D01*
X4989222Y-5289390D01*
X4989840Y-5263718D01*
X4986087Y-5254000D01*
X5112988Y-5254000D01*
X5204494Y-5345506D01*
X5213902Y-5351793D01*
X5225000Y-5354000D01*
X5279996Y-5354000D01*
X5270479Y-5363501D01*
X5260661Y-5387144D01*
X5260639Y-5412744D01*
X5270415Y-5436404D01*
X5288501Y-5454521D01*
X5312144Y-5464339D01*
X5337744Y-5464361D01*
X5361404Y-5454585D01*
X5379521Y-5436499D01*
X5382635Y-5429000D01*
X5417356Y-5429000D01*
X5420415Y-5436404D01*
X5438501Y-5454521D01*
X5462144Y-5464339D01*
X5487744Y-5464361D01*
X5511404Y-5454585D01*
X5529521Y-5436499D01*
X5539339Y-5412856D01*
X5539361Y-5387256D01*
X5529585Y-5363596D01*
X5520006Y-5354000D01*
X5787988Y-5354000D01*
X5813733Y-5379745D01*
X5810661Y-5387144D01*
X5810639Y-5412744D01*
X5820415Y-5436404D01*
X5838501Y-5454521D01*
X5862144Y-5464339D01*
X5887744Y-5464361D01*
X5911404Y-5454585D01*
X5929521Y-5436499D01*
X5939339Y-5412856D01*
X5939361Y-5387256D01*
X5929585Y-5363596D01*
X5911499Y-5345479D01*
X5887856Y-5335661D01*
X5862256Y-5335639D01*
X5854752Y-5338740D01*
X5820506Y-5304494D01*
X5811098Y-5298207D01*
X5800000Y-5296000D01*
X5445004Y-5296000D01*
X5454521Y-5286499D01*
X5464339Y-5262856D01*
X5464361Y-5237256D01*
X5454585Y-5213596D01*
X5436499Y-5195479D01*
X5412856Y-5185661D01*
X5387256Y-5185639D01*
X5363596Y-5195415D01*
X5353994Y-5205000D01*
X5296004Y-5205000D01*
X5286499Y-5195479D01*
X5262856Y-5185661D01*
X5237256Y-5185639D01*
X5228073Y-5189433D01*
X5181820Y-5143180D01*
X5167221Y-5133425D01*
X5150000Y-5130000D01*
X5089962Y-5130000D01*
X5089962Y-5041376D01*
X5050000Y-5001414D01*
X5010038Y-5041376D01*
X5011859Y-5054198D01*
X5035503Y-5064668D01*
X5061354Y-5065294D01*
X5085476Y-5055978D01*
X5088141Y-5054198D01*
X5089962Y-5041376D01*
X5089962Y-5130000D01*
X4957157Y-5130000D01*
X4955940Y-5128782D01*
X4935898Y-5120459D01*
X4934098Y-5120458D01*
X4867640Y-5054000D01*
X4900000Y-5054000D01*
X4911098Y-5051793D01*
X4920506Y-5045506D01*
X4987012Y-4979000D01*
X4988211Y-4979000D01*
X4985332Y-4985503D01*
X4984706Y-5011354D01*
X4994022Y-5035476D01*
X4995802Y-5038141D01*
X5008624Y-5039962D01*
X5048586Y-5000000D01*
X5048029Y-4999443D01*
X5049443Y-4998029D01*
X5050000Y-4998586D01*
X5050557Y-4998029D01*
X5051971Y-4999443D01*
X5051414Y-5000000D01*
X5091376Y-5039962D01*
X5104198Y-5038141D01*
X5114668Y-5014497D01*
X5115294Y-4988646D01*
X5111569Y-4979000D01*
X5575000Y-4979000D01*
X5586098Y-4976793D01*
X5595506Y-4970506D01*
X5638812Y-4927200D01*
X5639511Y-4927491D01*
X5660397Y-4927509D01*
X5679700Y-4919533D01*
X5694481Y-4904778D01*
X5700004Y-4891478D01*
X5705467Y-4904700D01*
X5720222Y-4919481D01*
X5739511Y-4927491D01*
X5760397Y-4927509D01*
X5779700Y-4919533D01*
X5794481Y-4904778D01*
X5800004Y-4891478D01*
X5805467Y-4904700D01*
X5820222Y-4919481D01*
X5839511Y-4927491D01*
X5860397Y-4927509D01*
X5879700Y-4919533D01*
X5894481Y-4904778D01*
X5900004Y-4891478D01*
X5905467Y-4904700D01*
X5920222Y-4919481D01*
X5939511Y-4927491D01*
X5960397Y-4927509D01*
X5979700Y-4919533D01*
X5994481Y-4904778D01*
X6000004Y-4891478D01*
X6005467Y-4904700D01*
X6020222Y-4919481D01*
X6039511Y-4927491D01*
X6060397Y-4927509D01*
X6079700Y-4919533D01*
X6094481Y-4904778D01*
X6100004Y-4891478D01*
X6105467Y-4904700D01*
X6120222Y-4919481D01*
X6139511Y-4927491D01*
X6160397Y-4927509D01*
X6179700Y-4919533D01*
X6194481Y-4904778D01*
X6194494Y-4904747D01*
X6196195Y-4909145D01*
X6197864Y-4911643D01*
X6210427Y-4913159D01*
X6248586Y-4875000D01*
X6248029Y-4874443D01*
X6249443Y-4873029D01*
X6250000Y-4873586D01*
X6250557Y-4873029D01*
X6251971Y-4874443D01*
X6251414Y-4875000D01*
X6289573Y-4913159D01*
X6302136Y-4911643D01*
X6305340Y-4904394D01*
X6305467Y-4904700D01*
X6320222Y-4919481D01*
X6338502Y-4927072D01*
X6332507Y-4941509D01*
X6332502Y-4947402D01*
X6324106Y-4938991D01*
X6308491Y-4932507D01*
X6291583Y-4932493D01*
X6288159Y-4933907D01*
X6288159Y-4914573D01*
X6250000Y-4876414D01*
X6211841Y-4914573D01*
X6213357Y-4927136D01*
X6236098Y-4937190D01*
X6260955Y-4937776D01*
X6284145Y-4928805D01*
X6286643Y-4927136D01*
X6288159Y-4914573D01*
X6288159Y-4933907D01*
X6275957Y-4938949D01*
X6263991Y-4950894D01*
X6257507Y-4966509D01*
X6257493Y-4983417D01*
X6263949Y-4999043D01*
X6275894Y-5011009D01*
X6291509Y-5017493D01*
X6301489Y-5017501D01*
X6329494Y-5045506D01*
X6338902Y-5051793D01*
X6350000Y-5054000D01*
X7199654Y-5054000D01*
X7195459Y-5064102D01*
X7195441Y-5085803D01*
X7203728Y-5105860D01*
X7219060Y-5121218D01*
X7239102Y-5129541D01*
X7260803Y-5129559D01*
X7280860Y-5121272D01*
X7296218Y-5105940D01*
X7304541Y-5085898D01*
X7304557Y-5067504D01*
X7308417Y-5067507D01*
X7324043Y-5061051D01*
X7336009Y-5049106D01*
X7342489Y-5033501D01*
X7354494Y-5045506D01*
X7363902Y-5051793D01*
X7363902Y-5051793D01*
X7375000Y-5054000D01*
X7375000Y-5054000D01*
X7375000Y-5054000D01*
X7698144Y-5054000D01*
X7699953Y-5058377D01*
X7700932Y-5059358D01*
X7696174Y-5061328D01*
X7686328Y-5071174D01*
X7681000Y-5084038D01*
X7681000Y-5115250D01*
X7689750Y-5124000D01*
X7749000Y-5124000D01*
X7749000Y-5123213D01*
X7751000Y-5123213D01*
X7751000Y-5124000D01*
X7810250Y-5124000D01*
X7819000Y-5115250D01*
X7819000Y-5134750D01*
X7810250Y-5126000D01*
X7751000Y-5126000D01*
X7751000Y-5185250D01*
X7759750Y-5194000D01*
X7777038Y-5194000D01*
X7790962Y-5194000D01*
X7803826Y-5188672D01*
X7813672Y-5178826D01*
X7819000Y-5165962D01*
X7819000Y-5677173D01*
X7799350Y-5629616D01*
X7799350Y-5318312D01*
X7799350Y-5281750D01*
X7799350Y-5262250D01*
X7799350Y-5225688D01*
X7794022Y-5212824D01*
X7784176Y-5202978D01*
X7771312Y-5197650D01*
X7757388Y-5197650D01*
X7749000Y-5197650D01*
X7749000Y-5185250D01*
X7749000Y-5126000D01*
X7689750Y-5126000D01*
X7681000Y-5134750D01*
X7681000Y-5165962D01*
X7686328Y-5178826D01*
X7696174Y-5188672D01*
X7709038Y-5194000D01*
X7722962Y-5194000D01*
X7740250Y-5194000D01*
X7749000Y-5185250D01*
X7749000Y-5197650D01*
X7734750Y-5197650D01*
X7726000Y-5206400D01*
X7726000Y-5271000D01*
X7790600Y-5271000D01*
X7799350Y-5262250D01*
X7799350Y-5281750D01*
X7790600Y-5273000D01*
X7726000Y-5273000D01*
X7726000Y-5337600D01*
X7734750Y-5346350D01*
X7757388Y-5346350D01*
X7771312Y-5346350D01*
X7784176Y-5341022D01*
X7794022Y-5331176D01*
X7799350Y-5318312D01*
X7799350Y-5629616D01*
X7798559Y-5627702D01*
X7758337Y-5587409D01*
X7754043Y-5585626D01*
X7761404Y-5582585D01*
X7779521Y-5564499D01*
X7789339Y-5540856D01*
X7789361Y-5515256D01*
X7779585Y-5491596D01*
X7761499Y-5473479D01*
X7737856Y-5463661D01*
X7724000Y-5463649D01*
X7724000Y-5337600D01*
X7724000Y-5273000D01*
X7724000Y-5271000D01*
X7724000Y-5206400D01*
X7715250Y-5197650D01*
X7692612Y-5197650D01*
X7678688Y-5197650D01*
X7665824Y-5202978D01*
X7655978Y-5212824D01*
X7650650Y-5225688D01*
X7650650Y-5262250D01*
X7659400Y-5271000D01*
X7724000Y-5271000D01*
X7724000Y-5273000D01*
X7659400Y-5273000D01*
X7650650Y-5281750D01*
X7650650Y-5318312D01*
X7655978Y-5331176D01*
X7665824Y-5341022D01*
X7678688Y-5346350D01*
X7692612Y-5346350D01*
X7715250Y-5346350D01*
X7724000Y-5337600D01*
X7724000Y-5463649D01*
X7712256Y-5463639D01*
X7704752Y-5466740D01*
X7592506Y-5354494D01*
X7589361Y-5352393D01*
X7589361Y-5212256D01*
X7579585Y-5188596D01*
X7561499Y-5170479D01*
X7537856Y-5160661D01*
X7512256Y-5160639D01*
X7488596Y-5170415D01*
X7470479Y-5188501D01*
X7467365Y-5196000D01*
X7432644Y-5196000D01*
X7429585Y-5188596D01*
X7411499Y-5170479D01*
X7387856Y-5160661D01*
X7362256Y-5160639D01*
X7338596Y-5170415D01*
X7320479Y-5188501D01*
X7310661Y-5212144D01*
X7310639Y-5237744D01*
X7320415Y-5261404D01*
X7338501Y-5279521D01*
X7362144Y-5289339D01*
X7387744Y-5289361D01*
X7411404Y-5279585D01*
X7429521Y-5261499D01*
X7432635Y-5254000D01*
X7467356Y-5254000D01*
X7470415Y-5261404D01*
X7488501Y-5279521D01*
X7512144Y-5289339D01*
X7537744Y-5289361D01*
X7561404Y-5279585D01*
X7579521Y-5261499D01*
X7589339Y-5237856D01*
X7589361Y-5212256D01*
X7589361Y-5352393D01*
X7583098Y-5348207D01*
X7572000Y-5346000D01*
X7137012Y-5346000D01*
X6995506Y-5204494D01*
X6994796Y-5204020D01*
X7002491Y-5185489D01*
X7002509Y-5164603D01*
X6994533Y-5145300D01*
X6979778Y-5130519D01*
X6976120Y-5129000D01*
X7107496Y-5129000D01*
X7107493Y-5133417D01*
X7113949Y-5149043D01*
X7125894Y-5161009D01*
X7141509Y-5167493D01*
X7158417Y-5167507D01*
X7174043Y-5161051D01*
X7186009Y-5149106D01*
X7192493Y-5133491D01*
X7192507Y-5116583D01*
X7186051Y-5100957D01*
X7174106Y-5088991D01*
X7158491Y-5082507D01*
X7148511Y-5082499D01*
X7145506Y-5079494D01*
X7136098Y-5073207D01*
X7125000Y-5071000D01*
X6725000Y-5071000D01*
X6713902Y-5073207D01*
X6704494Y-5079494D01*
X6661188Y-5122800D01*
X6660489Y-5122509D01*
X6639603Y-5122491D01*
X6620300Y-5130467D01*
X6605519Y-5145222D01*
X6599996Y-5158521D01*
X6594533Y-5145300D01*
X6579778Y-5130519D01*
X6560489Y-5122509D01*
X6539603Y-5122491D01*
X6520300Y-5130467D01*
X6505519Y-5145222D01*
X6499996Y-5158521D01*
X6494533Y-5145300D01*
X6479778Y-5130519D01*
X6460489Y-5122509D01*
X6439603Y-5122491D01*
X6420300Y-5130467D01*
X6405519Y-5145222D01*
X6405506Y-5145253D01*
X6403805Y-5140855D01*
X6402136Y-5138357D01*
X6389573Y-5136841D01*
X6388159Y-5138255D01*
X6388159Y-5135427D01*
X6386643Y-5122864D01*
X6363902Y-5112810D01*
X6339045Y-5112224D01*
X6315855Y-5121195D01*
X6313357Y-5122864D01*
X6311841Y-5135427D01*
X6350000Y-5173586D01*
X6388159Y-5135427D01*
X6388159Y-5138255D01*
X6351414Y-5175000D01*
X6351971Y-5175557D01*
X6350557Y-5176971D01*
X6350000Y-5176414D01*
X6349443Y-5176971D01*
X6348029Y-5175557D01*
X6348586Y-5175000D01*
X6310427Y-5136841D01*
X6297864Y-5138357D01*
X6294660Y-5145606D01*
X6294533Y-5145300D01*
X6279778Y-5130519D01*
X6260489Y-5122509D01*
X6239603Y-5122491D01*
X6220300Y-5130467D01*
X6205519Y-5145222D01*
X6199996Y-5158521D01*
X6194533Y-5145300D01*
X6179778Y-5130519D01*
X6160489Y-5122509D01*
X6139603Y-5122491D01*
X6120300Y-5130467D01*
X6105519Y-5145222D01*
X6099996Y-5158521D01*
X6094533Y-5145300D01*
X6079778Y-5130519D01*
X6079641Y-5130462D01*
X6086009Y-5124106D01*
X6092493Y-5108491D01*
X6092507Y-5091583D01*
X6086051Y-5075957D01*
X6074106Y-5063991D01*
X6058491Y-5057507D01*
X6041583Y-5057493D01*
X6025957Y-5063949D01*
X6013991Y-5075894D01*
X6007507Y-5091509D01*
X6007499Y-5101489D01*
X6000000Y-5108988D01*
X5995506Y-5104494D01*
X5986098Y-5098207D01*
X5975000Y-5096000D01*
X5700000Y-5096000D01*
X5688902Y-5098207D01*
X5679494Y-5104494D01*
X5661488Y-5122500D01*
X5617527Y-5122500D01*
X5608339Y-5126306D01*
X5601306Y-5133339D01*
X5597500Y-5142527D01*
X5597500Y-5152473D01*
X5597500Y-5207473D01*
X5601306Y-5216661D01*
X5608339Y-5223694D01*
X5617527Y-5227500D01*
X5627473Y-5227500D01*
X5682473Y-5227500D01*
X5691661Y-5223694D01*
X5698694Y-5216661D01*
X5702500Y-5207473D01*
X5702500Y-5197527D01*
X5702500Y-5197520D01*
X5705467Y-5204700D01*
X5720222Y-5219481D01*
X5739511Y-5227491D01*
X5760397Y-5227509D01*
X5779700Y-5219533D01*
X5794481Y-5204778D01*
X5800004Y-5191478D01*
X5805467Y-5204700D01*
X5820222Y-5219481D01*
X5839511Y-5227491D01*
X5860397Y-5227509D01*
X5879700Y-5219533D01*
X5894481Y-5204778D01*
X5900004Y-5191478D01*
X5905467Y-5204700D01*
X5920222Y-5219481D01*
X5921000Y-5219804D01*
X5921000Y-5225000D01*
X5923207Y-5236098D01*
X5929494Y-5245506D01*
X5954494Y-5270506D01*
X5963902Y-5276793D01*
X5963902Y-5276793D01*
X5975000Y-5279000D01*
X6199654Y-5279000D01*
X6195459Y-5289102D01*
X6195441Y-5310803D01*
X6203728Y-5330860D01*
X6219060Y-5346218D01*
X6239102Y-5354541D01*
X6260803Y-5354559D01*
X6280860Y-5346272D01*
X6293718Y-5333437D01*
X6294413Y-5335237D01*
X6296173Y-5337871D01*
X6308948Y-5339637D01*
X6348586Y-5300000D01*
X6348029Y-5299443D01*
X6349443Y-5298029D01*
X6350000Y-5298586D01*
X6350557Y-5298029D01*
X6351971Y-5299443D01*
X6351414Y-5300000D01*
X6391052Y-5339637D01*
X6403827Y-5337871D01*
X6414222Y-5314390D01*
X6414840Y-5288718D01*
X6411087Y-5279000D01*
X6903063Y-5279000D01*
X6902824Y-5279238D01*
X6908948Y-5285363D01*
X6896173Y-5287129D01*
X6885778Y-5310610D01*
X6885160Y-5336282D01*
X6894413Y-5360237D01*
X6896173Y-5362871D01*
X6908948Y-5364637D01*
X6948586Y-5325000D01*
X6948029Y-5324443D01*
X6949443Y-5323029D01*
X6950000Y-5323586D01*
X6950557Y-5323029D01*
X6951971Y-5324443D01*
X6951414Y-5325000D01*
X6991052Y-5364637D01*
X7003827Y-5362871D01*
X7009360Y-5350372D01*
X7174446Y-5515458D01*
X7163991Y-5525894D01*
X7157507Y-5541509D01*
X7157499Y-5551489D01*
X7137988Y-5571000D01*
X7004559Y-5571000D01*
X7004559Y-5414197D01*
X6996272Y-5394140D01*
X6983437Y-5381282D01*
X6985237Y-5380587D01*
X6987871Y-5378827D01*
X6989637Y-5366052D01*
X6950000Y-5326414D01*
X6948586Y-5327828D01*
X6910363Y-5366052D01*
X6912129Y-5378827D01*
X6916917Y-5380947D01*
X6903782Y-5394060D01*
X6902976Y-5396000D01*
X6808112Y-5396000D01*
X6799869Y-5387757D01*
X6800641Y-5385898D01*
X6800659Y-5364197D01*
X6792372Y-5344140D01*
X6777040Y-5328782D01*
X6756998Y-5320459D01*
X6735297Y-5320441D01*
X6715240Y-5328728D01*
X6699882Y-5344060D01*
X6691559Y-5364102D01*
X6691541Y-5385803D01*
X6699828Y-5405860D01*
X6715160Y-5421218D01*
X6735202Y-5429541D01*
X6756903Y-5429559D01*
X6758845Y-5428757D01*
X6775594Y-5445506D01*
X6785002Y-5451793D01*
X6796100Y-5454000D01*
X6902959Y-5454000D01*
X6903728Y-5455860D01*
X6919060Y-5471218D01*
X6939102Y-5479541D01*
X6960803Y-5479559D01*
X6980860Y-5471272D01*
X6996218Y-5455940D01*
X7004541Y-5435898D01*
X7004559Y-5414197D01*
X7004559Y-5571000D01*
X6937298Y-5571000D01*
X6942493Y-5558491D01*
X6942507Y-5541583D01*
X6936051Y-5525957D01*
X6924106Y-5513991D01*
X6908491Y-5507507D01*
X6891583Y-5507493D01*
X6875957Y-5513949D01*
X6863991Y-5525894D01*
X6857507Y-5541509D01*
X6857503Y-5546000D01*
X6750000Y-5546000D01*
X6738902Y-5548207D01*
X6729494Y-5554494D01*
X6712988Y-5571000D01*
X6608459Y-5571000D01*
X6608459Y-5364197D01*
X6600172Y-5344140D01*
X6584840Y-5328782D01*
X6564798Y-5320459D01*
X6543097Y-5320441D01*
X6523040Y-5328728D01*
X6507682Y-5344060D01*
X6499359Y-5364102D01*
X6499341Y-5385803D01*
X6500143Y-5387745D01*
X6491888Y-5396000D01*
X6397041Y-5396000D01*
X6396272Y-5394140D01*
X6389637Y-5387494D01*
X6389637Y-5341052D01*
X6350000Y-5301414D01*
X6310363Y-5341052D01*
X6312129Y-5353827D01*
X6335610Y-5364222D01*
X6361282Y-5364840D01*
X6385237Y-5355587D01*
X6387871Y-5353827D01*
X6389637Y-5341052D01*
X6389637Y-5387494D01*
X6380940Y-5378782D01*
X6360898Y-5370459D01*
X6339197Y-5370441D01*
X6319140Y-5378728D01*
X6306282Y-5391563D01*
X6305587Y-5389763D01*
X6303827Y-5387129D01*
X6291052Y-5385363D01*
X6289637Y-5386777D01*
X6289637Y-5383948D01*
X6287871Y-5371173D01*
X6264390Y-5360778D01*
X6238718Y-5360160D01*
X6214763Y-5369413D01*
X6212129Y-5371173D01*
X6210363Y-5383948D01*
X6250000Y-5423586D01*
X6289637Y-5383948D01*
X6289637Y-5386777D01*
X6251414Y-5425000D01*
X6291052Y-5464637D01*
X6303827Y-5462871D01*
X6305947Y-5458083D01*
X6319060Y-5471218D01*
X6339102Y-5479541D01*
X6360803Y-5479559D01*
X6380860Y-5471272D01*
X6396218Y-5455940D01*
X6397024Y-5454000D01*
X6503900Y-5454000D01*
X6514998Y-5451793D01*
X6524406Y-5445506D01*
X6541143Y-5428769D01*
X6543002Y-5429541D01*
X6564703Y-5429559D01*
X6584760Y-5421272D01*
X6600118Y-5405940D01*
X6608441Y-5385898D01*
X6608459Y-5364197D01*
X6608459Y-5571000D01*
X6475000Y-5571000D01*
X6463902Y-5573207D01*
X6454494Y-5579494D01*
X6439663Y-5594325D01*
X6436901Y-5591696D01*
X6411781Y-5582013D01*
X6401000Y-5589757D01*
X6401000Y-5649000D01*
X6401787Y-5649000D01*
X6401787Y-5651000D01*
X6401000Y-5651000D01*
X6401000Y-5651787D01*
X6399000Y-5651787D01*
X6399000Y-5651000D01*
X6399000Y-5649000D01*
X6399000Y-5589757D01*
X6388219Y-5582013D01*
X6363099Y-5591696D01*
X6350000Y-5604162D01*
X6336901Y-5591696D01*
X6311781Y-5582013D01*
X6301000Y-5589757D01*
X6301000Y-5649000D01*
X6339758Y-5649000D01*
X6360242Y-5649000D01*
X6399000Y-5649000D01*
X6399000Y-5651000D01*
X6360242Y-5651000D01*
X6339758Y-5651000D01*
X6301000Y-5651000D01*
X6301000Y-5651787D01*
X6299000Y-5651787D01*
X6299000Y-5651000D01*
X6299000Y-5649000D01*
X6299000Y-5589757D01*
X6289637Y-5583032D01*
X6289637Y-5466052D01*
X6250000Y-5426414D01*
X6248586Y-5427828D01*
X6248586Y-5425000D01*
X6208948Y-5385363D01*
X6196173Y-5387129D01*
X6185778Y-5410610D01*
X6185160Y-5436282D01*
X6194413Y-5460237D01*
X6196173Y-5462871D01*
X6208948Y-5464637D01*
X6248586Y-5425000D01*
X6248586Y-5427828D01*
X6210363Y-5466052D01*
X6212129Y-5478827D01*
X6235610Y-5489222D01*
X6261282Y-5489840D01*
X6285237Y-5480587D01*
X6287871Y-5478827D01*
X6289637Y-5466052D01*
X6289637Y-5583032D01*
X6288219Y-5582013D01*
X6263099Y-5591696D01*
X6250000Y-5604162D01*
X6236901Y-5591696D01*
X6211781Y-5582013D01*
X6201000Y-5589757D01*
X6201000Y-5649000D01*
X6239758Y-5649000D01*
X6260242Y-5649000D01*
X6299000Y-5649000D01*
X6299000Y-5651000D01*
X6260242Y-5651000D01*
X6239758Y-5651000D01*
X6201000Y-5651000D01*
X6201000Y-5689757D01*
X6201000Y-5710243D01*
X6201000Y-5749000D01*
X6201787Y-5749000D01*
X6201787Y-5751000D01*
X6201000Y-5751000D01*
X6201000Y-5751787D01*
X6199000Y-5751787D01*
X6199000Y-5751000D01*
X6198213Y-5751000D01*
X6198213Y-5749000D01*
X6199000Y-5749000D01*
X6199000Y-5710243D01*
X6199000Y-5689757D01*
X6199000Y-5651000D01*
X6199000Y-5649000D01*
X6199000Y-5589757D01*
X6188219Y-5582013D01*
X6163099Y-5591696D01*
X6150000Y-5604162D01*
X6136901Y-5591696D01*
X6111781Y-5582013D01*
X6101000Y-5589757D01*
X6101000Y-5649000D01*
X6139758Y-5649000D01*
X6160242Y-5649000D01*
X6199000Y-5649000D01*
X6199000Y-5651000D01*
X6160242Y-5651000D01*
X6139758Y-5651000D01*
X6101000Y-5651000D01*
X6101000Y-5651787D01*
X6099000Y-5651787D01*
X6099000Y-5651000D01*
X6099000Y-5649000D01*
X6099000Y-5589757D01*
X6088219Y-5582013D01*
X6063099Y-5591696D01*
X6050000Y-5604162D01*
X6036901Y-5591696D01*
X6011781Y-5582013D01*
X6001000Y-5589757D01*
X6001000Y-5649000D01*
X6039758Y-5649000D01*
X6060242Y-5649000D01*
X6099000Y-5649000D01*
X6099000Y-5651000D01*
X6060242Y-5651000D01*
X6039758Y-5651000D01*
X6001000Y-5651000D01*
X6001000Y-5651787D01*
X5999000Y-5651787D01*
X5999000Y-5651000D01*
X5999000Y-5649000D01*
X5999000Y-5589757D01*
X5988219Y-5582013D01*
X5963099Y-5591696D01*
X5950000Y-5604162D01*
X5936901Y-5591696D01*
X5911781Y-5582013D01*
X5901000Y-5589757D01*
X5901000Y-5649000D01*
X5939758Y-5649000D01*
X5960242Y-5649000D01*
X5999000Y-5649000D01*
X5999000Y-5651000D01*
X5960242Y-5651000D01*
X5939758Y-5651000D01*
X5901000Y-5651000D01*
X5901000Y-5651787D01*
X5899000Y-5651787D01*
X5899000Y-5651000D01*
X5899000Y-5649000D01*
X5899000Y-5589757D01*
X5888219Y-5582013D01*
X5863099Y-5591696D01*
X5850000Y-5604162D01*
X5836901Y-5591696D01*
X5811781Y-5582013D01*
X5801000Y-5589757D01*
X5801000Y-5649000D01*
X5839758Y-5649000D01*
X5860242Y-5649000D01*
X5899000Y-5649000D01*
X5899000Y-5651000D01*
X5860242Y-5651000D01*
X5839758Y-5651000D01*
X5801000Y-5651000D01*
X5801000Y-5689757D01*
X5801000Y-5710243D01*
X5801000Y-5749000D01*
X5801787Y-5749000D01*
X5801787Y-5751000D01*
X5801000Y-5751000D01*
X5801000Y-5751787D01*
X5799000Y-5751787D01*
X5799000Y-5751000D01*
X5798213Y-5751000D01*
X5798213Y-5749000D01*
X5799000Y-5749000D01*
X5799000Y-5710243D01*
X5799000Y-5689757D01*
X5799000Y-5651000D01*
X5799000Y-5649000D01*
X5799000Y-5589757D01*
X5788219Y-5582013D01*
X5763099Y-5591696D01*
X5750000Y-5604162D01*
X5736901Y-5591696D01*
X5711781Y-5582013D01*
X5701000Y-5589757D01*
X5701000Y-5649000D01*
X5739758Y-5649000D01*
X5760242Y-5649000D01*
X5799000Y-5649000D01*
X5799000Y-5651000D01*
X5760242Y-5651000D01*
X5739758Y-5651000D01*
X5701000Y-5651000D01*
X5701000Y-5651787D01*
X5699000Y-5651787D01*
X5699000Y-5651000D01*
X5699000Y-5649000D01*
X5699000Y-5589757D01*
X5688219Y-5582013D01*
X5663099Y-5591696D01*
X5650000Y-5604162D01*
X5636901Y-5591696D01*
X5611781Y-5582013D01*
X5601000Y-5589757D01*
X5601000Y-5649000D01*
X5639758Y-5649000D01*
X5660242Y-5649000D01*
X5699000Y-5649000D01*
X5699000Y-5651000D01*
X5660242Y-5651000D01*
X5639758Y-5651000D01*
X5601000Y-5651000D01*
X5601000Y-5651787D01*
X5599000Y-5651787D01*
X5599000Y-5651000D01*
X5599000Y-5649000D01*
X5599000Y-5589757D01*
X5588219Y-5582013D01*
X5563099Y-5591696D01*
X5550000Y-5604162D01*
X5536901Y-5591696D01*
X5511781Y-5582013D01*
X5501000Y-5589757D01*
X5501000Y-5649000D01*
X5539758Y-5649000D01*
X5560242Y-5649000D01*
X5599000Y-5649000D01*
X5599000Y-5651000D01*
X5560242Y-5651000D01*
X5539758Y-5651000D01*
X5501000Y-5651000D01*
X5501000Y-5651787D01*
X5499000Y-5651787D01*
X5499000Y-5651000D01*
X5499000Y-5649000D01*
X5499000Y-5589757D01*
X5488219Y-5582013D01*
X5463099Y-5591696D01*
X5450000Y-5604162D01*
X5436901Y-5591696D01*
X5411781Y-5582013D01*
X5401000Y-5589757D01*
X5401000Y-5649000D01*
X5439758Y-5649000D01*
X5460242Y-5649000D01*
X5499000Y-5649000D01*
X5499000Y-5651000D01*
X5460242Y-5651000D01*
X5439758Y-5651000D01*
X5401000Y-5651000D01*
X5401000Y-5689750D01*
X5401000Y-5710243D01*
X5401000Y-5749000D01*
X5401787Y-5749000D01*
X5401787Y-5751000D01*
X5401000Y-5751000D01*
X5401000Y-5751787D01*
X5399000Y-5751787D01*
X5399000Y-5751000D01*
X5398213Y-5751000D01*
X5398213Y-5749000D01*
X5399000Y-5749000D01*
X5399000Y-5710243D01*
X5399000Y-5689750D01*
X5399000Y-5651000D01*
X5399000Y-5649000D01*
X5399000Y-5589757D01*
X5388219Y-5582013D01*
X5363099Y-5591696D01*
X5343596Y-5610256D01*
X5332680Y-5634866D01*
X5332013Y-5638219D01*
X5339758Y-5649000D01*
X5399000Y-5649000D01*
X5399000Y-5651000D01*
X5339758Y-5651000D01*
X5332013Y-5661781D01*
X5332680Y-5665134D01*
X5343339Y-5689164D01*
X5336328Y-5696174D01*
X5331000Y-5709038D01*
X5331000Y-5722962D01*
X5331000Y-5740250D01*
X5339750Y-5749000D01*
X5337640Y-5749000D01*
X5056820Y-5468180D01*
X5042221Y-5458425D01*
X5025000Y-5455000D01*
X5007779Y-5458425D01*
X4999710Y-5463817D01*
X4999710Y-5387155D01*
X4989108Y-5359542D01*
X4986911Y-5356255D01*
X4973118Y-5353296D01*
X4971704Y-5354710D01*
X4971704Y-5351882D01*
X4968745Y-5338089D01*
X4955769Y-5332313D01*
X4960237Y-5330587D01*
X4962871Y-5328827D01*
X4964637Y-5316052D01*
X4925000Y-5276414D01*
X4885363Y-5316052D01*
X4887129Y-5328827D01*
X4894474Y-5332079D01*
X4884542Y-5335892D01*
X4881255Y-5338089D01*
X4878296Y-5351882D01*
X4925000Y-5398586D01*
X4971704Y-5351882D01*
X4971704Y-5354710D01*
X4926414Y-5400000D01*
X4973118Y-5446704D01*
X4986911Y-5443745D01*
X4998939Y-5416723D01*
X4999710Y-5387155D01*
X4999710Y-5463817D01*
X4993180Y-5468180D01*
X4983425Y-5482779D01*
X4980000Y-5500000D01*
X4983425Y-5517221D01*
X4993180Y-5531820D01*
X5318180Y-5856820D01*
X5332779Y-5866575D01*
X5350000Y-5870000D01*
X5034010Y-5870000D01*
X5034010Y-5788316D01*
X5025047Y-5766623D01*
X5008464Y-5750011D01*
X4986787Y-5741010D01*
X4971704Y-5740997D01*
X4971704Y-5448118D01*
X4925000Y-5401414D01*
X4923586Y-5402828D01*
X4923586Y-5400000D01*
X4876882Y-5353296D01*
X4863089Y-5356255D01*
X4851061Y-5383277D01*
X4850290Y-5412845D01*
X4860892Y-5440458D01*
X4863089Y-5443745D01*
X4876882Y-5446704D01*
X4923586Y-5400000D01*
X4923586Y-5402828D01*
X4878296Y-5448118D01*
X4881255Y-5461911D01*
X4908277Y-5473939D01*
X4937845Y-5474710D01*
X4965458Y-5464108D01*
X4968745Y-5461911D01*
X4971704Y-5448118D01*
X4971704Y-5740997D01*
X4963316Y-5740990D01*
X4941623Y-5749953D01*
X4925011Y-5766536D01*
X4924996Y-5766572D01*
X4908464Y-5750011D01*
X4889361Y-5742079D01*
X4889361Y-5612256D01*
X4879585Y-5588596D01*
X4861499Y-5570479D01*
X4842266Y-5562492D01*
X4861404Y-5554585D01*
X4879521Y-5536499D01*
X4889339Y-5512856D01*
X4889361Y-5487256D01*
X4879585Y-5463596D01*
X4861499Y-5445479D01*
X4837856Y-5435661D01*
X4812256Y-5435639D01*
X4788596Y-5445415D01*
X4779000Y-5454994D01*
X4779000Y-5427504D01*
X4785397Y-5427509D01*
X4804700Y-5419533D01*
X4819481Y-5404778D01*
X4827491Y-5385489D01*
X4827509Y-5364603D01*
X4819533Y-5345300D01*
X4804778Y-5330519D01*
X4785489Y-5322509D01*
X4764603Y-5322491D01*
X4745300Y-5330467D01*
X4730519Y-5345222D01*
X4724996Y-5358521D01*
X4719533Y-5345300D01*
X4704778Y-5330519D01*
X4685489Y-5322509D01*
X4664603Y-5322491D01*
X4645300Y-5330467D01*
X4630519Y-5345222D01*
X4630506Y-5345253D01*
X4628805Y-5340855D01*
X4627136Y-5338357D01*
X4614573Y-5336841D01*
X4576414Y-5375000D01*
X4614573Y-5413159D01*
X4627136Y-5411643D01*
X4630000Y-5405164D01*
X4630000Y-5506360D01*
X4613159Y-5523201D01*
X4613159Y-5414573D01*
X4575000Y-5376414D01*
X4536841Y-5414573D01*
X4538357Y-5427136D01*
X4561098Y-5437190D01*
X4585955Y-5437776D01*
X4609145Y-5428805D01*
X4611643Y-5427136D01*
X4613159Y-5414573D01*
X4613159Y-5523201D01*
X4556360Y-5580000D01*
X4471004Y-5580000D01*
X4461499Y-5570479D01*
X4442266Y-5562492D01*
X4461404Y-5554585D01*
X4479521Y-5536499D01*
X4489339Y-5512856D01*
X4489361Y-5487256D01*
X4479585Y-5463596D01*
X4461499Y-5445479D01*
X4437856Y-5435661D01*
X4412256Y-5435639D01*
X4388596Y-5445415D01*
X4370479Y-5463501D01*
X4367365Y-5471000D01*
X4330164Y-5471000D01*
X4333990Y-5461787D01*
X4334010Y-5438316D01*
X4325047Y-5416623D01*
X4308464Y-5400011D01*
X4286787Y-5391010D01*
X4263316Y-5390990D01*
X4241623Y-5399953D01*
X4225011Y-5416536D01*
X4224996Y-5416572D01*
X4208464Y-5400011D01*
X4186787Y-5391010D01*
X4163316Y-5390990D01*
X4141623Y-5399953D01*
X4132985Y-5408576D01*
X4130194Y-5401839D01*
X4123161Y-5394806D01*
X4113973Y-5391000D01*
X4104027Y-5391000D01*
X4036027Y-5391000D01*
X4026839Y-5394806D01*
X4019806Y-5401839D01*
X4016000Y-5411027D01*
X4016000Y-5420973D01*
X4016000Y-5488973D01*
X4019806Y-5498161D01*
X4026839Y-5505194D01*
X4036027Y-5509000D01*
X4045973Y-5509000D01*
X4113973Y-5509000D01*
X4123161Y-5505194D01*
X4130194Y-5498161D01*
X4132985Y-5491423D01*
X4141536Y-5499989D01*
X4163213Y-5508990D01*
X4186684Y-5509010D01*
X4191152Y-5507164D01*
X4204494Y-5520506D01*
X4213902Y-5526793D01*
X4225000Y-5529000D01*
X4367356Y-5529000D01*
X4370415Y-5536404D01*
X4388501Y-5554521D01*
X4407734Y-5562507D01*
X4388596Y-5570415D01*
X4370479Y-5588501D01*
X4360661Y-5612144D01*
X4360639Y-5637744D01*
X4370415Y-5661404D01*
X4388501Y-5679521D01*
X4412144Y-5689339D01*
X4437744Y-5689361D01*
X4461404Y-5679585D01*
X4471006Y-5670000D01*
X4575000Y-5670000D01*
X4592221Y-5666575D01*
X4606820Y-5656820D01*
X4706820Y-5556820D01*
X4716575Y-5542221D01*
X4720000Y-5525000D01*
X4720000Y-5403529D01*
X4721000Y-5401120D01*
X4721000Y-5550000D01*
X4723207Y-5561098D01*
X4729494Y-5570506D01*
X4763733Y-5604745D01*
X4760661Y-5612144D01*
X4760639Y-5637744D01*
X4770415Y-5661404D01*
X4788501Y-5679521D01*
X4812144Y-5689339D01*
X4837744Y-5689361D01*
X4861404Y-5679585D01*
X4879521Y-5661499D01*
X4889339Y-5637856D01*
X4889361Y-5612256D01*
X4889361Y-5742079D01*
X4886787Y-5741010D01*
X4863316Y-5740990D01*
X4841623Y-5749953D01*
X4825011Y-5766536D01*
X4824996Y-5766572D01*
X4808464Y-5750011D01*
X4786787Y-5741010D01*
X4763316Y-5740990D01*
X4741623Y-5749953D01*
X4725011Y-5766536D01*
X4724996Y-5766572D01*
X4708464Y-5750011D01*
X4686787Y-5741010D01*
X4663316Y-5740990D01*
X4641623Y-5749953D01*
X4625011Y-5766536D01*
X4624996Y-5766572D01*
X4608464Y-5750011D01*
X4586787Y-5741010D01*
X4563316Y-5740990D01*
X4541623Y-5749953D01*
X4540642Y-5750932D01*
X4538672Y-5746174D01*
X4528826Y-5736328D01*
X4515962Y-5731000D01*
X4484750Y-5731000D01*
X4476000Y-5739750D01*
X4476000Y-5799000D01*
X4476787Y-5799000D01*
X4476787Y-5801000D01*
X4476000Y-5801000D01*
X4476000Y-5860250D01*
X4484750Y-5869000D01*
X4515962Y-5869000D01*
X4528826Y-5863672D01*
X4538672Y-5853826D01*
X4540635Y-5849086D01*
X4541536Y-5849989D01*
X4563213Y-5858990D01*
X4586684Y-5859010D01*
X4608377Y-5850047D01*
X4624989Y-5833464D01*
X4625004Y-5833428D01*
X4641536Y-5849989D01*
X4663213Y-5858990D01*
X4686684Y-5859010D01*
X4708377Y-5850047D01*
X4724989Y-5833464D01*
X4725004Y-5833428D01*
X4741536Y-5849989D01*
X4763213Y-5858990D01*
X4786684Y-5859010D01*
X4808377Y-5850047D01*
X4824989Y-5833464D01*
X4825004Y-5833428D01*
X4841536Y-5849989D01*
X4863213Y-5858990D01*
X4886684Y-5859010D01*
X4908377Y-5850047D01*
X4924989Y-5833464D01*
X4925004Y-5833428D01*
X4941536Y-5849989D01*
X4963213Y-5858990D01*
X4986684Y-5859010D01*
X5008377Y-5850047D01*
X5024989Y-5833464D01*
X5033990Y-5811787D01*
X5034010Y-5788316D01*
X5034010Y-5870000D01*
X4474000Y-5870000D01*
X4474000Y-5860250D01*
X4474000Y-5801000D01*
X4474000Y-5799000D01*
X4474000Y-5739750D01*
X4465250Y-5731000D01*
X4434038Y-5731000D01*
X4421174Y-5736328D01*
X4411328Y-5746174D01*
X4406000Y-5759038D01*
X4406000Y-5772962D01*
X4406000Y-5790250D01*
X4414750Y-5799000D01*
X4474000Y-5799000D01*
X4474000Y-5801000D01*
X4414750Y-5801000D01*
X4406000Y-5809750D01*
X4406000Y-5827038D01*
X4406000Y-5840962D01*
X4411328Y-5853826D01*
X4421174Y-5863672D01*
X4434038Y-5869000D01*
X4465250Y-5869000D01*
X4474000Y-5860250D01*
X4474000Y-5870000D01*
X4276993Y-5870000D01*
X4276993Y-5680320D01*
X4255252Y-5627702D01*
X4215030Y-5587409D01*
X4162450Y-5565576D01*
X4105517Y-5565526D01*
X4052899Y-5587268D01*
X4012606Y-5627490D01*
X3990773Y-5680070D01*
X3990723Y-5737003D01*
X4012465Y-5789621D01*
X4052687Y-5829914D01*
X4105267Y-5851747D01*
X4162200Y-5851796D01*
X4214818Y-5830055D01*
X4255110Y-5789833D01*
X4276944Y-5737253D01*
X4276993Y-5680320D01*
X4276993Y-5870000D01*
X3963976Y-5870000D01*
X3963976Y-3963976D01*
X4418438Y-3963976D01*
X4415174Y-3965328D01*
X4405328Y-3975174D01*
X4400000Y-3988038D01*
X4400000Y-4295250D01*
X4408750Y-4304000D01*
X4624000Y-4304000D01*
X4624000Y-4303213D01*
X4626000Y-4303213D01*
X4626000Y-4304000D01*
X4841250Y-4304000D01*
X4850000Y-4295250D01*
X4850000Y-3988038D01*
X4844672Y-3975174D01*
X4834826Y-3965328D01*
X4831562Y-3963976D01*
X6225930Y-3963976D01*
X6213991Y-3975894D01*
X6207507Y-3991509D01*
X6207493Y-4008417D01*
X6212692Y-4021000D01*
X6081102Y-4021000D01*
X6074106Y-4013991D01*
X6058491Y-4007507D01*
X6041583Y-4007493D01*
X6025957Y-4013949D01*
X6013991Y-4025894D01*
X6011310Y-4032351D01*
X6001000Y-4039757D01*
X6001000Y-4099000D01*
X6039758Y-4099000D01*
X6060242Y-4099000D01*
X6099000Y-4099000D01*
X6099000Y-4098213D01*
X6101000Y-4098213D01*
X6101000Y-4099000D01*
X6139758Y-4099000D01*
X6160242Y-4099000D01*
X6199000Y-4099000D01*
X6199000Y-4098213D01*
X6201000Y-4098213D01*
X6201000Y-4099000D01*
X6239758Y-4099000D01*
X6260242Y-4099000D01*
X6299000Y-4099000D01*
X6299000Y-4098213D01*
X6301000Y-4098213D01*
X6301000Y-4099000D01*
X6339758Y-4099000D01*
X6360242Y-4099000D01*
X6399000Y-4099000D01*
X6399000Y-4039757D01*
X6388694Y-4032354D01*
X6387308Y-4029000D01*
X6887988Y-4029000D01*
X6898094Y-4039107D01*
X6888219Y-4032013D01*
X6863099Y-4041696D01*
X6850000Y-4054162D01*
X6836901Y-4041696D01*
X6811781Y-4032013D01*
X6801000Y-4039757D01*
X6801000Y-4099000D01*
X6839758Y-4099000D01*
X6860242Y-4099000D01*
X6899000Y-4099000D01*
X6899000Y-4098213D01*
X6901000Y-4098213D01*
X6901000Y-4099000D01*
X6939758Y-4099000D01*
X6960242Y-4099000D01*
X6999000Y-4099000D01*
X6999000Y-4039757D01*
X6988694Y-4032354D01*
X6986051Y-4025957D01*
X6974106Y-4013991D01*
X6958491Y-4007507D01*
X6948511Y-4007499D01*
X6920506Y-3979494D01*
X6911098Y-3973207D01*
X6900000Y-3971000D01*
X6281102Y-3971000D01*
X6274106Y-3963991D01*
X6274070Y-3963976D01*
X7845000Y-3963976D01*
X7845000Y-5870000D01*
X7845000Y-5870000D01*
G37*
X7845000Y-5870000D02*
X7225000Y-5870000D01*
X7242221Y-5866575D01*
X7256820Y-5856820D01*
X7305505Y-5808135D01*
X7323734Y-5804509D01*
X7342875Y-5791719D01*
X7355665Y-5772578D01*
X7360156Y-5750000D01*
X7355665Y-5727422D01*
X7342875Y-5708281D01*
X7339380Y-5705945D01*
X7356404Y-5689744D01*
X7367320Y-5665134D01*
X7367987Y-5661781D01*
X7367987Y-5638219D01*
X7367320Y-5634866D01*
X7356404Y-5610256D01*
X7336901Y-5591696D01*
X7311781Y-5582013D01*
X7301000Y-5589757D01*
X7301000Y-5649000D01*
X7360242Y-5649000D01*
X7367987Y-5638219D01*
X7367987Y-5661781D01*
X7360242Y-5651000D01*
X7301000Y-5651000D01*
X7301000Y-5651787D01*
X7299000Y-5651787D01*
X7299000Y-5651000D01*
X7260242Y-5651000D01*
X7239758Y-5651000D01*
X7201000Y-5651000D01*
X7201000Y-5651787D01*
X7199000Y-5651787D01*
X7199000Y-5651000D01*
X7160242Y-5651000D01*
X7139758Y-5651000D01*
X7101000Y-5651000D01*
X7101000Y-5651787D01*
X7099000Y-5651787D01*
X7099000Y-5651000D01*
X7060242Y-5651000D01*
X7039758Y-5651000D01*
X7001000Y-5651000D01*
X7001000Y-5689757D01*
X7001000Y-5710243D01*
X7001000Y-5749000D01*
X7001787Y-5749000D01*
X7001787Y-5751000D01*
X7001000Y-5751000D01*
X7001000Y-5751787D01*
X6999000Y-5751787D01*
X6999000Y-5751000D01*
X6998213Y-5751000D01*
X6998213Y-5749000D01*
X6999000Y-5749000D01*
X6999000Y-5710243D01*
X6999000Y-5689757D01*
X6999000Y-5651000D01*
X6960242Y-5651000D01*
X6939758Y-5651000D01*
X6901000Y-5651000D01*
X6901000Y-5651787D01*
X6899000Y-5651787D01*
X6899000Y-5651000D01*
X6860242Y-5651000D01*
X6839758Y-5651000D01*
X6801000Y-5651000D01*
X6801000Y-5651787D01*
X6799000Y-5651787D01*
X6799000Y-5651000D01*
X6798213Y-5651000D01*
X6798213Y-5649000D01*
X6799000Y-5649000D01*
X6799000Y-5648213D01*
X6801000Y-5648213D01*
X6801000Y-5649000D01*
X6839758Y-5649000D01*
X6860242Y-5649000D01*
X6899000Y-5649000D01*
X6899000Y-5648213D01*
X6901000Y-5648213D01*
X6901000Y-5649000D01*
X6939758Y-5649000D01*
X6960242Y-5649000D01*
X6999000Y-5649000D01*
X6999000Y-5648213D01*
X7001000Y-5648213D01*
X7001000Y-5649000D01*
X7039758Y-5649000D01*
X7060242Y-5649000D01*
X7099000Y-5649000D01*
X7099000Y-5648213D01*
X7101000Y-5648213D01*
X7101000Y-5649000D01*
X7139758Y-5649000D01*
X7160242Y-5649000D01*
X7199000Y-5649000D01*
X7199000Y-5648213D01*
X7201000Y-5648213D01*
X7201000Y-5649000D01*
X7239758Y-5649000D01*
X7260242Y-5649000D01*
X7299000Y-5649000D01*
X7299000Y-5589757D01*
X7288219Y-5582013D01*
X7263099Y-5591696D01*
X7250000Y-5604162D01*
X7236901Y-5591696D01*
X7223180Y-5586407D01*
X7224043Y-5586051D01*
X7224991Y-5585104D01*
X7225894Y-5586009D01*
X7241509Y-5592493D01*
X7258417Y-5592507D01*
X7274043Y-5586051D01*
X7286009Y-5574106D01*
X7292493Y-5558491D01*
X7292507Y-5541583D01*
X7286051Y-5525957D01*
X7274106Y-5513991D01*
X7258491Y-5507507D01*
X7248511Y-5507499D01*
X7145012Y-5404000D01*
X7559988Y-5404000D01*
X7663733Y-5507745D01*
X7660661Y-5515144D01*
X7660639Y-5540744D01*
X7670415Y-5564404D01*
X7671555Y-5565546D01*
X7648824Y-5565526D01*
X7596206Y-5587268D01*
X7555913Y-5627490D01*
X7534080Y-5680070D01*
X7534030Y-5737003D01*
X7555772Y-5789621D01*
X7595994Y-5829914D01*
X7648574Y-5851747D01*
X7705507Y-5851796D01*
X7758125Y-5830055D01*
X7798418Y-5789833D01*
X7820251Y-5737253D01*
X7820300Y-5680320D01*
X7820300Y-4105517D01*
X7798559Y-4052899D01*
X7758337Y-4012606D01*
X7705757Y-3990773D01*
X7648824Y-3990723D01*
X7596206Y-4012465D01*
X7555913Y-4052687D01*
X7534080Y-4105267D01*
X7534030Y-4162200D01*
X7555772Y-4214818D01*
X7595994Y-4255110D01*
X7648574Y-4276944D01*
X7705507Y-4276993D01*
X7758125Y-4255252D01*
X7798418Y-4215030D01*
X7820251Y-4162450D01*
X7820300Y-4105517D01*
X7820300Y-5680320D01*
X7819000Y-5677173D01*
X7819000Y-5165962D01*
X7819000Y-5134750D01*
X7819000Y-5115250D01*
X7819000Y-5084038D01*
X7813672Y-5071174D01*
X7803826Y-5061328D01*
X7799086Y-5059365D01*
X7799989Y-5058464D01*
X7808990Y-5036787D01*
X7809010Y-5013316D01*
X7800047Y-4991623D01*
X7783464Y-4975011D01*
X7783428Y-4974996D01*
X7799989Y-4958464D01*
X7808990Y-4936787D01*
X7809010Y-4913316D01*
X7800047Y-4891623D01*
X7783464Y-4875011D01*
X7783428Y-4874996D01*
X7799989Y-4858464D01*
X7808990Y-4836787D01*
X7809010Y-4813316D01*
X7800047Y-4791623D01*
X7783464Y-4775011D01*
X7783428Y-4774996D01*
X7799989Y-4758464D01*
X7808990Y-4736787D01*
X7809010Y-4713316D01*
X7800047Y-4691623D01*
X7783464Y-4675011D01*
X7783428Y-4674996D01*
X7799989Y-4658464D01*
X7808990Y-4636787D01*
X7809010Y-4613316D01*
X7800047Y-4591623D01*
X7783464Y-4575011D01*
X7783428Y-4574996D01*
X7799989Y-4558464D01*
X7808990Y-4536787D01*
X7809010Y-4513316D01*
X7800047Y-4491623D01*
X7783464Y-4475011D01*
X7783428Y-4474996D01*
X7799989Y-4458464D01*
X7808990Y-4436787D01*
X7809010Y-4413316D01*
X7800047Y-4391623D01*
X7783464Y-4375011D01*
X7783428Y-4374996D01*
X7799989Y-4358464D01*
X7808990Y-4336787D01*
X7809010Y-4313316D01*
X7800047Y-4291623D01*
X7783464Y-4275011D01*
X7761787Y-4266010D01*
X7738316Y-4265990D01*
X7716623Y-4274953D01*
X7700011Y-4291536D01*
X7691010Y-4313213D01*
X7690990Y-4336684D01*
X7692836Y-4341152D01*
X7687988Y-4346000D01*
X7200000Y-4346000D01*
X7188902Y-4348207D01*
X7179494Y-4354494D01*
X7161188Y-4372800D01*
X7160489Y-4372509D01*
X7139603Y-4372491D01*
X7120300Y-4380467D01*
X7105519Y-4395222D01*
X7099996Y-4408521D01*
X7094533Y-4395300D01*
X7079778Y-4380519D01*
X7060489Y-4372509D01*
X7039603Y-4372491D01*
X7020300Y-4380467D01*
X7005519Y-4395222D01*
X6999996Y-4408521D01*
X6994533Y-4395300D01*
X6979778Y-4380519D01*
X6960489Y-4372509D01*
X6939603Y-4372491D01*
X6920300Y-4380467D01*
X6905519Y-4395222D01*
X6899996Y-4408521D01*
X6894533Y-4395300D01*
X6879778Y-4380519D01*
X6860489Y-4372509D01*
X6839603Y-4372491D01*
X6838825Y-4372812D01*
X6820506Y-4354494D01*
X6811098Y-4348207D01*
X6800000Y-4346000D01*
X6787298Y-4346000D01*
X6792493Y-4333491D01*
X6792504Y-4320000D01*
X6825000Y-4320000D01*
X6842221Y-4316575D01*
X6856820Y-4306820D01*
X6900000Y-4263640D01*
X6943180Y-4306820D01*
X6957779Y-4316575D01*
X6975000Y-4320000D01*
X7225000Y-4320000D01*
X7242221Y-4316575D01*
X7256820Y-4306820D01*
X7305505Y-4258135D01*
X7323734Y-4254509D01*
X7342875Y-4241719D01*
X7355665Y-4222578D01*
X7360156Y-4200000D01*
X7355665Y-4177422D01*
X7342875Y-4158281D01*
X7339380Y-4155945D01*
X7356404Y-4139744D01*
X7367320Y-4115134D01*
X7367987Y-4111781D01*
X7367987Y-4088219D01*
X7367320Y-4084866D01*
X7356404Y-4060256D01*
X7336901Y-4041696D01*
X7311781Y-4032013D01*
X7301000Y-4039757D01*
X7301000Y-4099000D01*
X7360242Y-4099000D01*
X7367987Y-4088219D01*
X7367987Y-4111781D01*
X7360242Y-4101000D01*
X7301000Y-4101000D01*
X7301000Y-4101787D01*
X7299000Y-4101787D01*
X7299000Y-4101000D01*
X7299000Y-4099000D01*
X7299000Y-4039757D01*
X7288219Y-4032013D01*
X7263099Y-4041696D01*
X7250000Y-4054162D01*
X7236901Y-4041696D01*
X7211781Y-4032013D01*
X7201000Y-4039757D01*
X7201000Y-4099000D01*
X7239758Y-4099000D01*
X7260242Y-4099000D01*
X7299000Y-4099000D01*
X7299000Y-4101000D01*
X7260242Y-4101000D01*
X7239758Y-4101000D01*
X7201000Y-4101000D01*
X7201000Y-4101787D01*
X7199000Y-4101787D01*
X7199000Y-4101000D01*
X7199000Y-4099000D01*
X7199000Y-4039757D01*
X7188219Y-4032013D01*
X7163099Y-4041696D01*
X7150000Y-4054162D01*
X7136901Y-4041696D01*
X7111781Y-4032013D01*
X7101000Y-4039757D01*
X7101000Y-4099000D01*
X7139758Y-4099000D01*
X7160242Y-4099000D01*
X7199000Y-4099000D01*
X7199000Y-4101000D01*
X7160242Y-4101000D01*
X7139758Y-4101000D01*
X7101000Y-4101000D01*
X7101000Y-4101787D01*
X7099000Y-4101787D01*
X7099000Y-4101000D01*
X7099000Y-4099000D01*
X7099000Y-4039757D01*
X7088219Y-4032013D01*
X7063099Y-4041696D01*
X7050000Y-4054162D01*
X7036901Y-4041696D01*
X7011781Y-4032013D01*
X7001000Y-4039757D01*
X7001000Y-4099000D01*
X7039758Y-4099000D01*
X7060242Y-4099000D01*
X7099000Y-4099000D01*
X7099000Y-4101000D01*
X7060242Y-4101000D01*
X7039758Y-4101000D01*
X7001000Y-4101000D01*
X7001000Y-4139757D01*
X7001000Y-4160243D01*
X7001000Y-4199000D01*
X7001787Y-4199000D01*
X7001787Y-4201000D01*
X7001000Y-4201000D01*
X7001000Y-4201787D01*
X6999000Y-4201787D01*
X6999000Y-4201000D01*
X6998213Y-4201000D01*
X6998213Y-4199000D01*
X6999000Y-4199000D01*
X6999000Y-4160243D01*
X6999000Y-4139757D01*
X6999000Y-4101000D01*
X6960242Y-4101000D01*
X6939758Y-4101000D01*
X6901000Y-4101000D01*
X6901000Y-4101787D01*
X6899000Y-4101787D01*
X6899000Y-4101000D01*
X6860242Y-4101000D01*
X6839758Y-4101000D01*
X6801000Y-4101000D01*
X6801000Y-4101787D01*
X6799000Y-4101787D01*
X6799000Y-4101000D01*
X6799000Y-4099000D01*
X6799000Y-4039757D01*
X6788219Y-4032013D01*
X6763099Y-4041696D01*
X6750000Y-4054162D01*
X6736901Y-4041696D01*
X6711781Y-4032013D01*
X6701000Y-4039757D01*
X6701000Y-4099000D01*
X6739758Y-4099000D01*
X6760242Y-4099000D01*
X6799000Y-4099000D01*
X6799000Y-4101000D01*
X6760242Y-4101000D01*
X6739758Y-4101000D01*
X6701000Y-4101000D01*
X6701000Y-4101787D01*
X6699000Y-4101787D01*
X6699000Y-4101000D01*
X6699000Y-4099000D01*
X6699000Y-4039757D01*
X6688219Y-4032013D01*
X6663099Y-4041696D01*
X6650000Y-4054162D01*
X6636901Y-4041696D01*
X6611781Y-4032013D01*
X6601000Y-4039757D01*
X6601000Y-4099000D01*
X6639758Y-4099000D01*
X6660242Y-4099000D01*
X6699000Y-4099000D01*
X6699000Y-4101000D01*
X6660242Y-4101000D01*
X6639758Y-4101000D01*
X6601000Y-4101000D01*
X6601000Y-4139757D01*
X6601000Y-4160243D01*
X6601000Y-4199000D01*
X6601787Y-4199000D01*
X6601787Y-4201000D01*
X6601000Y-4201000D01*
X6601000Y-4201787D01*
X6599000Y-4201787D01*
X6599000Y-4201000D01*
X6598213Y-4201000D01*
X6598213Y-4199000D01*
X6599000Y-4199000D01*
X6599000Y-4160243D01*
X6599000Y-4139757D01*
X6599000Y-4101000D01*
X6599000Y-4099000D01*
X6599000Y-4039757D01*
X6588219Y-4032013D01*
X6563099Y-4041696D01*
X6550000Y-4054162D01*
X6536901Y-4041696D01*
X6511781Y-4032013D01*
X6501000Y-4039757D01*
X6501000Y-4099000D01*
X6539758Y-4099000D01*
X6560242Y-4099000D01*
X6599000Y-4099000D01*
X6599000Y-4101000D01*
X6560242Y-4101000D01*
X6539758Y-4101000D01*
X6501000Y-4101000D01*
X6501000Y-4101787D01*
X6499000Y-4101787D01*
X6499000Y-4101000D01*
X6499000Y-4099000D01*
X6499000Y-4039757D01*
X6488219Y-4032013D01*
X6463099Y-4041696D01*
X6450000Y-4054162D01*
X6436901Y-4041696D01*
X6411781Y-4032013D01*
X6401000Y-4039757D01*
X6401000Y-4099000D01*
X6439758Y-4099000D01*
X6460242Y-4099000D01*
X6499000Y-4099000D01*
X6499000Y-4101000D01*
X6460242Y-4101000D01*
X6439758Y-4101000D01*
X6401000Y-4101000D01*
X6401000Y-4101787D01*
X6399000Y-4101787D01*
X6399000Y-4101000D01*
X6360242Y-4101000D01*
X6339758Y-4101000D01*
X6301000Y-4101000D01*
X6301000Y-4101787D01*
X6299000Y-4101787D01*
X6299000Y-4101000D01*
X6260242Y-4101000D01*
X6239758Y-4101000D01*
X6201000Y-4101000D01*
X6201000Y-4139757D01*
X6201000Y-4160243D01*
X6201000Y-4199000D01*
X6201787Y-4199000D01*
X6201787Y-4201000D01*
X6201000Y-4201000D01*
X6201000Y-4201787D01*
X6199000Y-4201787D01*
X6199000Y-4201000D01*
X6198213Y-4201000D01*
X6198213Y-4199000D01*
X6199000Y-4199000D01*
X6199000Y-4160243D01*
X6199000Y-4139757D01*
X6199000Y-4101000D01*
X6160242Y-4101000D01*
X6139758Y-4101000D01*
X6101000Y-4101000D01*
X6101000Y-4101787D01*
X6099000Y-4101787D01*
X6099000Y-4101000D01*
X6060242Y-4101000D01*
X6039758Y-4101000D01*
X6001000Y-4101000D01*
X6001000Y-4101787D01*
X5999000Y-4101787D01*
X5999000Y-4101000D01*
X5999000Y-4099000D01*
X5999000Y-4039757D01*
X5988219Y-4032013D01*
X5963099Y-4041696D01*
X5950000Y-4054162D01*
X5936901Y-4041696D01*
X5911781Y-4032013D01*
X5901000Y-4039757D01*
X5901000Y-4099000D01*
X5939758Y-4099000D01*
X5960242Y-4099000D01*
X5999000Y-4099000D01*
X5999000Y-4101000D01*
X5960242Y-4101000D01*
X5939758Y-4101000D01*
X5901000Y-4101000D01*
X5901000Y-4101787D01*
X5899000Y-4101787D01*
X5899000Y-4101000D01*
X5899000Y-4099000D01*
X5899000Y-4039757D01*
X5888219Y-4032013D01*
X5863099Y-4041696D01*
X5850000Y-4054162D01*
X5836901Y-4041696D01*
X5811781Y-4032013D01*
X5801000Y-4039757D01*
X5801000Y-4099000D01*
X5839758Y-4099000D01*
X5860242Y-4099000D01*
X5899000Y-4099000D01*
X5899000Y-4101000D01*
X5860242Y-4101000D01*
X5839758Y-4101000D01*
X5801000Y-4101000D01*
X5801000Y-4139757D01*
X5801000Y-4160243D01*
X5801000Y-4199000D01*
X5801787Y-4199000D01*
X5801787Y-4201000D01*
X5801000Y-4201000D01*
X5801000Y-4201787D01*
X5799000Y-4201787D01*
X5799000Y-4201000D01*
X5798213Y-4201000D01*
X5798213Y-4199000D01*
X5799000Y-4199000D01*
X5799000Y-4160243D01*
X5799000Y-4139757D01*
X5799000Y-4101000D01*
X5799000Y-4099000D01*
X5799000Y-4039757D01*
X5788219Y-4032013D01*
X5763099Y-4041696D01*
X5750000Y-4054162D01*
X5736901Y-4041696D01*
X5711781Y-4032013D01*
X5701000Y-4039757D01*
X5701000Y-4099000D01*
X5739758Y-4099000D01*
X5760242Y-4099000D01*
X5799000Y-4099000D01*
X5799000Y-4101000D01*
X5760242Y-4101000D01*
X5739758Y-4101000D01*
X5701000Y-4101000D01*
X5701000Y-4101787D01*
X5699000Y-4101787D01*
X5699000Y-4101000D01*
X5699000Y-4099000D01*
X5699000Y-4039757D01*
X5688219Y-4032013D01*
X5663099Y-4041696D01*
X5650000Y-4054162D01*
X5636901Y-4041696D01*
X5611781Y-4032013D01*
X5601000Y-4039757D01*
X5601000Y-4099000D01*
X5639758Y-4099000D01*
X5660242Y-4099000D01*
X5699000Y-4099000D01*
X5699000Y-4101000D01*
X5660242Y-4101000D01*
X5639758Y-4101000D01*
X5601000Y-4101000D01*
X5601000Y-4101787D01*
X5599000Y-4101787D01*
X5599000Y-4101000D01*
X5599000Y-4099000D01*
X5599000Y-4039757D01*
X5588219Y-4032013D01*
X5563099Y-4041696D01*
X5550000Y-4054162D01*
X5536901Y-4041696D01*
X5511781Y-4032013D01*
X5501000Y-4039757D01*
X5501000Y-4099000D01*
X5539758Y-4099000D01*
X5560242Y-4099000D01*
X5599000Y-4099000D01*
X5599000Y-4101000D01*
X5560242Y-4101000D01*
X5539758Y-4101000D01*
X5501000Y-4101000D01*
X5501000Y-4101787D01*
X5499000Y-4101787D01*
X5499000Y-4101000D01*
X5499000Y-4099000D01*
X5499000Y-4039757D01*
X5488219Y-4032013D01*
X5463099Y-4041696D01*
X5450000Y-4054162D01*
X5436901Y-4041696D01*
X5411781Y-4032013D01*
X5401000Y-4039757D01*
X5401000Y-4099000D01*
X5439758Y-4099000D01*
X5460242Y-4099000D01*
X5499000Y-4099000D01*
X5499000Y-4101000D01*
X5460242Y-4101000D01*
X5439758Y-4101000D01*
X5401000Y-4101000D01*
X5401000Y-4139750D01*
X5401000Y-4160243D01*
X5401000Y-4199000D01*
X5401787Y-4199000D01*
X5401787Y-4201000D01*
X5401000Y-4201000D01*
X5401000Y-4260250D01*
X5409750Y-4269000D01*
X5440962Y-4269000D01*
X5453826Y-4263672D01*
X5463672Y-4253826D01*
X5466180Y-4247770D01*
X5476266Y-4254509D01*
X5498844Y-4259000D01*
X5501156Y-4259000D01*
X5502659Y-4258701D01*
X5399000Y-4362360D01*
X5399000Y-4260250D01*
X5399000Y-4201000D01*
X5399000Y-4199000D01*
X5399000Y-4160243D01*
X5399000Y-4139750D01*
X5399000Y-4101000D01*
X5399000Y-4099000D01*
X5399000Y-4039757D01*
X5388219Y-4032013D01*
X5363099Y-4041696D01*
X5343596Y-4060256D01*
X5332680Y-4084866D01*
X5332013Y-4088219D01*
X5339758Y-4099000D01*
X5399000Y-4099000D01*
X5399000Y-4101000D01*
X5339758Y-4101000D01*
X5332013Y-4111781D01*
X5332680Y-4115134D01*
X5343339Y-4139164D01*
X5336328Y-4146174D01*
X5331000Y-4159038D01*
X5331000Y-4172962D01*
X5331000Y-4190250D01*
X5339750Y-4199000D01*
X5399000Y-4199000D01*
X5399000Y-4201000D01*
X5339750Y-4201000D01*
X5331000Y-4209750D01*
X5331000Y-4227038D01*
X5331000Y-4240962D01*
X5336328Y-4253826D01*
X5346174Y-4263672D01*
X5359038Y-4269000D01*
X5390250Y-4269000D01*
X5399000Y-4260250D01*
X5399000Y-4362360D01*
X5393180Y-4368180D01*
X5383425Y-4382779D01*
X5381057Y-4394685D01*
X5380519Y-4395222D01*
X5374861Y-4408848D01*
X5320506Y-4354494D01*
X5311098Y-4348207D01*
X5300000Y-4346000D01*
X5182644Y-4346000D01*
X5179585Y-4338596D01*
X5161499Y-4320479D01*
X5137856Y-4310661D01*
X5112256Y-4310639D01*
X5088596Y-4320415D01*
X5070479Y-4338501D01*
X5060661Y-4362144D01*
X5060639Y-4387744D01*
X5070415Y-4411404D01*
X5088501Y-4429521D01*
X5112144Y-4439339D01*
X5137744Y-4439361D01*
X5161404Y-4429585D01*
X5179521Y-4411499D01*
X5182635Y-4404000D01*
X5287988Y-4404000D01*
X5379494Y-4495506D01*
X5388902Y-4501793D01*
X5400000Y-4504000D01*
X5537702Y-4504000D01*
X5532507Y-4516509D01*
X5532493Y-4533417D01*
X5538949Y-4549043D01*
X5550894Y-4561009D01*
X5566509Y-4567493D01*
X5576489Y-4567501D01*
X5588988Y-4580000D01*
X5314840Y-4580000D01*
X5314840Y-4513718D01*
X5305587Y-4489763D01*
X5303827Y-4487129D01*
X5291052Y-4485363D01*
X5289637Y-4486777D01*
X5289637Y-4483948D01*
X5287871Y-4471173D01*
X5264390Y-4460778D01*
X5238718Y-4460160D01*
X5214763Y-4469413D01*
X5212129Y-4471173D01*
X5210363Y-4483948D01*
X5250000Y-4523586D01*
X5289637Y-4483948D01*
X5289637Y-4486777D01*
X5251414Y-4525000D01*
X5291052Y-4564637D01*
X5303827Y-4562871D01*
X5314222Y-4539390D01*
X5314840Y-4513718D01*
X5314840Y-4580000D01*
X5286116Y-4580000D01*
X5287871Y-4578827D01*
X5289637Y-4566052D01*
X5250000Y-4526414D01*
X5248586Y-4527828D01*
X5248586Y-4525000D01*
X5208948Y-4485363D01*
X5196173Y-4487129D01*
X5185778Y-4510610D01*
X5185160Y-4536282D01*
X5194413Y-4560237D01*
X5196173Y-4562871D01*
X5208948Y-4564637D01*
X5248586Y-4525000D01*
X5248586Y-4527828D01*
X5210363Y-4566052D01*
X5212129Y-4578827D01*
X5214779Y-4580000D01*
X5075000Y-4580000D01*
X5057779Y-4583425D01*
X5043180Y-4593180D01*
X5024710Y-4611650D01*
X5024710Y-4187155D01*
X5014108Y-4159542D01*
X5011911Y-4156255D01*
X4998118Y-4153296D01*
X4996704Y-4154710D01*
X4996704Y-4151882D01*
X4993745Y-4138089D01*
X4966723Y-4126061D01*
X4937155Y-4125290D01*
X4909542Y-4135892D01*
X4906255Y-4138089D01*
X4903296Y-4151882D01*
X4950000Y-4198586D01*
X4996704Y-4151882D01*
X4996704Y-4154710D01*
X4951414Y-4200000D01*
X4998118Y-4246704D01*
X5011911Y-4243745D01*
X5023939Y-4216723D01*
X5024710Y-4187155D01*
X5024710Y-4611650D01*
X5007831Y-4628530D01*
X5014339Y-4612856D01*
X5014361Y-4587256D01*
X5004585Y-4563596D01*
X4996704Y-4555701D01*
X4996704Y-4248118D01*
X4950000Y-4201414D01*
X4948586Y-4202828D01*
X4948586Y-4200000D01*
X4901882Y-4153296D01*
X4888089Y-4156255D01*
X4876061Y-4183277D01*
X4875290Y-4212845D01*
X4885892Y-4240458D01*
X4888089Y-4243745D01*
X4901882Y-4246704D01*
X4948586Y-4200000D01*
X4948586Y-4202828D01*
X4903296Y-4248118D01*
X4906255Y-4261911D01*
X4933277Y-4273939D01*
X4962845Y-4274710D01*
X4990458Y-4264108D01*
X4993745Y-4261911D01*
X4996704Y-4248118D01*
X4996704Y-4555701D01*
X4986499Y-4545479D01*
X4962856Y-4535661D01*
X4937256Y-4535639D01*
X4913596Y-4545415D01*
X4895479Y-4563501D01*
X4885661Y-4587144D01*
X4885639Y-4612744D01*
X4895415Y-4636404D01*
X4913501Y-4654521D01*
X4937144Y-4664339D01*
X4962744Y-4664361D01*
X4978516Y-4657844D01*
X4927397Y-4708963D01*
X4921272Y-4694140D01*
X4905940Y-4678782D01*
X4885898Y-4670459D01*
X4864197Y-4670441D01*
X4850000Y-4676307D01*
X4850000Y-4621962D01*
X4850000Y-4314750D01*
X4841250Y-4306000D01*
X4626000Y-4306000D01*
X4626000Y-4641250D01*
X4634750Y-4650000D01*
X4808038Y-4650000D01*
X4821962Y-4650000D01*
X4834826Y-4644672D01*
X4844672Y-4634826D01*
X4850000Y-4621962D01*
X4850000Y-4676307D01*
X4844140Y-4678728D01*
X4828782Y-4694060D01*
X4820459Y-4714102D01*
X4820441Y-4735803D01*
X4828728Y-4755860D01*
X4844060Y-4771218D01*
X4853165Y-4774999D01*
X4844140Y-4778728D01*
X4843253Y-4779613D01*
X4806820Y-4743180D01*
X4792221Y-4733425D01*
X4782201Y-4731432D01*
X4779001Y-4715343D01*
X4766330Y-4696380D01*
X4747368Y-4683710D01*
X4725000Y-4679260D01*
X4702632Y-4683710D01*
X4683670Y-4696380D01*
X4680283Y-4701448D01*
X4672694Y-4690441D01*
X4650271Y-4675928D01*
X4636694Y-4672106D01*
X4626000Y-4679858D01*
X4626000Y-4774000D01*
X4626787Y-4774000D01*
X4626787Y-4776000D01*
X4626000Y-4776000D01*
X4626000Y-4870142D01*
X4636694Y-4877894D01*
X4650271Y-4874072D01*
X4672694Y-4859559D01*
X4680283Y-4848552D01*
X4683670Y-4853620D01*
X4702632Y-4866290D01*
X4725000Y-4870740D01*
X4747368Y-4866290D01*
X4766330Y-4853620D01*
X4775803Y-4839443D01*
X4793180Y-4856820D01*
X4807779Y-4866575D01*
X4825000Y-4870000D01*
X4842843Y-4870000D01*
X4844060Y-4871218D01*
X4864102Y-4879541D01*
X4871000Y-4879546D01*
X4871000Y-4893898D01*
X4863991Y-4900894D01*
X4857507Y-4916509D01*
X4857493Y-4933417D01*
X4863949Y-4949043D01*
X4875894Y-4961009D01*
X4891509Y-4967493D01*
X4908417Y-4967507D01*
X4922158Y-4961829D01*
X4887988Y-4996000D01*
X4831132Y-4996000D01*
X4846218Y-4980940D01*
X4854541Y-4960898D01*
X4854559Y-4939197D01*
X4846272Y-4919140D01*
X4830940Y-4903782D01*
X4810898Y-4895459D01*
X4789197Y-4895441D01*
X4769140Y-4903728D01*
X4756282Y-4916563D01*
X4755587Y-4914763D01*
X4753827Y-4912129D01*
X4741052Y-4910363D01*
X4739637Y-4911777D01*
X4739637Y-4908948D01*
X4737871Y-4896173D01*
X4714390Y-4885778D01*
X4688718Y-4885160D01*
X4664763Y-4894413D01*
X4662129Y-4896173D01*
X4660363Y-4908948D01*
X4700000Y-4948586D01*
X4739637Y-4908948D01*
X4739637Y-4911777D01*
X4701414Y-4950000D01*
X4701971Y-4950557D01*
X4700557Y-4951971D01*
X4700000Y-4951414D01*
X4698586Y-4952828D01*
X4660363Y-4991052D01*
X4662129Y-5003827D01*
X4683791Y-5013417D01*
X4682507Y-5016509D01*
X4682502Y-5022506D01*
X4664603Y-5022491D01*
X4663825Y-5022812D01*
X4645506Y-5004494D01*
X4636098Y-4998207D01*
X4625000Y-4996000D01*
X4621937Y-4996000D01*
X4622176Y-4995762D01*
X4616052Y-4989637D01*
X4628827Y-4987871D01*
X4637694Y-4967842D01*
X4644413Y-4985237D01*
X4646173Y-4987871D01*
X4658948Y-4989637D01*
X4698586Y-4950000D01*
X4658948Y-4910363D01*
X4646173Y-4912129D01*
X4637306Y-4932157D01*
X4630587Y-4914763D01*
X4628827Y-4912129D01*
X4624000Y-4911461D01*
X4624000Y-4870142D01*
X4624000Y-4776000D01*
X4623213Y-4776000D01*
X4623213Y-4774000D01*
X4624000Y-4774000D01*
X4624000Y-4679858D01*
X4624000Y-4641250D01*
X4624000Y-4306000D01*
X4408750Y-4306000D01*
X4400000Y-4314750D01*
X4400000Y-4621962D01*
X4405328Y-4634826D01*
X4415174Y-4644672D01*
X4428038Y-4650000D01*
X4441962Y-4650000D01*
X4615250Y-4650000D01*
X4624000Y-4641250D01*
X4624000Y-4679858D01*
X4613306Y-4672106D01*
X4599729Y-4675928D01*
X4577306Y-4690441D01*
X4569717Y-4701448D01*
X4566330Y-4696380D01*
X4547368Y-4683710D01*
X4525000Y-4679260D01*
X4502632Y-4683710D01*
X4483670Y-4696380D01*
X4470999Y-4715343D01*
X4468084Y-4730000D01*
X4443640Y-4730000D01*
X4406820Y-4693180D01*
X4392221Y-4683425D01*
X4375000Y-4680000D01*
X4276993Y-4680000D01*
X4276993Y-4105517D01*
X4255252Y-4052899D01*
X4215030Y-4012606D01*
X4162450Y-3990773D01*
X4105517Y-3990723D01*
X4052899Y-4012465D01*
X4012606Y-4052687D01*
X3990773Y-4105267D01*
X3990723Y-4162200D01*
X4012465Y-4214818D01*
X4052687Y-4255110D01*
X4105267Y-4276944D01*
X4162200Y-4276993D01*
X4214818Y-4255252D01*
X4255110Y-4215030D01*
X4276944Y-4162450D01*
X4276993Y-4105517D01*
X4276993Y-4680000D01*
X4232792Y-4680000D01*
X4231196Y-4678400D01*
X4210988Y-4670010D01*
X4189108Y-4669990D01*
X4168886Y-4678346D01*
X4167229Y-4680000D01*
X4150355Y-4680000D01*
X4144161Y-4673806D01*
X4134973Y-4670000D01*
X4125027Y-4670000D01*
X4065027Y-4670000D01*
X4055839Y-4673806D01*
X4048806Y-4680839D01*
X4045000Y-4690027D01*
X4045000Y-4699973D01*
X4045000Y-4759973D01*
X4048806Y-4769161D01*
X4055839Y-4776194D01*
X4060801Y-4778250D01*
X4060038Y-4783624D01*
X4100000Y-4823586D01*
X4139962Y-4783624D01*
X4139199Y-4778250D01*
X4144161Y-4776194D01*
X4150355Y-4770000D01*
X4163059Y-4770000D01*
X4161859Y-4770802D01*
X4160038Y-4783624D01*
X4200000Y-4823586D01*
X4239962Y-4783624D01*
X4238141Y-4770802D01*
X4236330Y-4770000D01*
X4356360Y-4770000D01*
X4393180Y-4806820D01*
X4407779Y-4816575D01*
X4425000Y-4820000D01*
X4468084Y-4820000D01*
X4470999Y-4834657D01*
X4483670Y-4853620D01*
X4502632Y-4866290D01*
X4525000Y-4870740D01*
X4547368Y-4866290D01*
X4566330Y-4853620D01*
X4569717Y-4848552D01*
X4577306Y-4859559D01*
X4599729Y-4874072D01*
X4613306Y-4877894D01*
X4624000Y-4870142D01*
X4624000Y-4911461D01*
X4616052Y-4910363D01*
X4614637Y-4911777D01*
X4614637Y-4908948D01*
X4612871Y-4896173D01*
X4589390Y-4885778D01*
X4563718Y-4885160D01*
X4539763Y-4894413D01*
X4537129Y-4896173D01*
X4535363Y-4908948D01*
X4575000Y-4948586D01*
X4614637Y-4908948D01*
X4614637Y-4911777D01*
X4576414Y-4950000D01*
X4576971Y-4950557D01*
X4575557Y-4951971D01*
X4575000Y-4951414D01*
X4574443Y-4951971D01*
X4573029Y-4950557D01*
X4573586Y-4950000D01*
X4533948Y-4910363D01*
X4521173Y-4912129D01*
X4519053Y-4916917D01*
X4505940Y-4903782D01*
X4485898Y-4895459D01*
X4464197Y-4895441D01*
X4444140Y-4903728D01*
X4428782Y-4919060D01*
X4420459Y-4939102D01*
X4420441Y-4960803D01*
X4428728Y-4980860D01*
X4443842Y-4996000D01*
X4412012Y-4996000D01*
X4320506Y-4904494D01*
X4311098Y-4898207D01*
X4300000Y-4896000D01*
X4265294Y-4896000D01*
X4265294Y-4813646D01*
X4255978Y-4789524D01*
X4254198Y-4786859D01*
X4241376Y-4785038D01*
X4201414Y-4825000D01*
X4241376Y-4864962D01*
X4254198Y-4863141D01*
X4264668Y-4839497D01*
X4265294Y-4813646D01*
X4265294Y-4896000D01*
X4247528Y-4896000D01*
X4246654Y-4893886D01*
X4234244Y-4881454D01*
X4235476Y-4880978D01*
X4238141Y-4879198D01*
X4239962Y-4866376D01*
X4200000Y-4826414D01*
X4198586Y-4827828D01*
X4198586Y-4825000D01*
X4158624Y-4785038D01*
X4150000Y-4786263D01*
X4141376Y-4785038D01*
X4101414Y-4825000D01*
X4141376Y-4864962D01*
X4150000Y-4863737D01*
X4158624Y-4864962D01*
X4198586Y-4825000D01*
X4198586Y-4827828D01*
X4160038Y-4866376D01*
X4161859Y-4879198D01*
X4166135Y-4881092D01*
X4153400Y-4893804D01*
X4150002Y-4901989D01*
X4146654Y-4893886D01*
X4134244Y-4881454D01*
X4135476Y-4880978D01*
X4138141Y-4879198D01*
X4139962Y-4866376D01*
X4100000Y-4826414D01*
X4098586Y-4827828D01*
X4098586Y-4825000D01*
X4058624Y-4785038D01*
X4045802Y-4786859D01*
X4035332Y-4810503D01*
X4034706Y-4836354D01*
X4044022Y-4860476D01*
X4045802Y-4863141D01*
X4058624Y-4864962D01*
X4098586Y-4825000D01*
X4098586Y-4827828D01*
X4060038Y-4866376D01*
X4061859Y-4879198D01*
X4066135Y-4881092D01*
X4053400Y-4893804D01*
X4045010Y-4914012D01*
X4044990Y-4935892D01*
X4053346Y-4956114D01*
X4068804Y-4971600D01*
X4076989Y-4974998D01*
X4068886Y-4978346D01*
X4053400Y-4993804D01*
X4045010Y-5014012D01*
X4044990Y-5035892D01*
X4053346Y-5056114D01*
X4068804Y-5071600D01*
X4076989Y-5074998D01*
X4068886Y-5078346D01*
X4053400Y-5093804D01*
X4045010Y-5114012D01*
X4044990Y-5135892D01*
X4053346Y-5156114D01*
X4068804Y-5171600D01*
X4089012Y-5179990D01*
X4110892Y-5180010D01*
X4131114Y-5171654D01*
X4132771Y-5170000D01*
X4167208Y-5170000D01*
X4168804Y-5171600D01*
X4189012Y-5179990D01*
X4210892Y-5180010D01*
X4231114Y-5171654D01*
X4246600Y-5156196D01*
X4254990Y-5135988D01*
X4255010Y-5114108D01*
X4246654Y-5093886D01*
X4231196Y-5078400D01*
X4223011Y-5075002D01*
X4231114Y-5071654D01*
X4246600Y-5056196D01*
X4254990Y-5035988D01*
X4255010Y-5014108D01*
X4250833Y-5004000D01*
X4287988Y-5004000D01*
X4429494Y-5145506D01*
X4438902Y-5151793D01*
X4438902Y-5151793D01*
X4450000Y-5154000D01*
X4525000Y-5154000D01*
X4536098Y-5151793D01*
X4545506Y-5145506D01*
X4563812Y-5127200D01*
X4564511Y-5127491D01*
X4585397Y-5127509D01*
X4604700Y-5119533D01*
X4619481Y-5104778D01*
X4625004Y-5091478D01*
X4630467Y-5104700D01*
X4645222Y-5119481D01*
X4664511Y-5127491D01*
X4685397Y-5127509D01*
X4704700Y-5119533D01*
X4719481Y-5104778D01*
X4725004Y-5091478D01*
X4730467Y-5104700D01*
X4745222Y-5119481D01*
X4764511Y-5127491D01*
X4785397Y-5127509D01*
X4803571Y-5120000D01*
X4806360Y-5120000D01*
X4870442Y-5184082D01*
X4870441Y-5185803D01*
X4874654Y-5196000D01*
X4625000Y-5196000D01*
X4613902Y-5198207D01*
X4604494Y-5204494D01*
X4486488Y-5322500D01*
X4442527Y-5322500D01*
X4433339Y-5326306D01*
X4426306Y-5333339D01*
X4422500Y-5342527D01*
X4422500Y-5352473D01*
X4422500Y-5407473D01*
X4426306Y-5416661D01*
X4433339Y-5423694D01*
X4442527Y-5427500D01*
X4452473Y-5427500D01*
X4507473Y-5427500D01*
X4516661Y-5423694D01*
X4523694Y-5416661D01*
X4525634Y-5411977D01*
X4535427Y-5413159D01*
X4573586Y-5375000D01*
X4573029Y-5374443D01*
X4574443Y-5373029D01*
X4575000Y-5373586D01*
X4613159Y-5335427D01*
X4611643Y-5322864D01*
X4588902Y-5312810D01*
X4578448Y-5312564D01*
X4637012Y-5254000D01*
X4863704Y-5254000D01*
X4860778Y-5260610D01*
X4860160Y-5286282D01*
X4869413Y-5310237D01*
X4871173Y-5312871D01*
X4883948Y-5314637D01*
X4923586Y-5275000D01*
X4923029Y-5274443D01*
X4924443Y-5273029D01*
X4925000Y-5273586D01*
X4925557Y-5273029D01*
X4926971Y-5274443D01*
X4926414Y-5275000D01*
X4966052Y-5314637D01*
X4978827Y-5312871D01*
X4989222Y-5289390D01*
X4989840Y-5263718D01*
X4986087Y-5254000D01*
X5112988Y-5254000D01*
X5204494Y-5345506D01*
X5213902Y-5351793D01*
X5225000Y-5354000D01*
X5279996Y-5354000D01*
X5270479Y-5363501D01*
X5260661Y-5387144D01*
X5260639Y-5412744D01*
X5270415Y-5436404D01*
X5288501Y-5454521D01*
X5312144Y-5464339D01*
X5337744Y-5464361D01*
X5361404Y-5454585D01*
X5379521Y-5436499D01*
X5382635Y-5429000D01*
X5417356Y-5429000D01*
X5420415Y-5436404D01*
X5438501Y-5454521D01*
X5462144Y-5464339D01*
X5487744Y-5464361D01*
X5511404Y-5454585D01*
X5529521Y-5436499D01*
X5539339Y-5412856D01*
X5539361Y-5387256D01*
X5529585Y-5363596D01*
X5520006Y-5354000D01*
X5787988Y-5354000D01*
X5813733Y-5379745D01*
X5810661Y-5387144D01*
X5810639Y-5412744D01*
X5820415Y-5436404D01*
X5838501Y-5454521D01*
X5862144Y-5464339D01*
X5887744Y-5464361D01*
X5911404Y-5454585D01*
X5929521Y-5436499D01*
X5939339Y-5412856D01*
X5939361Y-5387256D01*
X5929585Y-5363596D01*
X5911499Y-5345479D01*
X5887856Y-5335661D01*
X5862256Y-5335639D01*
X5854752Y-5338740D01*
X5820506Y-5304494D01*
X5811098Y-5298207D01*
X5800000Y-5296000D01*
X5445004Y-5296000D01*
X5454521Y-5286499D01*
X5464339Y-5262856D01*
X5464361Y-5237256D01*
X5454585Y-5213596D01*
X5436499Y-5195479D01*
X5412856Y-5185661D01*
X5387256Y-5185639D01*
X5363596Y-5195415D01*
X5353994Y-5205000D01*
X5296004Y-5205000D01*
X5286499Y-5195479D01*
X5262856Y-5185661D01*
X5237256Y-5185639D01*
X5228073Y-5189433D01*
X5181820Y-5143180D01*
X5167221Y-5133425D01*
X5150000Y-5130000D01*
X5089962Y-5130000D01*
X5089962Y-5041376D01*
X5050000Y-5001414D01*
X5010038Y-5041376D01*
X5011859Y-5054198D01*
X5035503Y-5064668D01*
X5061354Y-5065294D01*
X5085476Y-5055978D01*
X5088141Y-5054198D01*
X5089962Y-5041376D01*
X5089962Y-5130000D01*
X4957157Y-5130000D01*
X4955940Y-5128782D01*
X4935898Y-5120459D01*
X4934098Y-5120458D01*
X4867640Y-5054000D01*
X4900000Y-5054000D01*
X4911098Y-5051793D01*
X4920506Y-5045506D01*
X4987012Y-4979000D01*
X4988211Y-4979000D01*
X4985332Y-4985503D01*
X4984706Y-5011354D01*
X4994022Y-5035476D01*
X4995802Y-5038141D01*
X5008624Y-5039962D01*
X5048586Y-5000000D01*
X5048029Y-4999443D01*
X5049443Y-4998029D01*
X5050000Y-4998586D01*
X5050557Y-4998029D01*
X5051971Y-4999443D01*
X5051414Y-5000000D01*
X5091376Y-5039962D01*
X5104198Y-5038141D01*
X5114668Y-5014497D01*
X5115294Y-4988646D01*
X5111569Y-4979000D01*
X5575000Y-4979000D01*
X5586098Y-4976793D01*
X5595506Y-4970506D01*
X5638812Y-4927200D01*
X5639511Y-4927491D01*
X5660397Y-4927509D01*
X5679700Y-4919533D01*
X5694481Y-4904778D01*
X5700004Y-4891478D01*
X5705467Y-4904700D01*
X5720222Y-4919481D01*
X5739511Y-4927491D01*
X5760397Y-4927509D01*
X5779700Y-4919533D01*
X5794481Y-4904778D01*
X5800004Y-4891478D01*
X5805467Y-4904700D01*
X5820222Y-4919481D01*
X5839511Y-4927491D01*
X5860397Y-4927509D01*
X5879700Y-4919533D01*
X5894481Y-4904778D01*
X5900004Y-4891478D01*
X5905467Y-4904700D01*
X5920222Y-4919481D01*
X5939511Y-4927491D01*
X5960397Y-4927509D01*
X5979700Y-4919533D01*
X5994481Y-4904778D01*
X6000004Y-4891478D01*
X6005467Y-4904700D01*
X6020222Y-4919481D01*
X6039511Y-4927491D01*
X6060397Y-4927509D01*
X6079700Y-4919533D01*
X6094481Y-4904778D01*
X6100004Y-4891478D01*
X6105467Y-4904700D01*
X6120222Y-4919481D01*
X6139511Y-4927491D01*
X6160397Y-4927509D01*
X6179700Y-4919533D01*
X6194481Y-4904778D01*
X6194494Y-4904747D01*
X6196195Y-4909145D01*
X6197864Y-4911643D01*
X6210427Y-4913159D01*
X6248586Y-4875000D01*
X6248029Y-4874443D01*
X6249443Y-4873029D01*
X6250000Y-4873586D01*
X6250557Y-4873029D01*
X6251971Y-4874443D01*
X6251414Y-4875000D01*
X6289573Y-4913159D01*
X6302136Y-4911643D01*
X6305340Y-4904394D01*
X6305467Y-4904700D01*
X6320222Y-4919481D01*
X6338502Y-4927072D01*
X6332507Y-4941509D01*
X6332502Y-4947402D01*
X6324106Y-4938991D01*
X6308491Y-4932507D01*
X6291583Y-4932493D01*
X6288159Y-4933907D01*
X6288159Y-4914573D01*
X6250000Y-4876414D01*
X6211841Y-4914573D01*
X6213357Y-4927136D01*
X6236098Y-4937190D01*
X6260955Y-4937776D01*
X6284145Y-4928805D01*
X6286643Y-4927136D01*
X6288159Y-4914573D01*
X6288159Y-4933907D01*
X6275957Y-4938949D01*
X6263991Y-4950894D01*
X6257507Y-4966509D01*
X6257493Y-4983417D01*
X6263949Y-4999043D01*
X6275894Y-5011009D01*
X6291509Y-5017493D01*
X6301489Y-5017501D01*
X6329494Y-5045506D01*
X6338902Y-5051793D01*
X6350000Y-5054000D01*
X7199654Y-5054000D01*
X7195459Y-5064102D01*
X7195441Y-5085803D01*
X7203728Y-5105860D01*
X7219060Y-5121218D01*
X7239102Y-5129541D01*
X7260803Y-5129559D01*
X7280860Y-5121272D01*
X7296218Y-5105940D01*
X7304541Y-5085898D01*
X7304557Y-5067504D01*
X7308417Y-5067507D01*
X7324043Y-5061051D01*
X7336009Y-5049106D01*
X7342489Y-5033501D01*
X7354494Y-5045506D01*
X7363902Y-5051793D01*
X7363902Y-5051793D01*
X7375000Y-5054000D01*
X7375000Y-5054000D01*
X7375000Y-5054000D01*
X7698144Y-5054000D01*
X7699953Y-5058377D01*
X7700932Y-5059358D01*
X7696174Y-5061328D01*
X7686328Y-5071174D01*
X7681000Y-5084038D01*
X7681000Y-5115250D01*
X7689750Y-5124000D01*
X7749000Y-5124000D01*
X7749000Y-5123213D01*
X7751000Y-5123213D01*
X7751000Y-5124000D01*
X7810250Y-5124000D01*
X7819000Y-5115250D01*
X7819000Y-5134750D01*
X7810250Y-5126000D01*
X7751000Y-5126000D01*
X7751000Y-5185250D01*
X7759750Y-5194000D01*
X7777038Y-5194000D01*
X7790962Y-5194000D01*
X7803826Y-5188672D01*
X7813672Y-5178826D01*
X7819000Y-5165962D01*
X7819000Y-5677173D01*
X7799350Y-5629616D01*
X7799350Y-5318312D01*
X7799350Y-5281750D01*
X7799350Y-5262250D01*
X7799350Y-5225688D01*
X7794022Y-5212824D01*
X7784176Y-5202978D01*
X7771312Y-5197650D01*
X7757388Y-5197650D01*
X7749000Y-5197650D01*
X7749000Y-5185250D01*
X7749000Y-5126000D01*
X7689750Y-5126000D01*
X7681000Y-5134750D01*
X7681000Y-5165962D01*
X7686328Y-5178826D01*
X7696174Y-5188672D01*
X7709038Y-5194000D01*
X7722962Y-5194000D01*
X7740250Y-5194000D01*
X7749000Y-5185250D01*
X7749000Y-5197650D01*
X7734750Y-5197650D01*
X7726000Y-5206400D01*
X7726000Y-5271000D01*
X7790600Y-5271000D01*
X7799350Y-5262250D01*
X7799350Y-5281750D01*
X7790600Y-5273000D01*
X7726000Y-5273000D01*
X7726000Y-5337600D01*
X7734750Y-5346350D01*
X7757388Y-5346350D01*
X7771312Y-5346350D01*
X7784176Y-5341022D01*
X7794022Y-5331176D01*
X7799350Y-5318312D01*
X7799350Y-5629616D01*
X7798559Y-5627702D01*
X7758337Y-5587409D01*
X7754043Y-5585626D01*
X7761404Y-5582585D01*
X7779521Y-5564499D01*
X7789339Y-5540856D01*
X7789361Y-5515256D01*
X7779585Y-5491596D01*
X7761499Y-5473479D01*
X7737856Y-5463661D01*
X7724000Y-5463649D01*
X7724000Y-5337600D01*
X7724000Y-5273000D01*
X7724000Y-5271000D01*
X7724000Y-5206400D01*
X7715250Y-5197650D01*
X7692612Y-5197650D01*
X7678688Y-5197650D01*
X7665824Y-5202978D01*
X7655978Y-5212824D01*
X7650650Y-5225688D01*
X7650650Y-5262250D01*
X7659400Y-5271000D01*
X7724000Y-5271000D01*
X7724000Y-5273000D01*
X7659400Y-5273000D01*
X7650650Y-5281750D01*
X7650650Y-5318312D01*
X7655978Y-5331176D01*
X7665824Y-5341022D01*
X7678688Y-5346350D01*
X7692612Y-5346350D01*
X7715250Y-5346350D01*
X7724000Y-5337600D01*
X7724000Y-5463649D01*
X7712256Y-5463639D01*
X7704752Y-5466740D01*
X7592506Y-5354494D01*
X7589361Y-5352393D01*
X7589361Y-5212256D01*
X7579585Y-5188596D01*
X7561499Y-5170479D01*
X7537856Y-5160661D01*
X7512256Y-5160639D01*
X7488596Y-5170415D01*
X7470479Y-5188501D01*
X7467365Y-5196000D01*
X7432644Y-5196000D01*
X7429585Y-5188596D01*
X7411499Y-5170479D01*
X7387856Y-5160661D01*
X7362256Y-5160639D01*
X7338596Y-5170415D01*
X7320479Y-5188501D01*
X7310661Y-5212144D01*
X7310639Y-5237744D01*
X7320415Y-5261404D01*
X7338501Y-5279521D01*
X7362144Y-5289339D01*
X7387744Y-5289361D01*
X7411404Y-5279585D01*
X7429521Y-5261499D01*
X7432635Y-5254000D01*
X7467356Y-5254000D01*
X7470415Y-5261404D01*
X7488501Y-5279521D01*
X7512144Y-5289339D01*
X7537744Y-5289361D01*
X7561404Y-5279585D01*
X7579521Y-5261499D01*
X7589339Y-5237856D01*
X7589361Y-5212256D01*
X7589361Y-5352393D01*
X7583098Y-5348207D01*
X7572000Y-5346000D01*
X7137012Y-5346000D01*
X6995506Y-5204494D01*
X6994796Y-5204020D01*
X7002491Y-5185489D01*
X7002509Y-5164603D01*
X6994533Y-5145300D01*
X6979778Y-5130519D01*
X6976120Y-5129000D01*
X7107496Y-5129000D01*
X7107493Y-5133417D01*
X7113949Y-5149043D01*
X7125894Y-5161009D01*
X7141509Y-5167493D01*
X7158417Y-5167507D01*
X7174043Y-5161051D01*
X7186009Y-5149106D01*
X7192493Y-5133491D01*
X7192507Y-5116583D01*
X7186051Y-5100957D01*
X7174106Y-5088991D01*
X7158491Y-5082507D01*
X7148511Y-5082499D01*
X7145506Y-5079494D01*
X7136098Y-5073207D01*
X7125000Y-5071000D01*
X6725000Y-5071000D01*
X6713902Y-5073207D01*
X6704494Y-5079494D01*
X6661188Y-5122800D01*
X6660489Y-5122509D01*
X6639603Y-5122491D01*
X6620300Y-5130467D01*
X6605519Y-5145222D01*
X6599996Y-5158521D01*
X6594533Y-5145300D01*
X6579778Y-5130519D01*
X6560489Y-5122509D01*
X6539603Y-5122491D01*
X6520300Y-5130467D01*
X6505519Y-5145222D01*
X6499996Y-5158521D01*
X6494533Y-5145300D01*
X6479778Y-5130519D01*
X6460489Y-5122509D01*
X6439603Y-5122491D01*
X6420300Y-5130467D01*
X6405519Y-5145222D01*
X6405506Y-5145253D01*
X6403805Y-5140855D01*
X6402136Y-5138357D01*
X6389573Y-5136841D01*
X6388159Y-5138255D01*
X6388159Y-5135427D01*
X6386643Y-5122864D01*
X6363902Y-5112810D01*
X6339045Y-5112224D01*
X6315855Y-5121195D01*
X6313357Y-5122864D01*
X6311841Y-5135427D01*
X6350000Y-5173586D01*
X6388159Y-5135427D01*
X6388159Y-5138255D01*
X6351414Y-5175000D01*
X6351971Y-5175557D01*
X6350557Y-5176971D01*
X6350000Y-5176414D01*
X6349443Y-5176971D01*
X6348029Y-5175557D01*
X6348586Y-5175000D01*
X6310427Y-5136841D01*
X6297864Y-5138357D01*
X6294660Y-5145606D01*
X6294533Y-5145300D01*
X6279778Y-5130519D01*
X6260489Y-5122509D01*
X6239603Y-5122491D01*
X6220300Y-5130467D01*
X6205519Y-5145222D01*
X6199996Y-5158521D01*
X6194533Y-5145300D01*
X6179778Y-5130519D01*
X6160489Y-5122509D01*
X6139603Y-5122491D01*
X6120300Y-5130467D01*
X6105519Y-5145222D01*
X6099996Y-5158521D01*
X6094533Y-5145300D01*
X6079778Y-5130519D01*
X6079641Y-5130462D01*
X6086009Y-5124106D01*
X6092493Y-5108491D01*
X6092507Y-5091583D01*
X6086051Y-5075957D01*
X6074106Y-5063991D01*
X6058491Y-5057507D01*
X6041583Y-5057493D01*
X6025957Y-5063949D01*
X6013991Y-5075894D01*
X6007507Y-5091509D01*
X6007499Y-5101489D01*
X6000000Y-5108988D01*
X5995506Y-5104494D01*
X5986098Y-5098207D01*
X5975000Y-5096000D01*
X5700000Y-5096000D01*
X5688902Y-5098207D01*
X5679494Y-5104494D01*
X5661488Y-5122500D01*
X5617527Y-5122500D01*
X5608339Y-5126306D01*
X5601306Y-5133339D01*
X5597500Y-5142527D01*
X5597500Y-5152473D01*
X5597500Y-5207473D01*
X5601306Y-5216661D01*
X5608339Y-5223694D01*
X5617527Y-5227500D01*
X5627473Y-5227500D01*
X5682473Y-5227500D01*
X5691661Y-5223694D01*
X5698694Y-5216661D01*
X5702500Y-5207473D01*
X5702500Y-5197527D01*
X5702500Y-5197520D01*
X5705467Y-5204700D01*
X5720222Y-5219481D01*
X5739511Y-5227491D01*
X5760397Y-5227509D01*
X5779700Y-5219533D01*
X5794481Y-5204778D01*
X5800004Y-5191478D01*
X5805467Y-5204700D01*
X5820222Y-5219481D01*
X5839511Y-5227491D01*
X5860397Y-5227509D01*
X5879700Y-5219533D01*
X5894481Y-5204778D01*
X5900004Y-5191478D01*
X5905467Y-5204700D01*
X5920222Y-5219481D01*
X5921000Y-5219804D01*
X5921000Y-5225000D01*
X5923207Y-5236098D01*
X5929494Y-5245506D01*
X5954494Y-5270506D01*
X5963902Y-5276793D01*
X5963902Y-5276793D01*
X5975000Y-5279000D01*
X6199654Y-5279000D01*
X6195459Y-5289102D01*
X6195441Y-5310803D01*
X6203728Y-5330860D01*
X6219060Y-5346218D01*
X6239102Y-5354541D01*
X6260803Y-5354559D01*
X6280860Y-5346272D01*
X6293718Y-5333437D01*
X6294413Y-5335237D01*
X6296173Y-5337871D01*
X6308948Y-5339637D01*
X6348586Y-5300000D01*
X6348029Y-5299443D01*
X6349443Y-5298029D01*
X6350000Y-5298586D01*
X6350557Y-5298029D01*
X6351971Y-5299443D01*
X6351414Y-5300000D01*
X6391052Y-5339637D01*
X6403827Y-5337871D01*
X6414222Y-5314390D01*
X6414840Y-5288718D01*
X6411087Y-5279000D01*
X6903063Y-5279000D01*
X6902824Y-5279238D01*
X6908948Y-5285363D01*
X6896173Y-5287129D01*
X6885778Y-5310610D01*
X6885160Y-5336282D01*
X6894413Y-5360237D01*
X6896173Y-5362871D01*
X6908948Y-5364637D01*
X6948586Y-5325000D01*
X6948029Y-5324443D01*
X6949443Y-5323029D01*
X6950000Y-5323586D01*
X6950557Y-5323029D01*
X6951971Y-5324443D01*
X6951414Y-5325000D01*
X6991052Y-5364637D01*
X7003827Y-5362871D01*
X7009360Y-5350372D01*
X7174446Y-5515458D01*
X7163991Y-5525894D01*
X7157507Y-5541509D01*
X7157499Y-5551489D01*
X7137988Y-5571000D01*
X7004559Y-5571000D01*
X7004559Y-5414197D01*
X6996272Y-5394140D01*
X6983437Y-5381282D01*
X6985237Y-5380587D01*
X6987871Y-5378827D01*
X6989637Y-5366052D01*
X6950000Y-5326414D01*
X6948586Y-5327828D01*
X6910363Y-5366052D01*
X6912129Y-5378827D01*
X6916917Y-5380947D01*
X6903782Y-5394060D01*
X6902976Y-5396000D01*
X6808112Y-5396000D01*
X6799869Y-5387757D01*
X6800641Y-5385898D01*
X6800659Y-5364197D01*
X6792372Y-5344140D01*
X6777040Y-5328782D01*
X6756998Y-5320459D01*
X6735297Y-5320441D01*
X6715240Y-5328728D01*
X6699882Y-5344060D01*
X6691559Y-5364102D01*
X6691541Y-5385803D01*
X6699828Y-5405860D01*
X6715160Y-5421218D01*
X6735202Y-5429541D01*
X6756903Y-5429559D01*
X6758845Y-5428757D01*
X6775594Y-5445506D01*
X6785002Y-5451793D01*
X6796100Y-5454000D01*
X6902959Y-5454000D01*
X6903728Y-5455860D01*
X6919060Y-5471218D01*
X6939102Y-5479541D01*
X6960803Y-5479559D01*
X6980860Y-5471272D01*
X6996218Y-5455940D01*
X7004541Y-5435898D01*
X7004559Y-5414197D01*
X7004559Y-5571000D01*
X6937298Y-5571000D01*
X6942493Y-5558491D01*
X6942507Y-5541583D01*
X6936051Y-5525957D01*
X6924106Y-5513991D01*
X6908491Y-5507507D01*
X6891583Y-5507493D01*
X6875957Y-5513949D01*
X6863991Y-5525894D01*
X6857507Y-5541509D01*
X6857503Y-5546000D01*
X6750000Y-5546000D01*
X6738902Y-5548207D01*
X6729494Y-5554494D01*
X6712988Y-5571000D01*
X6608459Y-5571000D01*
X6608459Y-5364197D01*
X6600172Y-5344140D01*
X6584840Y-5328782D01*
X6564798Y-5320459D01*
X6543097Y-5320441D01*
X6523040Y-5328728D01*
X6507682Y-5344060D01*
X6499359Y-5364102D01*
X6499341Y-5385803D01*
X6500143Y-5387745D01*
X6491888Y-5396000D01*
X6397041Y-5396000D01*
X6396272Y-5394140D01*
X6389637Y-5387494D01*
X6389637Y-5341052D01*
X6350000Y-5301414D01*
X6310363Y-5341052D01*
X6312129Y-5353827D01*
X6335610Y-5364222D01*
X6361282Y-5364840D01*
X6385237Y-5355587D01*
X6387871Y-5353827D01*
X6389637Y-5341052D01*
X6389637Y-5387494D01*
X6380940Y-5378782D01*
X6360898Y-5370459D01*
X6339197Y-5370441D01*
X6319140Y-5378728D01*
X6306282Y-5391563D01*
X6305587Y-5389763D01*
X6303827Y-5387129D01*
X6291052Y-5385363D01*
X6289637Y-5386777D01*
X6289637Y-5383948D01*
X6287871Y-5371173D01*
X6264390Y-5360778D01*
X6238718Y-5360160D01*
X6214763Y-5369413D01*
X6212129Y-5371173D01*
X6210363Y-5383948D01*
X6250000Y-5423586D01*
X6289637Y-5383948D01*
X6289637Y-5386777D01*
X6251414Y-5425000D01*
X6291052Y-5464637D01*
X6303827Y-5462871D01*
X6305947Y-5458083D01*
X6319060Y-5471218D01*
X6339102Y-5479541D01*
X6360803Y-5479559D01*
X6380860Y-5471272D01*
X6396218Y-5455940D01*
X6397024Y-5454000D01*
X6503900Y-5454000D01*
X6514998Y-5451793D01*
X6524406Y-5445506D01*
X6541143Y-5428769D01*
X6543002Y-5429541D01*
X6564703Y-5429559D01*
X6584760Y-5421272D01*
X6600118Y-5405940D01*
X6608441Y-5385898D01*
X6608459Y-5364197D01*
X6608459Y-5571000D01*
X6475000Y-5571000D01*
X6463902Y-5573207D01*
X6454494Y-5579494D01*
X6439663Y-5594325D01*
X6436901Y-5591696D01*
X6411781Y-5582013D01*
X6401000Y-5589757D01*
X6401000Y-5649000D01*
X6401787Y-5649000D01*
X6401787Y-5651000D01*
X6401000Y-5651000D01*
X6401000Y-5651787D01*
X6399000Y-5651787D01*
X6399000Y-5651000D01*
X6399000Y-5649000D01*
X6399000Y-5589757D01*
X6388219Y-5582013D01*
X6363099Y-5591696D01*
X6350000Y-5604162D01*
X6336901Y-5591696D01*
X6311781Y-5582013D01*
X6301000Y-5589757D01*
X6301000Y-5649000D01*
X6339758Y-5649000D01*
X6360242Y-5649000D01*
X6399000Y-5649000D01*
X6399000Y-5651000D01*
X6360242Y-5651000D01*
X6339758Y-5651000D01*
X6301000Y-5651000D01*
X6301000Y-5651787D01*
X6299000Y-5651787D01*
X6299000Y-5651000D01*
X6299000Y-5649000D01*
X6299000Y-5589757D01*
X6289637Y-5583032D01*
X6289637Y-5466052D01*
X6250000Y-5426414D01*
X6248586Y-5427828D01*
X6248586Y-5425000D01*
X6208948Y-5385363D01*
X6196173Y-5387129D01*
X6185778Y-5410610D01*
X6185160Y-5436282D01*
X6194413Y-5460237D01*
X6196173Y-5462871D01*
X6208948Y-5464637D01*
X6248586Y-5425000D01*
X6248586Y-5427828D01*
X6210363Y-5466052D01*
X6212129Y-5478827D01*
X6235610Y-5489222D01*
X6261282Y-5489840D01*
X6285237Y-5480587D01*
X6287871Y-5478827D01*
X6289637Y-5466052D01*
X6289637Y-5583032D01*
X6288219Y-5582013D01*
X6263099Y-5591696D01*
X6250000Y-5604162D01*
X6236901Y-5591696D01*
X6211781Y-5582013D01*
X6201000Y-5589757D01*
X6201000Y-5649000D01*
X6239758Y-5649000D01*
X6260242Y-5649000D01*
X6299000Y-5649000D01*
X6299000Y-5651000D01*
X6260242Y-5651000D01*
X6239758Y-5651000D01*
X6201000Y-5651000D01*
X6201000Y-5689757D01*
X6201000Y-5710243D01*
X6201000Y-5749000D01*
X6201787Y-5749000D01*
X6201787Y-5751000D01*
X6201000Y-5751000D01*
X6201000Y-5751787D01*
X6199000Y-5751787D01*
X6199000Y-5751000D01*
X6198213Y-5751000D01*
X6198213Y-5749000D01*
X6199000Y-5749000D01*
X6199000Y-5710243D01*
X6199000Y-5689757D01*
X6199000Y-5651000D01*
X6199000Y-5649000D01*
X6199000Y-5589757D01*
X6188219Y-5582013D01*
X6163099Y-5591696D01*
X6150000Y-5604162D01*
X6136901Y-5591696D01*
X6111781Y-5582013D01*
X6101000Y-5589757D01*
X6101000Y-5649000D01*
X6139758Y-5649000D01*
X6160242Y-5649000D01*
X6199000Y-5649000D01*
X6199000Y-5651000D01*
X6160242Y-5651000D01*
X6139758Y-5651000D01*
X6101000Y-5651000D01*
X6101000Y-5651787D01*
X6099000Y-5651787D01*
X6099000Y-5651000D01*
X6099000Y-5649000D01*
X6099000Y-5589757D01*
X6088219Y-5582013D01*
X6063099Y-5591696D01*
X6050000Y-5604162D01*
X6036901Y-5591696D01*
X6011781Y-5582013D01*
X6001000Y-5589757D01*
X6001000Y-5649000D01*
X6039758Y-5649000D01*
X6060242Y-5649000D01*
X6099000Y-5649000D01*
X6099000Y-5651000D01*
X6060242Y-5651000D01*
X6039758Y-5651000D01*
X6001000Y-5651000D01*
X6001000Y-5651787D01*
X5999000Y-5651787D01*
X5999000Y-5651000D01*
X5999000Y-5649000D01*
X5999000Y-5589757D01*
X5988219Y-5582013D01*
X5963099Y-5591696D01*
X5950000Y-5604162D01*
X5936901Y-5591696D01*
X5911781Y-5582013D01*
X5901000Y-5589757D01*
X5901000Y-5649000D01*
X5939758Y-5649000D01*
X5960242Y-5649000D01*
X5999000Y-5649000D01*
X5999000Y-5651000D01*
X5960242Y-5651000D01*
X5939758Y-5651000D01*
X5901000Y-5651000D01*
X5901000Y-5651787D01*
X5899000Y-5651787D01*
X5899000Y-5651000D01*
X5899000Y-5649000D01*
X5899000Y-5589757D01*
X5888219Y-5582013D01*
X5863099Y-5591696D01*
X5850000Y-5604162D01*
X5836901Y-5591696D01*
X5811781Y-5582013D01*
X5801000Y-5589757D01*
X5801000Y-5649000D01*
X5839758Y-5649000D01*
X5860242Y-5649000D01*
X5899000Y-5649000D01*
X5899000Y-5651000D01*
X5860242Y-5651000D01*
X5839758Y-5651000D01*
X5801000Y-5651000D01*
X5801000Y-5689757D01*
X5801000Y-5710243D01*
X5801000Y-5749000D01*
X5801787Y-5749000D01*
X5801787Y-5751000D01*
X5801000Y-5751000D01*
X5801000Y-5751787D01*
X5799000Y-5751787D01*
X5799000Y-5751000D01*
X5798213Y-5751000D01*
X5798213Y-5749000D01*
X5799000Y-5749000D01*
X5799000Y-5710243D01*
X5799000Y-5689757D01*
X5799000Y-5651000D01*
X5799000Y-5649000D01*
X5799000Y-5589757D01*
X5788219Y-5582013D01*
X5763099Y-5591696D01*
X5750000Y-5604162D01*
X5736901Y-5591696D01*
X5711781Y-5582013D01*
X5701000Y-5589757D01*
X5701000Y-5649000D01*
X5739758Y-5649000D01*
X5760242Y-5649000D01*
X5799000Y-5649000D01*
X5799000Y-5651000D01*
X5760242Y-5651000D01*
X5739758Y-5651000D01*
X5701000Y-5651000D01*
X5701000Y-5651787D01*
X5699000Y-5651787D01*
X5699000Y-5651000D01*
X5699000Y-5649000D01*
X5699000Y-5589757D01*
X5688219Y-5582013D01*
X5663099Y-5591696D01*
X5650000Y-5604162D01*
X5636901Y-5591696D01*
X5611781Y-5582013D01*
X5601000Y-5589757D01*
X5601000Y-5649000D01*
X5639758Y-5649000D01*
X5660242Y-5649000D01*
X5699000Y-5649000D01*
X5699000Y-5651000D01*
X5660242Y-5651000D01*
X5639758Y-5651000D01*
X5601000Y-5651000D01*
X5601000Y-5651787D01*
X5599000Y-5651787D01*
X5599000Y-5651000D01*
X5599000Y-5649000D01*
X5599000Y-5589757D01*
X5588219Y-5582013D01*
X5563099Y-5591696D01*
X5550000Y-5604162D01*
X5536901Y-5591696D01*
X5511781Y-5582013D01*
X5501000Y-5589757D01*
X5501000Y-5649000D01*
X5539758Y-5649000D01*
X5560242Y-5649000D01*
X5599000Y-5649000D01*
X5599000Y-5651000D01*
X5560242Y-5651000D01*
X5539758Y-5651000D01*
X5501000Y-5651000D01*
X5501000Y-5651787D01*
X5499000Y-5651787D01*
X5499000Y-5651000D01*
X5499000Y-5649000D01*
X5499000Y-5589757D01*
X5488219Y-5582013D01*
X5463099Y-5591696D01*
X5450000Y-5604162D01*
X5436901Y-5591696D01*
X5411781Y-5582013D01*
X5401000Y-5589757D01*
X5401000Y-5649000D01*
X5439758Y-5649000D01*
X5460242Y-5649000D01*
X5499000Y-5649000D01*
X5499000Y-5651000D01*
X5460242Y-5651000D01*
X5439758Y-5651000D01*
X5401000Y-5651000D01*
X5401000Y-5689750D01*
X5401000Y-5710243D01*
X5401000Y-5749000D01*
X5401787Y-5749000D01*
X5401787Y-5751000D01*
X5401000Y-5751000D01*
X5401000Y-5751787D01*
X5399000Y-5751787D01*
X5399000Y-5751000D01*
X5398213Y-5751000D01*
X5398213Y-5749000D01*
X5399000Y-5749000D01*
X5399000Y-5710243D01*
X5399000Y-5689750D01*
X5399000Y-5651000D01*
X5399000Y-5649000D01*
X5399000Y-5589757D01*
X5388219Y-5582013D01*
X5363099Y-5591696D01*
X5343596Y-5610256D01*
X5332680Y-5634866D01*
X5332013Y-5638219D01*
X5339758Y-5649000D01*
X5399000Y-5649000D01*
X5399000Y-5651000D01*
X5339758Y-5651000D01*
X5332013Y-5661781D01*
X5332680Y-5665134D01*
X5343339Y-5689164D01*
X5336328Y-5696174D01*
X5331000Y-5709038D01*
X5331000Y-5722962D01*
X5331000Y-5740250D01*
X5339750Y-5749000D01*
X5337640Y-5749000D01*
X5056820Y-5468180D01*
X5042221Y-5458425D01*
X5025000Y-5455000D01*
X5007779Y-5458425D01*
X4999710Y-5463817D01*
X4999710Y-5387155D01*
X4989108Y-5359542D01*
X4986911Y-5356255D01*
X4973118Y-5353296D01*
X4971704Y-5354710D01*
X4971704Y-5351882D01*
X4968745Y-5338089D01*
X4955769Y-5332313D01*
X4960237Y-5330587D01*
X4962871Y-5328827D01*
X4964637Y-5316052D01*
X4925000Y-5276414D01*
X4885363Y-5316052D01*
X4887129Y-5328827D01*
X4894474Y-5332079D01*
X4884542Y-5335892D01*
X4881255Y-5338089D01*
X4878296Y-5351882D01*
X4925000Y-5398586D01*
X4971704Y-5351882D01*
X4971704Y-5354710D01*
X4926414Y-5400000D01*
X4973118Y-5446704D01*
X4986911Y-5443745D01*
X4998939Y-5416723D01*
X4999710Y-5387155D01*
X4999710Y-5463817D01*
X4993180Y-5468180D01*
X4983425Y-5482779D01*
X4980000Y-5500000D01*
X4983425Y-5517221D01*
X4993180Y-5531820D01*
X5318180Y-5856820D01*
X5332779Y-5866575D01*
X5350000Y-5870000D01*
X5034010Y-5870000D01*
X5034010Y-5788316D01*
X5025047Y-5766623D01*
X5008464Y-5750011D01*
X4986787Y-5741010D01*
X4971704Y-5740997D01*
X4971704Y-5448118D01*
X4925000Y-5401414D01*
X4923586Y-5402828D01*
X4923586Y-5400000D01*
X4876882Y-5353296D01*
X4863089Y-5356255D01*
X4851061Y-5383277D01*
X4850290Y-5412845D01*
X4860892Y-5440458D01*
X4863089Y-5443745D01*
X4876882Y-5446704D01*
X4923586Y-5400000D01*
X4923586Y-5402828D01*
X4878296Y-5448118D01*
X4881255Y-5461911D01*
X4908277Y-5473939D01*
X4937845Y-5474710D01*
X4965458Y-5464108D01*
X4968745Y-5461911D01*
X4971704Y-5448118D01*
X4971704Y-5740997D01*
X4963316Y-5740990D01*
X4941623Y-5749953D01*
X4925011Y-5766536D01*
X4924996Y-5766572D01*
X4908464Y-5750011D01*
X4889361Y-5742079D01*
X4889361Y-5612256D01*
X4879585Y-5588596D01*
X4861499Y-5570479D01*
X4842266Y-5562492D01*
X4861404Y-5554585D01*
X4879521Y-5536499D01*
X4889339Y-5512856D01*
X4889361Y-5487256D01*
X4879585Y-5463596D01*
X4861499Y-5445479D01*
X4837856Y-5435661D01*
X4812256Y-5435639D01*
X4788596Y-5445415D01*
X4779000Y-5454994D01*
X4779000Y-5427504D01*
X4785397Y-5427509D01*
X4804700Y-5419533D01*
X4819481Y-5404778D01*
X4827491Y-5385489D01*
X4827509Y-5364603D01*
X4819533Y-5345300D01*
X4804778Y-5330519D01*
X4785489Y-5322509D01*
X4764603Y-5322491D01*
X4745300Y-5330467D01*
X4730519Y-5345222D01*
X4724996Y-5358521D01*
X4719533Y-5345300D01*
X4704778Y-5330519D01*
X4685489Y-5322509D01*
X4664603Y-5322491D01*
X4645300Y-5330467D01*
X4630519Y-5345222D01*
X4630506Y-5345253D01*
X4628805Y-5340855D01*
X4627136Y-5338357D01*
X4614573Y-5336841D01*
X4576414Y-5375000D01*
X4614573Y-5413159D01*
X4627136Y-5411643D01*
X4630000Y-5405164D01*
X4630000Y-5506360D01*
X4613159Y-5523201D01*
X4613159Y-5414573D01*
X4575000Y-5376414D01*
X4536841Y-5414573D01*
X4538357Y-5427136D01*
X4561098Y-5437190D01*
X4585955Y-5437776D01*
X4609145Y-5428805D01*
X4611643Y-5427136D01*
X4613159Y-5414573D01*
X4613159Y-5523201D01*
X4556360Y-5580000D01*
X4471004Y-5580000D01*
X4461499Y-5570479D01*
X4442266Y-5562492D01*
X4461404Y-5554585D01*
X4479521Y-5536499D01*
X4489339Y-5512856D01*
X4489361Y-5487256D01*
X4479585Y-5463596D01*
X4461499Y-5445479D01*
X4437856Y-5435661D01*
X4412256Y-5435639D01*
X4388596Y-5445415D01*
X4370479Y-5463501D01*
X4367365Y-5471000D01*
X4330164Y-5471000D01*
X4333990Y-5461787D01*
X4334010Y-5438316D01*
X4325047Y-5416623D01*
X4308464Y-5400011D01*
X4286787Y-5391010D01*
X4263316Y-5390990D01*
X4241623Y-5399953D01*
X4225011Y-5416536D01*
X4224996Y-5416572D01*
X4208464Y-5400011D01*
X4186787Y-5391010D01*
X4163316Y-5390990D01*
X4141623Y-5399953D01*
X4132985Y-5408576D01*
X4130194Y-5401839D01*
X4123161Y-5394806D01*
X4113973Y-5391000D01*
X4104027Y-5391000D01*
X4036027Y-5391000D01*
X4026839Y-5394806D01*
X4019806Y-5401839D01*
X4016000Y-5411027D01*
X4016000Y-5420973D01*
X4016000Y-5488973D01*
X4019806Y-5498161D01*
X4026839Y-5505194D01*
X4036027Y-5509000D01*
X4045973Y-5509000D01*
X4113973Y-5509000D01*
X4123161Y-5505194D01*
X4130194Y-5498161D01*
X4132985Y-5491423D01*
X4141536Y-5499989D01*
X4163213Y-5508990D01*
X4186684Y-5509010D01*
X4191152Y-5507164D01*
X4204494Y-5520506D01*
X4213902Y-5526793D01*
X4225000Y-5529000D01*
X4367356Y-5529000D01*
X4370415Y-5536404D01*
X4388501Y-5554521D01*
X4407734Y-5562507D01*
X4388596Y-5570415D01*
X4370479Y-5588501D01*
X4360661Y-5612144D01*
X4360639Y-5637744D01*
X4370415Y-5661404D01*
X4388501Y-5679521D01*
X4412144Y-5689339D01*
X4437744Y-5689361D01*
X4461404Y-5679585D01*
X4471006Y-5670000D01*
X4575000Y-5670000D01*
X4592221Y-5666575D01*
X4606820Y-5656820D01*
X4706820Y-5556820D01*
X4716575Y-5542221D01*
X4720000Y-5525000D01*
X4720000Y-5403529D01*
X4721000Y-5401120D01*
X4721000Y-5550000D01*
X4723207Y-5561098D01*
X4729494Y-5570506D01*
X4763733Y-5604745D01*
X4760661Y-5612144D01*
X4760639Y-5637744D01*
X4770415Y-5661404D01*
X4788501Y-5679521D01*
X4812144Y-5689339D01*
X4837744Y-5689361D01*
X4861404Y-5679585D01*
X4879521Y-5661499D01*
X4889339Y-5637856D01*
X4889361Y-5612256D01*
X4889361Y-5742079D01*
X4886787Y-5741010D01*
X4863316Y-5740990D01*
X4841623Y-5749953D01*
X4825011Y-5766536D01*
X4824996Y-5766572D01*
X4808464Y-5750011D01*
X4786787Y-5741010D01*
X4763316Y-5740990D01*
X4741623Y-5749953D01*
X4725011Y-5766536D01*
X4724996Y-5766572D01*
X4708464Y-5750011D01*
X4686787Y-5741010D01*
X4663316Y-5740990D01*
X4641623Y-5749953D01*
X4625011Y-5766536D01*
X4624996Y-5766572D01*
X4608464Y-5750011D01*
X4586787Y-5741010D01*
X4563316Y-5740990D01*
X4541623Y-5749953D01*
X4540642Y-5750932D01*
X4538672Y-5746174D01*
X4528826Y-5736328D01*
X4515962Y-5731000D01*
X4484750Y-5731000D01*
X4476000Y-5739750D01*
X4476000Y-5799000D01*
X4476787Y-5799000D01*
X4476787Y-5801000D01*
X4476000Y-5801000D01*
X4476000Y-5860250D01*
X4484750Y-5869000D01*
X4515962Y-5869000D01*
X4528826Y-5863672D01*
X4538672Y-5853826D01*
X4540635Y-5849086D01*
X4541536Y-5849989D01*
X4563213Y-5858990D01*
X4586684Y-5859010D01*
X4608377Y-5850047D01*
X4624989Y-5833464D01*
X4625004Y-5833428D01*
X4641536Y-5849989D01*
X4663213Y-5858990D01*
X4686684Y-5859010D01*
X4708377Y-5850047D01*
X4724989Y-5833464D01*
X4725004Y-5833428D01*
X4741536Y-5849989D01*
X4763213Y-5858990D01*
X4786684Y-5859010D01*
X4808377Y-5850047D01*
X4824989Y-5833464D01*
X4825004Y-5833428D01*
X4841536Y-5849989D01*
X4863213Y-5858990D01*
X4886684Y-5859010D01*
X4908377Y-5850047D01*
X4924989Y-5833464D01*
X4925004Y-5833428D01*
X4941536Y-5849989D01*
X4963213Y-5858990D01*
X4986684Y-5859010D01*
X5008377Y-5850047D01*
X5024989Y-5833464D01*
X5033990Y-5811787D01*
X5034010Y-5788316D01*
X5034010Y-5870000D01*
X4474000Y-5870000D01*
X4474000Y-5860250D01*
X4474000Y-5801000D01*
X4474000Y-5799000D01*
X4474000Y-5739750D01*
X4465250Y-5731000D01*
X4434038Y-5731000D01*
X4421174Y-5736328D01*
X4411328Y-5746174D01*
X4406000Y-5759038D01*
X4406000Y-5772962D01*
X4406000Y-5790250D01*
X4414750Y-5799000D01*
X4474000Y-5799000D01*
X4474000Y-5801000D01*
X4414750Y-5801000D01*
X4406000Y-5809750D01*
X4406000Y-5827038D01*
X4406000Y-5840962D01*
X4411328Y-5853826D01*
X4421174Y-5863672D01*
X4434038Y-5869000D01*
X4465250Y-5869000D01*
X4474000Y-5860250D01*
X4474000Y-5870000D01*
X4276993Y-5870000D01*
X4276993Y-5680320D01*
X4255252Y-5627702D01*
X4215030Y-5587409D01*
X4162450Y-5565576D01*
X4105517Y-5565526D01*
X4052899Y-5587268D01*
X4012606Y-5627490D01*
X3990773Y-5680070D01*
X3990723Y-5737003D01*
X4012465Y-5789621D01*
X4052687Y-5829914D01*
X4105267Y-5851747D01*
X4162200Y-5851796D01*
X4214818Y-5830055D01*
X4255110Y-5789833D01*
X4276944Y-5737253D01*
X4276993Y-5680320D01*
X4276993Y-5870000D01*
X3963976Y-5870000D01*
X3963976Y-3963976D01*
X4418438Y-3963976D01*
X4415174Y-3965328D01*
X4405328Y-3975174D01*
X4400000Y-3988038D01*
X4400000Y-4295250D01*
X4408750Y-4304000D01*
X4624000Y-4304000D01*
X4624000Y-4303213D01*
X4626000Y-4303213D01*
X4626000Y-4304000D01*
X4841250Y-4304000D01*
X4850000Y-4295250D01*
X4850000Y-3988038D01*
X4844672Y-3975174D01*
X4834826Y-3965328D01*
X4831562Y-3963976D01*
X6225930Y-3963976D01*
X6213991Y-3975894D01*
X6207507Y-3991509D01*
X6207493Y-4008417D01*
X6212692Y-4021000D01*
X6081102Y-4021000D01*
X6074106Y-4013991D01*
X6058491Y-4007507D01*
X6041583Y-4007493D01*
X6025957Y-4013949D01*
X6013991Y-4025894D01*
X6011310Y-4032351D01*
X6001000Y-4039757D01*
X6001000Y-4099000D01*
X6039758Y-4099000D01*
X6060242Y-4099000D01*
X6099000Y-4099000D01*
X6099000Y-4098213D01*
X6101000Y-4098213D01*
X6101000Y-4099000D01*
X6139758Y-4099000D01*
X6160242Y-4099000D01*
X6199000Y-4099000D01*
X6199000Y-4098213D01*
X6201000Y-4098213D01*
X6201000Y-4099000D01*
X6239758Y-4099000D01*
X6260242Y-4099000D01*
X6299000Y-4099000D01*
X6299000Y-4098213D01*
X6301000Y-4098213D01*
X6301000Y-4099000D01*
X6339758Y-4099000D01*
X6360242Y-4099000D01*
X6399000Y-4099000D01*
X6399000Y-4039757D01*
X6388694Y-4032354D01*
X6387308Y-4029000D01*
X6887988Y-4029000D01*
X6898094Y-4039107D01*
X6888219Y-4032013D01*
X6863099Y-4041696D01*
X6850000Y-4054162D01*
X6836901Y-4041696D01*
X6811781Y-4032013D01*
X6801000Y-4039757D01*
X6801000Y-4099000D01*
X6839758Y-4099000D01*
X6860242Y-4099000D01*
X6899000Y-4099000D01*
X6899000Y-4098213D01*
X6901000Y-4098213D01*
X6901000Y-4099000D01*
X6939758Y-4099000D01*
X6960242Y-4099000D01*
X6999000Y-4099000D01*
X6999000Y-4039757D01*
X6988694Y-4032354D01*
X6986051Y-4025957D01*
X6974106Y-4013991D01*
X6958491Y-4007507D01*
X6948511Y-4007499D01*
X6920506Y-3979494D01*
X6911098Y-3973207D01*
X6900000Y-3971000D01*
X6281102Y-3971000D01*
X6274106Y-3963991D01*
X6274070Y-3963976D01*
X7845000Y-3963976D01*
X7845000Y-5870000D01*
M02*
