%FSLAX46Y46*%
G04 Gerber Fmt 4.6, Leading zero omitted, Abs format (unit mm)*
G04 Created by KiCad (PCBNEW (2014-jul-16 BZR unknown)-product) date Fri 03 Oct 2014 10:25:21 PM PDT*
%MOMM*%
G01*
G04 APERTURE LIST*
%ADD10C,0.100000*%
%ADD11C,0.203200*%
%ADD12C,0.304800*%
%ADD13C,0.381000*%
%ADD14C,0.254000*%
%ADD15C,0.150000*%
G04 APERTURE END LIST*
D10*
D11*
X100000000Y-150000000D02*
X100000000Y-100000000D01*
X200000000Y-150000000D02*
X100000000Y-150000000D01*
X200000000Y-100000000D02*
X200000000Y-150000000D01*
X100000000Y-100000000D02*
X200000000Y-100000000D01*
X131354286Y-109298619D02*
X130773715Y-109298619D01*
X131064001Y-109298619D02*
X131064001Y-108282619D01*
X130967239Y-108427762D01*
X130870477Y-108524524D01*
X130773715Y-108572905D01*
X194739381Y-120982619D02*
X194400715Y-120498810D01*
X194158810Y-120982619D02*
X194158810Y-119966619D01*
X194545857Y-119966619D01*
X194642619Y-120015000D01*
X194691000Y-120063381D01*
X194739381Y-120160143D01*
X194739381Y-120305286D01*
X194691000Y-120402048D01*
X194642619Y-120450429D01*
X194545857Y-120498810D01*
X194158810Y-120498810D01*
X195174810Y-120450429D02*
X195513476Y-120450429D01*
X195658619Y-120982619D02*
X195174810Y-120982619D01*
X195174810Y-119966619D01*
X195658619Y-119966619D01*
X196045667Y-120934238D02*
X196190810Y-120982619D01*
X196432714Y-120982619D01*
X196529476Y-120934238D01*
X196577857Y-120885857D01*
X196626238Y-120789095D01*
X196626238Y-120692333D01*
X196577857Y-120595571D01*
X196529476Y-120547190D01*
X196432714Y-120498810D01*
X196239191Y-120450429D01*
X196142429Y-120402048D01*
X196094048Y-120353667D01*
X196045667Y-120256905D01*
X196045667Y-120160143D01*
X196094048Y-120063381D01*
X196142429Y-120015000D01*
X196239191Y-119966619D01*
X196481095Y-119966619D01*
X196626238Y-120015000D01*
X197061667Y-120450429D02*
X197400333Y-120450429D01*
X197545476Y-120982619D02*
X197061667Y-120982619D01*
X197061667Y-119966619D01*
X197545476Y-119966619D01*
X197835762Y-119966619D02*
X198416333Y-119966619D01*
X198126048Y-120982619D02*
X198126048Y-119966619D01*
X103825524Y-135841619D02*
X104406095Y-135841619D01*
X104115810Y-136857619D02*
X104115810Y-135841619D01*
X104744762Y-136325429D02*
X105083428Y-136325429D01*
X105228571Y-136857619D02*
X104744762Y-136857619D01*
X104744762Y-135841619D01*
X105228571Y-135841619D01*
X106244571Y-136857619D02*
X105905905Y-136373810D01*
X105664000Y-136857619D02*
X105664000Y-135841619D01*
X106051047Y-135841619D01*
X106147809Y-135890000D01*
X106196190Y-135938381D01*
X106244571Y-136035143D01*
X106244571Y-136180286D01*
X106196190Y-136277048D01*
X106147809Y-136325429D01*
X106051047Y-136373810D01*
X105664000Y-136373810D01*
X106680000Y-136857619D02*
X106680000Y-135841619D01*
X107018666Y-136567333D01*
X107357333Y-135841619D01*
X107357333Y-136857619D01*
X186599286Y-135588829D02*
X186744429Y-135637210D01*
X186792810Y-135685590D01*
X186841191Y-135782352D01*
X186841191Y-135927495D01*
X186792810Y-136024257D01*
X186744429Y-136072638D01*
X186647667Y-136121019D01*
X186260620Y-136121019D01*
X186260620Y-135105019D01*
X186599286Y-135105019D01*
X186696048Y-135153400D01*
X186744429Y-135201781D01*
X186792810Y-135298543D01*
X186792810Y-135395305D01*
X186744429Y-135492067D01*
X186696048Y-135540448D01*
X186599286Y-135588829D01*
X186260620Y-135588829D01*
X187276620Y-135105019D02*
X187276620Y-135927495D01*
X187325001Y-136024257D01*
X187373382Y-136072638D01*
X187470144Y-136121019D01*
X187663667Y-136121019D01*
X187760429Y-136072638D01*
X187808810Y-136024257D01*
X187857191Y-135927495D01*
X187857191Y-135105019D01*
X188292620Y-136072638D02*
X188437763Y-136121019D01*
X188679667Y-136121019D01*
X188776429Y-136072638D01*
X188824810Y-136024257D01*
X188873191Y-135927495D01*
X188873191Y-135830733D01*
X188824810Y-135733971D01*
X188776429Y-135685590D01*
X188679667Y-135637210D01*
X188486144Y-135588829D01*
X188389382Y-135540448D01*
X188341001Y-135492067D01*
X188292620Y-135395305D01*
X188292620Y-135298543D01*
X188341001Y-135201781D01*
X188389382Y-135153400D01*
X188486144Y-135105019D01*
X188728048Y-135105019D01*
X188873191Y-135153400D01*
X189066715Y-136217781D02*
X189840810Y-136217781D01*
X190034334Y-136072638D02*
X190179477Y-136121019D01*
X190421381Y-136121019D01*
X190518143Y-136072638D01*
X190566524Y-136024257D01*
X190614905Y-135927495D01*
X190614905Y-135830733D01*
X190566524Y-135733971D01*
X190518143Y-135685590D01*
X190421381Y-135637210D01*
X190227858Y-135588829D01*
X190131096Y-135540448D01*
X190082715Y-135492067D01*
X190034334Y-135395305D01*
X190034334Y-135298543D01*
X190082715Y-135201781D01*
X190131096Y-135153400D01*
X190227858Y-135105019D01*
X190469762Y-135105019D01*
X190614905Y-135153400D01*
X191243858Y-135105019D02*
X191437381Y-135105019D01*
X191534143Y-135153400D01*
X191630905Y-135250162D01*
X191679286Y-135443686D01*
X191679286Y-135782352D01*
X191630905Y-135975876D01*
X191534143Y-136072638D01*
X191437381Y-136121019D01*
X191243858Y-136121019D01*
X191147096Y-136072638D01*
X191050334Y-135975876D01*
X191001953Y-135782352D01*
X191001953Y-135443686D01*
X191050334Y-135250162D01*
X191147096Y-135153400D01*
X191243858Y-135105019D01*
X192114715Y-136121019D02*
X192114715Y-135105019D01*
X192695286Y-136121019D01*
X192695286Y-135105019D01*
X193130715Y-135830733D02*
X193614524Y-135830733D01*
X193033953Y-136121019D02*
X193372620Y-135105019D01*
X193711286Y-136121019D01*
X194630524Y-136121019D02*
X194291858Y-135637210D01*
X194049953Y-136121019D02*
X194049953Y-135105019D01*
X194437000Y-135105019D01*
X194533762Y-135153400D01*
X194582143Y-135201781D01*
X194630524Y-135298543D01*
X194630524Y-135443686D01*
X194582143Y-135540448D01*
X194533762Y-135588829D01*
X194437000Y-135637210D01*
X194049953Y-135637210D01*
X195598143Y-136121019D02*
X195017572Y-136121019D01*
X195307858Y-136121019D02*
X195307858Y-135105019D01*
X195211096Y-135250162D01*
X195114334Y-135346924D01*
X195017572Y-135395305D01*
X196227096Y-135105019D02*
X196323857Y-135105019D01*
X196420619Y-135153400D01*
X196469000Y-135201781D01*
X196517381Y-135298543D01*
X196565762Y-135492067D01*
X196565762Y-135733971D01*
X196517381Y-135927495D01*
X196469000Y-136024257D01*
X196420619Y-136072638D01*
X196323857Y-136121019D01*
X196227096Y-136121019D01*
X196130334Y-136072638D01*
X196081953Y-136024257D01*
X196033572Y-135927495D01*
X195985191Y-135733971D01*
X195985191Y-135492067D01*
X196033572Y-135298543D01*
X196081953Y-135201781D01*
X196130334Y-135153400D01*
X196227096Y-135105019D01*
X185438143Y-137746619D02*
X185099477Y-137262810D01*
X184857572Y-137746619D02*
X184857572Y-136730619D01*
X185244619Y-136730619D01*
X185341381Y-136779000D01*
X185389762Y-136827381D01*
X185438143Y-136924143D01*
X185438143Y-137069286D01*
X185389762Y-137166048D01*
X185341381Y-137214429D01*
X185244619Y-137262810D01*
X184857572Y-137262810D01*
X185873572Y-137214429D02*
X186212238Y-137214429D01*
X186357381Y-137746619D02*
X185873572Y-137746619D01*
X185873572Y-136730619D01*
X186357381Y-136730619D01*
X186647667Y-136730619D02*
X186986334Y-137746619D01*
X187325000Y-136730619D01*
X187663667Y-137649857D02*
X187712048Y-137698238D01*
X187663667Y-137746619D01*
X187615286Y-137698238D01*
X187663667Y-137649857D01*
X187663667Y-137746619D01*
X189260238Y-137214429D02*
X189405381Y-137262810D01*
X189453762Y-137311190D01*
X189502143Y-137407952D01*
X189502143Y-137553095D01*
X189453762Y-137649857D01*
X189405381Y-137698238D01*
X189308619Y-137746619D01*
X188921572Y-137746619D01*
X188921572Y-136730619D01*
X189260238Y-136730619D01*
X189357000Y-136779000D01*
X189405381Y-136827381D01*
X189453762Y-136924143D01*
X189453762Y-137020905D01*
X189405381Y-137117667D01*
X189357000Y-137166048D01*
X189260238Y-137214429D01*
X188921572Y-137214429D01*
X190614905Y-136730619D02*
X191243857Y-136730619D01*
X190905191Y-137117667D01*
X191050333Y-137117667D01*
X191147095Y-137166048D01*
X191195476Y-137214429D01*
X191243857Y-137311190D01*
X191243857Y-137553095D01*
X191195476Y-137649857D01*
X191147095Y-137698238D01*
X191050333Y-137746619D01*
X190760048Y-137746619D01*
X190663286Y-137698238D01*
X190614905Y-137649857D01*
X191872810Y-136730619D02*
X192066333Y-136730619D01*
X192163095Y-136779000D01*
X192259857Y-136875762D01*
X192308238Y-137069286D01*
X192308238Y-137407952D01*
X192259857Y-137601476D01*
X192163095Y-137698238D01*
X192066333Y-137746619D01*
X191872810Y-137746619D01*
X191776048Y-137698238D01*
X191679286Y-137601476D01*
X191630905Y-137407952D01*
X191630905Y-137069286D01*
X191679286Y-136875762D01*
X191776048Y-136779000D01*
X191872810Y-136730619D01*
X193324238Y-137649857D02*
X193275857Y-137698238D01*
X193130714Y-137746619D01*
X193033952Y-137746619D01*
X192888810Y-137698238D01*
X192792048Y-137601476D01*
X192743667Y-137504714D01*
X192695286Y-137311190D01*
X192695286Y-137166048D01*
X192743667Y-136972524D01*
X192792048Y-136875762D01*
X192888810Y-136779000D01*
X193033952Y-136730619D01*
X193130714Y-136730619D01*
X193275857Y-136779000D01*
X193324238Y-136827381D01*
X193614524Y-136730619D02*
X194195095Y-136730619D01*
X193904810Y-137746619D02*
X193904810Y-136730619D01*
X194485381Y-136827381D02*
X194533762Y-136779000D01*
X194630524Y-136730619D01*
X194872428Y-136730619D01*
X194969190Y-136779000D01*
X195017571Y-136827381D01*
X195065952Y-136924143D01*
X195065952Y-137020905D01*
X195017571Y-137166048D01*
X194437000Y-137746619D01*
X195065952Y-137746619D01*
X195694905Y-136730619D02*
X195791666Y-136730619D01*
X195888428Y-136779000D01*
X195936809Y-136827381D01*
X195985190Y-136924143D01*
X196033571Y-137117667D01*
X196033571Y-137359571D01*
X195985190Y-137553095D01*
X195936809Y-137649857D01*
X195888428Y-137698238D01*
X195791666Y-137746619D01*
X195694905Y-137746619D01*
X195598143Y-137698238D01*
X195549762Y-137649857D01*
X195501381Y-137553095D01*
X195453000Y-137359571D01*
X195453000Y-137117667D01*
X195501381Y-136924143D01*
X195549762Y-136827381D01*
X195598143Y-136779000D01*
X195694905Y-136730619D01*
X197001190Y-137746619D02*
X196420619Y-137746619D01*
X196710905Y-137746619D02*
X196710905Y-136730619D01*
X196614143Y-136875762D01*
X196517381Y-136972524D01*
X196420619Y-137020905D01*
X197872047Y-137069286D02*
X197872047Y-137746619D01*
X197630143Y-136682238D02*
X197388238Y-137407952D01*
X198017190Y-137407952D01*
X186696048Y-139759267D02*
X186647668Y-139710886D01*
X186550906Y-139565743D01*
X186502525Y-139468981D01*
X186454144Y-139323838D01*
X186405763Y-139081933D01*
X186405763Y-138888410D01*
X186454144Y-138646505D01*
X186502525Y-138501362D01*
X186550906Y-138404600D01*
X186647668Y-138259457D01*
X186696048Y-138211076D01*
X187518524Y-139323838D02*
X187421762Y-139372219D01*
X187228239Y-139372219D01*
X187131477Y-139323838D01*
X187083096Y-139275457D01*
X187034715Y-139178695D01*
X187034715Y-138888410D01*
X187083096Y-138791648D01*
X187131477Y-138743267D01*
X187228239Y-138694886D01*
X187421762Y-138694886D01*
X187518524Y-138743267D01*
X187857191Y-139759267D02*
X187905572Y-139710886D01*
X188002334Y-139565743D01*
X188050715Y-139468981D01*
X188099096Y-139323838D01*
X188147477Y-139081933D01*
X188147477Y-138888410D01*
X188099096Y-138646505D01*
X188050715Y-138501362D01*
X188002334Y-138404600D01*
X187905572Y-138259457D01*
X187857191Y-138211076D01*
X189937571Y-138404600D02*
X189840809Y-138356219D01*
X189695666Y-138356219D01*
X189550524Y-138404600D01*
X189453762Y-138501362D01*
X189405381Y-138598124D01*
X189357000Y-138791648D01*
X189357000Y-138936790D01*
X189405381Y-139130314D01*
X189453762Y-139227076D01*
X189550524Y-139323838D01*
X189695666Y-139372219D01*
X189792428Y-139372219D01*
X189937571Y-139323838D01*
X189985952Y-139275457D01*
X189985952Y-138936790D01*
X189792428Y-138936790D01*
X191001952Y-139372219D02*
X190663286Y-138888410D01*
X190421381Y-139372219D02*
X190421381Y-138356219D01*
X190808428Y-138356219D01*
X190905190Y-138404600D01*
X190953571Y-138452981D01*
X191001952Y-138549743D01*
X191001952Y-138694886D01*
X190953571Y-138791648D01*
X190905190Y-138840029D01*
X190808428Y-138888410D01*
X190421381Y-138888410D01*
X191389000Y-139081933D02*
X191872809Y-139081933D01*
X191292238Y-139372219D02*
X191630905Y-138356219D01*
X191969571Y-139372219D01*
X192308238Y-139372219D02*
X192308238Y-138356219D01*
X192646904Y-139081933D01*
X192985571Y-138356219D01*
X192985571Y-139372219D01*
X193953190Y-139372219D02*
X193469381Y-139372219D01*
X193469381Y-138356219D01*
X194291857Y-139372219D02*
X194291857Y-138356219D01*
X195356238Y-139275457D02*
X195307857Y-139323838D01*
X195162714Y-139372219D01*
X195065952Y-139372219D01*
X194920810Y-139323838D01*
X194824048Y-139227076D01*
X194775667Y-139130314D01*
X194727286Y-138936790D01*
X194727286Y-138791648D01*
X194775667Y-138598124D01*
X194824048Y-138501362D01*
X194920810Y-138404600D01*
X195065952Y-138356219D01*
X195162714Y-138356219D01*
X195307857Y-138404600D01*
X195356238Y-138452981D01*
X195791667Y-139372219D02*
X195791667Y-138356219D01*
X195791667Y-138840029D02*
X196372238Y-138840029D01*
X196372238Y-139372219D02*
X196372238Y-138356219D01*
X104303286Y-114378619D02*
X103722715Y-114378619D01*
X104013001Y-114378619D02*
X104013001Y-113362619D01*
X103916239Y-113507762D01*
X103819477Y-113604524D01*
X103722715Y-113652905D01*
X131481286Y-146636619D02*
X130900715Y-146636619D01*
X131191001Y-146636619D02*
X131191001Y-145620619D01*
X131094239Y-145765762D01*
X130997477Y-145862524D01*
X130900715Y-145910905D01*
X103480810Y-140413619D02*
X103674333Y-140413619D01*
X103771095Y-140462000D01*
X103867857Y-140558762D01*
X103916238Y-140752286D01*
X103916238Y-141090952D01*
X103867857Y-141284476D01*
X103771095Y-141381238D01*
X103674333Y-141429619D01*
X103480810Y-141429619D01*
X103384048Y-141381238D01*
X103287286Y-141284476D01*
X103238905Y-141090952D01*
X103238905Y-140752286D01*
X103287286Y-140558762D01*
X103384048Y-140462000D01*
X103480810Y-140413619D01*
X104351667Y-141429619D02*
X104351667Y-140413619D01*
X104932238Y-141429619D01*
X104932238Y-140413619D01*
X106141762Y-140365238D02*
X105270905Y-141671524D01*
X106673953Y-140413619D02*
X106867476Y-140413619D01*
X106964238Y-140462000D01*
X107061000Y-140558762D01*
X107109381Y-140752286D01*
X107109381Y-141090952D01*
X107061000Y-141284476D01*
X106964238Y-141381238D01*
X106867476Y-141429619D01*
X106673953Y-141429619D01*
X106577191Y-141381238D01*
X106480429Y-141284476D01*
X106432048Y-141090952D01*
X106432048Y-140752286D01*
X106480429Y-140558762D01*
X106577191Y-140462000D01*
X106673953Y-140413619D01*
X107883476Y-140897429D02*
X107544810Y-140897429D01*
X107544810Y-141429619D02*
X107544810Y-140413619D01*
X108028619Y-140413619D01*
X108754333Y-140897429D02*
X108415667Y-140897429D01*
X108415667Y-141429619D02*
X108415667Y-140413619D01*
X108899476Y-140413619D01*
X111796286Y-147652619D02*
X111215715Y-147652619D01*
X111506001Y-147652619D02*
X111506001Y-146636619D01*
X111409239Y-146781762D01*
X111312477Y-146878524D01*
X111215715Y-146926905D01*
X113725477Y-144961429D02*
X113870620Y-145009810D01*
X113919001Y-145058190D01*
X113967382Y-145154952D01*
X113967382Y-145300095D01*
X113919001Y-145396857D01*
X113870620Y-145445238D01*
X113773858Y-145493619D01*
X113386811Y-145493619D01*
X113386811Y-144477619D01*
X113725477Y-144477619D01*
X113822239Y-144526000D01*
X113870620Y-144574381D01*
X113919001Y-144671143D01*
X113919001Y-144767905D01*
X113870620Y-144864667D01*
X113822239Y-144913048D01*
X113725477Y-144961429D01*
X113386811Y-144961429D01*
X116289667Y-144961429D02*
X116434810Y-145009810D01*
X116483191Y-145058190D01*
X116531572Y-145154952D01*
X116531572Y-145300095D01*
X116483191Y-145396857D01*
X116434810Y-145445238D01*
X116338048Y-145493619D01*
X115951001Y-145493619D01*
X115951001Y-144477619D01*
X116289667Y-144477619D01*
X116386429Y-144526000D01*
X116434810Y-144574381D01*
X116483191Y-144671143D01*
X116483191Y-144767905D01*
X116434810Y-144864667D01*
X116386429Y-144913048D01*
X116289667Y-144961429D01*
X115951001Y-144961429D01*
X119095762Y-145493619D02*
X118757096Y-145009810D01*
X118515191Y-145493619D02*
X118515191Y-144477619D01*
X118902238Y-144477619D01*
X118999000Y-144526000D01*
X119047381Y-144574381D01*
X119095762Y-144671143D01*
X119095762Y-144816286D01*
X119047381Y-144913048D01*
X118999000Y-144961429D01*
X118902238Y-145009810D01*
X118515191Y-145009810D01*
X121272905Y-145009810D02*
X121272905Y-145493619D01*
X120934238Y-144477619D02*
X121272905Y-145009810D01*
X121611571Y-144477619D01*
X123691952Y-144477619D02*
X123885475Y-144477619D01*
X123982237Y-144526000D01*
X124078999Y-144622762D01*
X124127380Y-144816286D01*
X124127380Y-145154952D01*
X124078999Y-145348476D01*
X123982237Y-145445238D01*
X123885475Y-145493619D01*
X123691952Y-145493619D01*
X123595190Y-145445238D01*
X123498428Y-145348476D01*
X123450047Y-145154952D01*
X123450047Y-144816286D01*
X123498428Y-144622762D01*
X123595190Y-144526000D01*
X123691952Y-144477619D01*
X126643189Y-144526000D02*
X126546427Y-144477619D01*
X126401284Y-144477619D01*
X126256142Y-144526000D01*
X126159380Y-144622762D01*
X126110999Y-144719524D01*
X126062618Y-144913048D01*
X126062618Y-145058190D01*
X126110999Y-145251714D01*
X126159380Y-145348476D01*
X126256142Y-145445238D01*
X126401284Y-145493619D01*
X126498046Y-145493619D01*
X126643189Y-145445238D01*
X126691570Y-145396857D01*
X126691570Y-145058190D01*
X126498046Y-145058190D01*
X124212047Y-127072571D02*
X123437952Y-127072571D01*
X123825000Y-127459619D02*
X123825000Y-126685524D01*
X112147047Y-127072571D02*
X111372952Y-127072571D01*
X111760000Y-127459619D02*
X111760000Y-126685524D01*
D12*
X162509200Y-139065000D02*
X157480000Y-139065000D01*
X157480000Y-139065000D02*
X157480000Y-136525000D01*
X157480000Y-136525000D02*
X162560000Y-136525000D01*
X162560000Y-136525000D02*
X162560000Y-139065000D01*
X162560000Y-138430000D02*
X161925000Y-139065000D01*
D13*
X116967000Y-124460000D02*
X112903000Y-124460000D01*
X112903000Y-127000000D02*
X116967000Y-127000000D01*
D12*
X175260000Y-139014200D02*
X175260000Y-133985000D01*
X175260000Y-133985000D02*
X177800000Y-133985000D01*
X177800000Y-133985000D02*
X177800000Y-139065000D01*
X177800000Y-139065000D02*
X175260000Y-139065000D01*
X175895000Y-139065000D02*
X175260000Y-138430000D01*
X122555000Y-123774200D02*
X122555000Y-118745000D01*
X122555000Y-118745000D02*
X125095000Y-118745000D01*
X125095000Y-118745000D02*
X125095000Y-123825000D01*
X125095000Y-123825000D02*
X122555000Y-123825000D01*
X123190000Y-123825000D02*
X122555000Y-123190000D01*
D13*
X118618000Y-127000000D02*
X122682000Y-127000000D01*
X122682000Y-124460000D02*
X118618000Y-124460000D01*
D12*
X157530800Y-133350000D02*
X162560000Y-133350000D01*
X162560000Y-133350000D02*
X162560000Y-135890000D01*
X162560000Y-135890000D02*
X157480000Y-135890000D01*
X157480000Y-135890000D02*
X157480000Y-133350000D01*
X157480000Y-133985000D02*
X158115000Y-133350000D01*
X162509200Y-121920000D02*
X157480000Y-121920000D01*
X157480000Y-121920000D02*
X157480000Y-119380000D01*
X157480000Y-119380000D02*
X162560000Y-119380000D01*
X162560000Y-119380000D02*
X162560000Y-121920000D01*
X162560000Y-121285000D02*
X161925000Y-121920000D01*
X126365000Y-130225800D02*
X126365000Y-135255000D01*
X126365000Y-135255000D02*
X123825000Y-135255000D01*
X123825000Y-135255000D02*
X123825000Y-130175000D01*
X123825000Y-130175000D02*
X126365000Y-130175000D01*
X125730000Y-130175000D02*
X126365000Y-130810000D01*
X132080000Y-118694200D02*
X132080000Y-113665000D01*
X132080000Y-113665000D02*
X134620000Y-113665000D01*
X134620000Y-113665000D02*
X134620000Y-118745000D01*
X134620000Y-118745000D02*
X132080000Y-118745000D01*
X132715000Y-118745000D02*
X132080000Y-118110000D01*
X185420000Y-125145800D02*
X185420000Y-130175000D01*
X185420000Y-130175000D02*
X182880000Y-130175000D01*
X182880000Y-130175000D02*
X182880000Y-125095000D01*
X182880000Y-125095000D02*
X185420000Y-125095000D01*
X184785000Y-125095000D02*
X185420000Y-125730000D01*
X165735000Y-113715800D02*
X165735000Y-118745000D01*
X165735000Y-118745000D02*
X163195000Y-118745000D01*
X163195000Y-118745000D02*
X163195000Y-113665000D01*
X163195000Y-113665000D02*
X165735000Y-113665000D01*
X165100000Y-113665000D02*
X165735000Y-114300000D01*
D13*
X187325000Y-130175000D02*
X187325000Y-131191000D01*
X187325000Y-125349000D02*
X187325000Y-124079000D01*
D14*
X186055000Y-125603000D02*
X188595000Y-125603000D01*
X186055000Y-125857000D02*
X188595000Y-125857000D01*
X186055000Y-126111000D02*
X188595000Y-126111000D01*
X186055000Y-125349000D02*
X188595000Y-125349000D01*
X186055000Y-126365000D02*
X188595000Y-125095000D01*
X186055000Y-125095000D02*
X188595000Y-126365000D01*
X186055000Y-126365000D02*
X188595000Y-126365000D01*
X186055000Y-125730000D02*
X188595000Y-125730000D01*
X188595000Y-125095000D02*
X186055000Y-125095000D01*
X186055000Y-125095000D02*
X186055000Y-130175000D01*
X186055000Y-130175000D02*
X188595000Y-130175000D01*
X188595000Y-130175000D02*
X188595000Y-125095000D01*
X104775000Y-139700000D02*
X109855000Y-139700000D01*
X109855000Y-139700000D02*
X109855000Y-137160000D01*
X109855000Y-137160000D02*
X104775000Y-137160000D01*
X102235000Y-137160000D02*
X104775000Y-137160000D01*
X104775000Y-137160000D02*
X104775000Y-139700000D01*
X102235000Y-137160000D02*
X102235000Y-139700000D01*
X102235000Y-139700000D02*
X104775000Y-139700000D01*
D15*
X99822000Y-120015000D02*
X100584000Y-119507000D01*
X99822000Y-120015000D02*
X100584000Y-120523000D01*
D14*
X100584000Y-127381000D02*
X101092000Y-127381000D01*
X101092000Y-127381000D02*
X101092000Y-122809000D01*
X101092000Y-122809000D02*
X100584000Y-122809000D01*
X110236000Y-114935000D02*
X110236000Y-135255000D01*
X110236000Y-135255000D02*
X100584000Y-135255000D01*
X100584000Y-135255000D02*
X100584000Y-114935000D01*
X100584000Y-114935000D02*
X110236000Y-114935000D01*
X114935000Y-146050000D02*
X127635000Y-146050000D01*
X127635000Y-146050000D02*
X127635000Y-148590000D01*
X127635000Y-148590000D02*
X114935000Y-148590000D01*
X112395000Y-146050000D02*
X114935000Y-146050000D01*
X114935000Y-146050000D02*
X114935000Y-148590000D01*
X112395000Y-146050000D02*
X112395000Y-148590000D01*
X112395000Y-148590000D02*
X114935000Y-148590000D01*
D15*
X159042100Y-109956600D02*
X159042100Y-108610400D01*
X159042100Y-108610400D02*
X163537900Y-108610400D01*
X163537900Y-108610400D02*
X163537900Y-109956600D01*
X132080000Y-100863400D02*
X190500000Y-100863400D01*
X190500000Y-100863400D02*
X190500000Y-109956600D01*
X190500000Y-109956600D02*
X132080000Y-109956600D01*
X132080000Y-109956600D02*
X132080000Y-100863400D01*
X159042100Y-149326600D02*
X159042100Y-147980400D01*
X159042100Y-147980400D02*
X163537900Y-147980400D01*
X163537900Y-147980400D02*
X163537900Y-149326600D01*
X132080000Y-140233400D02*
X190500000Y-140233400D01*
X190500000Y-140233400D02*
X190500000Y-149326600D01*
X190500000Y-149326600D02*
X132080000Y-149326600D01*
X132080000Y-149326600D02*
X132080000Y-140233400D01*
X125730000Y-114300000D02*
X125730000Y-115570000D01*
X125730000Y-109220000D02*
X125730000Y-107950000D01*
X127000000Y-109220000D02*
X124460000Y-109220000D01*
X124460000Y-109220000D02*
X124460000Y-114300000D01*
X124460000Y-114300000D02*
X127000000Y-114300000D01*
X127000000Y-114300000D02*
X127000000Y-109220000D01*
X146685000Y-137160000D02*
X147955000Y-137160000D01*
X141605000Y-137160000D02*
X140335000Y-137160000D01*
X141605000Y-135890000D02*
X141605000Y-138430000D01*
X141605000Y-138430000D02*
X146685000Y-138430000D01*
X146685000Y-138430000D02*
X146685000Y-135890000D01*
X146685000Y-135890000D02*
X141605000Y-135890000D01*
X132715000Y-137160000D02*
X133985000Y-137160000D01*
X127635000Y-137160000D02*
X126365000Y-137160000D01*
X127635000Y-135890000D02*
X127635000Y-138430000D01*
X127635000Y-138430000D02*
X132715000Y-138430000D01*
X132715000Y-138430000D02*
X132715000Y-135890000D01*
X132715000Y-135890000D02*
X127635000Y-135890000D01*
X132715000Y-130810000D02*
X132715000Y-132080000D01*
X132715000Y-125730000D02*
X132715000Y-124460000D01*
X133985000Y-125730000D02*
X131445000Y-125730000D01*
X131445000Y-125730000D02*
X131445000Y-130810000D01*
X131445000Y-130810000D02*
X133985000Y-130810000D01*
X133985000Y-130810000D02*
X133985000Y-125730000D01*
X137160000Y-130810000D02*
X137160000Y-132080000D01*
X137160000Y-125730000D02*
X137160000Y-124460000D01*
X138430000Y-125730000D02*
X135890000Y-125730000D01*
X135890000Y-125730000D02*
X135890000Y-130810000D01*
X135890000Y-130810000D02*
X138430000Y-130810000D01*
X138430000Y-130810000D02*
X138430000Y-125730000D01*
X114935000Y-139700000D02*
X113665000Y-139700000D01*
X120015000Y-139700000D02*
X121285000Y-139700000D01*
X120015000Y-140970000D02*
X120015000Y-138430000D01*
X120015000Y-138430000D02*
X114935000Y-138430000D01*
X114935000Y-138430000D02*
X114935000Y-140970000D01*
X114935000Y-140970000D02*
X120015000Y-140970000D01*
X191135000Y-125095000D02*
X191135000Y-123825000D01*
X191135000Y-130175000D02*
X191135000Y-131445000D01*
X189865000Y-130175000D02*
X192405000Y-130175000D01*
X192405000Y-130175000D02*
X192405000Y-125095000D01*
X192405000Y-125095000D02*
X189865000Y-125095000D01*
X189865000Y-125095000D02*
X189865000Y-130175000D01*
D13*
X194464940Y-128729740D02*
X194713860Y-128729740D01*
X194464940Y-122730260D02*
X194713860Y-122730260D01*
X197965060Y-128729740D02*
X197716140Y-128729740D01*
X197965060Y-122730260D02*
X197716140Y-122730260D01*
X194464940Y-122730260D02*
X194464940Y-128729740D01*
X197965060Y-122730260D02*
X197965060Y-128729740D01*
X135255000Y-113665000D02*
X155575000Y-113665000D01*
X155575000Y-118745000D02*
X135255000Y-118745000D01*
X135255000Y-118745000D02*
X135255000Y-113665000D01*
X135255000Y-114935000D02*
X136525000Y-114935000D01*
X136525000Y-114935000D02*
X136525000Y-117475000D01*
X136525000Y-117475000D02*
X135255000Y-117475000D01*
X155575000Y-113665000D02*
X155575000Y-118745000D01*
X114935000Y-117602000D02*
X114935000Y-118999000D01*
X117475000Y-117602000D02*
X117475000Y-118999000D01*
X120015000Y-117602000D02*
X120015000Y-118999000D01*
X119989472Y-104521000D02*
G75*
G03X119989472Y-104521000I-2514472J0D01*
G74*
G01*
X122809000Y-109093000D02*
X122809000Y-101092000D01*
X122809000Y-101092000D02*
X112141000Y-101092000D01*
X112141000Y-101092000D02*
X112141000Y-109093000D01*
X122809000Y-117602000D02*
X122809000Y-109093000D01*
X122809000Y-109093000D02*
X112141000Y-109093000D01*
X112141000Y-109093000D02*
X112141000Y-117602000D01*
X117475000Y-117602000D02*
X112141000Y-117602000D01*
X117475000Y-117602000D02*
X122809000Y-117602000D01*
D14*
X112395000Y-131445000D02*
X113665000Y-131445000D01*
X113665000Y-131445000D02*
X113665000Y-133985000D01*
X113665000Y-133985000D02*
X112395000Y-133985000D01*
X112395000Y-130175000D02*
X122555000Y-130175000D01*
X122555000Y-130175000D02*
X122555000Y-135255000D01*
X122555000Y-135255000D02*
X112395000Y-135255000D01*
X112395000Y-135255000D02*
X112395000Y-130175000D01*
D13*
X140970000Y-125095000D02*
X179070000Y-125095000D01*
X179070000Y-125095000D02*
X179070000Y-130175000D01*
X179070000Y-130175000D02*
X140970000Y-130175000D01*
X140970000Y-130175000D02*
X140970000Y-125095000D01*
X140970000Y-126365000D02*
X142240000Y-126365000D01*
X142240000Y-126365000D02*
X142240000Y-128905000D01*
X142240000Y-128905000D02*
X140970000Y-128905000D01*
X166370000Y-113665000D02*
X186690000Y-113665000D01*
X186690000Y-118745000D02*
X166370000Y-118745000D01*
X166370000Y-118745000D02*
X166370000Y-113665000D01*
X166370000Y-114935000D02*
X167640000Y-114935000D01*
X167640000Y-114935000D02*
X167640000Y-117475000D01*
X167640000Y-117475000D02*
X166370000Y-117475000D01*
X186690000Y-113665000D02*
X186690000Y-118745000D01*
X173609000Y-135524240D02*
X173809660Y-135925560D01*
X173809660Y-135925560D02*
X173911260Y-136525000D01*
X173911260Y-136525000D02*
X173809660Y-137025380D01*
X173809660Y-137025380D02*
X173410880Y-137723880D01*
X173410880Y-137723880D02*
X172808900Y-138125200D01*
X172808900Y-138125200D02*
X172209460Y-138325860D01*
X172209460Y-138325860D02*
X165610540Y-138325860D01*
X165610540Y-138325860D02*
X164909500Y-138125200D01*
X164909500Y-138125200D02*
X164510720Y-137825480D01*
X164510720Y-137825480D02*
X164109400Y-137325100D01*
X164109400Y-137325100D02*
X163908740Y-136725660D01*
X163908740Y-136725660D02*
X163908740Y-136225280D01*
X163908740Y-136225280D02*
X164109400Y-135724900D01*
X164109400Y-135724900D02*
X164609780Y-135125460D01*
X164609780Y-135125460D02*
X165110160Y-134825740D01*
X165110160Y-134825740D02*
X165610540Y-134724140D01*
X165709600Y-134724140D02*
X172311060Y-134724140D01*
X172311060Y-134724140D02*
X172709840Y-134825740D01*
X172709840Y-134825740D02*
X173210220Y-135125460D01*
X173210220Y-135125460D02*
X173710600Y-135625840D01*
X165719760Y-134195820D02*
X165260020Y-134244080D01*
X165260020Y-134244080D02*
X164861240Y-134355840D01*
X164861240Y-134355840D02*
X164429440Y-134574280D01*
X164429440Y-134574280D02*
X164139880Y-134805420D01*
X164139880Y-134805420D02*
X163809680Y-135155940D01*
X163809680Y-135155940D02*
X163520120Y-135694420D01*
X163520120Y-135694420D02*
X163390580Y-136293860D01*
X163390580Y-136293860D02*
X163390580Y-136804400D01*
X163390580Y-136804400D02*
X163560760Y-137505440D01*
X163560760Y-137505440D02*
X163959540Y-138094720D01*
X163959540Y-138094720D02*
X164419280Y-138465560D01*
X164419280Y-138465560D02*
X164840920Y-138673840D01*
X164840920Y-138673840D02*
X165290500Y-138833860D01*
X165290500Y-138833860D02*
X165729920Y-138864340D01*
X173070520Y-138645900D02*
X173448980Y-138424920D01*
X173448980Y-138424920D02*
X173769020Y-138145520D01*
X173769020Y-138145520D02*
X174020480Y-137815320D01*
X174020480Y-137815320D02*
X174320200Y-137264140D01*
X174320200Y-137264140D02*
X174429420Y-136794240D01*
X174429420Y-136794240D02*
X174449740Y-136334500D01*
X174449740Y-136334500D02*
X174360840Y-135874760D01*
X174360840Y-135874760D02*
X174170340Y-135425180D01*
X174170340Y-135425180D02*
X173809660Y-134955280D01*
X173809660Y-134955280D02*
X173459140Y-134635240D01*
X173459140Y-134635240D02*
X173070520Y-134404100D01*
X173070520Y-134404100D02*
X172641260Y-134264400D01*
X172641260Y-134264400D02*
X172199300Y-134195820D01*
X165709600Y-138854180D02*
X172161200Y-138854180D01*
X172161200Y-138854180D02*
X172580300Y-138816080D01*
X172580300Y-138816080D02*
X173070520Y-138645900D01*
X165709600Y-134195820D02*
X172161200Y-134195820D01*
D11*
X156040667Y-138157857D02*
X155992286Y-138206238D01*
X155847143Y-138254619D01*
X155750381Y-138254619D01*
X155605239Y-138206238D01*
X155508477Y-138109476D01*
X155460096Y-138012714D01*
X155411715Y-137819190D01*
X155411715Y-137674048D01*
X155460096Y-137480524D01*
X155508477Y-137383762D01*
X155605239Y-137287000D01*
X155750381Y-137238619D01*
X155847143Y-137238619D01*
X155992286Y-137287000D01*
X156040667Y-137335381D01*
X157008286Y-138254619D02*
X156427715Y-138254619D01*
X156718001Y-138254619D02*
X156718001Y-137238619D01*
X156621239Y-137383762D01*
X156524477Y-137480524D01*
X156427715Y-137528905D01*
X111590667Y-126092857D02*
X111542286Y-126141238D01*
X111397143Y-126189619D01*
X111300381Y-126189619D01*
X111155239Y-126141238D01*
X111058477Y-126044476D01*
X111010096Y-125947714D01*
X110961715Y-125754190D01*
X110961715Y-125609048D01*
X111010096Y-125415524D01*
X111058477Y-125318762D01*
X111155239Y-125222000D01*
X111300381Y-125173619D01*
X111397143Y-125173619D01*
X111542286Y-125222000D01*
X111590667Y-125270381D01*
X111977715Y-125270381D02*
X112026096Y-125222000D01*
X112122858Y-125173619D01*
X112364762Y-125173619D01*
X112461524Y-125222000D01*
X112509905Y-125270381D01*
X112558286Y-125367143D01*
X112558286Y-125463905D01*
X112509905Y-125609048D01*
X111929334Y-126189619D01*
X112558286Y-126189619D01*
X178900667Y-136887857D02*
X178852286Y-136936238D01*
X178707143Y-136984619D01*
X178610381Y-136984619D01*
X178465239Y-136936238D01*
X178368477Y-136839476D01*
X178320096Y-136742714D01*
X178271715Y-136549190D01*
X178271715Y-136404048D01*
X178320096Y-136210524D01*
X178368477Y-136113762D01*
X178465239Y-136017000D01*
X178610381Y-135968619D01*
X178707143Y-135968619D01*
X178852286Y-136017000D01*
X178900667Y-136065381D01*
X179239334Y-135968619D02*
X179868286Y-135968619D01*
X179529620Y-136355667D01*
X179674762Y-136355667D01*
X179771524Y-136404048D01*
X179819905Y-136452429D01*
X179868286Y-136549190D01*
X179868286Y-136791095D01*
X179819905Y-136887857D01*
X179771524Y-136936238D01*
X179674762Y-136984619D01*
X179384477Y-136984619D01*
X179287715Y-136936238D01*
X179239334Y-136887857D01*
X126195667Y-121012857D02*
X126147286Y-121061238D01*
X126002143Y-121109619D01*
X125905381Y-121109619D01*
X125760239Y-121061238D01*
X125663477Y-120964476D01*
X125615096Y-120867714D01*
X125566715Y-120674190D01*
X125566715Y-120529048D01*
X125615096Y-120335524D01*
X125663477Y-120238762D01*
X125760239Y-120142000D01*
X125905381Y-120093619D01*
X126002143Y-120093619D01*
X126147286Y-120142000D01*
X126195667Y-120190381D01*
X127066524Y-120432286D02*
X127066524Y-121109619D01*
X126824620Y-120045238D02*
X126582715Y-120770952D01*
X127211667Y-120770952D01*
X123655667Y-126092857D02*
X123607286Y-126141238D01*
X123462143Y-126189619D01*
X123365381Y-126189619D01*
X123220239Y-126141238D01*
X123123477Y-126044476D01*
X123075096Y-125947714D01*
X123026715Y-125754190D01*
X123026715Y-125609048D01*
X123075096Y-125415524D01*
X123123477Y-125318762D01*
X123220239Y-125222000D01*
X123365381Y-125173619D01*
X123462143Y-125173619D01*
X123607286Y-125222000D01*
X123655667Y-125270381D01*
X124574905Y-125173619D02*
X124091096Y-125173619D01*
X124042715Y-125657429D01*
X124091096Y-125609048D01*
X124187858Y-125560667D01*
X124429762Y-125560667D01*
X124526524Y-125609048D01*
X124574905Y-125657429D01*
X124623286Y-125754190D01*
X124623286Y-125996095D01*
X124574905Y-126092857D01*
X124526524Y-126141238D01*
X124429762Y-126189619D01*
X124187858Y-126189619D01*
X124091096Y-126141238D01*
X124042715Y-126092857D01*
X156040667Y-134982857D02*
X155992286Y-135031238D01*
X155847143Y-135079619D01*
X155750381Y-135079619D01*
X155605239Y-135031238D01*
X155508477Y-134934476D01*
X155460096Y-134837714D01*
X155411715Y-134644190D01*
X155411715Y-134499048D01*
X155460096Y-134305524D01*
X155508477Y-134208762D01*
X155605239Y-134112000D01*
X155750381Y-134063619D01*
X155847143Y-134063619D01*
X155992286Y-134112000D01*
X156040667Y-134160381D01*
X156911524Y-134063619D02*
X156718001Y-134063619D01*
X156621239Y-134112000D01*
X156572858Y-134160381D01*
X156476096Y-134305524D01*
X156427715Y-134499048D01*
X156427715Y-134886095D01*
X156476096Y-134982857D01*
X156524477Y-135031238D01*
X156621239Y-135079619D01*
X156814762Y-135079619D01*
X156911524Y-135031238D01*
X156959905Y-134982857D01*
X157008286Y-134886095D01*
X157008286Y-134644190D01*
X156959905Y-134547429D01*
X156911524Y-134499048D01*
X156814762Y-134450667D01*
X156621239Y-134450667D01*
X156524477Y-134499048D01*
X156476096Y-134547429D01*
X156427715Y-134644190D01*
X163660667Y-121012857D02*
X163612286Y-121061238D01*
X163467143Y-121109619D01*
X163370381Y-121109619D01*
X163225239Y-121061238D01*
X163128477Y-120964476D01*
X163080096Y-120867714D01*
X163031715Y-120674190D01*
X163031715Y-120529048D01*
X163080096Y-120335524D01*
X163128477Y-120238762D01*
X163225239Y-120142000D01*
X163370381Y-120093619D01*
X163467143Y-120093619D01*
X163612286Y-120142000D01*
X163660667Y-120190381D01*
X163999334Y-120093619D02*
X164676667Y-120093619D01*
X164241239Y-121109619D01*
X127465667Y-133077857D02*
X127417286Y-133126238D01*
X127272143Y-133174619D01*
X127175381Y-133174619D01*
X127030239Y-133126238D01*
X126933477Y-133029476D01*
X126885096Y-132932714D01*
X126836715Y-132739190D01*
X126836715Y-132594048D01*
X126885096Y-132400524D01*
X126933477Y-132303762D01*
X127030239Y-132207000D01*
X127175381Y-132158619D01*
X127272143Y-132158619D01*
X127417286Y-132207000D01*
X127465667Y-132255381D01*
X128046239Y-132594048D02*
X127949477Y-132545667D01*
X127901096Y-132497286D01*
X127852715Y-132400524D01*
X127852715Y-132352143D01*
X127901096Y-132255381D01*
X127949477Y-132207000D01*
X128046239Y-132158619D01*
X128239762Y-132158619D01*
X128336524Y-132207000D01*
X128384905Y-132255381D01*
X128433286Y-132352143D01*
X128433286Y-132400524D01*
X128384905Y-132497286D01*
X128336524Y-132545667D01*
X128239762Y-132594048D01*
X128046239Y-132594048D01*
X127949477Y-132642429D01*
X127901096Y-132690810D01*
X127852715Y-132787571D01*
X127852715Y-132981095D01*
X127901096Y-133077857D01*
X127949477Y-133126238D01*
X128046239Y-133174619D01*
X128239762Y-133174619D01*
X128336524Y-133126238D01*
X128384905Y-133077857D01*
X128433286Y-132981095D01*
X128433286Y-132787571D01*
X128384905Y-132690810D01*
X128336524Y-132642429D01*
X128239762Y-132594048D01*
X130640667Y-116567857D02*
X130592286Y-116616238D01*
X130447143Y-116664619D01*
X130350381Y-116664619D01*
X130205239Y-116616238D01*
X130108477Y-116519476D01*
X130060096Y-116422714D01*
X130011715Y-116229190D01*
X130011715Y-116084048D01*
X130060096Y-115890524D01*
X130108477Y-115793762D01*
X130205239Y-115697000D01*
X130350381Y-115648619D01*
X130447143Y-115648619D01*
X130592286Y-115697000D01*
X130640667Y-115745381D01*
X131124477Y-116664619D02*
X131318001Y-116664619D01*
X131414762Y-116616238D01*
X131463143Y-116567857D01*
X131559905Y-116422714D01*
X131608286Y-116229190D01*
X131608286Y-115842143D01*
X131559905Y-115745381D01*
X131511524Y-115697000D01*
X131414762Y-115648619D01*
X131221239Y-115648619D01*
X131124477Y-115697000D01*
X131076096Y-115745381D01*
X131027715Y-115842143D01*
X131027715Y-116084048D01*
X131076096Y-116180810D01*
X131124477Y-116229190D01*
X131221239Y-116277571D01*
X131414762Y-116277571D01*
X131511524Y-116229190D01*
X131559905Y-116180810D01*
X131608286Y-116084048D01*
X182861857Y-124187857D02*
X182813476Y-124236238D01*
X182668333Y-124284619D01*
X182571571Y-124284619D01*
X182426429Y-124236238D01*
X182329667Y-124139476D01*
X182281286Y-124042714D01*
X182232905Y-123849190D01*
X182232905Y-123704048D01*
X182281286Y-123510524D01*
X182329667Y-123413762D01*
X182426429Y-123317000D01*
X182571571Y-123268619D01*
X182668333Y-123268619D01*
X182813476Y-123317000D01*
X182861857Y-123365381D01*
X183829476Y-124284619D02*
X183248905Y-124284619D01*
X183539191Y-124284619D02*
X183539191Y-123268619D01*
X183442429Y-123413762D01*
X183345667Y-123510524D01*
X183248905Y-123558905D01*
X184458429Y-123268619D02*
X184555190Y-123268619D01*
X184651952Y-123317000D01*
X184700333Y-123365381D01*
X184748714Y-123462143D01*
X184797095Y-123655667D01*
X184797095Y-123897571D01*
X184748714Y-124091095D01*
X184700333Y-124187857D01*
X184651952Y-124236238D01*
X184555190Y-124284619D01*
X184458429Y-124284619D01*
X184361667Y-124236238D01*
X184313286Y-124187857D01*
X184264905Y-124091095D01*
X184216524Y-123897571D01*
X184216524Y-123655667D01*
X184264905Y-123462143D01*
X184313286Y-123365381D01*
X184361667Y-123317000D01*
X184458429Y-123268619D01*
X160636857Y-116567857D02*
X160588476Y-116616238D01*
X160443333Y-116664619D01*
X160346571Y-116664619D01*
X160201429Y-116616238D01*
X160104667Y-116519476D01*
X160056286Y-116422714D01*
X160007905Y-116229190D01*
X160007905Y-116084048D01*
X160056286Y-115890524D01*
X160104667Y-115793762D01*
X160201429Y-115697000D01*
X160346571Y-115648619D01*
X160443333Y-115648619D01*
X160588476Y-115697000D01*
X160636857Y-115745381D01*
X161604476Y-116664619D02*
X161023905Y-116664619D01*
X161314191Y-116664619D02*
X161314191Y-115648619D01*
X161217429Y-115793762D01*
X161120667Y-115890524D01*
X161023905Y-115938905D01*
X162572095Y-116664619D02*
X161991524Y-116664619D01*
X162281810Y-116664619D02*
X162281810Y-115648619D01*
X162185048Y-115793762D01*
X162088286Y-115890524D01*
X161991524Y-115938905D01*
X192925096Y-131904619D02*
X192925096Y-130888619D01*
X193167001Y-130888619D01*
X193312143Y-130937000D01*
X193408905Y-131033762D01*
X193457286Y-131130524D01*
X193505667Y-131324048D01*
X193505667Y-131469190D01*
X193457286Y-131662714D01*
X193408905Y-131759476D01*
X193312143Y-131856238D01*
X193167001Y-131904619D01*
X192925096Y-131904619D01*
X194473286Y-131904619D02*
X193892715Y-131904619D01*
X194183001Y-131904619D02*
X194183001Y-130888619D01*
X194086239Y-131033762D01*
X193989477Y-131130524D01*
X193892715Y-131178905D01*
X189107571Y-124882047D02*
X189107571Y-124107952D01*
X188957571Y-131442047D02*
X188957571Y-130667952D01*
X189344619Y-131055000D02*
X188570524Y-131055000D01*
X104225905Y-105459619D02*
X104225905Y-104443619D01*
X104225905Y-104927429D02*
X104806476Y-104927429D01*
X104806476Y-105459619D02*
X104806476Y-104443619D01*
X105822476Y-105459619D02*
X105241905Y-105459619D01*
X105532191Y-105459619D02*
X105532191Y-104443619D01*
X105435429Y-104588762D01*
X105338667Y-104685524D01*
X105241905Y-104733905D01*
X194225905Y-105459619D02*
X194225905Y-104443619D01*
X194225905Y-104927429D02*
X194806476Y-104927429D01*
X194806476Y-105459619D02*
X194806476Y-104443619D01*
X195241905Y-104540381D02*
X195290286Y-104492000D01*
X195387048Y-104443619D01*
X195628952Y-104443619D01*
X195725714Y-104492000D01*
X195774095Y-104540381D01*
X195822476Y-104637143D01*
X195822476Y-104733905D01*
X195774095Y-104879048D01*
X195193524Y-105459619D01*
X195822476Y-105459619D01*
X104225905Y-145459619D02*
X104225905Y-144443619D01*
X104225905Y-144927429D02*
X104806476Y-144927429D01*
X104806476Y-145459619D02*
X104806476Y-144443619D01*
X105193524Y-144443619D02*
X105822476Y-144443619D01*
X105483810Y-144830667D01*
X105628952Y-144830667D01*
X105725714Y-144879048D01*
X105774095Y-144927429D01*
X105822476Y-145024190D01*
X105822476Y-145266095D01*
X105774095Y-145362857D01*
X105725714Y-145411238D01*
X105628952Y-145459619D01*
X105338667Y-145459619D01*
X105241905Y-145411238D01*
X105193524Y-145362857D01*
X194225905Y-145459619D02*
X194225905Y-144443619D01*
X194225905Y-144927429D02*
X194806476Y-144927429D01*
X194806476Y-145459619D02*
X194806476Y-144443619D01*
X195725714Y-144782286D02*
X195725714Y-145459619D01*
X195483810Y-144395238D02*
X195241905Y-145120952D01*
X195870857Y-145120952D01*
X105706333Y-135587619D02*
X105706333Y-136313333D01*
X105657953Y-136458476D01*
X105561191Y-136555238D01*
X105416048Y-136603619D01*
X105319286Y-136603619D01*
X106722333Y-136603619D02*
X106141762Y-136603619D01*
X106432048Y-136603619D02*
X106432048Y-135587619D01*
X106335286Y-135732762D01*
X106238524Y-135829524D01*
X106141762Y-135877905D01*
X107175905Y-114124619D02*
X107175905Y-113108619D01*
X107756476Y-114124619D01*
X107756476Y-113108619D01*
X108772476Y-114124619D02*
X108191905Y-114124619D01*
X108482191Y-114124619D02*
X108482191Y-113108619D01*
X108385429Y-113253762D01*
X108288667Y-113350524D01*
X108191905Y-113398905D01*
X110985905Y-145239619D02*
X110985905Y-144223619D01*
X111566476Y-145239619D01*
X111566476Y-144223619D01*
X112001905Y-144320381D02*
X112050286Y-144272000D01*
X112147048Y-144223619D01*
X112388952Y-144223619D01*
X112485714Y-144272000D01*
X112534095Y-144320381D01*
X112582476Y-144417143D01*
X112582476Y-144513905D01*
X112534095Y-144659048D01*
X111953524Y-145239619D01*
X112582476Y-145239619D01*
X130035905Y-102059619D02*
X130035905Y-101043619D01*
X130616476Y-102059619D01*
X130616476Y-101043619D01*
X131003524Y-101043619D02*
X131632476Y-101043619D01*
X131293810Y-101430667D01*
X131438952Y-101430667D01*
X131535714Y-101479048D01*
X131584095Y-101527429D01*
X131632476Y-101624190D01*
X131632476Y-101866095D01*
X131584095Y-101962857D01*
X131535714Y-102011238D01*
X131438952Y-102059619D01*
X131148667Y-102059619D01*
X131051905Y-102011238D01*
X131003524Y-101962857D01*
X130035905Y-141429619D02*
X130035905Y-140413619D01*
X130616476Y-141429619D01*
X130616476Y-140413619D01*
X131535714Y-140752286D02*
X131535714Y-141429619D01*
X131293810Y-140365238D02*
X131051905Y-141090952D01*
X131680857Y-141090952D01*
X128100667Y-112219619D02*
X127762001Y-111735810D01*
X127520096Y-112219619D02*
X127520096Y-111203619D01*
X127907143Y-111203619D01*
X128003905Y-111252000D01*
X128052286Y-111300381D01*
X128100667Y-111397143D01*
X128100667Y-111542286D01*
X128052286Y-111639048D01*
X128003905Y-111687429D01*
X127907143Y-111735810D01*
X127520096Y-111735810D01*
X129068286Y-112219619D02*
X128487715Y-112219619D01*
X128778001Y-112219619D02*
X128778001Y-111203619D01*
X128681239Y-111348762D01*
X128584477Y-111445524D01*
X128487715Y-111493905D01*
X143945667Y-135289619D02*
X143607001Y-134805810D01*
X143365096Y-135289619D02*
X143365096Y-134273619D01*
X143752143Y-134273619D01*
X143848905Y-134322000D01*
X143897286Y-134370381D01*
X143945667Y-134467143D01*
X143945667Y-134612286D01*
X143897286Y-134709048D01*
X143848905Y-134757429D01*
X143752143Y-134805810D01*
X143365096Y-134805810D01*
X144332715Y-134370381D02*
X144381096Y-134322000D01*
X144477858Y-134273619D01*
X144719762Y-134273619D01*
X144816524Y-134322000D01*
X144864905Y-134370381D01*
X144913286Y-134467143D01*
X144913286Y-134563905D01*
X144864905Y-134709048D01*
X144284334Y-135289619D01*
X144913286Y-135289619D01*
X129975667Y-135289619D02*
X129637001Y-134805810D01*
X129395096Y-135289619D02*
X129395096Y-134273619D01*
X129782143Y-134273619D01*
X129878905Y-134322000D01*
X129927286Y-134370381D01*
X129975667Y-134467143D01*
X129975667Y-134612286D01*
X129927286Y-134709048D01*
X129878905Y-134757429D01*
X129782143Y-134805810D01*
X129395096Y-134805810D01*
X130314334Y-134273619D02*
X130943286Y-134273619D01*
X130604620Y-134660667D01*
X130749762Y-134660667D01*
X130846524Y-134709048D01*
X130894905Y-134757429D01*
X130943286Y-134854190D01*
X130943286Y-135096095D01*
X130894905Y-135192857D01*
X130846524Y-135241238D01*
X130749762Y-135289619D01*
X130459477Y-135289619D01*
X130362715Y-135241238D01*
X130314334Y-135192857D01*
X130005667Y-128729619D02*
X129667001Y-128245810D01*
X129425096Y-128729619D02*
X129425096Y-127713619D01*
X129812143Y-127713619D01*
X129908905Y-127762000D01*
X129957286Y-127810381D01*
X130005667Y-127907143D01*
X130005667Y-128052286D01*
X129957286Y-128149048D01*
X129908905Y-128197429D01*
X129812143Y-128245810D01*
X129425096Y-128245810D01*
X130876524Y-128052286D02*
X130876524Y-128729619D01*
X130634620Y-127665238D02*
X130392715Y-128390952D01*
X131021667Y-128390952D01*
X139530667Y-131904619D02*
X139192001Y-131420810D01*
X138950096Y-131904619D02*
X138950096Y-130888619D01*
X139337143Y-130888619D01*
X139433905Y-130937000D01*
X139482286Y-130985381D01*
X139530667Y-131082143D01*
X139530667Y-131227286D01*
X139482286Y-131324048D01*
X139433905Y-131372429D01*
X139337143Y-131420810D01*
X138950096Y-131420810D01*
X140449905Y-130888619D02*
X139966096Y-130888619D01*
X139917715Y-131372429D01*
X139966096Y-131324048D01*
X140062858Y-131275667D01*
X140304762Y-131275667D01*
X140401524Y-131324048D01*
X140449905Y-131372429D01*
X140498286Y-131469190D01*
X140498286Y-131711095D01*
X140449905Y-131807857D01*
X140401524Y-131856238D01*
X140304762Y-131904619D01*
X140062858Y-131904619D01*
X139966096Y-131856238D01*
X139917715Y-131807857D01*
X117335667Y-142489619D02*
X116997001Y-142005810D01*
X116755096Y-142489619D02*
X116755096Y-141473619D01*
X117142143Y-141473619D01*
X117238905Y-141522000D01*
X117287286Y-141570381D01*
X117335667Y-141667143D01*
X117335667Y-141812286D01*
X117287286Y-141909048D01*
X117238905Y-141957429D01*
X117142143Y-142005810D01*
X116755096Y-142005810D01*
X118206524Y-141473619D02*
X118013001Y-141473619D01*
X117916239Y-141522000D01*
X117867858Y-141570381D01*
X117771096Y-141715524D01*
X117722715Y-141909048D01*
X117722715Y-142296095D01*
X117771096Y-142392857D01*
X117819477Y-142441238D01*
X117916239Y-142489619D01*
X118109762Y-142489619D01*
X118206524Y-142441238D01*
X118254905Y-142392857D01*
X118303286Y-142296095D01*
X118303286Y-142054190D01*
X118254905Y-141957429D01*
X118206524Y-141909048D01*
X118109762Y-141860667D01*
X117916239Y-141860667D01*
X117819477Y-141909048D01*
X117771096Y-141957429D01*
X117722715Y-142054190D01*
X184615667Y-133174619D02*
X184277001Y-132690810D01*
X184035096Y-133174619D02*
X184035096Y-132158619D01*
X184422143Y-132158619D01*
X184518905Y-132207000D01*
X184567286Y-132255381D01*
X184615667Y-132352143D01*
X184615667Y-132497286D01*
X184567286Y-132594048D01*
X184518905Y-132642429D01*
X184422143Y-132690810D01*
X184035096Y-132690810D01*
X184954334Y-132158619D02*
X185631667Y-132158619D01*
X185196239Y-133174619D01*
X195495334Y-131221238D02*
X195640477Y-131269619D01*
X195882381Y-131269619D01*
X195979143Y-131221238D01*
X196027524Y-131172857D01*
X196075905Y-131076095D01*
X196075905Y-130979333D01*
X196027524Y-130882571D01*
X195979143Y-130834190D01*
X195882381Y-130785810D01*
X195688858Y-130737429D01*
X195592096Y-130689048D01*
X195543715Y-130640667D01*
X195495334Y-130543905D01*
X195495334Y-130447143D01*
X195543715Y-130350381D01*
X195592096Y-130302000D01*
X195688858Y-130253619D01*
X195930762Y-130253619D01*
X196075905Y-130302000D01*
X196414572Y-130253619D02*
X196656477Y-131269619D01*
X196850000Y-130543905D01*
X197043524Y-131269619D01*
X197285429Y-130253619D01*
X198204667Y-131269619D02*
X197624096Y-131269619D01*
X197914382Y-131269619D02*
X197914382Y-130253619D01*
X197817620Y-130398762D01*
X197720858Y-130495524D01*
X197624096Y-130543905D01*
X156070905Y-115775619D02*
X156070905Y-116598095D01*
X156119286Y-116694857D01*
X156167667Y-116743238D01*
X156264429Y-116791619D01*
X156457952Y-116791619D01*
X156554714Y-116743238D01*
X156603095Y-116694857D01*
X156651476Y-116598095D01*
X156651476Y-115775619D01*
X157667476Y-116791619D02*
X157086905Y-116791619D01*
X157377191Y-116791619D02*
X157377191Y-115775619D01*
X157280429Y-115920762D01*
X157183667Y-116017524D01*
X157086905Y-116065905D01*
X109715905Y-108028619D02*
X109715905Y-108851095D01*
X109764286Y-108947857D01*
X109812667Y-108996238D01*
X109909429Y-109044619D01*
X110102952Y-109044619D01*
X110199714Y-108996238D01*
X110248095Y-108947857D01*
X110296476Y-108851095D01*
X110296476Y-108028619D01*
X110731905Y-108125381D02*
X110780286Y-108077000D01*
X110877048Y-108028619D01*
X111118952Y-108028619D01*
X111215714Y-108077000D01*
X111264095Y-108125381D01*
X111312476Y-108222143D01*
X111312476Y-108318905D01*
X111264095Y-108464048D01*
X110683524Y-109044619D01*
X111312476Y-109044619D01*
X123685905Y-128348619D02*
X123685905Y-129171095D01*
X123734286Y-129267857D01*
X123782667Y-129316238D01*
X123879429Y-129364619D01*
X124072952Y-129364619D01*
X124169714Y-129316238D01*
X124218095Y-129267857D01*
X124266476Y-129171095D01*
X124266476Y-128348619D01*
X124653524Y-128348619D02*
X125282476Y-128348619D01*
X124943810Y-128735667D01*
X125088952Y-128735667D01*
X125185714Y-128784048D01*
X125234095Y-128832429D01*
X125282476Y-128929190D01*
X125282476Y-129171095D01*
X125234095Y-129267857D01*
X125185714Y-129316238D01*
X125088952Y-129364619D01*
X124798667Y-129364619D01*
X124701905Y-129316238D01*
X124653524Y-129267857D01*
X139560905Y-123268619D02*
X139560905Y-124091095D01*
X139609286Y-124187857D01*
X139657667Y-124236238D01*
X139754429Y-124284619D01*
X139947952Y-124284619D01*
X140044714Y-124236238D01*
X140093095Y-124187857D01*
X140141476Y-124091095D01*
X140141476Y-123268619D01*
X141060714Y-123607286D02*
X141060714Y-124284619D01*
X140818810Y-123220238D02*
X140576905Y-123945952D01*
X141205857Y-123945952D01*
X187185905Y-115775619D02*
X187185905Y-116598095D01*
X187234286Y-116694857D01*
X187282667Y-116743238D01*
X187379429Y-116791619D01*
X187572952Y-116791619D01*
X187669714Y-116743238D01*
X187718095Y-116694857D01*
X187766476Y-116598095D01*
X187766476Y-115775619D01*
X188734095Y-115775619D02*
X188250286Y-115775619D01*
X188201905Y-116259429D01*
X188250286Y-116211048D01*
X188347048Y-116162667D01*
X188588952Y-116162667D01*
X188685714Y-116211048D01*
X188734095Y-116259429D01*
X188782476Y-116356190D01*
X188782476Y-116598095D01*
X188734095Y-116694857D01*
X188685714Y-116743238D01*
X188588952Y-116791619D01*
X188347048Y-116791619D01*
X188250286Y-116743238D01*
X188201905Y-116694857D01*
X173167524Y-132793619D02*
X173844857Y-133809619D01*
X173844857Y-132793619D02*
X173167524Y-133809619D01*
X174764095Y-133809619D02*
X174183524Y-133809619D01*
X174473810Y-133809619D02*
X174473810Y-132793619D01*
X174377048Y-132938762D01*
X174280286Y-133035524D01*
X174183524Y-133083905D01*
M02*
