%FSLAX46Y46*%
G04 Gerber Fmt 4.6, Leading zero omitted, Abs format (unit mm)*
G04 Created by KiCad (PCBNEW (2014-jul-16 BZR unknown)-product) date Fri 03 Oct 2014 11:53:35 PM PDT*
%MOMM*%
G01*
G04 APERTURE LIST*
%ADD10C,0.100000*%
%ADD11C,1.501140*%
%ADD12C,1.998980*%
%ADD13R,1.998980X1.998980*%
%ADD14C,6.000000*%
%ADD15R,1.727200X1.727200*%
%ADD16C,1.727200*%
%ADD17R,1.524000X1.524000*%
%ADD18C,1.524000*%
%ADD19O,1.727200X1.727200*%
%ADD20R,1.397000X1.397000*%
%ADD21C,1.397000*%
%ADD22O,1.699260X3.500120*%
G04 APERTURE END LIST*
D10*
D11*
X161290000Y-137795000D03*
X158750000Y-137795000D03*
X113665000Y-125730000D03*
X116205000Y-125730000D03*
X176530000Y-137795000D03*
X176530000Y-135255000D03*
X123825000Y-122555000D03*
X123825000Y-120015000D03*
X121920000Y-125730000D03*
X119380000Y-125730000D03*
X158750000Y-134620000D03*
X161290000Y-134620000D03*
X161290000Y-120650000D03*
X158750000Y-120650000D03*
X125095000Y-131445000D03*
X125095000Y-133985000D03*
X133350000Y-117475000D03*
X133350000Y-114935000D03*
X184150000Y-126365000D03*
X184150000Y-128905000D03*
X164465000Y-114935000D03*
X164465000Y-117475000D03*
D12*
X187325000Y-132715000D03*
D13*
X187325000Y-122555000D03*
D14*
X105000000Y-105000000D03*
X195000000Y-105000000D03*
X105000000Y-145000000D03*
X195000000Y-145000000D03*
D15*
X103505000Y-138430000D03*
D16*
X106045000Y-138430000D03*
X108585000Y-138430000D03*
D17*
X104140000Y-120015000D03*
D18*
X106680000Y-120015000D03*
X104140000Y-122555000D03*
X106680000Y-122555000D03*
X104140000Y-125095000D03*
X106680000Y-125095000D03*
X104140000Y-127635000D03*
X106680000Y-127635000D03*
X104140000Y-130175000D03*
X106680000Y-130175000D03*
D15*
X113665000Y-147320000D03*
D16*
X116205000Y-147320000D03*
X118745000Y-147320000D03*
X121285000Y-147320000D03*
X123825000Y-147320000D03*
X126365000Y-147320000D03*
D15*
X137160000Y-106680000D03*
D19*
X137160000Y-104140000D03*
X139700000Y-106680000D03*
X139700000Y-104140000D03*
X142240000Y-106680000D03*
X142240000Y-104140000D03*
X144780000Y-106680000D03*
X144780000Y-104140000D03*
X147320000Y-106680000D03*
X147320000Y-104140000D03*
X149860000Y-106680000D03*
X149860000Y-104140000D03*
X152400000Y-106680000D03*
X152400000Y-104140000D03*
X154940000Y-106680000D03*
X154940000Y-104140000D03*
X157480000Y-106680000D03*
X157480000Y-104140000D03*
X160020000Y-106680000D03*
X160020000Y-104140000D03*
X162560000Y-106680000D03*
X162560000Y-104140000D03*
X165100000Y-106680000D03*
X165100000Y-104140000D03*
X167640000Y-106680000D03*
X167640000Y-104140000D03*
X170180000Y-106680000D03*
X170180000Y-104140000D03*
X172720000Y-106680000D03*
X172720000Y-104140000D03*
X175260000Y-106680000D03*
X175260000Y-104140000D03*
X177800000Y-106680000D03*
X177800000Y-104140000D03*
X180340000Y-106680000D03*
X180340000Y-104140000D03*
X182880000Y-106680000D03*
X182880000Y-104140000D03*
X185420000Y-106680000D03*
X185420000Y-104140000D03*
D15*
X137160000Y-146050000D03*
D19*
X137160000Y-143510000D03*
X139700000Y-146050000D03*
X139700000Y-143510000D03*
X142240000Y-146050000D03*
X142240000Y-143510000D03*
X144780000Y-146050000D03*
X144780000Y-143510000D03*
X147320000Y-146050000D03*
X147320000Y-143510000D03*
X149860000Y-146050000D03*
X149860000Y-143510000D03*
X152400000Y-146050000D03*
X152400000Y-143510000D03*
X154940000Y-146050000D03*
X154940000Y-143510000D03*
X157480000Y-146050000D03*
X157480000Y-143510000D03*
X160020000Y-146050000D03*
X160020000Y-143510000D03*
X162560000Y-146050000D03*
X162560000Y-143510000D03*
X165100000Y-146050000D03*
X165100000Y-143510000D03*
X167640000Y-146050000D03*
X167640000Y-143510000D03*
X170180000Y-146050000D03*
X170180000Y-143510000D03*
X172720000Y-146050000D03*
X172720000Y-143510000D03*
X175260000Y-146050000D03*
X175260000Y-143510000D03*
X177800000Y-146050000D03*
X177800000Y-143510000D03*
X180340000Y-146050000D03*
X180340000Y-143510000D03*
X182880000Y-146050000D03*
X182880000Y-143510000D03*
X185420000Y-146050000D03*
X185420000Y-143510000D03*
D12*
X125730000Y-106680000D03*
X125730000Y-116840000D03*
X139065000Y-137160000D03*
X149225000Y-137160000D03*
X125095000Y-137160000D03*
X135255000Y-137160000D03*
X133350000Y-123190000D03*
X133350000Y-133350000D03*
X137160000Y-123190000D03*
X137160000Y-133350000D03*
X122555000Y-139700000D03*
X112395000Y-139700000D03*
X191135000Y-132715000D03*
X191135000Y-122555000D03*
D13*
X196215000Y-122478800D03*
D12*
X196215000Y-128981200D03*
D20*
X137795000Y-120015000D03*
D21*
X140335000Y-120015000D03*
X142875000Y-120015000D03*
X145415000Y-120015000D03*
X147955000Y-120015000D03*
X150495000Y-120015000D03*
X153035000Y-120015000D03*
X153035000Y-112395000D03*
X150495000Y-112395000D03*
X147955000Y-112395000D03*
X145415000Y-112395000D03*
X142875000Y-112395000D03*
X140335000Y-112395000D03*
X137795000Y-112395000D03*
D22*
X117475000Y-121285000D03*
X114935000Y-121285000D03*
X120015000Y-121285000D03*
D20*
X113665000Y-136525000D03*
D21*
X116205000Y-136525000D03*
X118745000Y-136525000D03*
X121285000Y-136525000D03*
X121285000Y-128905000D03*
X118745000Y-128905000D03*
X116205000Y-128905000D03*
X113665000Y-128905000D03*
X146050000Y-131445000D03*
X148590000Y-131445000D03*
X151130000Y-131445000D03*
X153670000Y-131445000D03*
X156210000Y-131445000D03*
X158750000Y-131445000D03*
X161290000Y-131445000D03*
X163830000Y-131445000D03*
X166370000Y-131445000D03*
X168910000Y-131445000D03*
X171450000Y-131445000D03*
X173990000Y-131445000D03*
X176530000Y-131445000D03*
D20*
X143510000Y-131445000D03*
D21*
X176530000Y-123825000D03*
X173990000Y-123825000D03*
X171450000Y-123825000D03*
X168910000Y-123825000D03*
X166370000Y-123825000D03*
X163830000Y-123825000D03*
X161290000Y-123825000D03*
X158750000Y-123825000D03*
X156210000Y-123825000D03*
X153670000Y-123825000D03*
X151130000Y-123825000D03*
X148590000Y-123825000D03*
X146050000Y-123825000D03*
X143510000Y-123825000D03*
D20*
X168910000Y-120015000D03*
D21*
X171450000Y-120015000D03*
X173990000Y-120015000D03*
X176530000Y-120015000D03*
X179070000Y-120015000D03*
X181610000Y-120015000D03*
X184150000Y-120015000D03*
X184150000Y-112395000D03*
X181610000Y-112395000D03*
X179070000Y-112395000D03*
X176530000Y-112395000D03*
X173990000Y-112395000D03*
X171450000Y-112395000D03*
X168910000Y-112395000D03*
D11*
X166469060Y-136525000D03*
X171350940Y-136525000D03*
D12*
X122555000Y-142875000D03*
X112395000Y-142875000D03*
X130175000Y-111125000D03*
X130175000Y-121285000D03*
D18*
X128270000Y-124460000D03*
X128270000Y-127000000D03*
M02*
