%FSLAX46Y46*%
G04 Gerber Fmt 4.6, Leading zero omitted, Abs format (unit mm)*
G04 Created by KiCad (PCBNEW (2014-jul-16 BZR unknown)-product) date Fri 03 Oct 2014 11:53:35 PM PDT*
%MOMM*%
G01*
G04 APERTURE LIST*
%ADD10C,0.100000*%
%ADD11C,1.501140*%
%ADD12C,1.998980*%
%ADD13R,1.998980X1.998980*%
%ADD14C,6.000000*%
%ADD15R,1.727200X1.727200*%
%ADD16C,1.727200*%
%ADD17R,1.524000X1.524000*%
%ADD18C,1.524000*%
%ADD19O,1.727200X1.727200*%
%ADD20R,1.397000X1.397000*%
%ADD21C,1.397000*%
%ADD22O,1.699260X3.500120*%
%ADD23R,9.652000X15.748000*%
%ADD24C,0.889000*%
%ADD25C,0.203200*%
%ADD26C,1.016000*%
%ADD27C,0.254000*%
G04 APERTURE END LIST*
D10*
D11*
X161290000Y-137795000D03*
X158750000Y-137795000D03*
X113665000Y-125730000D03*
X116205000Y-125730000D03*
X176530000Y-137795000D03*
X176530000Y-135255000D03*
X123825000Y-122555000D03*
X123825000Y-120015000D03*
X121920000Y-125730000D03*
X119380000Y-125730000D03*
X158750000Y-134620000D03*
X161290000Y-134620000D03*
X161290000Y-120650000D03*
X158750000Y-120650000D03*
X125095000Y-131445000D03*
X125095000Y-133985000D03*
X133350000Y-117475000D03*
X133350000Y-114935000D03*
X184150000Y-126365000D03*
X184150000Y-128905000D03*
X164465000Y-114935000D03*
X164465000Y-117475000D03*
D12*
X187325000Y-132715000D03*
D13*
X187325000Y-122555000D03*
D14*
X105000000Y-105000000D03*
X195000000Y-105000000D03*
X105000000Y-145000000D03*
X195000000Y-145000000D03*
D15*
X103505000Y-138430000D03*
D16*
X106045000Y-138430000D03*
X108585000Y-138430000D03*
D17*
X104140000Y-120015000D03*
D18*
X106680000Y-120015000D03*
X104140000Y-122555000D03*
X106680000Y-122555000D03*
X104140000Y-125095000D03*
X106680000Y-125095000D03*
X104140000Y-127635000D03*
X106680000Y-127635000D03*
X104140000Y-130175000D03*
X106680000Y-130175000D03*
D15*
X113665000Y-147320000D03*
D16*
X116205000Y-147320000D03*
X118745000Y-147320000D03*
X121285000Y-147320000D03*
X123825000Y-147320000D03*
X126365000Y-147320000D03*
D15*
X137160000Y-106680000D03*
D19*
X137160000Y-104140000D03*
X139700000Y-106680000D03*
X139700000Y-104140000D03*
X142240000Y-106680000D03*
X142240000Y-104140000D03*
X144780000Y-106680000D03*
X144780000Y-104140000D03*
X147320000Y-106680000D03*
X147320000Y-104140000D03*
X149860000Y-106680000D03*
X149860000Y-104140000D03*
X152400000Y-106680000D03*
X152400000Y-104140000D03*
X154940000Y-106680000D03*
X154940000Y-104140000D03*
X157480000Y-106680000D03*
X157480000Y-104140000D03*
X160020000Y-106680000D03*
X160020000Y-104140000D03*
X162560000Y-106680000D03*
X162560000Y-104140000D03*
X165100000Y-106680000D03*
X165100000Y-104140000D03*
X167640000Y-106680000D03*
X167640000Y-104140000D03*
X170180000Y-106680000D03*
X170180000Y-104140000D03*
X172720000Y-106680000D03*
X172720000Y-104140000D03*
X175260000Y-106680000D03*
X175260000Y-104140000D03*
X177800000Y-106680000D03*
X177800000Y-104140000D03*
X180340000Y-106680000D03*
X180340000Y-104140000D03*
X182880000Y-106680000D03*
X182880000Y-104140000D03*
X185420000Y-106680000D03*
X185420000Y-104140000D03*
D15*
X137160000Y-146050000D03*
D19*
X137160000Y-143510000D03*
X139700000Y-146050000D03*
X139700000Y-143510000D03*
X142240000Y-146050000D03*
X142240000Y-143510000D03*
X144780000Y-146050000D03*
X144780000Y-143510000D03*
X147320000Y-146050000D03*
X147320000Y-143510000D03*
X149860000Y-146050000D03*
X149860000Y-143510000D03*
X152400000Y-146050000D03*
X152400000Y-143510000D03*
X154940000Y-146050000D03*
X154940000Y-143510000D03*
X157480000Y-146050000D03*
X157480000Y-143510000D03*
X160020000Y-146050000D03*
X160020000Y-143510000D03*
X162560000Y-146050000D03*
X162560000Y-143510000D03*
X165100000Y-146050000D03*
X165100000Y-143510000D03*
X167640000Y-146050000D03*
X167640000Y-143510000D03*
X170180000Y-146050000D03*
X170180000Y-143510000D03*
X172720000Y-146050000D03*
X172720000Y-143510000D03*
X175260000Y-146050000D03*
X175260000Y-143510000D03*
X177800000Y-146050000D03*
X177800000Y-143510000D03*
X180340000Y-146050000D03*
X180340000Y-143510000D03*
X182880000Y-146050000D03*
X182880000Y-143510000D03*
X185420000Y-146050000D03*
X185420000Y-143510000D03*
D12*
X125730000Y-106680000D03*
X125730000Y-116840000D03*
X139065000Y-137160000D03*
X149225000Y-137160000D03*
X125095000Y-137160000D03*
X135255000Y-137160000D03*
X133350000Y-123190000D03*
X133350000Y-133350000D03*
X137160000Y-123190000D03*
X137160000Y-133350000D03*
X122555000Y-139700000D03*
X112395000Y-139700000D03*
X191135000Y-132715000D03*
X191135000Y-122555000D03*
D13*
X196215000Y-122478800D03*
D12*
X196215000Y-128981200D03*
D20*
X137795000Y-120015000D03*
D21*
X140335000Y-120015000D03*
X142875000Y-120015000D03*
X145415000Y-120015000D03*
X147955000Y-120015000D03*
X150495000Y-120015000D03*
X153035000Y-120015000D03*
X153035000Y-112395000D03*
X150495000Y-112395000D03*
X147955000Y-112395000D03*
X145415000Y-112395000D03*
X142875000Y-112395000D03*
X140335000Y-112395000D03*
X137795000Y-112395000D03*
D22*
X117475000Y-121285000D03*
X114935000Y-121285000D03*
X120015000Y-121285000D03*
D23*
X117475000Y-109347000D03*
D20*
X113665000Y-136525000D03*
D21*
X116205000Y-136525000D03*
X118745000Y-136525000D03*
X121285000Y-136525000D03*
X121285000Y-128905000D03*
X118745000Y-128905000D03*
X116205000Y-128905000D03*
X113665000Y-128905000D03*
X146050000Y-131445000D03*
X148590000Y-131445000D03*
X151130000Y-131445000D03*
X153670000Y-131445000D03*
X156210000Y-131445000D03*
X158750000Y-131445000D03*
X161290000Y-131445000D03*
X163830000Y-131445000D03*
X166370000Y-131445000D03*
X168910000Y-131445000D03*
X171450000Y-131445000D03*
X173990000Y-131445000D03*
X176530000Y-131445000D03*
D20*
X143510000Y-131445000D03*
D21*
X176530000Y-123825000D03*
X173990000Y-123825000D03*
X171450000Y-123825000D03*
X168910000Y-123825000D03*
X166370000Y-123825000D03*
X163830000Y-123825000D03*
X161290000Y-123825000D03*
X158750000Y-123825000D03*
X156210000Y-123825000D03*
X153670000Y-123825000D03*
X151130000Y-123825000D03*
X148590000Y-123825000D03*
X146050000Y-123825000D03*
X143510000Y-123825000D03*
D20*
X168910000Y-120015000D03*
D21*
X171450000Y-120015000D03*
X173990000Y-120015000D03*
X176530000Y-120015000D03*
X179070000Y-120015000D03*
X181610000Y-120015000D03*
X184150000Y-120015000D03*
X184150000Y-112395000D03*
X181610000Y-112395000D03*
X179070000Y-112395000D03*
X176530000Y-112395000D03*
X173990000Y-112395000D03*
X171450000Y-112395000D03*
X168910000Y-112395000D03*
D11*
X166469060Y-136525000D03*
X171350940Y-136525000D03*
D12*
X122555000Y-142875000D03*
X112395000Y-142875000D03*
X130175000Y-111125000D03*
X130175000Y-121285000D03*
D18*
X128270000Y-124460000D03*
X128270000Y-127000000D03*
D24*
X184150000Y-140970000D03*
X185420000Y-127635000D03*
X153670000Y-127635000D03*
X181610000Y-130175000D03*
X175260000Y-140970000D03*
X177800000Y-116840000D03*
X182880000Y-114935000D03*
X154940000Y-127000000D03*
X174625000Y-115570000D03*
X154940000Y-125095000D03*
X184150000Y-134620000D03*
X179070000Y-131445000D03*
X178435000Y-126365000D03*
X174625000Y-126365000D03*
X127635000Y-139700000D03*
X141605000Y-110490000D03*
X165100000Y-111125000D03*
X153670000Y-109855000D03*
X171450000Y-109855000D03*
X141605000Y-114935000D03*
X145415000Y-117475000D03*
X182880000Y-140970000D03*
X144145000Y-113665000D03*
X120015000Y-127635000D03*
X124460000Y-125095000D03*
D25*
X184150000Y-140970000D02*
X184150000Y-144780000D01*
X184150000Y-144780000D02*
X182880000Y-146050000D01*
X184150000Y-114300000D02*
X185420000Y-115570000D01*
X185420000Y-115570000D02*
X185420000Y-127635000D01*
X153670000Y-127635000D02*
X153670000Y-131445000D01*
X184150000Y-112395000D02*
X184150000Y-114300000D01*
X156210000Y-137795000D02*
X160020000Y-141605000D01*
X160020000Y-141605000D02*
X170180000Y-141605000D01*
X170180000Y-141605000D02*
X171450000Y-142875000D01*
X171450000Y-142875000D02*
X171450000Y-144780000D01*
X171450000Y-144780000D02*
X172720000Y-146050000D01*
X156210000Y-131445000D02*
X156210000Y-137795000D01*
X181610000Y-130175000D02*
X181610000Y-120015000D01*
X166370000Y-114935000D02*
X163830000Y-112395000D01*
X163830000Y-112395000D02*
X163830000Y-106045000D01*
X163830000Y-106045000D02*
X163195000Y-105410000D01*
X163195000Y-105410000D02*
X161290000Y-105410000D01*
X161290000Y-105410000D02*
X160020000Y-106680000D01*
X171450000Y-131445000D02*
X167640000Y-127635000D01*
X167640000Y-121920000D02*
X166370000Y-120650000D01*
X166370000Y-120650000D02*
X166370000Y-114935000D01*
X167640000Y-127635000D02*
X167640000Y-121920000D01*
X175260000Y-132715000D02*
X175260000Y-140970000D01*
X173990000Y-131445000D02*
X175260000Y-132715000D01*
X176530000Y-126365000D02*
X177800000Y-125095000D01*
X177800000Y-125095000D02*
X177800000Y-116840000D01*
X182880000Y-114935000D02*
X182880000Y-106680000D01*
X176530000Y-131445000D02*
X176530000Y-126365000D01*
X176530000Y-122555000D02*
X173990000Y-120015000D01*
X176530000Y-123825000D02*
X176530000Y-122555000D01*
X158750000Y-144780000D02*
X158750000Y-142875000D01*
X158750000Y-142875000D02*
X154940000Y-139065000D01*
X154940000Y-139065000D02*
X154940000Y-127000000D01*
X160020000Y-146050000D02*
X158750000Y-144780000D01*
X172720000Y-122555000D02*
X172720000Y-117475000D01*
X172720000Y-117475000D02*
X174625000Y-115570000D01*
X171450000Y-123825000D02*
X172720000Y-122555000D01*
X170180000Y-122555000D02*
X170180000Y-109855000D01*
X170180000Y-109855000D02*
X168910000Y-108585000D01*
X168910000Y-108585000D02*
X168910000Y-106045000D01*
X168910000Y-106045000D02*
X169545000Y-105410000D01*
X169545000Y-105410000D02*
X171450000Y-105410000D01*
X171450000Y-105410000D02*
X172720000Y-106680000D01*
X168910000Y-123825000D02*
X170180000Y-122555000D01*
X154940000Y-125095000D02*
X154940000Y-109220000D01*
X154940000Y-109220000D02*
X152400000Y-106680000D01*
D26*
X117475000Y-124460000D02*
X117475000Y-121285000D01*
X116205000Y-125730000D02*
X117475000Y-124460000D01*
X158750000Y-123825000D02*
X158750000Y-120650000D01*
X161290000Y-134620000D02*
X161290000Y-131445000D01*
X161925000Y-117475000D02*
X164465000Y-117475000D01*
X158750000Y-120650000D02*
X161925000Y-117475000D01*
X198120000Y-124383800D02*
X198120000Y-130175000D01*
X198120000Y-130175000D02*
X193675000Y-134620000D01*
X193675000Y-134620000D02*
X184150000Y-134620000D01*
X179070000Y-131445000D02*
X178435000Y-130810000D01*
X178435000Y-130810000D02*
X178435000Y-126365000D01*
X196215000Y-122478800D02*
X198120000Y-124383800D01*
X109220000Y-129540000D02*
X109220000Y-125095000D01*
X109220000Y-125095000D02*
X106680000Y-122555000D01*
X116205000Y-136525000D02*
X109220000Y-129540000D01*
X118745000Y-135255000D02*
X121285000Y-132715000D01*
X121285000Y-132715000D02*
X121285000Y-128905000D01*
X118745000Y-136525000D02*
X118745000Y-135255000D01*
X137795000Y-114935000D02*
X137795000Y-112395000D01*
X133350000Y-117475000D02*
X135255000Y-117475000D01*
X135255000Y-117475000D02*
X137795000Y-114935000D01*
X161290000Y-121285000D02*
X161290000Y-120650000D01*
X163830000Y-123825000D02*
X161290000Y-121285000D01*
X187325000Y-108585000D02*
X185420000Y-106680000D01*
X187325000Y-122555000D02*
X187325000Y-108585000D01*
X127635000Y-133985000D02*
X125095000Y-131445000D01*
X127635000Y-139700000D02*
X127635000Y-133985000D01*
X158750000Y-134620000D02*
X158750000Y-131445000D01*
X163830000Y-125730000D02*
X163830000Y-123825000D01*
X158750000Y-130810000D02*
X163830000Y-125730000D01*
X158750000Y-131445000D02*
X158750000Y-130810000D01*
X121920000Y-128270000D02*
X121920000Y-125730000D01*
X121285000Y-128905000D02*
X121920000Y-128270000D01*
X120015000Y-123825000D02*
X120015000Y-121285000D01*
X121920000Y-125730000D02*
X120015000Y-123825000D01*
D25*
X186055000Y-131445000D02*
X185420000Y-131445000D01*
X185420000Y-131445000D02*
X184150000Y-130175000D01*
X184150000Y-130175000D02*
X184150000Y-128905000D01*
X187325000Y-132715000D02*
X186055000Y-131445000D01*
X120015000Y-139700000D02*
X117475000Y-137160000D01*
X117475000Y-137160000D02*
X117475000Y-130175000D01*
X117475000Y-130175000D02*
X116205000Y-128905000D01*
X122555000Y-139700000D02*
X120015000Y-139700000D01*
X123190000Y-130810000D02*
X124460000Y-129540000D01*
X123190000Y-137795000D02*
X123190000Y-130810000D01*
X125095000Y-139700000D02*
X123190000Y-137795000D01*
X129540000Y-129540000D02*
X124460000Y-129540000D01*
X133350000Y-125730000D02*
X129540000Y-129540000D01*
X133350000Y-123190000D02*
X133350000Y-125730000D01*
X125095000Y-143510000D02*
X125095000Y-139700000D01*
X121285000Y-147320000D02*
X125095000Y-143510000D01*
X125095000Y-148590000D02*
X127000000Y-148590000D01*
X127000000Y-148590000D02*
X135255000Y-140335000D01*
X135255000Y-140335000D02*
X135255000Y-137160000D01*
X123825000Y-147320000D02*
X125095000Y-148590000D01*
X133350000Y-140335000D02*
X133350000Y-137160000D01*
X133350000Y-137160000D02*
X135255000Y-135255000D01*
X135255000Y-135255000D02*
X135255000Y-125095000D01*
X135255000Y-125095000D02*
X137160000Y-123190000D01*
X126365000Y-147320000D02*
X133350000Y-140335000D01*
X148590000Y-132080000D02*
X148590000Y-131445000D01*
X149225000Y-133985000D02*
X148590000Y-133350000D01*
X148590000Y-133350000D02*
X148590000Y-132080000D01*
X149225000Y-137160000D02*
X149225000Y-133985000D01*
X146050000Y-128270000D02*
X144780000Y-127000000D01*
X144780000Y-127000000D02*
X144780000Y-123190000D01*
X144780000Y-123190000D02*
X142875000Y-121285000D01*
X142875000Y-121285000D02*
X142875000Y-120015000D01*
X146050000Y-131445000D02*
X146050000Y-128270000D01*
D26*
X114935000Y-124460000D02*
X114935000Y-121285000D01*
X113665000Y-125730000D02*
X114935000Y-124460000D01*
D25*
X163830000Y-133885940D02*
X163830000Y-131445000D01*
X166469060Y-136525000D02*
X163830000Y-133885940D01*
X166370000Y-131544060D02*
X166370000Y-131445000D01*
X171350940Y-136525000D02*
X166370000Y-131544060D01*
X123825000Y-118745000D02*
X125730000Y-116840000D01*
X123825000Y-120015000D02*
X123825000Y-118745000D01*
X105410000Y-136525000D02*
X105410000Y-126365000D01*
X105410000Y-126365000D02*
X106680000Y-125095000D01*
X103505000Y-138430000D02*
X105410000Y-136525000D01*
X168910000Y-120015000D02*
X168910000Y-116205000D01*
X165100000Y-112395000D02*
X165100000Y-111125000D01*
X168910000Y-116205000D02*
X165100000Y-112395000D01*
X141605000Y-108585000D02*
X139700000Y-106680000D01*
X141605000Y-110490000D02*
X141605000Y-108585000D01*
X151130000Y-121285000D02*
X149860000Y-121285000D01*
X149860000Y-121285000D02*
X149225000Y-120650000D01*
X144145000Y-110490000D02*
X142240000Y-108585000D01*
X142240000Y-108585000D02*
X142240000Y-106680000D01*
X153670000Y-123825000D02*
X151130000Y-121285000D01*
X149225000Y-111125000D02*
X148590000Y-110490000D01*
X148590000Y-110490000D02*
X144145000Y-110490000D01*
X149225000Y-120650000D02*
X149225000Y-111125000D01*
X171450000Y-116205000D02*
X172720000Y-114935000D01*
X172720000Y-114935000D02*
X172720000Y-111125000D01*
X172720000Y-111125000D02*
X171450000Y-109855000D01*
X171450000Y-120015000D02*
X171450000Y-116205000D01*
X150495000Y-106680000D02*
X149860000Y-106680000D01*
X153670000Y-109855000D02*
X150495000Y-106680000D01*
X156210000Y-116840000D02*
X162560000Y-110490000D01*
X162560000Y-110490000D02*
X162560000Y-106680000D01*
X156210000Y-123825000D02*
X156210000Y-116840000D01*
X176530000Y-115570000D02*
X175260000Y-114300000D01*
X175260000Y-114300000D02*
X175260000Y-111760000D01*
X175260000Y-111760000D02*
X170180000Y-106680000D01*
X176530000Y-120015000D02*
X176530000Y-115570000D01*
X179070000Y-116205000D02*
X177800000Y-114935000D01*
X177800000Y-114935000D02*
X177800000Y-111760000D01*
X179070000Y-120015000D02*
X179070000Y-116205000D01*
X180340000Y-109220000D02*
X177800000Y-111760000D01*
X180340000Y-106680000D02*
X180340000Y-109220000D01*
X141605000Y-114935000D02*
X141605000Y-120650000D01*
X138430000Y-144780000D02*
X138430000Y-139065000D01*
X138430000Y-139065000D02*
X137160000Y-137795000D01*
X137160000Y-137795000D02*
X137160000Y-135890000D01*
X137160000Y-135890000D02*
X139700000Y-133350000D01*
X139700000Y-133350000D02*
X139700000Y-122555000D01*
X139700000Y-122555000D02*
X141605000Y-120650000D01*
X139700000Y-146050000D02*
X138430000Y-144780000D01*
X148590000Y-128270000D02*
X148590000Y-123825000D01*
X147320000Y-129540000D02*
X148590000Y-128270000D01*
X147320000Y-135255000D02*
X147320000Y-129540000D01*
X143510000Y-139065000D02*
X147320000Y-135255000D01*
X143510000Y-144145000D02*
X143510000Y-139065000D01*
X142240000Y-145415000D02*
X143510000Y-144145000D01*
X142240000Y-146050000D02*
X142240000Y-145415000D01*
X145415000Y-117475000D02*
X146685000Y-118745000D01*
X146685000Y-118745000D02*
X146685000Y-120650000D01*
X146685000Y-120650000D02*
X147955000Y-121920000D01*
X147955000Y-121920000D02*
X149225000Y-121920000D01*
X149225000Y-121920000D02*
X149860000Y-122555000D01*
X149860000Y-122555000D02*
X149860000Y-134620000D01*
X149860000Y-134620000D02*
X151765000Y-136525000D01*
X151765000Y-136525000D02*
X151765000Y-141605000D01*
X151765000Y-141605000D02*
X151130000Y-142240000D01*
X151130000Y-142240000D02*
X151130000Y-144780000D01*
X151130000Y-144780000D02*
X149860000Y-146050000D01*
X153670000Y-144780000D02*
X153670000Y-136525000D01*
X153670000Y-136525000D02*
X152400000Y-135255000D01*
X152400000Y-135255000D02*
X152400000Y-125095000D01*
X152400000Y-125095000D02*
X151130000Y-123825000D01*
X152400000Y-146050000D02*
X153670000Y-144780000D01*
X182880000Y-140970000D02*
X182880000Y-116840000D01*
X182880000Y-116840000D02*
X181610000Y-115570000D01*
X181610000Y-115570000D02*
X181610000Y-112395000D01*
X181610000Y-144780000D02*
X181610000Y-135890000D01*
X181610000Y-135890000D02*
X180340000Y-134620000D01*
X180340000Y-134620000D02*
X180340000Y-116840000D01*
X180340000Y-116840000D02*
X179070000Y-115570000D01*
X179070000Y-115570000D02*
X179070000Y-112395000D01*
X180340000Y-146050000D02*
X181610000Y-144780000D01*
X128270000Y-123190000D02*
X130175000Y-121285000D01*
X128270000Y-124460000D02*
X128270000Y-123190000D01*
X146050000Y-122555000D02*
X144145000Y-120650000D01*
X144145000Y-120650000D02*
X144145000Y-113665000D01*
X146050000Y-123825000D02*
X146050000Y-122555000D01*
X114935000Y-127635000D02*
X120015000Y-127635000D01*
X113665000Y-128905000D02*
X114935000Y-127635000D01*
X122555000Y-135255000D02*
X122555000Y-128905000D01*
X122555000Y-128905000D02*
X124460000Y-127000000D01*
X124460000Y-127000000D02*
X124460000Y-125095000D01*
X121285000Y-136525000D02*
X122555000Y-135255000D01*
D27*
G36*
X146583400Y-134949890D02*
X142989145Y-138544145D01*
X142829470Y-138783115D01*
X142773400Y-139065000D01*
X142773400Y-141873399D01*
X142539226Y-141783131D01*
X142265400Y-141979832D01*
X142265400Y-143484600D01*
X142285400Y-143484600D01*
X142285400Y-143535400D01*
X142265400Y-143535400D01*
X142265400Y-143555400D01*
X142214600Y-143555400D01*
X142214600Y-143535400D01*
X142214600Y-143484600D01*
X142214600Y-141979832D01*
X141940774Y-141783131D01*
X141302707Y-142029090D01*
X140970000Y-142345705D01*
X140637293Y-142029090D01*
X139999226Y-141783131D01*
X139725400Y-141979832D01*
X139725400Y-143484600D01*
X140709861Y-143484600D01*
X141230139Y-143484600D01*
X142214600Y-143484600D01*
X142214600Y-143535400D01*
X141230139Y-143535400D01*
X140709861Y-143535400D01*
X139725400Y-143535400D01*
X139725400Y-143555400D01*
X139674600Y-143555400D01*
X139674600Y-143535400D01*
X139654600Y-143535400D01*
X139654600Y-143484600D01*
X139674600Y-143484600D01*
X139674600Y-141979832D01*
X139400774Y-141783131D01*
X139166600Y-141873399D01*
X139166600Y-139065000D01*
X139112801Y-138794533D01*
X139388694Y-138794774D01*
X139989655Y-138546462D01*
X140449846Y-138087073D01*
X140699206Y-137486547D01*
X140699774Y-136836306D01*
X140451462Y-136235345D01*
X139992073Y-135775154D01*
X139391547Y-135525794D01*
X138741306Y-135525226D01*
X138443385Y-135648324D01*
X140220855Y-133870855D01*
X140380530Y-133631885D01*
X140436600Y-133350000D01*
X140436600Y-122860110D01*
X142125855Y-121170855D01*
X142137903Y-121152823D01*
X142138400Y-121153029D01*
X142138400Y-121285000D01*
X142194470Y-121566885D01*
X142354145Y-121805855D01*
X143099893Y-122551603D01*
X142755620Y-122693854D01*
X142380173Y-123068647D01*
X142176732Y-123558587D01*
X142176269Y-124089086D01*
X142378854Y-124579380D01*
X142753647Y-124954827D01*
X143243587Y-125158268D01*
X143774086Y-125158731D01*
X144043400Y-125047452D01*
X144043400Y-127000000D01*
X144099470Y-127281885D01*
X144259145Y-127520855D01*
X145313400Y-128575110D01*
X145313400Y-130306507D01*
X145295620Y-130313854D01*
X144920173Y-130688647D01*
X144843500Y-130873295D01*
X144843500Y-130620191D01*
X144746827Y-130386802D01*
X144568199Y-130208173D01*
X144334810Y-130111500D01*
X144082191Y-130111500D01*
X142685191Y-130111500D01*
X142451802Y-130208173D01*
X142273173Y-130386801D01*
X142176500Y-130620190D01*
X142176500Y-130872809D01*
X142176500Y-132269809D01*
X142273173Y-132503198D01*
X142451801Y-132681827D01*
X142685190Y-132778500D01*
X142937809Y-132778500D01*
X144334809Y-132778500D01*
X144568198Y-132681827D01*
X144746827Y-132503199D01*
X144843500Y-132269810D01*
X144843500Y-132017191D01*
X144843500Y-132017009D01*
X144918854Y-132199380D01*
X145293647Y-132574827D01*
X145783587Y-132778268D01*
X146314086Y-132778731D01*
X146583400Y-132667452D01*
X146583400Y-134949890D01*
X146583400Y-134949890D01*
G37*
X146583400Y-134949890D02*
X142989145Y-138544145D01*
X142829470Y-138783115D01*
X142773400Y-139065000D01*
X142773400Y-141873399D01*
X142539226Y-141783131D01*
X142265400Y-141979832D01*
X142265400Y-143484600D01*
X142285400Y-143484600D01*
X142285400Y-143535400D01*
X142265400Y-143535400D01*
X142265400Y-143555400D01*
X142214600Y-143555400D01*
X142214600Y-143535400D01*
X142214600Y-143484600D01*
X142214600Y-141979832D01*
X141940774Y-141783131D01*
X141302707Y-142029090D01*
X140970000Y-142345705D01*
X140637293Y-142029090D01*
X139999226Y-141783131D01*
X139725400Y-141979832D01*
X139725400Y-143484600D01*
X140709861Y-143484600D01*
X141230139Y-143484600D01*
X142214600Y-143484600D01*
X142214600Y-143535400D01*
X141230139Y-143535400D01*
X140709861Y-143535400D01*
X139725400Y-143535400D01*
X139725400Y-143555400D01*
X139674600Y-143555400D01*
X139674600Y-143535400D01*
X139654600Y-143535400D01*
X139654600Y-143484600D01*
X139674600Y-143484600D01*
X139674600Y-141979832D01*
X139400774Y-141783131D01*
X139166600Y-141873399D01*
X139166600Y-139065000D01*
X139112801Y-138794533D01*
X139388694Y-138794774D01*
X139989655Y-138546462D01*
X140449846Y-138087073D01*
X140699206Y-137486547D01*
X140699774Y-136836306D01*
X140451462Y-136235345D01*
X139992073Y-135775154D01*
X139391547Y-135525794D01*
X138741306Y-135525226D01*
X138443385Y-135648324D01*
X140220855Y-133870855D01*
X140380530Y-133631885D01*
X140436600Y-133350000D01*
X140436600Y-122860110D01*
X142125855Y-121170855D01*
X142137903Y-121152823D01*
X142138400Y-121153029D01*
X142138400Y-121285000D01*
X142194470Y-121566885D01*
X142354145Y-121805855D01*
X143099893Y-122551603D01*
X142755620Y-122693854D01*
X142380173Y-123068647D01*
X142176732Y-123558587D01*
X142176269Y-124089086D01*
X142378854Y-124579380D01*
X142753647Y-124954827D01*
X143243587Y-125158268D01*
X143774086Y-125158731D01*
X144043400Y-125047452D01*
X144043400Y-127000000D01*
X144099470Y-127281885D01*
X144259145Y-127520855D01*
X145313400Y-128575110D01*
X145313400Y-130306507D01*
X145295620Y-130313854D01*
X144920173Y-130688647D01*
X144843500Y-130873295D01*
X144843500Y-130620191D01*
X144746827Y-130386802D01*
X144568199Y-130208173D01*
X144334810Y-130111500D01*
X144082191Y-130111500D01*
X142685191Y-130111500D01*
X142451802Y-130208173D01*
X142273173Y-130386801D01*
X142176500Y-130620190D01*
X142176500Y-130872809D01*
X142176500Y-132269809D01*
X142273173Y-132503198D01*
X142451801Y-132681827D01*
X142685190Y-132778500D01*
X142937809Y-132778500D01*
X144334809Y-132778500D01*
X144568198Y-132681827D01*
X144746827Y-132503199D01*
X144843500Y-132269810D01*
X144843500Y-132017191D01*
X144843500Y-132017009D01*
X144918854Y-132199380D01*
X145293647Y-132574827D01*
X145783587Y-132778268D01*
X146314086Y-132778731D01*
X146583400Y-132667452D01*
X146583400Y-134949890D01*
G36*
X152445400Y-143535400D02*
X152425400Y-143535400D01*
X152425400Y-143555400D01*
X152374600Y-143555400D01*
X152374600Y-143535400D01*
X152354600Y-143535400D01*
X152354600Y-143484600D01*
X152374600Y-143484600D01*
X152374600Y-143464600D01*
X152425400Y-143464600D01*
X152425400Y-143484600D01*
X152445400Y-143484600D01*
X152445400Y-143535400D01*
X152445400Y-143535400D01*
G37*
X152445400Y-143535400D02*
X152425400Y-143535400D01*
X152425400Y-143555400D01*
X152374600Y-143555400D01*
X152374600Y-143535400D01*
X152354600Y-143535400D01*
X152354600Y-143484600D01*
X152374600Y-143484600D01*
X152374600Y-143464600D01*
X152425400Y-143464600D01*
X152425400Y-143484600D01*
X152445400Y-143484600D01*
X152445400Y-143535400D01*
G36*
X154203400Y-122602594D02*
X153936413Y-122491732D01*
X153405914Y-122491269D01*
X153386146Y-122499436D01*
X152322381Y-121435671D01*
X152681890Y-121594615D01*
X153313261Y-121609504D01*
X153902271Y-121381644D01*
X153965724Y-121339244D01*
X154004245Y-121020166D01*
X153035000Y-120050921D01*
X153020857Y-120065063D01*
X152984936Y-120029142D01*
X152999079Y-120015000D01*
X152029834Y-119045755D01*
X151710756Y-119084276D01*
X151629356Y-119268390D01*
X151626146Y-119260620D01*
X151251353Y-118885173D01*
X150761413Y-118681732D01*
X150230914Y-118681269D01*
X149961600Y-118792547D01*
X149961600Y-113617405D01*
X150228587Y-113728268D01*
X150759086Y-113728731D01*
X151249380Y-113526146D01*
X151624827Y-113151353D01*
X151765093Y-112813553D01*
X151903854Y-113149380D01*
X152278647Y-113524827D01*
X152768587Y-113728268D01*
X153299086Y-113728731D01*
X153789380Y-113526146D01*
X154164827Y-113151353D01*
X154203400Y-113058458D01*
X154203400Y-119065461D01*
X154040166Y-119045755D01*
X154004245Y-119081676D01*
X154004245Y-119009834D01*
X153965724Y-118690756D01*
X153388110Y-118435385D01*
X152756739Y-118420496D01*
X152167729Y-118648356D01*
X152104276Y-118690756D01*
X152065755Y-119009834D01*
X153035000Y-119979079D01*
X154004245Y-119009834D01*
X154004245Y-119081676D01*
X153070921Y-120015000D01*
X154040166Y-120984245D01*
X154203400Y-120964538D01*
X154203400Y-122602594D01*
X154203400Y-122602594D01*
G37*
X154203400Y-122602594D02*
X153936413Y-122491732D01*
X153405914Y-122491269D01*
X153386146Y-122499436D01*
X152322381Y-121435671D01*
X152681890Y-121594615D01*
X153313261Y-121609504D01*
X153902271Y-121381644D01*
X153965724Y-121339244D01*
X154004245Y-121020166D01*
X153035000Y-120050921D01*
X153020857Y-120065063D01*
X152984936Y-120029142D01*
X152999079Y-120015000D01*
X152029834Y-119045755D01*
X151710756Y-119084276D01*
X151629356Y-119268390D01*
X151626146Y-119260620D01*
X151251353Y-118885173D01*
X150761413Y-118681732D01*
X150230914Y-118681269D01*
X149961600Y-118792547D01*
X149961600Y-113617405D01*
X150228587Y-113728268D01*
X150759086Y-113728731D01*
X151249380Y-113526146D01*
X151624827Y-113151353D01*
X151765093Y-112813553D01*
X151903854Y-113149380D01*
X152278647Y-113524827D01*
X152768587Y-113728268D01*
X153299086Y-113728731D01*
X153789380Y-113526146D01*
X154164827Y-113151353D01*
X154203400Y-113058458D01*
X154203400Y-119065461D01*
X154040166Y-119045755D01*
X154004245Y-119081676D01*
X154004245Y-119009834D01*
X153965724Y-118690756D01*
X153388110Y-118435385D01*
X152756739Y-118420496D01*
X152167729Y-118648356D01*
X152104276Y-118690756D01*
X152065755Y-119009834D01*
X153035000Y-119979079D01*
X154004245Y-119009834D01*
X154004245Y-119081676D01*
X153070921Y-120015000D01*
X154040166Y-120984245D01*
X154203400Y-120964538D01*
X154203400Y-122602594D01*
G36*
X166903400Y-122602594D02*
X166636413Y-122491732D01*
X166105914Y-122491269D01*
X165615620Y-122693854D01*
X165471791Y-122837432D01*
X165240173Y-123068647D01*
X165099906Y-123406446D01*
X164961146Y-123070620D01*
X164586353Y-122695173D01*
X164125082Y-122503636D01*
X162638046Y-121016600D01*
X162675329Y-120926816D01*
X162675810Y-120375602D01*
X162465314Y-119866163D01*
X162075887Y-119476056D01*
X161566816Y-119264671D01*
X161015602Y-119264190D01*
X160506163Y-119474686D01*
X160179574Y-119800704D01*
X160161915Y-119754987D01*
X160117200Y-119688067D01*
X159792712Y-119643209D01*
X159756791Y-119679130D01*
X159756791Y-119607288D01*
X159711933Y-119282800D01*
X159115506Y-119018756D01*
X158463433Y-119003054D01*
X157854987Y-119238085D01*
X157788067Y-119282800D01*
X157743209Y-119607288D01*
X158750000Y-120614079D01*
X159756791Y-119607288D01*
X159756791Y-119679130D01*
X158785921Y-120650000D01*
X159792712Y-121656791D01*
X160117200Y-121611933D01*
X160171048Y-121490298D01*
X160192014Y-121511300D01*
X160234006Y-121722407D01*
X160481777Y-122093223D01*
X160922537Y-122533983D01*
X160535620Y-122693854D01*
X160160173Y-123068647D01*
X160159851Y-123069420D01*
X160116644Y-122957729D01*
X160074244Y-122894276D01*
X159756791Y-122855951D01*
X159756791Y-121692712D01*
X158750000Y-120685921D01*
X158714079Y-120721842D01*
X158714079Y-120650000D01*
X157707288Y-119643209D01*
X157382800Y-119688067D01*
X157118756Y-120284494D01*
X157103054Y-120936567D01*
X157338085Y-121545013D01*
X157382800Y-121611933D01*
X157707288Y-121656791D01*
X158714079Y-120650000D01*
X158714079Y-120721842D01*
X157743209Y-121692712D01*
X157788067Y-122017200D01*
X158364004Y-122272173D01*
X157882729Y-122458356D01*
X157819276Y-122500756D01*
X157780755Y-122819834D01*
X158750000Y-123789079D01*
X159719245Y-122819834D01*
X159680724Y-122500756D01*
X159134323Y-122259184D01*
X159645013Y-122061915D01*
X159711933Y-122017200D01*
X159756791Y-121692712D01*
X159756791Y-122855951D01*
X159755166Y-122855755D01*
X158785921Y-123825000D01*
X159755166Y-124794245D01*
X160074244Y-124755724D01*
X160155643Y-124571609D01*
X160158854Y-124579380D01*
X160533647Y-124954827D01*
X161023587Y-125158268D01*
X161554086Y-125158731D01*
X162044380Y-124956146D01*
X162419827Y-124581353D01*
X162560093Y-124243553D01*
X162687000Y-124550691D01*
X162687000Y-125256554D01*
X159719245Y-128224309D01*
X159719245Y-124830166D01*
X158750000Y-123860921D01*
X157780755Y-124830166D01*
X157819276Y-125149244D01*
X158396890Y-125404615D01*
X159028261Y-125419504D01*
X159617271Y-125191644D01*
X159680724Y-125149244D01*
X159719245Y-124830166D01*
X159719245Y-128224309D01*
X157941777Y-130001777D01*
X157694006Y-130372593D01*
X157633855Y-130674988D01*
X157620173Y-130688647D01*
X157479906Y-131026446D01*
X157341146Y-130690620D01*
X156966353Y-130315173D01*
X156476413Y-130111732D01*
X155945914Y-130111269D01*
X155676600Y-130222547D01*
X155676600Y-127789997D01*
X155854622Y-127612286D01*
X156019313Y-127215668D01*
X156019687Y-126786216D01*
X155855689Y-126389311D01*
X155552286Y-126085378D01*
X155461332Y-126047610D01*
X155550689Y-126010689D01*
X155854622Y-125707286D01*
X156019313Y-125310668D01*
X156019445Y-125158334D01*
X156474086Y-125158731D01*
X156964380Y-124956146D01*
X157339827Y-124581353D01*
X157340148Y-124580579D01*
X157383356Y-124692271D01*
X157425756Y-124755724D01*
X157744834Y-124794245D01*
X158714079Y-123825000D01*
X157744834Y-122855755D01*
X157425756Y-122894276D01*
X157344356Y-123078390D01*
X157341146Y-123070620D01*
X156966353Y-122695173D01*
X156946600Y-122686970D01*
X156946600Y-117145110D01*
X163080855Y-111010855D01*
X163093400Y-110992080D01*
X163093400Y-112395000D01*
X163149470Y-112676885D01*
X163309145Y-112915855D01*
X164015026Y-113621736D01*
X163681163Y-113759686D01*
X163291056Y-114149113D01*
X163079671Y-114658184D01*
X163079190Y-115209398D01*
X163289686Y-115718837D01*
X163615704Y-116045425D01*
X163569987Y-116063085D01*
X163503067Y-116107800D01*
X163458209Y-116432288D01*
X164465000Y-117439079D01*
X164479142Y-117424936D01*
X164515063Y-117460857D01*
X164500921Y-117475000D01*
X164515063Y-117489142D01*
X164479142Y-117525063D01*
X164465000Y-117510921D01*
X164429079Y-117546842D01*
X164429079Y-117475000D01*
X163422288Y-116468209D01*
X163097800Y-116513067D01*
X162833756Y-117109494D01*
X162818054Y-117761567D01*
X163053085Y-118370013D01*
X163097800Y-118436933D01*
X163422288Y-118481791D01*
X164429079Y-117475000D01*
X164429079Y-117546842D01*
X163458209Y-118517712D01*
X163503067Y-118842200D01*
X164099494Y-119106244D01*
X164751567Y-119121946D01*
X165360013Y-118886915D01*
X165426933Y-118842200D01*
X165471790Y-118517714D01*
X165471791Y-118517715D01*
X165627343Y-118673267D01*
X165633400Y-118667210D01*
X165633400Y-120650000D01*
X165689470Y-120931885D01*
X165849145Y-121170855D01*
X166903400Y-122225110D01*
X166903400Y-122602594D01*
X166903400Y-122602594D01*
G37*
X166903400Y-122602594D02*
X166636413Y-122491732D01*
X166105914Y-122491269D01*
X165615620Y-122693854D01*
X165471791Y-122837432D01*
X165240173Y-123068647D01*
X165099906Y-123406446D01*
X164961146Y-123070620D01*
X164586353Y-122695173D01*
X164125082Y-122503636D01*
X162638046Y-121016600D01*
X162675329Y-120926816D01*
X162675810Y-120375602D01*
X162465314Y-119866163D01*
X162075887Y-119476056D01*
X161566816Y-119264671D01*
X161015602Y-119264190D01*
X160506163Y-119474686D01*
X160179574Y-119800704D01*
X160161915Y-119754987D01*
X160117200Y-119688067D01*
X159792712Y-119643209D01*
X159756791Y-119679130D01*
X159756791Y-119607288D01*
X159711933Y-119282800D01*
X159115506Y-119018756D01*
X158463433Y-119003054D01*
X157854987Y-119238085D01*
X157788067Y-119282800D01*
X157743209Y-119607288D01*
X158750000Y-120614079D01*
X159756791Y-119607288D01*
X159756791Y-119679130D01*
X158785921Y-120650000D01*
X159792712Y-121656791D01*
X160117200Y-121611933D01*
X160171048Y-121490298D01*
X160192014Y-121511300D01*
X160234006Y-121722407D01*
X160481777Y-122093223D01*
X160922537Y-122533983D01*
X160535620Y-122693854D01*
X160160173Y-123068647D01*
X160159851Y-123069420D01*
X160116644Y-122957729D01*
X160074244Y-122894276D01*
X159756791Y-122855951D01*
X159756791Y-121692712D01*
X158750000Y-120685921D01*
X158714079Y-120721842D01*
X158714079Y-120650000D01*
X157707288Y-119643209D01*
X157382800Y-119688067D01*
X157118756Y-120284494D01*
X157103054Y-120936567D01*
X157338085Y-121545013D01*
X157382800Y-121611933D01*
X157707288Y-121656791D01*
X158714079Y-120650000D01*
X158714079Y-120721842D01*
X157743209Y-121692712D01*
X157788067Y-122017200D01*
X158364004Y-122272173D01*
X157882729Y-122458356D01*
X157819276Y-122500756D01*
X157780755Y-122819834D01*
X158750000Y-123789079D01*
X159719245Y-122819834D01*
X159680724Y-122500756D01*
X159134323Y-122259184D01*
X159645013Y-122061915D01*
X159711933Y-122017200D01*
X159756791Y-121692712D01*
X159756791Y-122855951D01*
X159755166Y-122855755D01*
X158785921Y-123825000D01*
X159755166Y-124794245D01*
X160074244Y-124755724D01*
X160155643Y-124571609D01*
X160158854Y-124579380D01*
X160533647Y-124954827D01*
X161023587Y-125158268D01*
X161554086Y-125158731D01*
X162044380Y-124956146D01*
X162419827Y-124581353D01*
X162560093Y-124243553D01*
X162687000Y-124550691D01*
X162687000Y-125256554D01*
X159719245Y-128224309D01*
X159719245Y-124830166D01*
X158750000Y-123860921D01*
X157780755Y-124830166D01*
X157819276Y-125149244D01*
X158396890Y-125404615D01*
X159028261Y-125419504D01*
X159617271Y-125191644D01*
X159680724Y-125149244D01*
X159719245Y-124830166D01*
X159719245Y-128224309D01*
X157941777Y-130001777D01*
X157694006Y-130372593D01*
X157633855Y-130674988D01*
X157620173Y-130688647D01*
X157479906Y-131026446D01*
X157341146Y-130690620D01*
X156966353Y-130315173D01*
X156476413Y-130111732D01*
X155945914Y-130111269D01*
X155676600Y-130222547D01*
X155676600Y-127789997D01*
X155854622Y-127612286D01*
X156019313Y-127215668D01*
X156019687Y-126786216D01*
X155855689Y-126389311D01*
X155552286Y-126085378D01*
X155461332Y-126047610D01*
X155550689Y-126010689D01*
X155854622Y-125707286D01*
X156019313Y-125310668D01*
X156019445Y-125158334D01*
X156474086Y-125158731D01*
X156964380Y-124956146D01*
X157339827Y-124581353D01*
X157340148Y-124580579D01*
X157383356Y-124692271D01*
X157425756Y-124755724D01*
X157744834Y-124794245D01*
X158714079Y-123825000D01*
X157744834Y-122855755D01*
X157425756Y-122894276D01*
X157344356Y-123078390D01*
X157341146Y-123070620D01*
X156966353Y-122695173D01*
X156946600Y-122686970D01*
X156946600Y-117145110D01*
X163080855Y-111010855D01*
X163093400Y-110992080D01*
X163093400Y-112395000D01*
X163149470Y-112676885D01*
X163309145Y-112915855D01*
X164015026Y-113621736D01*
X163681163Y-113759686D01*
X163291056Y-114149113D01*
X163079671Y-114658184D01*
X163079190Y-115209398D01*
X163289686Y-115718837D01*
X163615704Y-116045425D01*
X163569987Y-116063085D01*
X163503067Y-116107800D01*
X163458209Y-116432288D01*
X164465000Y-117439079D01*
X164479142Y-117424936D01*
X164515063Y-117460857D01*
X164500921Y-117475000D01*
X164515063Y-117489142D01*
X164479142Y-117525063D01*
X164465000Y-117510921D01*
X164429079Y-117546842D01*
X164429079Y-117475000D01*
X163422288Y-116468209D01*
X163097800Y-116513067D01*
X162833756Y-117109494D01*
X162818054Y-117761567D01*
X163053085Y-118370013D01*
X163097800Y-118436933D01*
X163422288Y-118481791D01*
X164429079Y-117475000D01*
X164429079Y-117546842D01*
X163458209Y-118517712D01*
X163503067Y-118842200D01*
X164099494Y-119106244D01*
X164751567Y-119121946D01*
X165360013Y-118886915D01*
X165426933Y-118842200D01*
X165471790Y-118517714D01*
X165471791Y-118517715D01*
X165627343Y-118673267D01*
X165633400Y-118667210D01*
X165633400Y-120650000D01*
X165689470Y-120931885D01*
X165849145Y-121170855D01*
X166903400Y-122225110D01*
X166903400Y-122602594D01*
G36*
X176694645Y-125158644D02*
X176009145Y-125844145D01*
X175849470Y-126083115D01*
X175793400Y-126365000D01*
X175793400Y-130306507D01*
X175775620Y-130313854D01*
X175400173Y-130688647D01*
X175259906Y-131026446D01*
X175121146Y-130690620D01*
X174746353Y-130315173D01*
X174256413Y-130111732D01*
X173725914Y-130111269D01*
X173235620Y-130313854D01*
X172860173Y-130688647D01*
X172719906Y-131026446D01*
X172581146Y-130690620D01*
X172206353Y-130315173D01*
X171716413Y-130111732D01*
X171185914Y-130111269D01*
X171166146Y-130119436D01*
X168376600Y-127329890D01*
X168376600Y-125047405D01*
X168643587Y-125158268D01*
X169174086Y-125158731D01*
X169664380Y-124956146D01*
X170039827Y-124581353D01*
X170180093Y-124243553D01*
X170318854Y-124579380D01*
X170693647Y-124954827D01*
X171183587Y-125158268D01*
X171714086Y-125158731D01*
X172204380Y-124956146D01*
X172579827Y-124581353D01*
X172720093Y-124243553D01*
X172858854Y-124579380D01*
X173233647Y-124954827D01*
X173723587Y-125158268D01*
X174254086Y-125158731D01*
X174744380Y-124956146D01*
X175119827Y-124581353D01*
X175260093Y-124243553D01*
X175398854Y-124579380D01*
X175773647Y-124954827D01*
X176263587Y-125158268D01*
X176694645Y-125158644D01*
X176694645Y-125158644D01*
G37*
X176694645Y-125158644D02*
X176009145Y-125844145D01*
X175849470Y-126083115D01*
X175793400Y-126365000D01*
X175793400Y-130306507D01*
X175775620Y-130313854D01*
X175400173Y-130688647D01*
X175259906Y-131026446D01*
X175121146Y-130690620D01*
X174746353Y-130315173D01*
X174256413Y-130111732D01*
X173725914Y-130111269D01*
X173235620Y-130313854D01*
X172860173Y-130688647D01*
X172719906Y-131026446D01*
X172581146Y-130690620D01*
X172206353Y-130315173D01*
X171716413Y-130111732D01*
X171185914Y-130111269D01*
X171166146Y-130119436D01*
X168376600Y-127329890D01*
X168376600Y-125047405D01*
X168643587Y-125158268D01*
X169174086Y-125158731D01*
X169664380Y-124956146D01*
X170039827Y-124581353D01*
X170180093Y-124243553D01*
X170318854Y-124579380D01*
X170693647Y-124954827D01*
X171183587Y-125158268D01*
X171714086Y-125158731D01*
X172204380Y-124956146D01*
X172579827Y-124581353D01*
X172720093Y-124243553D01*
X172858854Y-124579380D01*
X173233647Y-124954827D01*
X173723587Y-125158268D01*
X174254086Y-125158731D01*
X174744380Y-124956146D01*
X175119827Y-124581353D01*
X175260093Y-124243553D01*
X175398854Y-124579380D01*
X175773647Y-124954827D01*
X176263587Y-125158268D01*
X176694645Y-125158644D01*
G36*
X182925400Y-143535400D02*
X182905400Y-143535400D01*
X182905400Y-143555400D01*
X182854600Y-143555400D01*
X182854600Y-143535400D01*
X182834600Y-143535400D01*
X182834600Y-143484600D01*
X182854600Y-143484600D01*
X182854600Y-143464600D01*
X182905400Y-143464600D01*
X182905400Y-143484600D01*
X182925400Y-143484600D01*
X182925400Y-143535400D01*
X182925400Y-143535400D01*
G37*
X182925400Y-143535400D02*
X182905400Y-143535400D01*
X182905400Y-143555400D01*
X182854600Y-143555400D01*
X182854600Y-143535400D01*
X182834600Y-143535400D01*
X182834600Y-143484600D01*
X182854600Y-143484600D01*
X182854600Y-143464600D01*
X182905400Y-143464600D01*
X182905400Y-143484600D01*
X182925400Y-143484600D01*
X182925400Y-143535400D01*
G36*
X184200063Y-120029142D02*
X184164142Y-120065063D01*
X184150000Y-120050921D01*
X184135857Y-120065063D01*
X184099936Y-120029142D01*
X184114079Y-120015000D01*
X184099936Y-120000857D01*
X184135857Y-119964936D01*
X184150000Y-119979079D01*
X184164142Y-119964936D01*
X184200063Y-120000857D01*
X184185921Y-120015000D01*
X184200063Y-120029142D01*
X184200063Y-120029142D01*
G37*
X184200063Y-120029142D02*
X184164142Y-120065063D01*
X184150000Y-120050921D01*
X184135857Y-120065063D01*
X184099936Y-120029142D01*
X184114079Y-120015000D01*
X184099936Y-120000857D01*
X184135857Y-119964936D01*
X184150000Y-119979079D01*
X184164142Y-119964936D01*
X184200063Y-120000857D01*
X184185921Y-120015000D01*
X184200063Y-120029142D01*
G36*
X199263000Y-149098000D02*
X198912318Y-149098000D01*
X198912318Y-144354633D01*
X198912318Y-104354633D01*
X198367539Y-102906579D01*
X198222770Y-102689917D01*
X197664558Y-102371363D01*
X197628637Y-102407284D01*
X197628637Y-102335442D01*
X197310083Y-101777230D01*
X195900937Y-101138518D01*
X194354633Y-101087682D01*
X192906579Y-101632461D01*
X192689917Y-101777230D01*
X192371363Y-102335442D01*
X195000000Y-104964079D01*
X197628637Y-102335442D01*
X197628637Y-102407284D01*
X195035921Y-105000000D01*
X197664558Y-107628637D01*
X198222770Y-107310083D01*
X198861482Y-105900937D01*
X198912318Y-104354633D01*
X198912318Y-144354633D01*
X198367539Y-142906579D01*
X198222770Y-142689917D01*
X198103490Y-142621847D01*
X198103490Y-123655123D01*
X198103490Y-122726450D01*
X198103490Y-122231150D01*
X198103490Y-121302477D01*
X197968148Y-120975732D01*
X197718068Y-120725652D01*
X197628637Y-120688608D01*
X197628637Y-107664558D01*
X195000000Y-105035921D01*
X194964079Y-105071842D01*
X194964079Y-105000000D01*
X192335442Y-102371363D01*
X191777230Y-102689917D01*
X191138518Y-104099063D01*
X191087682Y-105645367D01*
X191632461Y-107093421D01*
X191777230Y-107310083D01*
X192335442Y-107628637D01*
X194964079Y-105000000D01*
X194964079Y-105071842D01*
X192371363Y-107664558D01*
X192689917Y-108222770D01*
X194099063Y-108861482D01*
X195645367Y-108912318D01*
X197093421Y-108367539D01*
X197310083Y-108222770D01*
X197628637Y-107664558D01*
X197628637Y-120688608D01*
X197391323Y-120590310D01*
X197037657Y-120590310D01*
X196462650Y-120590310D01*
X196240400Y-120812560D01*
X196240400Y-122453400D01*
X197881240Y-122453400D01*
X198103490Y-122231150D01*
X198103490Y-122726450D01*
X197881240Y-122504200D01*
X196240400Y-122504200D01*
X196240400Y-124145040D01*
X196462650Y-124367290D01*
X197037657Y-124367290D01*
X197391323Y-124367290D01*
X197718068Y-124231948D01*
X197968148Y-123981868D01*
X198103490Y-123655123D01*
X198103490Y-142621847D01*
X197849774Y-142477059D01*
X197849774Y-128657506D01*
X197601462Y-128056545D01*
X197142073Y-127596354D01*
X196541547Y-127346994D01*
X196189600Y-127346686D01*
X196189600Y-124145040D01*
X196189600Y-122504200D01*
X196189600Y-122453400D01*
X196189600Y-120812560D01*
X195967350Y-120590310D01*
X195392343Y-120590310D01*
X195038677Y-120590310D01*
X194711932Y-120725652D01*
X194461852Y-120975732D01*
X194326510Y-121302477D01*
X194326510Y-122231150D01*
X194548760Y-122453400D01*
X196189600Y-122453400D01*
X196189600Y-122504200D01*
X194548760Y-122504200D01*
X194326510Y-122726450D01*
X194326510Y-123655123D01*
X194461852Y-123981868D01*
X194711932Y-124231948D01*
X195038677Y-124367290D01*
X195392343Y-124367290D01*
X195967350Y-124367290D01*
X196189600Y-124145040D01*
X196189600Y-127346686D01*
X195891306Y-127346426D01*
X195290345Y-127594738D01*
X194830154Y-128054127D01*
X194580794Y-128654653D01*
X194580226Y-129304894D01*
X194828538Y-129905855D01*
X195287927Y-130366046D01*
X195888453Y-130615406D01*
X196538694Y-130615974D01*
X197139655Y-130367662D01*
X197599846Y-129908273D01*
X197849206Y-129307747D01*
X197849774Y-128657506D01*
X197849774Y-142477059D01*
X197664558Y-142371363D01*
X197628637Y-142407284D01*
X197628637Y-142335442D01*
X197310083Y-141777230D01*
X195900937Y-141138518D01*
X194354633Y-141087682D01*
X192906579Y-141632461D01*
X192769774Y-141723871D01*
X192769774Y-132391306D01*
X192769774Y-122231306D01*
X192521462Y-121630345D01*
X192062073Y-121170154D01*
X191461547Y-120920794D01*
X190811306Y-120920226D01*
X190210345Y-121168538D01*
X189750154Y-121627927D01*
X189500794Y-122228453D01*
X189500226Y-122878694D01*
X189748538Y-123479655D01*
X190207927Y-123939846D01*
X190808453Y-124189206D01*
X191458694Y-124189774D01*
X192059655Y-123941462D01*
X192519846Y-123482073D01*
X192769206Y-122881547D01*
X192769774Y-122231306D01*
X192769774Y-132391306D01*
X192521462Y-131790345D01*
X192062073Y-131330154D01*
X191461547Y-131080794D01*
X190811306Y-131080226D01*
X190210345Y-131328538D01*
X189750154Y-131787927D01*
X189500794Y-132388453D01*
X189500226Y-133038694D01*
X189748538Y-133639655D01*
X190207927Y-134099846D01*
X190808453Y-134349206D01*
X191458694Y-134349774D01*
X192059655Y-134101462D01*
X192519846Y-133642073D01*
X192769206Y-133041547D01*
X192769774Y-132391306D01*
X192769774Y-141723871D01*
X192689917Y-141777230D01*
X192371363Y-142335442D01*
X195000000Y-144964079D01*
X197628637Y-142335442D01*
X197628637Y-142407284D01*
X195035921Y-145000000D01*
X197664558Y-147628637D01*
X198222770Y-147310083D01*
X198861482Y-145900937D01*
X198912318Y-144354633D01*
X198912318Y-149098000D01*
X197628637Y-149098000D01*
X197628637Y-147664558D01*
X195000000Y-145035921D01*
X194964079Y-145071842D01*
X194964079Y-145000000D01*
X192335442Y-142371363D01*
X191777230Y-142689917D01*
X191138518Y-144099063D01*
X191087682Y-145645367D01*
X191632461Y-147093421D01*
X191777230Y-147310083D01*
X192335442Y-147628637D01*
X194964079Y-145000000D01*
X194964079Y-145071842D01*
X192371363Y-147664558D01*
X192689917Y-148222770D01*
X194099063Y-148861482D01*
X195645367Y-148912318D01*
X197093421Y-148367539D01*
X197310083Y-148222770D01*
X197628637Y-147664558D01*
X197628637Y-149098000D01*
X137134600Y-149098000D01*
X137134600Y-147580350D01*
X137134600Y-146075400D01*
X137134600Y-146024600D01*
X137134600Y-145040168D01*
X137134600Y-144519650D01*
X137134600Y-143535400D01*
X137134600Y-143484600D01*
X137134600Y-141979832D01*
X136860774Y-141783131D01*
X136222707Y-142029090D01*
X135727334Y-142500504D01*
X135450072Y-143125605D01*
X135433133Y-143210774D01*
X135629861Y-143484600D01*
X137134600Y-143484600D01*
X137134600Y-143535400D01*
X135629861Y-143535400D01*
X135433133Y-143809226D01*
X135450072Y-143894395D01*
X135720799Y-144504764D01*
X135542742Y-144682822D01*
X135407400Y-145009567D01*
X135407400Y-145363233D01*
X135407400Y-145802350D01*
X135629650Y-146024600D01*
X137134600Y-146024600D01*
X137134600Y-146075400D01*
X135629650Y-146075400D01*
X135407400Y-146297650D01*
X135407400Y-146736767D01*
X135407400Y-147090433D01*
X135542742Y-147417178D01*
X135792822Y-147667258D01*
X136119567Y-147802600D01*
X136912350Y-147802600D01*
X137134600Y-147580350D01*
X137134600Y-149098000D01*
X127533709Y-149098000D01*
X135775855Y-140855855D01*
X135935530Y-140616885D01*
X135991600Y-140335000D01*
X135991600Y-138624164D01*
X136179655Y-138546462D01*
X136547724Y-138179034D01*
X136639145Y-138315855D01*
X137693400Y-139370110D01*
X137693400Y-141873399D01*
X137459226Y-141783131D01*
X137185400Y-141979832D01*
X137185400Y-143484600D01*
X137205400Y-143484600D01*
X137205400Y-143535400D01*
X137185400Y-143535400D01*
X137185400Y-144519650D01*
X137185400Y-145040168D01*
X137185400Y-146024600D01*
X137205400Y-146024600D01*
X137205400Y-146075400D01*
X137185400Y-146075400D01*
X137185400Y-147580350D01*
X137407650Y-147802600D01*
X138200433Y-147802600D01*
X138527178Y-147667258D01*
X138777258Y-147417178D01*
X138840974Y-147263353D01*
X139097152Y-147434526D01*
X139670641Y-147548600D01*
X139729359Y-147548600D01*
X140302848Y-147434526D01*
X140789029Y-147109670D01*
X140970000Y-146838827D01*
X141150971Y-147109670D01*
X141637152Y-147434526D01*
X142210641Y-147548600D01*
X142269359Y-147548600D01*
X142842848Y-147434526D01*
X143329029Y-147109670D01*
X143510000Y-146838827D01*
X143690971Y-147109670D01*
X144177152Y-147434526D01*
X144750641Y-147548600D01*
X144809359Y-147548600D01*
X145382848Y-147434526D01*
X145869029Y-147109670D01*
X145896638Y-147068350D01*
X146382707Y-147530910D01*
X147020774Y-147776869D01*
X147294600Y-147580168D01*
X147294600Y-146075400D01*
X147274600Y-146075400D01*
X147274600Y-146024600D01*
X147294600Y-146024600D01*
X147294600Y-145040168D01*
X147294600Y-144519832D01*
X147294600Y-143535400D01*
X147294600Y-143484600D01*
X147294600Y-141979832D01*
X147020774Y-141783131D01*
X146382707Y-142029090D01*
X146050000Y-142345705D01*
X145717293Y-142029090D01*
X145079226Y-141783131D01*
X144805400Y-141979832D01*
X144805400Y-143484600D01*
X145789861Y-143484600D01*
X146310139Y-143484600D01*
X147294600Y-143484600D01*
X147294600Y-143535400D01*
X146310139Y-143535400D01*
X145789861Y-143535400D01*
X144805400Y-143535400D01*
X144805400Y-143555400D01*
X144754600Y-143555400D01*
X144754600Y-143535400D01*
X144734600Y-143535400D01*
X144734600Y-143484600D01*
X144754600Y-143484600D01*
X144754600Y-141979832D01*
X144480774Y-141783131D01*
X144246600Y-141873399D01*
X144246600Y-139370110D01*
X147840855Y-135775855D01*
X148000530Y-135536885D01*
X148000530Y-135536884D01*
X148056600Y-135255000D01*
X148056600Y-133852080D01*
X148069145Y-133870855D01*
X148488400Y-134290110D01*
X148488400Y-135695835D01*
X148300345Y-135773538D01*
X147840154Y-136232927D01*
X147590794Y-136833453D01*
X147590226Y-137483694D01*
X147838538Y-138084655D01*
X148297927Y-138544846D01*
X148898453Y-138794206D01*
X149548694Y-138794774D01*
X150149655Y-138546462D01*
X150609846Y-138087073D01*
X150859206Y-137486547D01*
X150859774Y-136836306D01*
X150736675Y-136538385D01*
X151028400Y-136830110D01*
X151028400Y-141299890D01*
X150609145Y-141719145D01*
X150482997Y-141907937D01*
X150159226Y-141783131D01*
X149885400Y-141979832D01*
X149885400Y-143484600D01*
X149905400Y-143484600D01*
X149905400Y-143535400D01*
X149885400Y-143535400D01*
X149885400Y-143555400D01*
X149834600Y-143555400D01*
X149834600Y-143535400D01*
X149834600Y-143484600D01*
X149834600Y-141979832D01*
X149560774Y-141783131D01*
X148922707Y-142029090D01*
X148590000Y-142345705D01*
X148257293Y-142029090D01*
X147619226Y-141783131D01*
X147345400Y-141979832D01*
X147345400Y-143484600D01*
X148329861Y-143484600D01*
X148850139Y-143484600D01*
X149834600Y-143484600D01*
X149834600Y-143535400D01*
X148850139Y-143535400D01*
X148329861Y-143535400D01*
X147345400Y-143535400D01*
X147345400Y-144519832D01*
X147345400Y-145040168D01*
X147345400Y-146024600D01*
X147365400Y-146024600D01*
X147365400Y-146075400D01*
X147345400Y-146075400D01*
X147345400Y-147580168D01*
X147619226Y-147776869D01*
X148257293Y-147530910D01*
X148743361Y-147068350D01*
X148770971Y-147109670D01*
X149257152Y-147434526D01*
X149830641Y-147548600D01*
X149889359Y-147548600D01*
X150462848Y-147434526D01*
X150949029Y-147109670D01*
X151130000Y-146838827D01*
X151310971Y-147109670D01*
X151797152Y-147434526D01*
X152370641Y-147548600D01*
X152429359Y-147548600D01*
X153002848Y-147434526D01*
X153489029Y-147109670D01*
X153670000Y-146838827D01*
X153850971Y-147109670D01*
X154337152Y-147434526D01*
X154910641Y-147548600D01*
X154969359Y-147548600D01*
X155542848Y-147434526D01*
X156029029Y-147109670D01*
X156056638Y-147068350D01*
X156542707Y-147530910D01*
X157180774Y-147776869D01*
X157454600Y-147580168D01*
X157454600Y-146075400D01*
X157434600Y-146075400D01*
X157434600Y-146024600D01*
X157454600Y-146024600D01*
X157454600Y-145040168D01*
X157454600Y-144519832D01*
X157454600Y-143535400D01*
X156470139Y-143535400D01*
X155949861Y-143535400D01*
X154965400Y-143535400D01*
X154965400Y-143555400D01*
X154914600Y-143555400D01*
X154914600Y-143535400D01*
X154894600Y-143535400D01*
X154894600Y-143484600D01*
X154914600Y-143484600D01*
X154914600Y-141979832D01*
X154640774Y-141783131D01*
X154406600Y-141873399D01*
X154406600Y-139567080D01*
X154419145Y-139585855D01*
X156773438Y-141940148D01*
X156542707Y-142029090D01*
X156210000Y-142345705D01*
X155877293Y-142029090D01*
X155239226Y-141783131D01*
X154965400Y-141979832D01*
X154965400Y-143484600D01*
X155949861Y-143484600D01*
X156470139Y-143484600D01*
X157454600Y-143484600D01*
X157454600Y-143464600D01*
X157505400Y-143464600D01*
X157505400Y-143484600D01*
X157525400Y-143484600D01*
X157525400Y-143535400D01*
X157505400Y-143535400D01*
X157505400Y-144519832D01*
X157505400Y-145040168D01*
X157505400Y-146024600D01*
X157525400Y-146024600D01*
X157525400Y-146075400D01*
X157505400Y-146075400D01*
X157505400Y-147580168D01*
X157779226Y-147776869D01*
X158417293Y-147530910D01*
X158903361Y-147068350D01*
X158930971Y-147109670D01*
X159417152Y-147434526D01*
X159990641Y-147548600D01*
X160049359Y-147548600D01*
X160622848Y-147434526D01*
X161109029Y-147109670D01*
X161290000Y-146838827D01*
X161470971Y-147109670D01*
X161957152Y-147434526D01*
X162530641Y-147548600D01*
X162589359Y-147548600D01*
X163162848Y-147434526D01*
X163649029Y-147109670D01*
X163830000Y-146838827D01*
X164010971Y-147109670D01*
X164497152Y-147434526D01*
X165070641Y-147548600D01*
X165129359Y-147548600D01*
X165702848Y-147434526D01*
X166189029Y-147109670D01*
X166216638Y-147068350D01*
X166702707Y-147530910D01*
X167340774Y-147776869D01*
X167614600Y-147580168D01*
X167614600Y-146075400D01*
X167594600Y-146075400D01*
X167594600Y-146024600D01*
X167614600Y-146024600D01*
X167614600Y-145040168D01*
X167614600Y-144519832D01*
X167614600Y-143535400D01*
X166630139Y-143535400D01*
X166109861Y-143535400D01*
X165125400Y-143535400D01*
X165125400Y-143555400D01*
X165074600Y-143555400D01*
X165074600Y-143535400D01*
X164090139Y-143535400D01*
X163569861Y-143535400D01*
X162585400Y-143535400D01*
X162585400Y-143555400D01*
X162534600Y-143555400D01*
X162534600Y-143535400D01*
X161550139Y-143535400D01*
X161029861Y-143535400D01*
X160045400Y-143535400D01*
X160045400Y-143555400D01*
X159994600Y-143555400D01*
X159994600Y-143535400D01*
X159974600Y-143535400D01*
X159974600Y-143484600D01*
X159994600Y-143484600D01*
X159994600Y-143464600D01*
X160045400Y-143464600D01*
X160045400Y-143484600D01*
X161029861Y-143484600D01*
X161550139Y-143484600D01*
X162534600Y-143484600D01*
X162534600Y-143464600D01*
X162585400Y-143464600D01*
X162585400Y-143484600D01*
X163569861Y-143484600D01*
X164090139Y-143484600D01*
X165074600Y-143484600D01*
X165074600Y-143464600D01*
X165125400Y-143464600D01*
X165125400Y-143484600D01*
X166109861Y-143484600D01*
X166630139Y-143484600D01*
X167614600Y-143484600D01*
X167614600Y-143464600D01*
X167665400Y-143464600D01*
X167665400Y-143484600D01*
X168649861Y-143484600D01*
X169170139Y-143484600D01*
X170154600Y-143484600D01*
X170154600Y-143464600D01*
X170205400Y-143464600D01*
X170205400Y-143484600D01*
X170225400Y-143484600D01*
X170225400Y-143535400D01*
X170205400Y-143535400D01*
X170205400Y-143555400D01*
X170154600Y-143555400D01*
X170154600Y-143535400D01*
X169170139Y-143535400D01*
X168649861Y-143535400D01*
X167665400Y-143535400D01*
X167665400Y-144519832D01*
X167665400Y-145040168D01*
X167665400Y-146024600D01*
X167685400Y-146024600D01*
X167685400Y-146075400D01*
X167665400Y-146075400D01*
X167665400Y-147580168D01*
X167939226Y-147776869D01*
X168577293Y-147530910D01*
X169063361Y-147068350D01*
X169090971Y-147109670D01*
X169577152Y-147434526D01*
X170150641Y-147548600D01*
X170209359Y-147548600D01*
X170782848Y-147434526D01*
X171269029Y-147109670D01*
X171450000Y-146838827D01*
X171630971Y-147109670D01*
X172117152Y-147434526D01*
X172690641Y-147548600D01*
X172749359Y-147548600D01*
X173322848Y-147434526D01*
X173809029Y-147109670D01*
X173990000Y-146838827D01*
X174170971Y-147109670D01*
X174657152Y-147434526D01*
X175230641Y-147548600D01*
X175289359Y-147548600D01*
X175862848Y-147434526D01*
X176349029Y-147109670D01*
X176376638Y-147068350D01*
X176862707Y-147530910D01*
X177500774Y-147776869D01*
X177774600Y-147580168D01*
X177774600Y-146075400D01*
X177754600Y-146075400D01*
X177754600Y-146024600D01*
X177774600Y-146024600D01*
X177774600Y-145040168D01*
X177774600Y-144519832D01*
X177774600Y-143535400D01*
X176790139Y-143535400D01*
X176269861Y-143535400D01*
X175285400Y-143535400D01*
X175285400Y-143555400D01*
X175234600Y-143555400D01*
X175234600Y-143535400D01*
X174250139Y-143535400D01*
X173729861Y-143535400D01*
X172745400Y-143535400D01*
X172745400Y-143555400D01*
X172694600Y-143555400D01*
X172694600Y-143535400D01*
X172674600Y-143535400D01*
X172674600Y-143484600D01*
X172694600Y-143484600D01*
X172694600Y-141979832D01*
X172420774Y-141783131D01*
X171782707Y-142029090D01*
X171712557Y-142095847D01*
X170700855Y-141084145D01*
X170461885Y-140924470D01*
X170180000Y-140868400D01*
X162936946Y-140868400D01*
X162936946Y-134333433D01*
X162701915Y-133724987D01*
X162657200Y-133658067D01*
X162332712Y-133613209D01*
X162296791Y-133649130D01*
X162296791Y-133577288D01*
X162251933Y-133252800D01*
X161675995Y-132997826D01*
X162157271Y-132811644D01*
X162220724Y-132769244D01*
X162259245Y-132450166D01*
X161290000Y-131480921D01*
X160320755Y-132450166D01*
X160359276Y-132769244D01*
X160905676Y-133010815D01*
X160394987Y-133208085D01*
X160328067Y-133252800D01*
X160283209Y-133577288D01*
X161290000Y-134584079D01*
X162296791Y-133577288D01*
X162296791Y-133649130D01*
X161325921Y-134620000D01*
X162332712Y-135626791D01*
X162657200Y-135581933D01*
X162921244Y-134985506D01*
X162936946Y-134333433D01*
X162936946Y-140868400D01*
X162675810Y-140868400D01*
X162675810Y-137520602D01*
X162465314Y-137011163D01*
X162296791Y-136842345D01*
X162296791Y-135662712D01*
X161290000Y-134655921D01*
X160283209Y-135662712D01*
X160328067Y-135987200D01*
X160924494Y-136251244D01*
X161576567Y-136266946D01*
X162185013Y-136031915D01*
X162251933Y-135987200D01*
X162296791Y-135662712D01*
X162296791Y-136842345D01*
X162075887Y-136621056D01*
X161566816Y-136409671D01*
X161015602Y-136409190D01*
X160506163Y-136619686D01*
X160179574Y-136945704D01*
X160161915Y-136899987D01*
X160117200Y-136833067D01*
X159792712Y-136788209D01*
X159756791Y-136824130D01*
X159756791Y-136752288D01*
X159711933Y-136427800D01*
X159115506Y-136163756D01*
X158463433Y-136148054D01*
X157854987Y-136383085D01*
X157788067Y-136427800D01*
X157743209Y-136752288D01*
X158750000Y-137759079D01*
X159756791Y-136752288D01*
X159756791Y-136824130D01*
X158785921Y-137795000D01*
X159792712Y-138801791D01*
X160117200Y-138756933D01*
X160171048Y-138635298D01*
X160504113Y-138968944D01*
X161013184Y-139180329D01*
X161564398Y-139180810D01*
X162073837Y-138970314D01*
X162463944Y-138580887D01*
X162675329Y-138071816D01*
X162675810Y-137520602D01*
X162675810Y-140868400D01*
X160325110Y-140868400D01*
X158895253Y-139438543D01*
X159036567Y-139441946D01*
X159645013Y-139206915D01*
X159711933Y-139162200D01*
X159756791Y-138837712D01*
X158750000Y-137830921D01*
X158735857Y-137845063D01*
X158699936Y-137809142D01*
X158714079Y-137795000D01*
X157707288Y-136788209D01*
X157382800Y-136833067D01*
X157118756Y-137429494D01*
X157113287Y-137656577D01*
X156946600Y-137489890D01*
X156946600Y-132583492D01*
X156964380Y-132576146D01*
X157339827Y-132201353D01*
X157480093Y-131863553D01*
X157607000Y-132170691D01*
X157607000Y-133803222D01*
X157576056Y-133834113D01*
X157364671Y-134343184D01*
X157364190Y-134894398D01*
X157574686Y-135403837D01*
X157964113Y-135793944D01*
X158473184Y-136005329D01*
X159024398Y-136005810D01*
X159533837Y-135795314D01*
X159860425Y-135469295D01*
X159878085Y-135515013D01*
X159922800Y-135581933D01*
X160247288Y-135626791D01*
X161254079Y-134620000D01*
X160247288Y-133613209D01*
X159922800Y-133658067D01*
X159893000Y-133725379D01*
X159893000Y-132233801D01*
X159923356Y-132312271D01*
X159965756Y-132375724D01*
X160284834Y-132414245D01*
X161254079Y-131445000D01*
X161239936Y-131430857D01*
X161275857Y-131394936D01*
X161290000Y-131409079D01*
X162259245Y-130439834D01*
X162220724Y-130120756D01*
X161643110Y-129865385D01*
X161318710Y-129857735D01*
X164638223Y-126538223D01*
X164885994Y-126167407D01*
X164973000Y-125730000D01*
X164973000Y-124549628D01*
X165100093Y-124243553D01*
X165238854Y-124579380D01*
X165613647Y-124954827D01*
X166103587Y-125158268D01*
X166634086Y-125158731D01*
X166903400Y-125047452D01*
X166903400Y-127635000D01*
X166959470Y-127916885D01*
X167119145Y-128155855D01*
X169074933Y-130111643D01*
X168645914Y-130111269D01*
X168155620Y-130313854D01*
X167780173Y-130688647D01*
X167639906Y-131026446D01*
X167501146Y-130690620D01*
X167126353Y-130315173D01*
X166636413Y-130111732D01*
X166105914Y-130111269D01*
X165615620Y-130313854D01*
X165240173Y-130688647D01*
X165099906Y-131026446D01*
X164961146Y-130690620D01*
X164586353Y-130315173D01*
X164096413Y-130111732D01*
X163565914Y-130111269D01*
X163075620Y-130313854D01*
X162700173Y-130688647D01*
X162699851Y-130689420D01*
X162656644Y-130577729D01*
X162614244Y-130514276D01*
X162295166Y-130475755D01*
X161325921Y-131445000D01*
X162295166Y-132414245D01*
X162614244Y-132375724D01*
X162695643Y-132191609D01*
X162698854Y-132199380D01*
X163073647Y-132574827D01*
X163093400Y-132583029D01*
X163093400Y-133885940D01*
X163149470Y-134167825D01*
X163309145Y-134406795D01*
X165103331Y-136200981D01*
X165083731Y-136248184D01*
X165083250Y-136799398D01*
X165293746Y-137308837D01*
X165683173Y-137698944D01*
X166192244Y-137910329D01*
X166743458Y-137910810D01*
X167252897Y-137700314D01*
X167643004Y-137310887D01*
X167854389Y-136801816D01*
X167854870Y-136250602D01*
X167644374Y-135741163D01*
X167254947Y-135351056D01*
X166745876Y-135139671D01*
X166194662Y-135139190D01*
X166145339Y-135159569D01*
X164566600Y-133580830D01*
X164566600Y-132583492D01*
X164584380Y-132576146D01*
X164959827Y-132201353D01*
X165100093Y-131863553D01*
X165238854Y-132199380D01*
X165613647Y-132574827D01*
X166103587Y-132778268D01*
X166562898Y-132778668D01*
X169985211Y-136200981D01*
X169965611Y-136248184D01*
X169965130Y-136799398D01*
X170175626Y-137308837D01*
X170565053Y-137698944D01*
X171074124Y-137910329D01*
X171625338Y-137910810D01*
X172134777Y-137700314D01*
X172524884Y-137310887D01*
X172736269Y-136801816D01*
X172736750Y-136250602D01*
X172526254Y-135741163D01*
X172136827Y-135351056D01*
X171627756Y-135139671D01*
X171076542Y-135139190D01*
X171027219Y-135159569D01*
X168645920Y-132778270D01*
X169174086Y-132778731D01*
X169664380Y-132576146D01*
X170039827Y-132201353D01*
X170180093Y-131863553D01*
X170318854Y-132199380D01*
X170693647Y-132574827D01*
X171183587Y-132778268D01*
X171714086Y-132778731D01*
X172204380Y-132576146D01*
X172579827Y-132201353D01*
X172720093Y-131863553D01*
X172858854Y-132199380D01*
X173233647Y-132574827D01*
X173723587Y-132778268D01*
X174254086Y-132778731D01*
X174273853Y-132770563D01*
X174523400Y-133020110D01*
X174523400Y-140180002D01*
X174345378Y-140357714D01*
X174180687Y-140754332D01*
X174180313Y-141183784D01*
X174344311Y-141580689D01*
X174647714Y-141884622D01*
X174671674Y-141894571D01*
X174322707Y-142029090D01*
X173990000Y-142345705D01*
X173657293Y-142029090D01*
X173019226Y-141783131D01*
X172745400Y-141979832D01*
X172745400Y-143484600D01*
X173729861Y-143484600D01*
X174250139Y-143484600D01*
X175234600Y-143484600D01*
X175234600Y-143464600D01*
X175285400Y-143464600D01*
X175285400Y-143484600D01*
X176269861Y-143484600D01*
X176790139Y-143484600D01*
X177774600Y-143484600D01*
X177774600Y-141979832D01*
X177500774Y-141783131D01*
X176862707Y-142029090D01*
X176530000Y-142345705D01*
X176197293Y-142029090D01*
X175848773Y-141894744D01*
X175870689Y-141885689D01*
X176174622Y-141582286D01*
X176339313Y-141185668D01*
X176339687Y-140756216D01*
X176175689Y-140359311D01*
X175996600Y-140179909D01*
X175996600Y-139073785D01*
X176253184Y-139180329D01*
X176804398Y-139180810D01*
X177313837Y-138970314D01*
X177703944Y-138580887D01*
X177915329Y-138071816D01*
X177915810Y-137520602D01*
X177705314Y-137011163D01*
X177379295Y-136684574D01*
X177425013Y-136666915D01*
X177491933Y-136622200D01*
X177536791Y-136297712D01*
X176530000Y-135290921D01*
X176515857Y-135305063D01*
X176479936Y-135269142D01*
X176494079Y-135255000D01*
X176479936Y-135240857D01*
X176515857Y-135204936D01*
X176530000Y-135219079D01*
X177536791Y-134212288D01*
X177491933Y-133887800D01*
X176895506Y-133623756D01*
X176243433Y-133608054D01*
X175996600Y-133703400D01*
X175996600Y-132715000D01*
X175986280Y-132663120D01*
X176263587Y-132778268D01*
X176794086Y-132778731D01*
X177284380Y-132576146D01*
X177659827Y-132201353D01*
X177863268Y-131711413D01*
X177863731Y-131180914D01*
X177661146Y-130690620D01*
X177286353Y-130315173D01*
X177266600Y-130306970D01*
X177266600Y-126670110D01*
X178320855Y-125615855D01*
X178480530Y-125376885D01*
X178536600Y-125095000D01*
X178536600Y-121237405D01*
X178803587Y-121348268D01*
X179334086Y-121348731D01*
X179603400Y-121237452D01*
X179603400Y-134620000D01*
X179659470Y-134901885D01*
X179819145Y-135140855D01*
X180873400Y-136195110D01*
X180873400Y-141873399D01*
X180639226Y-141783131D01*
X180365400Y-141979832D01*
X180365400Y-143484600D01*
X180385400Y-143484600D01*
X180385400Y-143535400D01*
X180365400Y-143535400D01*
X180365400Y-143555400D01*
X180314600Y-143555400D01*
X180314600Y-143535400D01*
X180314600Y-143484600D01*
X180314600Y-141979832D01*
X180040774Y-141783131D01*
X179402707Y-142029090D01*
X179070000Y-142345705D01*
X178737293Y-142029090D01*
X178176946Y-141813090D01*
X178176946Y-134968433D01*
X177941915Y-134359987D01*
X177897200Y-134293067D01*
X177572712Y-134248209D01*
X176565921Y-135255000D01*
X177572712Y-136261791D01*
X177897200Y-136216933D01*
X178161244Y-135620506D01*
X178176946Y-134968433D01*
X178176946Y-141813090D01*
X178099226Y-141783131D01*
X177825400Y-141979832D01*
X177825400Y-143484600D01*
X178809861Y-143484600D01*
X179330139Y-143484600D01*
X180314600Y-143484600D01*
X180314600Y-143535400D01*
X179330139Y-143535400D01*
X178809861Y-143535400D01*
X177825400Y-143535400D01*
X177825400Y-144519832D01*
X177825400Y-145040168D01*
X177825400Y-146024600D01*
X177845400Y-146024600D01*
X177845400Y-146075400D01*
X177825400Y-146075400D01*
X177825400Y-147580168D01*
X178099226Y-147776869D01*
X178737293Y-147530910D01*
X179223361Y-147068350D01*
X179250971Y-147109670D01*
X179737152Y-147434526D01*
X180310641Y-147548600D01*
X180369359Y-147548600D01*
X180942848Y-147434526D01*
X181429029Y-147109670D01*
X181610000Y-146838827D01*
X181790971Y-147109670D01*
X182277152Y-147434526D01*
X182850641Y-147548600D01*
X182909359Y-147548600D01*
X183482848Y-147434526D01*
X183969029Y-147109670D01*
X184150000Y-146838827D01*
X184330971Y-147109670D01*
X184817152Y-147434526D01*
X185390641Y-147548600D01*
X185449359Y-147548600D01*
X186022848Y-147434526D01*
X186509029Y-147109670D01*
X186833885Y-146623489D01*
X186947959Y-146050000D01*
X186833885Y-145476511D01*
X186509029Y-144990330D01*
X186420242Y-144931004D01*
X186852666Y-144519496D01*
X187129928Y-143894395D01*
X187146867Y-143809226D01*
X187146867Y-143210774D01*
X187129928Y-143125605D01*
X186852666Y-142500504D01*
X186357293Y-142029090D01*
X185719226Y-141783131D01*
X185445400Y-141979832D01*
X185445400Y-143484600D01*
X186950139Y-143484600D01*
X187146867Y-143210774D01*
X187146867Y-143809226D01*
X186950139Y-143535400D01*
X185445400Y-143535400D01*
X185445400Y-143555400D01*
X185394600Y-143555400D01*
X185394600Y-143535400D01*
X185374600Y-143535400D01*
X185374600Y-143484600D01*
X185394600Y-143484600D01*
X185394600Y-141979832D01*
X185120774Y-141783131D01*
X184886600Y-141873399D01*
X184886600Y-141759997D01*
X185064622Y-141582286D01*
X185229313Y-141185668D01*
X185229687Y-140756216D01*
X185065689Y-140359311D01*
X184762286Y-140055378D01*
X184365668Y-139890687D01*
X183936216Y-139890313D01*
X183616600Y-140022375D01*
X183616600Y-130677080D01*
X183629145Y-130695855D01*
X184899145Y-131965855D01*
X185138115Y-132125530D01*
X185420000Y-132181600D01*
X185749890Y-132181600D01*
X185768824Y-132200534D01*
X185690794Y-132388453D01*
X185690226Y-133038694D01*
X185938538Y-133639655D01*
X186397927Y-134099846D01*
X186998453Y-134349206D01*
X187648694Y-134349774D01*
X188249655Y-134101462D01*
X188709846Y-133642073D01*
X188959206Y-133041547D01*
X188959774Y-132391306D01*
X188711462Y-131790345D01*
X188252073Y-131330154D01*
X187651547Y-131080794D01*
X187001306Y-131080226D01*
X186810694Y-131158984D01*
X186575855Y-130924145D01*
X186336885Y-130764470D01*
X186055000Y-130708400D01*
X185725110Y-130708400D01*
X185015501Y-129998791D01*
X185323944Y-129690887D01*
X185535329Y-129181816D01*
X185535736Y-128714601D01*
X185633784Y-128714687D01*
X186030689Y-128550689D01*
X186334622Y-128247286D01*
X186499313Y-127850668D01*
X186499687Y-127421216D01*
X186335689Y-127024311D01*
X186156600Y-126844909D01*
X186156600Y-124171844D01*
X186199200Y-124189490D01*
X186451819Y-124189490D01*
X188450799Y-124189490D01*
X188684188Y-124092817D01*
X188862817Y-123914189D01*
X188959490Y-123680800D01*
X188959490Y-123428181D01*
X188959490Y-121429201D01*
X188862817Y-121195812D01*
X188684189Y-121017183D01*
X188468000Y-120927634D01*
X188468000Y-108585000D01*
X188380994Y-108147593D01*
X188133223Y-107776777D01*
X186925987Y-106569541D01*
X186833885Y-106106511D01*
X186509029Y-105620330D01*
X186420242Y-105561004D01*
X186852666Y-105149496D01*
X187129928Y-104524395D01*
X187146867Y-104439226D01*
X187146867Y-103840774D01*
X187129928Y-103755605D01*
X186852666Y-103130504D01*
X186357293Y-102659090D01*
X185719226Y-102413131D01*
X185445400Y-102609832D01*
X185445400Y-104114600D01*
X186950139Y-104114600D01*
X187146867Y-103840774D01*
X187146867Y-104439226D01*
X186950139Y-104165400D01*
X185445400Y-104165400D01*
X185445400Y-104185400D01*
X185394600Y-104185400D01*
X185394600Y-104165400D01*
X185394600Y-104114600D01*
X185394600Y-102609832D01*
X185120774Y-102413131D01*
X184482707Y-102659090D01*
X184150000Y-102975705D01*
X183817293Y-102659090D01*
X183179226Y-102413131D01*
X182905400Y-102609832D01*
X182905400Y-104114600D01*
X183889861Y-104114600D01*
X184410139Y-104114600D01*
X185394600Y-104114600D01*
X185394600Y-104165400D01*
X184410139Y-104165400D01*
X183889861Y-104165400D01*
X182905400Y-104165400D01*
X182905400Y-104185400D01*
X182854600Y-104185400D01*
X182854600Y-104165400D01*
X182854600Y-104114600D01*
X182854600Y-102609832D01*
X182580774Y-102413131D01*
X181942707Y-102659090D01*
X181610000Y-102975705D01*
X181277293Y-102659090D01*
X180639226Y-102413131D01*
X180365400Y-102609832D01*
X180365400Y-104114600D01*
X181349861Y-104114600D01*
X181870139Y-104114600D01*
X182854600Y-104114600D01*
X182854600Y-104165400D01*
X181870139Y-104165400D01*
X181349861Y-104165400D01*
X180365400Y-104165400D01*
X180365400Y-104185400D01*
X180314600Y-104185400D01*
X180314600Y-104165400D01*
X180314600Y-104114600D01*
X180314600Y-102609832D01*
X180040774Y-102413131D01*
X179402707Y-102659090D01*
X179070000Y-102975705D01*
X178737293Y-102659090D01*
X178099226Y-102413131D01*
X177825400Y-102609832D01*
X177825400Y-104114600D01*
X178809861Y-104114600D01*
X179330139Y-104114600D01*
X180314600Y-104114600D01*
X180314600Y-104165400D01*
X179330139Y-104165400D01*
X178809861Y-104165400D01*
X177825400Y-104165400D01*
X177825400Y-105149832D01*
X177825400Y-105670168D01*
X177825400Y-106654600D01*
X177845400Y-106654600D01*
X177845400Y-106705400D01*
X177825400Y-106705400D01*
X177825400Y-108210168D01*
X178099226Y-108406869D01*
X178737293Y-108160910D01*
X179223361Y-107698350D01*
X179250971Y-107739670D01*
X179603400Y-107975155D01*
X179603400Y-108914890D01*
X177279145Y-111239145D01*
X177267096Y-111257176D01*
X176796413Y-111061732D01*
X176265914Y-111061269D01*
X175792660Y-111256813D01*
X175780855Y-111239145D01*
X172720310Y-108178600D01*
X172749359Y-108178600D01*
X173322848Y-108064526D01*
X173809029Y-107739670D01*
X173990000Y-107468827D01*
X174170971Y-107739670D01*
X174657152Y-108064526D01*
X175230641Y-108178600D01*
X175289359Y-108178600D01*
X175862848Y-108064526D01*
X176349029Y-107739670D01*
X176376638Y-107698350D01*
X176862707Y-108160910D01*
X177500774Y-108406869D01*
X177774600Y-108210168D01*
X177774600Y-106705400D01*
X177754600Y-106705400D01*
X177754600Y-106654600D01*
X177774600Y-106654600D01*
X177774600Y-105670168D01*
X177774600Y-105149832D01*
X177774600Y-104165400D01*
X177774600Y-104114600D01*
X177774600Y-102609832D01*
X177500774Y-102413131D01*
X176862707Y-102659090D01*
X176530000Y-102975705D01*
X176197293Y-102659090D01*
X175559226Y-102413131D01*
X175285400Y-102609832D01*
X175285400Y-104114600D01*
X176269861Y-104114600D01*
X176790139Y-104114600D01*
X177774600Y-104114600D01*
X177774600Y-104165400D01*
X176790139Y-104165400D01*
X176269861Y-104165400D01*
X175285400Y-104165400D01*
X175285400Y-104185400D01*
X175234600Y-104185400D01*
X175234600Y-104165400D01*
X175234600Y-104114600D01*
X175234600Y-102609832D01*
X174960774Y-102413131D01*
X174322707Y-102659090D01*
X173990000Y-102975705D01*
X173657293Y-102659090D01*
X173019226Y-102413131D01*
X172745400Y-102609832D01*
X172745400Y-104114600D01*
X173729861Y-104114600D01*
X174250139Y-104114600D01*
X175234600Y-104114600D01*
X175234600Y-104165400D01*
X174250139Y-104165400D01*
X173729861Y-104165400D01*
X172745400Y-104165400D01*
X172745400Y-104185400D01*
X172694600Y-104185400D01*
X172694600Y-104165400D01*
X172694600Y-104114600D01*
X172694600Y-102609832D01*
X172420774Y-102413131D01*
X171782707Y-102659090D01*
X171450000Y-102975705D01*
X171117293Y-102659090D01*
X170479226Y-102413131D01*
X170205400Y-102609832D01*
X170205400Y-104114600D01*
X171189861Y-104114600D01*
X171710139Y-104114600D01*
X172694600Y-104114600D01*
X172694600Y-104165400D01*
X171710139Y-104165400D01*
X171189861Y-104165400D01*
X170205400Y-104165400D01*
X170205400Y-104185400D01*
X170154600Y-104185400D01*
X170154600Y-104165400D01*
X170154600Y-104114600D01*
X170154600Y-102609832D01*
X169880774Y-102413131D01*
X169242707Y-102659090D01*
X168910000Y-102975705D01*
X168577293Y-102659090D01*
X167939226Y-102413131D01*
X167665400Y-102609832D01*
X167665400Y-104114600D01*
X168649861Y-104114600D01*
X169170139Y-104114600D01*
X170154600Y-104114600D01*
X170154600Y-104165400D01*
X169170139Y-104165400D01*
X168649861Y-104165400D01*
X167665400Y-104165400D01*
X167665400Y-105149832D01*
X167665400Y-105670168D01*
X167665400Y-106654600D01*
X167685400Y-106654600D01*
X167685400Y-106705400D01*
X167665400Y-106705400D01*
X167665400Y-108210168D01*
X167939226Y-108406869D01*
X168173400Y-108316600D01*
X168173400Y-108585000D01*
X168229470Y-108866885D01*
X168389145Y-109105855D01*
X169443400Y-110160110D01*
X169443400Y-111172594D01*
X169176413Y-111061732D01*
X168645914Y-111061269D01*
X168155620Y-111263854D01*
X167780173Y-111638647D01*
X167576732Y-112128587D01*
X167576269Y-112659086D01*
X167778854Y-113149380D01*
X168153647Y-113524827D01*
X168643587Y-113728268D01*
X169174086Y-113728731D01*
X169443400Y-113617452D01*
X169443400Y-115702919D01*
X169430855Y-115684145D01*
X165836600Y-112089890D01*
X165836600Y-111914997D01*
X166014622Y-111737286D01*
X166179313Y-111340668D01*
X166179687Y-110911216D01*
X166015689Y-110514311D01*
X165712286Y-110210378D01*
X165315668Y-110045687D01*
X164886216Y-110045313D01*
X164566600Y-110177375D01*
X164566600Y-108078340D01*
X165070641Y-108178600D01*
X165129359Y-108178600D01*
X165702848Y-108064526D01*
X166189029Y-107739670D01*
X166216638Y-107698350D01*
X166702707Y-108160910D01*
X167340774Y-108406869D01*
X167614600Y-108210168D01*
X167614600Y-106705400D01*
X167594600Y-106705400D01*
X167594600Y-106654600D01*
X167614600Y-106654600D01*
X167614600Y-105670168D01*
X167614600Y-105149832D01*
X167614600Y-104165400D01*
X167614600Y-104114600D01*
X167614600Y-102609832D01*
X167340774Y-102413131D01*
X166702707Y-102659090D01*
X166370000Y-102975705D01*
X166037293Y-102659090D01*
X165399226Y-102413131D01*
X165125400Y-102609832D01*
X165125400Y-104114600D01*
X166109861Y-104114600D01*
X166630139Y-104114600D01*
X167614600Y-104114600D01*
X167614600Y-104165400D01*
X166630139Y-104165400D01*
X166109861Y-104165400D01*
X165125400Y-104165400D01*
X165125400Y-104185400D01*
X165074600Y-104185400D01*
X165074600Y-104165400D01*
X165074600Y-104114600D01*
X165074600Y-102609832D01*
X164800774Y-102413131D01*
X164162707Y-102659090D01*
X163830000Y-102975705D01*
X163497293Y-102659090D01*
X162859226Y-102413131D01*
X162585400Y-102609832D01*
X162585400Y-104114600D01*
X163569861Y-104114600D01*
X164090139Y-104114600D01*
X165074600Y-104114600D01*
X165074600Y-104165400D01*
X164090139Y-104165400D01*
X163569861Y-104165400D01*
X162585400Y-104165400D01*
X162585400Y-104185400D01*
X162534600Y-104185400D01*
X162534600Y-104165400D01*
X162534600Y-104114600D01*
X162534600Y-102609832D01*
X162260774Y-102413131D01*
X161622707Y-102659090D01*
X161290000Y-102975705D01*
X160957293Y-102659090D01*
X160319226Y-102413131D01*
X160045400Y-102609832D01*
X160045400Y-104114600D01*
X161029861Y-104114600D01*
X161550139Y-104114600D01*
X162534600Y-104114600D01*
X162534600Y-104165400D01*
X161550139Y-104165400D01*
X161029861Y-104165400D01*
X160045400Y-104165400D01*
X160045400Y-104185400D01*
X159994600Y-104185400D01*
X159994600Y-104165400D01*
X159994600Y-104114600D01*
X159994600Y-102609832D01*
X159720774Y-102413131D01*
X159082707Y-102659090D01*
X158750000Y-102975705D01*
X158417293Y-102659090D01*
X157779226Y-102413131D01*
X157505400Y-102609832D01*
X157505400Y-104114600D01*
X158489861Y-104114600D01*
X159010139Y-104114600D01*
X159994600Y-104114600D01*
X159994600Y-104165400D01*
X159010139Y-104165400D01*
X158489861Y-104165400D01*
X157505400Y-104165400D01*
X157505400Y-105149832D01*
X157505400Y-105670168D01*
X157505400Y-106654600D01*
X157525400Y-106654600D01*
X157525400Y-106705400D01*
X157505400Y-106705400D01*
X157505400Y-108210168D01*
X157779226Y-108406869D01*
X158417293Y-108160910D01*
X158903361Y-107698350D01*
X158930971Y-107739670D01*
X159417152Y-108064526D01*
X159990641Y-108178600D01*
X160049359Y-108178600D01*
X160622848Y-108064526D01*
X161109029Y-107739670D01*
X161290000Y-107468827D01*
X161470971Y-107739670D01*
X161823400Y-107975155D01*
X161823400Y-110184890D01*
X155689145Y-116319145D01*
X155676600Y-116337919D01*
X155676600Y-109220000D01*
X155620530Y-108938115D01*
X155460855Y-108699145D01*
X154940310Y-108178600D01*
X154969359Y-108178600D01*
X155542848Y-108064526D01*
X156029029Y-107739670D01*
X156056638Y-107698350D01*
X156542707Y-108160910D01*
X157180774Y-108406869D01*
X157454600Y-108210168D01*
X157454600Y-106705400D01*
X157434600Y-106705400D01*
X157434600Y-106654600D01*
X157454600Y-106654600D01*
X157454600Y-105670168D01*
X157454600Y-105149832D01*
X157454600Y-104165400D01*
X157454600Y-104114600D01*
X157454600Y-102609832D01*
X157180774Y-102413131D01*
X156542707Y-102659090D01*
X156210000Y-102975705D01*
X155877293Y-102659090D01*
X155239226Y-102413131D01*
X154965400Y-102609832D01*
X154965400Y-104114600D01*
X155949861Y-104114600D01*
X156470139Y-104114600D01*
X157454600Y-104114600D01*
X157454600Y-104165400D01*
X156470139Y-104165400D01*
X155949861Y-104165400D01*
X154965400Y-104165400D01*
X154965400Y-104185400D01*
X154914600Y-104185400D01*
X154914600Y-104165400D01*
X154914600Y-104114600D01*
X154914600Y-102609832D01*
X154640774Y-102413131D01*
X154002707Y-102659090D01*
X153670000Y-102975705D01*
X153337293Y-102659090D01*
X152699226Y-102413131D01*
X152425400Y-102609832D01*
X152425400Y-104114600D01*
X153409861Y-104114600D01*
X153930139Y-104114600D01*
X154914600Y-104114600D01*
X154914600Y-104165400D01*
X153930139Y-104165400D01*
X153409861Y-104165400D01*
X152425400Y-104165400D01*
X152425400Y-104185400D01*
X152374600Y-104185400D01*
X152374600Y-104165400D01*
X152374600Y-104114600D01*
X152374600Y-102609832D01*
X152100774Y-102413131D01*
X151462707Y-102659090D01*
X151130000Y-102975705D01*
X150797293Y-102659090D01*
X150159226Y-102413131D01*
X149885400Y-102609832D01*
X149885400Y-104114600D01*
X150869861Y-104114600D01*
X151390139Y-104114600D01*
X152374600Y-104114600D01*
X152374600Y-104165400D01*
X151390139Y-104165400D01*
X150869861Y-104165400D01*
X149885400Y-104165400D01*
X149885400Y-104185400D01*
X149834600Y-104185400D01*
X149834600Y-104165400D01*
X149834600Y-104114600D01*
X149834600Y-102609832D01*
X149560774Y-102413131D01*
X148922707Y-102659090D01*
X148590000Y-102975705D01*
X148257293Y-102659090D01*
X147619226Y-102413131D01*
X147345400Y-102609832D01*
X147345400Y-104114600D01*
X148329861Y-104114600D01*
X148850139Y-104114600D01*
X149834600Y-104114600D01*
X149834600Y-104165400D01*
X148850139Y-104165400D01*
X148329861Y-104165400D01*
X147345400Y-104165400D01*
X147345400Y-105149832D01*
X147345400Y-105670168D01*
X147345400Y-106654600D01*
X147365400Y-106654600D01*
X147365400Y-106705400D01*
X147345400Y-106705400D01*
X147345400Y-108210168D01*
X147619226Y-108406869D01*
X148257293Y-108160910D01*
X148743361Y-107698350D01*
X148770971Y-107739670D01*
X149257152Y-108064526D01*
X149830641Y-108178600D01*
X149889359Y-108178600D01*
X150462848Y-108064526D01*
X150687624Y-107914334D01*
X152590532Y-109817242D01*
X152590313Y-110068784D01*
X152754311Y-110465689D01*
X153057714Y-110769622D01*
X153454332Y-110934313D01*
X153883784Y-110934687D01*
X154203400Y-110802624D01*
X154203400Y-111730781D01*
X154166146Y-111640620D01*
X153791353Y-111265173D01*
X153301413Y-111061732D01*
X152770914Y-111061269D01*
X152280620Y-111263854D01*
X151905173Y-111638647D01*
X151764906Y-111976446D01*
X151626146Y-111640620D01*
X151251353Y-111265173D01*
X150761413Y-111061732D01*
X150230914Y-111061269D01*
X149961600Y-111172547D01*
X149961600Y-111125000D01*
X149905530Y-110843116D01*
X149905530Y-110843115D01*
X149745855Y-110604145D01*
X149110855Y-109969145D01*
X148871885Y-109809470D01*
X148590000Y-109753400D01*
X144450110Y-109753400D01*
X142976600Y-108279890D01*
X142976600Y-107975155D01*
X143329029Y-107739670D01*
X143510000Y-107468827D01*
X143690971Y-107739670D01*
X144177152Y-108064526D01*
X144750641Y-108178600D01*
X144809359Y-108178600D01*
X145382848Y-108064526D01*
X145869029Y-107739670D01*
X145896638Y-107698350D01*
X146382707Y-108160910D01*
X147020774Y-108406869D01*
X147294600Y-108210168D01*
X147294600Y-106705400D01*
X147274600Y-106705400D01*
X147274600Y-106654600D01*
X147294600Y-106654600D01*
X147294600Y-105670168D01*
X147294600Y-105149832D01*
X147294600Y-104165400D01*
X147294600Y-104114600D01*
X147294600Y-102609832D01*
X147020774Y-102413131D01*
X146382707Y-102659090D01*
X146050000Y-102975705D01*
X145717293Y-102659090D01*
X145079226Y-102413131D01*
X144805400Y-102609832D01*
X144805400Y-104114600D01*
X145789861Y-104114600D01*
X146310139Y-104114600D01*
X147294600Y-104114600D01*
X147294600Y-104165400D01*
X146310139Y-104165400D01*
X145789861Y-104165400D01*
X144805400Y-104165400D01*
X144805400Y-104185400D01*
X144754600Y-104185400D01*
X144754600Y-104165400D01*
X144754600Y-104114600D01*
X144754600Y-102609832D01*
X144480774Y-102413131D01*
X143842707Y-102659090D01*
X143510000Y-102975705D01*
X143177293Y-102659090D01*
X142539226Y-102413131D01*
X142265400Y-102609832D01*
X142265400Y-104114600D01*
X143249861Y-104114600D01*
X143770139Y-104114600D01*
X144754600Y-104114600D01*
X144754600Y-104165400D01*
X143770139Y-104165400D01*
X143249861Y-104165400D01*
X142265400Y-104165400D01*
X142265400Y-104185400D01*
X142214600Y-104185400D01*
X142214600Y-104165400D01*
X142214600Y-104114600D01*
X142214600Y-102609832D01*
X141940774Y-102413131D01*
X141302707Y-102659090D01*
X140970000Y-102975705D01*
X140637293Y-102659090D01*
X139999226Y-102413131D01*
X139725400Y-102609832D01*
X139725400Y-104114600D01*
X140709861Y-104114600D01*
X141230139Y-104114600D01*
X142214600Y-104114600D01*
X142214600Y-104165400D01*
X141230139Y-104165400D01*
X140709861Y-104165400D01*
X139725400Y-104165400D01*
X139725400Y-104185400D01*
X139674600Y-104185400D01*
X139674600Y-104165400D01*
X139674600Y-104114600D01*
X139674600Y-102609832D01*
X139400774Y-102413131D01*
X138762707Y-102659090D01*
X138430000Y-102975705D01*
X138097293Y-102659090D01*
X137459226Y-102413131D01*
X137185400Y-102609832D01*
X137185400Y-104114600D01*
X138169861Y-104114600D01*
X138690139Y-104114600D01*
X139674600Y-104114600D01*
X139674600Y-104165400D01*
X138690139Y-104165400D01*
X138169861Y-104165400D01*
X137185400Y-104165400D01*
X137185400Y-105149650D01*
X137185400Y-105670168D01*
X137185400Y-106654600D01*
X137205400Y-106654600D01*
X137205400Y-106705400D01*
X137185400Y-106705400D01*
X137185400Y-108210350D01*
X137407650Y-108432600D01*
X138200433Y-108432600D01*
X138527178Y-108297258D01*
X138777258Y-108047178D01*
X138840974Y-107893353D01*
X139097152Y-108064526D01*
X139670641Y-108178600D01*
X139729359Y-108178600D01*
X140085958Y-108107668D01*
X140868400Y-108890110D01*
X140868400Y-109700002D01*
X140690378Y-109877714D01*
X140525687Y-110274332D01*
X140525313Y-110703784D01*
X140688084Y-111097721D01*
X140601413Y-111061732D01*
X140070914Y-111061269D01*
X139580620Y-111263854D01*
X139205173Y-111638647D01*
X139064906Y-111976446D01*
X138926146Y-111640620D01*
X138551353Y-111265173D01*
X138061413Y-111061732D01*
X137530914Y-111061269D01*
X137134600Y-111225022D01*
X137134600Y-108210350D01*
X137134600Y-106705400D01*
X137134600Y-106654600D01*
X137134600Y-105670168D01*
X137134600Y-105149650D01*
X137134600Y-104165400D01*
X137134600Y-104114600D01*
X137134600Y-102609832D01*
X136860774Y-102413131D01*
X136222707Y-102659090D01*
X135727334Y-103130504D01*
X135450072Y-103755605D01*
X135433133Y-103840774D01*
X135629861Y-104114600D01*
X137134600Y-104114600D01*
X137134600Y-104165400D01*
X135629861Y-104165400D01*
X135433133Y-104439226D01*
X135450072Y-104524395D01*
X135720799Y-105134764D01*
X135542742Y-105312822D01*
X135407400Y-105639567D01*
X135407400Y-105993233D01*
X135407400Y-106432350D01*
X135629650Y-106654600D01*
X137134600Y-106654600D01*
X137134600Y-106705400D01*
X135629650Y-106705400D01*
X135407400Y-106927650D01*
X135407400Y-107366767D01*
X135407400Y-107720433D01*
X135542742Y-108047178D01*
X135792822Y-108297258D01*
X136119567Y-108432600D01*
X136912350Y-108432600D01*
X137134600Y-108210350D01*
X137134600Y-111225022D01*
X137040620Y-111263854D01*
X136665173Y-111638647D01*
X136461732Y-112128587D01*
X136461269Y-112659086D01*
X136652000Y-113120691D01*
X136652000Y-114461554D01*
X134996946Y-116116608D01*
X134996946Y-114648433D01*
X134761915Y-114039987D01*
X134717200Y-113973067D01*
X134392712Y-113928209D01*
X134356791Y-113964130D01*
X134356791Y-113892288D01*
X134311933Y-113567800D01*
X133715506Y-113303756D01*
X133063433Y-113288054D01*
X132454987Y-113523085D01*
X132388067Y-113567800D01*
X132343209Y-113892288D01*
X133350000Y-114899079D01*
X134356791Y-113892288D01*
X134356791Y-113964130D01*
X133385921Y-114935000D01*
X134392712Y-115941791D01*
X134717200Y-115896933D01*
X134981244Y-115300506D01*
X134996946Y-114648433D01*
X134996946Y-116116608D01*
X134781554Y-116332000D01*
X134267334Y-116332000D01*
X134311933Y-116302200D01*
X134356791Y-115977712D01*
X133350000Y-114970921D01*
X133314079Y-115006842D01*
X133314079Y-114935000D01*
X132307288Y-113928209D01*
X131982800Y-113973067D01*
X131809774Y-114363901D01*
X131809774Y-110801306D01*
X131561462Y-110200345D01*
X131102073Y-109740154D01*
X130501547Y-109490794D01*
X129851306Y-109490226D01*
X129250345Y-109738538D01*
X128790154Y-110197927D01*
X128540794Y-110798453D01*
X128540226Y-111448694D01*
X128788538Y-112049655D01*
X129247927Y-112509846D01*
X129848453Y-112759206D01*
X130498694Y-112759774D01*
X131099655Y-112511462D01*
X131559846Y-112052073D01*
X131809206Y-111451547D01*
X131809774Y-110801306D01*
X131809774Y-114363901D01*
X131718756Y-114569494D01*
X131703054Y-115221567D01*
X131938085Y-115830013D01*
X131982800Y-115896933D01*
X132307288Y-115941791D01*
X133314079Y-114935000D01*
X133314079Y-115006842D01*
X132343209Y-115977712D01*
X132388067Y-116302200D01*
X132509701Y-116356048D01*
X132176056Y-116689113D01*
X131964671Y-117198184D01*
X131964190Y-117749398D01*
X132174686Y-118258837D01*
X132564113Y-118648944D01*
X133073184Y-118860329D01*
X133624398Y-118860810D01*
X134133837Y-118650314D01*
X134166207Y-118618000D01*
X135255000Y-118618000D01*
X135692407Y-118530994D01*
X136063223Y-118283223D01*
X138603223Y-115743223D01*
X138850994Y-115372407D01*
X138938000Y-114935000D01*
X138938000Y-113119628D01*
X139065093Y-112813553D01*
X139203854Y-113149380D01*
X139578647Y-113524827D01*
X140068587Y-113728268D01*
X140599086Y-113728731D01*
X141089380Y-113526146D01*
X141464827Y-113151353D01*
X141605093Y-112813553D01*
X141743854Y-113149380D01*
X142118647Y-113524827D01*
X142608587Y-113728268D01*
X143065443Y-113728666D01*
X143065313Y-113878784D01*
X143229311Y-114275689D01*
X143408400Y-114455090D01*
X143408400Y-118792594D01*
X143141413Y-118681732D01*
X142610914Y-118681269D01*
X142341600Y-118792547D01*
X142341600Y-115724997D01*
X142519622Y-115547286D01*
X142684313Y-115150668D01*
X142684687Y-114721216D01*
X142520689Y-114324311D01*
X142217286Y-114020378D01*
X141820668Y-113855687D01*
X141391216Y-113855313D01*
X140994311Y-114019311D01*
X140690378Y-114322714D01*
X140525687Y-114719332D01*
X140525313Y-115148784D01*
X140689311Y-115545689D01*
X140868400Y-115725090D01*
X140868400Y-118792594D01*
X140601413Y-118681732D01*
X140070914Y-118681269D01*
X139580620Y-118883854D01*
X139205173Y-119258647D01*
X139128500Y-119443295D01*
X139128500Y-119190191D01*
X139031827Y-118956802D01*
X138853199Y-118778173D01*
X138619810Y-118681500D01*
X138367191Y-118681500D01*
X136970191Y-118681500D01*
X136736802Y-118778173D01*
X136558173Y-118956801D01*
X136461500Y-119190190D01*
X136461500Y-119442809D01*
X136461500Y-120839809D01*
X136558173Y-121073198D01*
X136736801Y-121251827D01*
X136970190Y-121348500D01*
X137222809Y-121348500D01*
X138619809Y-121348500D01*
X138853198Y-121251827D01*
X139031827Y-121073199D01*
X139128500Y-120839810D01*
X139128500Y-120587191D01*
X139128500Y-120587009D01*
X139203854Y-120769380D01*
X139578647Y-121144827D01*
X139924748Y-121288541D01*
X139179145Y-122034145D01*
X139019470Y-122273115D01*
X138963400Y-122555000D01*
X138963400Y-133044890D01*
X138794610Y-133213679D01*
X138794774Y-133026306D01*
X138546462Y-132425345D01*
X138087073Y-131965154D01*
X137486547Y-131715794D01*
X136836306Y-131715226D01*
X136235345Y-131963538D01*
X135991600Y-132206858D01*
X135991600Y-125400110D01*
X136645534Y-124746175D01*
X136833453Y-124824206D01*
X137483694Y-124824774D01*
X138084655Y-124576462D01*
X138544846Y-124117073D01*
X138794206Y-123516547D01*
X138794774Y-122866306D01*
X138546462Y-122265345D01*
X138087073Y-121805154D01*
X137486547Y-121555794D01*
X136836306Y-121555226D01*
X136235345Y-121803538D01*
X135775154Y-122262927D01*
X135525794Y-122863453D01*
X135525226Y-123513694D01*
X135603984Y-123704305D01*
X134734145Y-124574145D01*
X134574470Y-124813115D01*
X134518400Y-125095000D01*
X134518400Y-132206902D01*
X134277073Y-131965154D01*
X133676547Y-131715794D01*
X133026306Y-131715226D01*
X132425345Y-131963538D01*
X131965154Y-132422927D01*
X131715794Y-133023453D01*
X131715226Y-133673694D01*
X131963538Y-134274655D01*
X132422927Y-134734846D01*
X133023453Y-134984206D01*
X133673694Y-134984774D01*
X134274655Y-134736462D01*
X134518400Y-134493141D01*
X134518400Y-134949890D01*
X132829145Y-136639145D01*
X132669470Y-136878115D01*
X132613400Y-137160000D01*
X132613400Y-140029890D01*
X126775496Y-145867793D01*
X126664398Y-145821661D01*
X126068218Y-145821141D01*
X125517220Y-146048808D01*
X125095290Y-146470003D01*
X125094904Y-146470930D01*
X124674997Y-146050290D01*
X124124398Y-145821661D01*
X123825309Y-145821400D01*
X125615855Y-144030855D01*
X125775530Y-143791885D01*
X125775530Y-143791884D01*
X125831600Y-143510000D01*
X125831600Y-139700000D01*
X125775530Y-139418116D01*
X125775530Y-139418115D01*
X125615855Y-139179145D01*
X125474077Y-139037367D01*
X126122634Y-138788334D01*
X126206126Y-138732547D01*
X126281277Y-138382198D01*
X125095000Y-137195921D01*
X125080857Y-137210063D01*
X125044936Y-137174142D01*
X125059079Y-137160000D01*
X125044936Y-137145857D01*
X125080857Y-137109936D01*
X125095000Y-137124079D01*
X126281277Y-135937802D01*
X126206126Y-135587453D01*
X125876534Y-135440749D01*
X125990013Y-135396915D01*
X126056933Y-135352200D01*
X126101791Y-135027712D01*
X125095000Y-134020921D01*
X125080857Y-134035063D01*
X125044936Y-133999142D01*
X125059079Y-133985000D01*
X125044936Y-133970857D01*
X125080857Y-133934936D01*
X125095000Y-133949079D01*
X125109142Y-133934936D01*
X125145063Y-133970857D01*
X125130921Y-133985000D01*
X126137712Y-134991791D01*
X126462200Y-134946933D01*
X126492000Y-134879620D01*
X126492000Y-136011218D01*
X126317198Y-135973723D01*
X125130921Y-137160000D01*
X126317198Y-138346277D01*
X126492000Y-138308781D01*
X126492000Y-139700000D01*
X126579006Y-140137407D01*
X126826777Y-140508223D01*
X127197593Y-140755994D01*
X127635000Y-140843000D01*
X128072407Y-140755994D01*
X128443223Y-140508223D01*
X128690994Y-140137407D01*
X128778000Y-139700000D01*
X128778000Y-133985000D01*
X128690994Y-133547593D01*
X128443223Y-133176777D01*
X126480771Y-131214325D01*
X126480810Y-131170602D01*
X126270314Y-130661163D01*
X125886421Y-130276600D01*
X129540000Y-130276600D01*
X129821885Y-130220530D01*
X130060855Y-130060855D01*
X133870855Y-126250855D01*
X134030530Y-126011885D01*
X134030530Y-126011884D01*
X134086600Y-125730000D01*
X134086600Y-124654164D01*
X134274655Y-124576462D01*
X134734846Y-124117073D01*
X134984206Y-123516547D01*
X134984774Y-122866306D01*
X134736462Y-122265345D01*
X134277073Y-121805154D01*
X133676547Y-121555794D01*
X133026306Y-121555226D01*
X132425345Y-121803538D01*
X131965154Y-122262927D01*
X131809774Y-122637123D01*
X131809774Y-120961306D01*
X131561462Y-120360345D01*
X131102073Y-119900154D01*
X130501547Y-119650794D01*
X129851306Y-119650226D01*
X129250345Y-119898538D01*
X128790154Y-120357927D01*
X128540794Y-120958453D01*
X128540226Y-121608694D01*
X128618984Y-121799305D01*
X127749145Y-122669145D01*
X127627643Y-122850985D01*
X127627643Y-106353727D01*
X127358334Y-105652366D01*
X127302547Y-105568874D01*
X126952198Y-105493723D01*
X126916277Y-105529644D01*
X126916277Y-105457802D01*
X126841126Y-105107453D01*
X126154759Y-104801947D01*
X125403727Y-104782357D01*
X124702366Y-105051666D01*
X124618874Y-105107453D01*
X124543723Y-105457802D01*
X125730000Y-106644079D01*
X126916277Y-105457802D01*
X126916277Y-105529644D01*
X125765921Y-106680000D01*
X126952198Y-107866277D01*
X127302547Y-107791126D01*
X127608053Y-107104759D01*
X127627643Y-106353727D01*
X127627643Y-122850985D01*
X127589470Y-122908115D01*
X127533400Y-123190000D01*
X127533400Y-123252800D01*
X127479697Y-123274990D01*
X127364774Y-123389712D01*
X127364774Y-116516306D01*
X127116462Y-115915345D01*
X126916277Y-115714810D01*
X126916277Y-107902198D01*
X125730000Y-106715921D01*
X125694079Y-106751842D01*
X125694079Y-106680000D01*
X124507802Y-105493723D01*
X124157453Y-105568874D01*
X123851947Y-106255241D01*
X123832357Y-107006273D01*
X124101666Y-107707634D01*
X124157453Y-107791126D01*
X124507802Y-107866277D01*
X125694079Y-106680000D01*
X125694079Y-106751842D01*
X124543723Y-107902198D01*
X124618874Y-108252547D01*
X125305241Y-108558053D01*
X126056273Y-108577643D01*
X126757634Y-108308334D01*
X126841126Y-108252547D01*
X126916277Y-107902198D01*
X126916277Y-115714810D01*
X126657073Y-115455154D01*
X126056547Y-115205794D01*
X125406306Y-115205226D01*
X124805345Y-115453538D01*
X124345154Y-115912927D01*
X124095794Y-116513453D01*
X124095226Y-117163694D01*
X124173984Y-117354305D01*
X123304145Y-118224145D01*
X123190000Y-118394974D01*
X123190000Y-117397833D01*
X123190000Y-109594650D01*
X122967750Y-109372400D01*
X117500400Y-109372400D01*
X117500400Y-117887750D01*
X117722650Y-118110000D01*
X122124167Y-118110000D01*
X122477833Y-118110000D01*
X122804578Y-117974658D01*
X123054658Y-117724578D01*
X123190000Y-117397833D01*
X123190000Y-118394974D01*
X123144470Y-118463115D01*
X123088400Y-118745000D01*
X123088400Y-118820168D01*
X123041163Y-118839686D01*
X122651056Y-119229113D01*
X122439671Y-119738184D01*
X122439190Y-120289398D01*
X122649686Y-120798837D01*
X123039113Y-121188944D01*
X123270381Y-121284974D01*
X123041163Y-121379686D01*
X122651056Y-121769113D01*
X122439671Y-122278184D01*
X122439190Y-122829398D01*
X122649686Y-123338837D01*
X123039113Y-123728944D01*
X123548184Y-123940329D01*
X124099398Y-123940810D01*
X124608837Y-123730314D01*
X124998944Y-123340887D01*
X125210329Y-122831816D01*
X125210810Y-122280602D01*
X125000314Y-121771163D01*
X124610887Y-121381056D01*
X124379618Y-121285025D01*
X124608837Y-121190314D01*
X124998944Y-120800887D01*
X125210329Y-120291816D01*
X125210810Y-119740602D01*
X125000314Y-119231163D01*
X124690700Y-118921009D01*
X125215534Y-118396175D01*
X125403453Y-118474206D01*
X126053694Y-118474774D01*
X126654655Y-118226462D01*
X127114846Y-117767073D01*
X127364206Y-117166547D01*
X127364774Y-116516306D01*
X127364774Y-123389712D01*
X127086371Y-123667630D01*
X126873243Y-124180900D01*
X126872758Y-124736661D01*
X127084990Y-125250303D01*
X127400197Y-125566061D01*
X127368898Y-125578148D01*
X127301216Y-125623371D01*
X127254967Y-125949046D01*
X128270000Y-126964079D01*
X129285033Y-125949046D01*
X129238784Y-125623371D01*
X129130164Y-125575270D01*
X129453629Y-125252370D01*
X129666757Y-124739100D01*
X129667242Y-124183339D01*
X129455010Y-123669697D01*
X129143783Y-123357926D01*
X129660534Y-122841175D01*
X129848453Y-122919206D01*
X130498694Y-122919774D01*
X131099655Y-122671462D01*
X131559846Y-122212073D01*
X131809206Y-121611547D01*
X131809774Y-120961306D01*
X131809774Y-122637123D01*
X131715794Y-122863453D01*
X131715226Y-123513694D01*
X131963538Y-124114655D01*
X132422927Y-124574846D01*
X132613400Y-124653937D01*
X132613400Y-125424890D01*
X129928457Y-128109833D01*
X129928457Y-126711609D01*
X129691852Y-126098898D01*
X129646629Y-126031216D01*
X129320954Y-125984967D01*
X128305921Y-127000000D01*
X129320954Y-128015033D01*
X129646629Y-127968784D01*
X129912577Y-127368226D01*
X129928457Y-126711609D01*
X129928457Y-128109833D01*
X129285033Y-128753257D01*
X129285033Y-128050954D01*
X128270000Y-127035921D01*
X128234079Y-127071842D01*
X128234079Y-127000000D01*
X127219046Y-125984967D01*
X126893371Y-126031216D01*
X126627423Y-126631774D01*
X126611543Y-127288391D01*
X126848148Y-127901102D01*
X126893371Y-127968784D01*
X127219046Y-128015033D01*
X128234079Y-127000000D01*
X128234079Y-127071842D01*
X127254967Y-128050954D01*
X127301216Y-128376629D01*
X127901774Y-128642577D01*
X128558391Y-128658457D01*
X129171102Y-128421852D01*
X129238784Y-128376629D01*
X129285033Y-128050954D01*
X129285033Y-128753257D01*
X129234890Y-128803400D01*
X124460000Y-128803400D01*
X124178115Y-128859470D01*
X123939145Y-129019145D01*
X123291600Y-129666690D01*
X123291600Y-129210110D01*
X124980855Y-127520855D01*
X125140530Y-127281885D01*
X125140530Y-127281884D01*
X125196600Y-127000000D01*
X125196600Y-125884997D01*
X125374622Y-125707286D01*
X125539313Y-125310668D01*
X125539687Y-124881216D01*
X125375689Y-124484311D01*
X125072286Y-124180378D01*
X124675668Y-124015687D01*
X124246216Y-124015313D01*
X123849311Y-124179311D01*
X123545378Y-124482714D01*
X123380687Y-124879332D01*
X123380313Y-125308784D01*
X123544311Y-125705689D01*
X123723400Y-125885090D01*
X123723400Y-126694890D01*
X123063000Y-127355290D01*
X123063000Y-126546777D01*
X123093944Y-126515887D01*
X123305329Y-126006816D01*
X123305810Y-125455602D01*
X123095314Y-124946163D01*
X122705887Y-124556056D01*
X122196816Y-124344671D01*
X122151077Y-124344631D01*
X121158000Y-123351554D01*
X121158000Y-123142452D01*
X121386619Y-122800299D01*
X121499630Y-122232156D01*
X121499630Y-120337844D01*
X121386619Y-119769701D01*
X121064792Y-119288052D01*
X120583143Y-118966225D01*
X120015000Y-118853214D01*
X119446857Y-118966225D01*
X118965208Y-119288052D01*
X118879199Y-119416773D01*
X118686437Y-119137213D01*
X118116879Y-118768566D01*
X117772040Y-118671503D01*
X117500400Y-118868403D01*
X117500400Y-121259600D01*
X117520400Y-121259600D01*
X117520400Y-121310400D01*
X117500400Y-121310400D01*
X117500400Y-123701597D01*
X117772040Y-123898497D01*
X118116879Y-123801434D01*
X118686437Y-123432787D01*
X118872000Y-123163667D01*
X118872000Y-123825000D01*
X118935467Y-124144072D01*
X118484987Y-124318085D01*
X118418067Y-124362800D01*
X118373209Y-124687288D01*
X119380000Y-125694079D01*
X119394142Y-125679936D01*
X119430063Y-125715857D01*
X119415921Y-125730000D01*
X119430063Y-125744142D01*
X119394142Y-125780063D01*
X119380000Y-125765921D01*
X119365857Y-125780063D01*
X119344079Y-125758285D01*
X119329936Y-125744142D01*
X119344079Y-125730000D01*
X118337288Y-124723209D01*
X118012800Y-124768067D01*
X117787578Y-125276800D01*
X117616915Y-124834987D01*
X117572200Y-124768067D01*
X117449600Y-124751118D01*
X117247712Y-124723209D01*
X116240921Y-125730000D01*
X116255063Y-125744142D01*
X116219142Y-125780063D01*
X116205000Y-125765921D01*
X116190857Y-125780063D01*
X116154936Y-125744142D01*
X116169079Y-125730000D01*
X116154936Y-125715857D01*
X116190857Y-125679936D01*
X116205000Y-125694079D01*
X117211791Y-124687288D01*
X117166933Y-124362800D01*
X116570506Y-124098756D01*
X116078000Y-124086896D01*
X116078000Y-123163667D01*
X116263563Y-123432787D01*
X116833121Y-123801434D01*
X117177960Y-123898497D01*
X117449600Y-123701597D01*
X117449600Y-121310400D01*
X117429600Y-121310400D01*
X117429600Y-121259600D01*
X117449600Y-121259600D01*
X117449600Y-118868403D01*
X117449600Y-117887750D01*
X117449600Y-109372400D01*
X111982250Y-109372400D01*
X111760000Y-109594650D01*
X111760000Y-117397833D01*
X111895342Y-117724578D01*
X112145422Y-117974658D01*
X112472167Y-118110000D01*
X112825833Y-118110000D01*
X117227350Y-118110000D01*
X117449600Y-117887750D01*
X117449600Y-118868403D01*
X117177960Y-118671503D01*
X116833121Y-118768566D01*
X116263563Y-119137213D01*
X116070800Y-119416773D01*
X115984792Y-119288052D01*
X115503143Y-118966225D01*
X114935000Y-118853214D01*
X114366857Y-118966225D01*
X113885208Y-119288052D01*
X113563381Y-119769701D01*
X113450370Y-120337844D01*
X113450370Y-122232156D01*
X113563381Y-122800299D01*
X113792000Y-123142452D01*
X113792000Y-123986554D01*
X113434325Y-124344228D01*
X113390602Y-124344190D01*
X112881163Y-124554686D01*
X112491056Y-124944113D01*
X112279671Y-125453184D01*
X112279190Y-126004398D01*
X112489686Y-126513837D01*
X112879113Y-126903944D01*
X113388184Y-127115329D01*
X113939398Y-127115810D01*
X114448837Y-126905314D01*
X114775425Y-126579295D01*
X114793085Y-126625013D01*
X114837800Y-126691933D01*
X115162285Y-126736790D01*
X115006733Y-126892343D01*
X115012790Y-126898400D01*
X114935000Y-126898400D01*
X114653115Y-126954470D01*
X114414145Y-127114145D01*
X113949180Y-127579109D01*
X113931413Y-127571732D01*
X113400914Y-127571269D01*
X112910620Y-127773854D01*
X112535173Y-128148647D01*
X112331732Y-128638587D01*
X112331269Y-129169086D01*
X112533854Y-129659380D01*
X112908647Y-130034827D01*
X113398587Y-130238268D01*
X113929086Y-130238731D01*
X114419380Y-130036146D01*
X114794827Y-129661353D01*
X114935093Y-129323553D01*
X115073854Y-129659380D01*
X115448647Y-130034827D01*
X115938587Y-130238268D01*
X116469086Y-130238731D01*
X116488853Y-130230563D01*
X116738400Y-130480110D01*
X116738400Y-135025093D01*
X116558110Y-134945385D01*
X115926739Y-134930496D01*
X115337729Y-135158356D01*
X115274276Y-135200756D01*
X115235755Y-135519834D01*
X116205000Y-136489079D01*
X116219142Y-136474936D01*
X116255063Y-136510857D01*
X116240921Y-136525000D01*
X116255063Y-136539142D01*
X116219142Y-136575063D01*
X116205000Y-136560921D01*
X116169079Y-136596842D01*
X116169079Y-136525000D01*
X115199834Y-135555755D01*
X114951110Y-135585782D01*
X114901827Y-135466802D01*
X114723199Y-135288173D01*
X114489810Y-135191500D01*
X114237191Y-135191500D01*
X112840191Y-135191500D01*
X112606802Y-135288173D01*
X112428173Y-135466801D01*
X112331500Y-135700190D01*
X112331500Y-135952809D01*
X112331500Y-137349809D01*
X112428173Y-137583198D01*
X112606801Y-137761827D01*
X112840190Y-137858500D01*
X113092809Y-137858500D01*
X114489809Y-137858500D01*
X114723198Y-137761827D01*
X114901827Y-137583199D01*
X114951110Y-137464217D01*
X115199834Y-137494245D01*
X116169079Y-136525000D01*
X116169079Y-136596842D01*
X115235755Y-137530166D01*
X115274276Y-137849244D01*
X115851890Y-138104615D01*
X116483261Y-138119504D01*
X117072271Y-137891644D01*
X117127817Y-137854527D01*
X119494145Y-140220855D01*
X119733115Y-140380530D01*
X120015000Y-140436600D01*
X121090835Y-140436600D01*
X121168538Y-140624655D01*
X121627927Y-141084846D01*
X122116432Y-141287690D01*
X121630345Y-141488538D01*
X121170154Y-141947927D01*
X120920794Y-142548453D01*
X120920226Y-143198694D01*
X121168538Y-143799655D01*
X121627927Y-144259846D01*
X122228453Y-144509206D01*
X122878694Y-144509774D01*
X123176614Y-144386675D01*
X121695496Y-145867793D01*
X121584398Y-145821661D01*
X120988218Y-145821141D01*
X120437220Y-146048808D01*
X120015290Y-146470003D01*
X120014904Y-146470930D01*
X119594997Y-146050290D01*
X119044398Y-145821661D01*
X118448218Y-145821141D01*
X117897220Y-146048808D01*
X117475290Y-146470003D01*
X117474904Y-146470930D01*
X117054997Y-146050290D01*
X116504398Y-145821661D01*
X115908218Y-145821141D01*
X115357220Y-146048808D01*
X115332314Y-146073669D01*
X115282258Y-145952822D01*
X115032178Y-145702742D01*
X114705433Y-145567400D01*
X114029774Y-145567400D01*
X114029774Y-142551306D01*
X113781462Y-141950345D01*
X113322073Y-141490154D01*
X112833567Y-141287309D01*
X113319655Y-141086462D01*
X113779846Y-140627073D01*
X114029206Y-140026547D01*
X114029774Y-139376306D01*
X113781462Y-138775345D01*
X113322073Y-138315154D01*
X112721547Y-138065794D01*
X112071306Y-138065226D01*
X111470345Y-138313538D01*
X111010154Y-138772927D01*
X110760794Y-139373453D01*
X110760226Y-140023694D01*
X111008538Y-140624655D01*
X111467927Y-141084846D01*
X111956432Y-141287690D01*
X111470345Y-141488538D01*
X111010154Y-141947927D01*
X110760794Y-142548453D01*
X110760226Y-143198694D01*
X111008538Y-143799655D01*
X111467927Y-144259846D01*
X112068453Y-144509206D01*
X112718694Y-144509774D01*
X113319655Y-144261462D01*
X113779846Y-143802073D01*
X114029206Y-143201547D01*
X114029774Y-142551306D01*
X114029774Y-145567400D01*
X113912650Y-145567400D01*
X113690400Y-145789650D01*
X113690400Y-147294600D01*
X113710400Y-147294600D01*
X113710400Y-147345400D01*
X113690400Y-147345400D01*
X113690400Y-148850350D01*
X113912650Y-149072600D01*
X114705433Y-149072600D01*
X115032178Y-148937258D01*
X115282258Y-148687178D01*
X115332123Y-148566790D01*
X115355003Y-148589710D01*
X115905602Y-148818339D01*
X116501782Y-148818859D01*
X117052780Y-148591192D01*
X117474710Y-148169997D01*
X117475095Y-148169069D01*
X117895003Y-148589710D01*
X118445602Y-148818339D01*
X119041782Y-148818859D01*
X119592780Y-148591192D01*
X120014710Y-148169997D01*
X120015095Y-148169069D01*
X120435003Y-148589710D01*
X120985602Y-148818339D01*
X121581782Y-148818859D01*
X122132780Y-148591192D01*
X122554710Y-148169997D01*
X122555095Y-148169069D01*
X122975003Y-148589710D01*
X123525602Y-148818339D01*
X124121782Y-148818859D01*
X124235260Y-148771970D01*
X124561289Y-149098000D01*
X113639600Y-149098000D01*
X113639600Y-148850350D01*
X113639600Y-147345400D01*
X113639600Y-147294600D01*
X113639600Y-145789650D01*
X113417350Y-145567400D01*
X112624567Y-145567400D01*
X112297822Y-145702742D01*
X112047742Y-145952822D01*
X111912400Y-146279567D01*
X111912400Y-146633233D01*
X111912400Y-147072350D01*
X112134650Y-147294600D01*
X113639600Y-147294600D01*
X113639600Y-147345400D01*
X112134650Y-147345400D01*
X111912400Y-147567650D01*
X111912400Y-148006767D01*
X111912400Y-148360433D01*
X112047742Y-148687178D01*
X112297822Y-148937258D01*
X112624567Y-149072600D01*
X113417350Y-149072600D01*
X113639600Y-148850350D01*
X113639600Y-149098000D01*
X110083859Y-149098000D01*
X110083859Y-138133218D01*
X109856192Y-137582220D01*
X109434997Y-137160290D01*
X108912318Y-136943254D01*
X108912318Y-104354633D01*
X108367539Y-102906579D01*
X108222770Y-102689917D01*
X107664558Y-102371363D01*
X107628637Y-102407284D01*
X107628637Y-102335442D01*
X107310083Y-101777230D01*
X105900937Y-101138518D01*
X104354633Y-101087682D01*
X102906579Y-101632461D01*
X102689917Y-101777230D01*
X102371363Y-102335442D01*
X105000000Y-104964079D01*
X107628637Y-102335442D01*
X107628637Y-102407284D01*
X105035921Y-105000000D01*
X107664558Y-107628637D01*
X108222770Y-107310083D01*
X108861482Y-105900937D01*
X108912318Y-104354633D01*
X108912318Y-136943254D01*
X108884398Y-136931661D01*
X108338457Y-136931184D01*
X108338457Y-122266609D01*
X108101852Y-121653898D01*
X108077242Y-121617065D01*
X108077242Y-119738339D01*
X107865010Y-119224697D01*
X107628637Y-118987911D01*
X107628637Y-107664558D01*
X105000000Y-105035921D01*
X104964079Y-105071842D01*
X104964079Y-105000000D01*
X102335442Y-102371363D01*
X101777230Y-102689917D01*
X101138518Y-104099063D01*
X101087682Y-105645367D01*
X101632461Y-107093421D01*
X101777230Y-107310083D01*
X102335442Y-107628637D01*
X104964079Y-105000000D01*
X104964079Y-105071842D01*
X102371363Y-107664558D01*
X102689917Y-108222770D01*
X104099063Y-108861482D01*
X105645367Y-108912318D01*
X107093421Y-108367539D01*
X107310083Y-108222770D01*
X107628637Y-107664558D01*
X107628637Y-118987911D01*
X107472370Y-118831371D01*
X106959100Y-118618243D01*
X106403339Y-118617758D01*
X105889697Y-118829990D01*
X105537000Y-119182071D01*
X105537000Y-119126691D01*
X105440327Y-118893302D01*
X105261699Y-118714673D01*
X105028310Y-118618000D01*
X104775691Y-118618000D01*
X103251691Y-118618000D01*
X103018302Y-118714673D01*
X102839673Y-118893301D01*
X102743000Y-119126690D01*
X102743000Y-119379309D01*
X102743000Y-120903309D01*
X102839673Y-121136698D01*
X103018301Y-121315327D01*
X103144352Y-121367539D01*
X103124967Y-121504046D01*
X104140000Y-122519079D01*
X105155033Y-121504046D01*
X105135647Y-121367538D01*
X105261698Y-121315327D01*
X105440327Y-121136699D01*
X105537000Y-120903310D01*
X105537000Y-120847386D01*
X105810197Y-121121061D01*
X105778898Y-121133148D01*
X105711216Y-121178371D01*
X105664967Y-121504046D01*
X106680000Y-122519079D01*
X107695033Y-121504046D01*
X107648784Y-121178371D01*
X107540164Y-121130270D01*
X107863629Y-120807370D01*
X108076757Y-120294100D01*
X108077242Y-119738339D01*
X108077242Y-121617065D01*
X108056629Y-121586216D01*
X107730954Y-121539967D01*
X106715921Y-122555000D01*
X107730954Y-123570033D01*
X108056629Y-123523784D01*
X108322577Y-122923226D01*
X108338457Y-122266609D01*
X108338457Y-136931184D01*
X108288218Y-136931141D01*
X107737220Y-137158808D01*
X107315290Y-137580003D01*
X107314904Y-137580930D01*
X106894997Y-137160290D01*
X106344398Y-136931661D01*
X106007353Y-136931367D01*
X106090530Y-136806885D01*
X106090530Y-136806884D01*
X106146600Y-136525000D01*
X106146600Y-131466162D01*
X106400900Y-131571757D01*
X106956661Y-131572242D01*
X107470303Y-131360010D01*
X107863629Y-130967370D01*
X108076757Y-130454100D01*
X108077242Y-129898339D01*
X107865010Y-129384697D01*
X107472370Y-128991371D01*
X107264487Y-128905050D01*
X107470303Y-128820010D01*
X107863629Y-128427370D01*
X108076757Y-127914100D01*
X108077242Y-127358339D01*
X107865010Y-126844697D01*
X107472370Y-126451371D01*
X107264487Y-126365050D01*
X107470303Y-126280010D01*
X107863629Y-125887370D01*
X108076757Y-125374100D01*
X108077242Y-124818339D01*
X107865010Y-124304697D01*
X107549802Y-123988938D01*
X107581102Y-123976852D01*
X107648784Y-123931629D01*
X107695033Y-123605954D01*
X106680000Y-122590921D01*
X106644079Y-122626842D01*
X106644079Y-122555000D01*
X105629046Y-121539967D01*
X105410000Y-121571073D01*
X105190954Y-121539967D01*
X104175921Y-122555000D01*
X105190954Y-123570033D01*
X105410000Y-123538926D01*
X105629046Y-123570033D01*
X106644079Y-122555000D01*
X106644079Y-122626842D01*
X105664967Y-123605954D01*
X105711216Y-123931629D01*
X105819835Y-123979729D01*
X105496371Y-124302630D01*
X105410050Y-124510512D01*
X105325010Y-124304697D01*
X105009802Y-123988938D01*
X105041102Y-123976852D01*
X105108784Y-123931629D01*
X105155033Y-123605954D01*
X104140000Y-122590921D01*
X104104079Y-122626842D01*
X104104079Y-122555000D01*
X103089046Y-121539967D01*
X102763371Y-121586216D01*
X102497423Y-122186774D01*
X102481543Y-122843391D01*
X102718148Y-123456102D01*
X102763371Y-123523784D01*
X103089046Y-123570033D01*
X104104079Y-122555000D01*
X104104079Y-122626842D01*
X103124967Y-123605954D01*
X103171216Y-123931629D01*
X103279835Y-123979729D01*
X102956371Y-124302630D01*
X102743243Y-124815900D01*
X102742758Y-125371661D01*
X102954990Y-125885303D01*
X103347630Y-126278629D01*
X103555512Y-126364949D01*
X103349697Y-126449990D01*
X102956371Y-126842630D01*
X102743243Y-127355900D01*
X102742758Y-127911661D01*
X102954990Y-128425303D01*
X103347630Y-128818629D01*
X103555512Y-128904949D01*
X103349697Y-128989990D01*
X102956371Y-129382630D01*
X102743243Y-129895900D01*
X102742758Y-130451661D01*
X102954990Y-130965303D01*
X103347630Y-131358629D01*
X103860900Y-131571757D01*
X104416661Y-131572242D01*
X104673400Y-131466159D01*
X104673400Y-136219890D01*
X103961890Y-136931400D01*
X102515091Y-136931400D01*
X102281702Y-137028073D01*
X102103073Y-137206701D01*
X102006400Y-137440090D01*
X102006400Y-137692709D01*
X102006400Y-139419909D01*
X102103073Y-139653298D01*
X102281701Y-139831927D01*
X102515090Y-139928600D01*
X102767709Y-139928600D01*
X104494909Y-139928600D01*
X104728298Y-139831927D01*
X104906927Y-139653299D01*
X104977820Y-139482148D01*
X105195003Y-139699710D01*
X105745602Y-139928339D01*
X106341782Y-139928859D01*
X106892780Y-139701192D01*
X107314710Y-139279997D01*
X107315095Y-139279069D01*
X107735003Y-139699710D01*
X108285602Y-139928339D01*
X108881782Y-139928859D01*
X109432780Y-139701192D01*
X109854710Y-139279997D01*
X110083339Y-138729398D01*
X110083859Y-138133218D01*
X110083859Y-149098000D01*
X108912318Y-149098000D01*
X108912318Y-144354633D01*
X108367539Y-142906579D01*
X108222770Y-142689917D01*
X107664558Y-142371363D01*
X107628637Y-142407284D01*
X107628637Y-142335442D01*
X107310083Y-141777230D01*
X105900937Y-141138518D01*
X104354633Y-141087682D01*
X102906579Y-141632461D01*
X102689917Y-141777230D01*
X102371363Y-142335442D01*
X105000000Y-144964079D01*
X107628637Y-142335442D01*
X107628637Y-142407284D01*
X105035921Y-145000000D01*
X107664558Y-147628637D01*
X108222770Y-147310083D01*
X108861482Y-145900937D01*
X108912318Y-144354633D01*
X108912318Y-149098000D01*
X107628637Y-149098000D01*
X107628637Y-147664558D01*
X105000000Y-145035921D01*
X104964079Y-145071842D01*
X104964079Y-145000000D01*
X102335442Y-142371363D01*
X101777230Y-142689917D01*
X101138518Y-144099063D01*
X101087682Y-145645367D01*
X101632461Y-147093421D01*
X101777230Y-147310083D01*
X102335442Y-147628637D01*
X104964079Y-145000000D01*
X104964079Y-145071842D01*
X102371363Y-147664558D01*
X102689917Y-148222770D01*
X104099063Y-148861482D01*
X105645367Y-148912318D01*
X107093421Y-148367539D01*
X107310083Y-148222770D01*
X107628637Y-147664558D01*
X107628637Y-149098000D01*
X100685000Y-149098000D01*
X100685000Y-100685000D01*
X112228331Y-100685000D01*
X112145422Y-100719342D01*
X111895342Y-100969422D01*
X111760000Y-101296167D01*
X111760000Y-109099350D01*
X111982250Y-109321600D01*
X117449600Y-109321600D01*
X117449600Y-109301600D01*
X117500400Y-109301600D01*
X117500400Y-109321600D01*
X122967750Y-109321600D01*
X123190000Y-109099350D01*
X123190000Y-101296167D01*
X123054658Y-100969422D01*
X122804578Y-100719342D01*
X122721668Y-100685000D01*
X199263000Y-100685000D01*
X199263000Y-149098000D01*
X199263000Y-149098000D01*
G37*
X199263000Y-149098000D02*
X198912318Y-149098000D01*
X198912318Y-144354633D01*
X198912318Y-104354633D01*
X198367539Y-102906579D01*
X198222770Y-102689917D01*
X197664558Y-102371363D01*
X197628637Y-102407284D01*
X197628637Y-102335442D01*
X197310083Y-101777230D01*
X195900937Y-101138518D01*
X194354633Y-101087682D01*
X192906579Y-101632461D01*
X192689917Y-101777230D01*
X192371363Y-102335442D01*
X195000000Y-104964079D01*
X197628637Y-102335442D01*
X197628637Y-102407284D01*
X195035921Y-105000000D01*
X197664558Y-107628637D01*
X198222770Y-107310083D01*
X198861482Y-105900937D01*
X198912318Y-104354633D01*
X198912318Y-144354633D01*
X198367539Y-142906579D01*
X198222770Y-142689917D01*
X198103490Y-142621847D01*
X198103490Y-123655123D01*
X198103490Y-122726450D01*
X198103490Y-122231150D01*
X198103490Y-121302477D01*
X197968148Y-120975732D01*
X197718068Y-120725652D01*
X197628637Y-120688608D01*
X197628637Y-107664558D01*
X195000000Y-105035921D01*
X194964079Y-105071842D01*
X194964079Y-105000000D01*
X192335442Y-102371363D01*
X191777230Y-102689917D01*
X191138518Y-104099063D01*
X191087682Y-105645367D01*
X191632461Y-107093421D01*
X191777230Y-107310083D01*
X192335442Y-107628637D01*
X194964079Y-105000000D01*
X194964079Y-105071842D01*
X192371363Y-107664558D01*
X192689917Y-108222770D01*
X194099063Y-108861482D01*
X195645367Y-108912318D01*
X197093421Y-108367539D01*
X197310083Y-108222770D01*
X197628637Y-107664558D01*
X197628637Y-120688608D01*
X197391323Y-120590310D01*
X197037657Y-120590310D01*
X196462650Y-120590310D01*
X196240400Y-120812560D01*
X196240400Y-122453400D01*
X197881240Y-122453400D01*
X198103490Y-122231150D01*
X198103490Y-122726450D01*
X197881240Y-122504200D01*
X196240400Y-122504200D01*
X196240400Y-124145040D01*
X196462650Y-124367290D01*
X197037657Y-124367290D01*
X197391323Y-124367290D01*
X197718068Y-124231948D01*
X197968148Y-123981868D01*
X198103490Y-123655123D01*
X198103490Y-142621847D01*
X197849774Y-142477059D01*
X197849774Y-128657506D01*
X197601462Y-128056545D01*
X197142073Y-127596354D01*
X196541547Y-127346994D01*
X196189600Y-127346686D01*
X196189600Y-124145040D01*
X196189600Y-122504200D01*
X196189600Y-122453400D01*
X196189600Y-120812560D01*
X195967350Y-120590310D01*
X195392343Y-120590310D01*
X195038677Y-120590310D01*
X194711932Y-120725652D01*
X194461852Y-120975732D01*
X194326510Y-121302477D01*
X194326510Y-122231150D01*
X194548760Y-122453400D01*
X196189600Y-122453400D01*
X196189600Y-122504200D01*
X194548760Y-122504200D01*
X194326510Y-122726450D01*
X194326510Y-123655123D01*
X194461852Y-123981868D01*
X194711932Y-124231948D01*
X195038677Y-124367290D01*
X195392343Y-124367290D01*
X195967350Y-124367290D01*
X196189600Y-124145040D01*
X196189600Y-127346686D01*
X195891306Y-127346426D01*
X195290345Y-127594738D01*
X194830154Y-128054127D01*
X194580794Y-128654653D01*
X194580226Y-129304894D01*
X194828538Y-129905855D01*
X195287927Y-130366046D01*
X195888453Y-130615406D01*
X196538694Y-130615974D01*
X197139655Y-130367662D01*
X197599846Y-129908273D01*
X197849206Y-129307747D01*
X197849774Y-128657506D01*
X197849774Y-142477059D01*
X197664558Y-142371363D01*
X197628637Y-142407284D01*
X197628637Y-142335442D01*
X197310083Y-141777230D01*
X195900937Y-141138518D01*
X194354633Y-141087682D01*
X192906579Y-141632461D01*
X192769774Y-141723871D01*
X192769774Y-132391306D01*
X192769774Y-122231306D01*
X192521462Y-121630345D01*
X192062073Y-121170154D01*
X191461547Y-120920794D01*
X190811306Y-120920226D01*
X190210345Y-121168538D01*
X189750154Y-121627927D01*
X189500794Y-122228453D01*
X189500226Y-122878694D01*
X189748538Y-123479655D01*
X190207927Y-123939846D01*
X190808453Y-124189206D01*
X191458694Y-124189774D01*
X192059655Y-123941462D01*
X192519846Y-123482073D01*
X192769206Y-122881547D01*
X192769774Y-122231306D01*
X192769774Y-132391306D01*
X192521462Y-131790345D01*
X192062073Y-131330154D01*
X191461547Y-131080794D01*
X190811306Y-131080226D01*
X190210345Y-131328538D01*
X189750154Y-131787927D01*
X189500794Y-132388453D01*
X189500226Y-133038694D01*
X189748538Y-133639655D01*
X190207927Y-134099846D01*
X190808453Y-134349206D01*
X191458694Y-134349774D01*
X192059655Y-134101462D01*
X192519846Y-133642073D01*
X192769206Y-133041547D01*
X192769774Y-132391306D01*
X192769774Y-141723871D01*
X192689917Y-141777230D01*
X192371363Y-142335442D01*
X195000000Y-144964079D01*
X197628637Y-142335442D01*
X197628637Y-142407284D01*
X195035921Y-145000000D01*
X197664558Y-147628637D01*
X198222770Y-147310083D01*
X198861482Y-145900937D01*
X198912318Y-144354633D01*
X198912318Y-149098000D01*
X197628637Y-149098000D01*
X197628637Y-147664558D01*
X195000000Y-145035921D01*
X194964079Y-145071842D01*
X194964079Y-145000000D01*
X192335442Y-142371363D01*
X191777230Y-142689917D01*
X191138518Y-144099063D01*
X191087682Y-145645367D01*
X191632461Y-147093421D01*
X191777230Y-147310083D01*
X192335442Y-147628637D01*
X194964079Y-145000000D01*
X194964079Y-145071842D01*
X192371363Y-147664558D01*
X192689917Y-148222770D01*
X194099063Y-148861482D01*
X195645367Y-148912318D01*
X197093421Y-148367539D01*
X197310083Y-148222770D01*
X197628637Y-147664558D01*
X197628637Y-149098000D01*
X137134600Y-149098000D01*
X137134600Y-147580350D01*
X137134600Y-146075400D01*
X137134600Y-146024600D01*
X137134600Y-145040168D01*
X137134600Y-144519650D01*
X137134600Y-143535400D01*
X137134600Y-143484600D01*
X137134600Y-141979832D01*
X136860774Y-141783131D01*
X136222707Y-142029090D01*
X135727334Y-142500504D01*
X135450072Y-143125605D01*
X135433133Y-143210774D01*
X135629861Y-143484600D01*
X137134600Y-143484600D01*
X137134600Y-143535400D01*
X135629861Y-143535400D01*
X135433133Y-143809226D01*
X135450072Y-143894395D01*
X135720799Y-144504764D01*
X135542742Y-144682822D01*
X135407400Y-145009567D01*
X135407400Y-145363233D01*
X135407400Y-145802350D01*
X135629650Y-146024600D01*
X137134600Y-146024600D01*
X137134600Y-146075400D01*
X135629650Y-146075400D01*
X135407400Y-146297650D01*
X135407400Y-146736767D01*
X135407400Y-147090433D01*
X135542742Y-147417178D01*
X135792822Y-147667258D01*
X136119567Y-147802600D01*
X136912350Y-147802600D01*
X137134600Y-147580350D01*
X137134600Y-149098000D01*
X127533709Y-149098000D01*
X135775855Y-140855855D01*
X135935530Y-140616885D01*
X135991600Y-140335000D01*
X135991600Y-138624164D01*
X136179655Y-138546462D01*
X136547724Y-138179034D01*
X136639145Y-138315855D01*
X137693400Y-139370110D01*
X137693400Y-141873399D01*
X137459226Y-141783131D01*
X137185400Y-141979832D01*
X137185400Y-143484600D01*
X137205400Y-143484600D01*
X137205400Y-143535400D01*
X137185400Y-143535400D01*
X137185400Y-144519650D01*
X137185400Y-145040168D01*
X137185400Y-146024600D01*
X137205400Y-146024600D01*
X137205400Y-146075400D01*
X137185400Y-146075400D01*
X137185400Y-147580350D01*
X137407650Y-147802600D01*
X138200433Y-147802600D01*
X138527178Y-147667258D01*
X138777258Y-147417178D01*
X138840974Y-147263353D01*
X139097152Y-147434526D01*
X139670641Y-147548600D01*
X139729359Y-147548600D01*
X140302848Y-147434526D01*
X140789029Y-147109670D01*
X140970000Y-146838827D01*
X141150971Y-147109670D01*
X141637152Y-147434526D01*
X142210641Y-147548600D01*
X142269359Y-147548600D01*
X142842848Y-147434526D01*
X143329029Y-147109670D01*
X143510000Y-146838827D01*
X143690971Y-147109670D01*
X144177152Y-147434526D01*
X144750641Y-147548600D01*
X144809359Y-147548600D01*
X145382848Y-147434526D01*
X145869029Y-147109670D01*
X145896638Y-147068350D01*
X146382707Y-147530910D01*
X147020774Y-147776869D01*
X147294600Y-147580168D01*
X147294600Y-146075400D01*
X147274600Y-146075400D01*
X147274600Y-146024600D01*
X147294600Y-146024600D01*
X147294600Y-145040168D01*
X147294600Y-144519832D01*
X147294600Y-143535400D01*
X147294600Y-143484600D01*
X147294600Y-141979832D01*
X147020774Y-141783131D01*
X146382707Y-142029090D01*
X146050000Y-142345705D01*
X145717293Y-142029090D01*
X145079226Y-141783131D01*
X144805400Y-141979832D01*
X144805400Y-143484600D01*
X145789861Y-143484600D01*
X146310139Y-143484600D01*
X147294600Y-143484600D01*
X147294600Y-143535400D01*
X146310139Y-143535400D01*
X145789861Y-143535400D01*
X144805400Y-143535400D01*
X144805400Y-143555400D01*
X144754600Y-143555400D01*
X144754600Y-143535400D01*
X144734600Y-143535400D01*
X144734600Y-143484600D01*
X144754600Y-143484600D01*
X144754600Y-141979832D01*
X144480774Y-141783131D01*
X144246600Y-141873399D01*
X144246600Y-139370110D01*
X147840855Y-135775855D01*
X148000530Y-135536885D01*
X148000530Y-135536884D01*
X148056600Y-135255000D01*
X148056600Y-133852080D01*
X148069145Y-133870855D01*
X148488400Y-134290110D01*
X148488400Y-135695835D01*
X148300345Y-135773538D01*
X147840154Y-136232927D01*
X147590794Y-136833453D01*
X147590226Y-137483694D01*
X147838538Y-138084655D01*
X148297927Y-138544846D01*
X148898453Y-138794206D01*
X149548694Y-138794774D01*
X150149655Y-138546462D01*
X150609846Y-138087073D01*
X150859206Y-137486547D01*
X150859774Y-136836306D01*
X150736675Y-136538385D01*
X151028400Y-136830110D01*
X151028400Y-141299890D01*
X150609145Y-141719145D01*
X150482997Y-141907937D01*
X150159226Y-141783131D01*
X149885400Y-141979832D01*
X149885400Y-143484600D01*
X149905400Y-143484600D01*
X149905400Y-143535400D01*
X149885400Y-143535400D01*
X149885400Y-143555400D01*
X149834600Y-143555400D01*
X149834600Y-143535400D01*
X149834600Y-143484600D01*
X149834600Y-141979832D01*
X149560774Y-141783131D01*
X148922707Y-142029090D01*
X148590000Y-142345705D01*
X148257293Y-142029090D01*
X147619226Y-141783131D01*
X147345400Y-141979832D01*
X147345400Y-143484600D01*
X148329861Y-143484600D01*
X148850139Y-143484600D01*
X149834600Y-143484600D01*
X149834600Y-143535400D01*
X148850139Y-143535400D01*
X148329861Y-143535400D01*
X147345400Y-143535400D01*
X147345400Y-144519832D01*
X147345400Y-145040168D01*
X147345400Y-146024600D01*
X147365400Y-146024600D01*
X147365400Y-146075400D01*
X147345400Y-146075400D01*
X147345400Y-147580168D01*
X147619226Y-147776869D01*
X148257293Y-147530910D01*
X148743361Y-147068350D01*
X148770971Y-147109670D01*
X149257152Y-147434526D01*
X149830641Y-147548600D01*
X149889359Y-147548600D01*
X150462848Y-147434526D01*
X150949029Y-147109670D01*
X151130000Y-146838827D01*
X151310971Y-147109670D01*
X151797152Y-147434526D01*
X152370641Y-147548600D01*
X152429359Y-147548600D01*
X153002848Y-147434526D01*
X153489029Y-147109670D01*
X153670000Y-146838827D01*
X153850971Y-147109670D01*
X154337152Y-147434526D01*
X154910641Y-147548600D01*
X154969359Y-147548600D01*
X155542848Y-147434526D01*
X156029029Y-147109670D01*
X156056638Y-147068350D01*
X156542707Y-147530910D01*
X157180774Y-147776869D01*
X157454600Y-147580168D01*
X157454600Y-146075400D01*
X157434600Y-146075400D01*
X157434600Y-146024600D01*
X157454600Y-146024600D01*
X157454600Y-145040168D01*
X157454600Y-144519832D01*
X157454600Y-143535400D01*
X156470139Y-143535400D01*
X155949861Y-143535400D01*
X154965400Y-143535400D01*
X154965400Y-143555400D01*
X154914600Y-143555400D01*
X154914600Y-143535400D01*
X154894600Y-143535400D01*
X154894600Y-143484600D01*
X154914600Y-143484600D01*
X154914600Y-141979832D01*
X154640774Y-141783131D01*
X154406600Y-141873399D01*
X154406600Y-139567080D01*
X154419145Y-139585855D01*
X156773438Y-141940148D01*
X156542707Y-142029090D01*
X156210000Y-142345705D01*
X155877293Y-142029090D01*
X155239226Y-141783131D01*
X154965400Y-141979832D01*
X154965400Y-143484600D01*
X155949861Y-143484600D01*
X156470139Y-143484600D01*
X157454600Y-143484600D01*
X157454600Y-143464600D01*
X157505400Y-143464600D01*
X157505400Y-143484600D01*
X157525400Y-143484600D01*
X157525400Y-143535400D01*
X157505400Y-143535400D01*
X157505400Y-144519832D01*
X157505400Y-145040168D01*
X157505400Y-146024600D01*
X157525400Y-146024600D01*
X157525400Y-146075400D01*
X157505400Y-146075400D01*
X157505400Y-147580168D01*
X157779226Y-147776869D01*
X158417293Y-147530910D01*
X158903361Y-147068350D01*
X158930971Y-147109670D01*
X159417152Y-147434526D01*
X159990641Y-147548600D01*
X160049359Y-147548600D01*
X160622848Y-147434526D01*
X161109029Y-147109670D01*
X161290000Y-146838827D01*
X161470971Y-147109670D01*
X161957152Y-147434526D01*
X162530641Y-147548600D01*
X162589359Y-147548600D01*
X163162848Y-147434526D01*
X163649029Y-147109670D01*
X163830000Y-146838827D01*
X164010971Y-147109670D01*
X164497152Y-147434526D01*
X165070641Y-147548600D01*
X165129359Y-147548600D01*
X165702848Y-147434526D01*
X166189029Y-147109670D01*
X166216638Y-147068350D01*
X166702707Y-147530910D01*
X167340774Y-147776869D01*
X167614600Y-147580168D01*
X167614600Y-146075400D01*
X167594600Y-146075400D01*
X167594600Y-146024600D01*
X167614600Y-146024600D01*
X167614600Y-145040168D01*
X167614600Y-144519832D01*
X167614600Y-143535400D01*
X166630139Y-143535400D01*
X166109861Y-143535400D01*
X165125400Y-143535400D01*
X165125400Y-143555400D01*
X165074600Y-143555400D01*
X165074600Y-143535400D01*
X164090139Y-143535400D01*
X163569861Y-143535400D01*
X162585400Y-143535400D01*
X162585400Y-143555400D01*
X162534600Y-143555400D01*
X162534600Y-143535400D01*
X161550139Y-143535400D01*
X161029861Y-143535400D01*
X160045400Y-143535400D01*
X160045400Y-143555400D01*
X159994600Y-143555400D01*
X159994600Y-143535400D01*
X159974600Y-143535400D01*
X159974600Y-143484600D01*
X159994600Y-143484600D01*
X159994600Y-143464600D01*
X160045400Y-143464600D01*
X160045400Y-143484600D01*
X161029861Y-143484600D01*
X161550139Y-143484600D01*
X162534600Y-143484600D01*
X162534600Y-143464600D01*
X162585400Y-143464600D01*
X162585400Y-143484600D01*
X163569861Y-143484600D01*
X164090139Y-143484600D01*
X165074600Y-143484600D01*
X165074600Y-143464600D01*
X165125400Y-143464600D01*
X165125400Y-143484600D01*
X166109861Y-143484600D01*
X166630139Y-143484600D01*
X167614600Y-143484600D01*
X167614600Y-143464600D01*
X167665400Y-143464600D01*
X167665400Y-143484600D01*
X168649861Y-143484600D01*
X169170139Y-143484600D01*
X170154600Y-143484600D01*
X170154600Y-143464600D01*
X170205400Y-143464600D01*
X170205400Y-143484600D01*
X170225400Y-143484600D01*
X170225400Y-143535400D01*
X170205400Y-143535400D01*
X170205400Y-143555400D01*
X170154600Y-143555400D01*
X170154600Y-143535400D01*
X169170139Y-143535400D01*
X168649861Y-143535400D01*
X167665400Y-143535400D01*
X167665400Y-144519832D01*
X167665400Y-145040168D01*
X167665400Y-146024600D01*
X167685400Y-146024600D01*
X167685400Y-146075400D01*
X167665400Y-146075400D01*
X167665400Y-147580168D01*
X167939226Y-147776869D01*
X168577293Y-147530910D01*
X169063361Y-147068350D01*
X169090971Y-147109670D01*
X169577152Y-147434526D01*
X170150641Y-147548600D01*
X170209359Y-147548600D01*
X170782848Y-147434526D01*
X171269029Y-147109670D01*
X171450000Y-146838827D01*
X171630971Y-147109670D01*
X172117152Y-147434526D01*
X172690641Y-147548600D01*
X172749359Y-147548600D01*
X173322848Y-147434526D01*
X173809029Y-147109670D01*
X173990000Y-146838827D01*
X174170971Y-147109670D01*
X174657152Y-147434526D01*
X175230641Y-147548600D01*
X175289359Y-147548600D01*
X175862848Y-147434526D01*
X176349029Y-147109670D01*
X176376638Y-147068350D01*
X176862707Y-147530910D01*
X177500774Y-147776869D01*
X177774600Y-147580168D01*
X177774600Y-146075400D01*
X177754600Y-146075400D01*
X177754600Y-146024600D01*
X177774600Y-146024600D01*
X177774600Y-145040168D01*
X177774600Y-144519832D01*
X177774600Y-143535400D01*
X176790139Y-143535400D01*
X176269861Y-143535400D01*
X175285400Y-143535400D01*
X175285400Y-143555400D01*
X175234600Y-143555400D01*
X175234600Y-143535400D01*
X174250139Y-143535400D01*
X173729861Y-143535400D01*
X172745400Y-143535400D01*
X172745400Y-143555400D01*
X172694600Y-143555400D01*
X172694600Y-143535400D01*
X172674600Y-143535400D01*
X172674600Y-143484600D01*
X172694600Y-143484600D01*
X172694600Y-141979832D01*
X172420774Y-141783131D01*
X171782707Y-142029090D01*
X171712557Y-142095847D01*
X170700855Y-141084145D01*
X170461885Y-140924470D01*
X170180000Y-140868400D01*
X162936946Y-140868400D01*
X162936946Y-134333433D01*
X162701915Y-133724987D01*
X162657200Y-133658067D01*
X162332712Y-133613209D01*
X162296791Y-133649130D01*
X162296791Y-133577288D01*
X162251933Y-133252800D01*
X161675995Y-132997826D01*
X162157271Y-132811644D01*
X162220724Y-132769244D01*
X162259245Y-132450166D01*
X161290000Y-131480921D01*
X160320755Y-132450166D01*
X160359276Y-132769244D01*
X160905676Y-133010815D01*
X160394987Y-133208085D01*
X160328067Y-133252800D01*
X160283209Y-133577288D01*
X161290000Y-134584079D01*
X162296791Y-133577288D01*
X162296791Y-133649130D01*
X161325921Y-134620000D01*
X162332712Y-135626791D01*
X162657200Y-135581933D01*
X162921244Y-134985506D01*
X162936946Y-134333433D01*
X162936946Y-140868400D01*
X162675810Y-140868400D01*
X162675810Y-137520602D01*
X162465314Y-137011163D01*
X162296791Y-136842345D01*
X162296791Y-135662712D01*
X161290000Y-134655921D01*
X160283209Y-135662712D01*
X160328067Y-135987200D01*
X160924494Y-136251244D01*
X161576567Y-136266946D01*
X162185013Y-136031915D01*
X162251933Y-135987200D01*
X162296791Y-135662712D01*
X162296791Y-136842345D01*
X162075887Y-136621056D01*
X161566816Y-136409671D01*
X161015602Y-136409190D01*
X160506163Y-136619686D01*
X160179574Y-136945704D01*
X160161915Y-136899987D01*
X160117200Y-136833067D01*
X159792712Y-136788209D01*
X159756791Y-136824130D01*
X159756791Y-136752288D01*
X159711933Y-136427800D01*
X159115506Y-136163756D01*
X158463433Y-136148054D01*
X157854987Y-136383085D01*
X157788067Y-136427800D01*
X157743209Y-136752288D01*
X158750000Y-137759079D01*
X159756791Y-136752288D01*
X159756791Y-136824130D01*
X158785921Y-137795000D01*
X159792712Y-138801791D01*
X160117200Y-138756933D01*
X160171048Y-138635298D01*
X160504113Y-138968944D01*
X161013184Y-139180329D01*
X161564398Y-139180810D01*
X162073837Y-138970314D01*
X162463944Y-138580887D01*
X162675329Y-138071816D01*
X162675810Y-137520602D01*
X162675810Y-140868400D01*
X160325110Y-140868400D01*
X158895253Y-139438543D01*
X159036567Y-139441946D01*
X159645013Y-139206915D01*
X159711933Y-139162200D01*
X159756791Y-138837712D01*
X158750000Y-137830921D01*
X158735857Y-137845063D01*
X158699936Y-137809142D01*
X158714079Y-137795000D01*
X157707288Y-136788209D01*
X157382800Y-136833067D01*
X157118756Y-137429494D01*
X157113287Y-137656577D01*
X156946600Y-137489890D01*
X156946600Y-132583492D01*
X156964380Y-132576146D01*
X157339827Y-132201353D01*
X157480093Y-131863553D01*
X157607000Y-132170691D01*
X157607000Y-133803222D01*
X157576056Y-133834113D01*
X157364671Y-134343184D01*
X157364190Y-134894398D01*
X157574686Y-135403837D01*
X157964113Y-135793944D01*
X158473184Y-136005329D01*
X159024398Y-136005810D01*
X159533837Y-135795314D01*
X159860425Y-135469295D01*
X159878085Y-135515013D01*
X159922800Y-135581933D01*
X160247288Y-135626791D01*
X161254079Y-134620000D01*
X160247288Y-133613209D01*
X159922800Y-133658067D01*
X159893000Y-133725379D01*
X159893000Y-132233801D01*
X159923356Y-132312271D01*
X159965756Y-132375724D01*
X160284834Y-132414245D01*
X161254079Y-131445000D01*
X161239936Y-131430857D01*
X161275857Y-131394936D01*
X161290000Y-131409079D01*
X162259245Y-130439834D01*
X162220724Y-130120756D01*
X161643110Y-129865385D01*
X161318710Y-129857735D01*
X164638223Y-126538223D01*
X164885994Y-126167407D01*
X164973000Y-125730000D01*
X164973000Y-124549628D01*
X165100093Y-124243553D01*
X165238854Y-124579380D01*
X165613647Y-124954827D01*
X166103587Y-125158268D01*
X166634086Y-125158731D01*
X166903400Y-125047452D01*
X166903400Y-127635000D01*
X166959470Y-127916885D01*
X167119145Y-128155855D01*
X169074933Y-130111643D01*
X168645914Y-130111269D01*
X168155620Y-130313854D01*
X167780173Y-130688647D01*
X167639906Y-131026446D01*
X167501146Y-130690620D01*
X167126353Y-130315173D01*
X166636413Y-130111732D01*
X166105914Y-130111269D01*
X165615620Y-130313854D01*
X165240173Y-130688647D01*
X165099906Y-131026446D01*
X164961146Y-130690620D01*
X164586353Y-130315173D01*
X164096413Y-130111732D01*
X163565914Y-130111269D01*
X163075620Y-130313854D01*
X162700173Y-130688647D01*
X162699851Y-130689420D01*
X162656644Y-130577729D01*
X162614244Y-130514276D01*
X162295166Y-130475755D01*
X161325921Y-131445000D01*
X162295166Y-132414245D01*
X162614244Y-132375724D01*
X162695643Y-132191609D01*
X162698854Y-132199380D01*
X163073647Y-132574827D01*
X163093400Y-132583029D01*
X163093400Y-133885940D01*
X163149470Y-134167825D01*
X163309145Y-134406795D01*
X165103331Y-136200981D01*
X165083731Y-136248184D01*
X165083250Y-136799398D01*
X165293746Y-137308837D01*
X165683173Y-137698944D01*
X166192244Y-137910329D01*
X166743458Y-137910810D01*
X167252897Y-137700314D01*
X167643004Y-137310887D01*
X167854389Y-136801816D01*
X167854870Y-136250602D01*
X167644374Y-135741163D01*
X167254947Y-135351056D01*
X166745876Y-135139671D01*
X166194662Y-135139190D01*
X166145339Y-135159569D01*
X164566600Y-133580830D01*
X164566600Y-132583492D01*
X164584380Y-132576146D01*
X164959827Y-132201353D01*
X165100093Y-131863553D01*
X165238854Y-132199380D01*
X165613647Y-132574827D01*
X166103587Y-132778268D01*
X166562898Y-132778668D01*
X169985211Y-136200981D01*
X169965611Y-136248184D01*
X169965130Y-136799398D01*
X170175626Y-137308837D01*
X170565053Y-137698944D01*
X171074124Y-137910329D01*
X171625338Y-137910810D01*
X172134777Y-137700314D01*
X172524884Y-137310887D01*
X172736269Y-136801816D01*
X172736750Y-136250602D01*
X172526254Y-135741163D01*
X172136827Y-135351056D01*
X171627756Y-135139671D01*
X171076542Y-135139190D01*
X171027219Y-135159569D01*
X168645920Y-132778270D01*
X169174086Y-132778731D01*
X169664380Y-132576146D01*
X170039827Y-132201353D01*
X170180093Y-131863553D01*
X170318854Y-132199380D01*
X170693647Y-132574827D01*
X171183587Y-132778268D01*
X171714086Y-132778731D01*
X172204380Y-132576146D01*
X172579827Y-132201353D01*
X172720093Y-131863553D01*
X172858854Y-132199380D01*
X173233647Y-132574827D01*
X173723587Y-132778268D01*
X174254086Y-132778731D01*
X174273853Y-132770563D01*
X174523400Y-133020110D01*
X174523400Y-140180002D01*
X174345378Y-140357714D01*
X174180687Y-140754332D01*
X174180313Y-141183784D01*
X174344311Y-141580689D01*
X174647714Y-141884622D01*
X174671674Y-141894571D01*
X174322707Y-142029090D01*
X173990000Y-142345705D01*
X173657293Y-142029090D01*
X173019226Y-141783131D01*
X172745400Y-141979832D01*
X172745400Y-143484600D01*
X173729861Y-143484600D01*
X174250139Y-143484600D01*
X175234600Y-143484600D01*
X175234600Y-143464600D01*
X175285400Y-143464600D01*
X175285400Y-143484600D01*
X176269861Y-143484600D01*
X176790139Y-143484600D01*
X177774600Y-143484600D01*
X177774600Y-141979832D01*
X177500774Y-141783131D01*
X176862707Y-142029090D01*
X176530000Y-142345705D01*
X176197293Y-142029090D01*
X175848773Y-141894744D01*
X175870689Y-141885689D01*
X176174622Y-141582286D01*
X176339313Y-141185668D01*
X176339687Y-140756216D01*
X176175689Y-140359311D01*
X175996600Y-140179909D01*
X175996600Y-139073785D01*
X176253184Y-139180329D01*
X176804398Y-139180810D01*
X177313837Y-138970314D01*
X177703944Y-138580887D01*
X177915329Y-138071816D01*
X177915810Y-137520602D01*
X177705314Y-137011163D01*
X177379295Y-136684574D01*
X177425013Y-136666915D01*
X177491933Y-136622200D01*
X177536791Y-136297712D01*
X176530000Y-135290921D01*
X176515857Y-135305063D01*
X176479936Y-135269142D01*
X176494079Y-135255000D01*
X176479936Y-135240857D01*
X176515857Y-135204936D01*
X176530000Y-135219079D01*
X177536791Y-134212288D01*
X177491933Y-133887800D01*
X176895506Y-133623756D01*
X176243433Y-133608054D01*
X175996600Y-133703400D01*
X175996600Y-132715000D01*
X175986280Y-132663120D01*
X176263587Y-132778268D01*
X176794086Y-132778731D01*
X177284380Y-132576146D01*
X177659827Y-132201353D01*
X177863268Y-131711413D01*
X177863731Y-131180914D01*
X177661146Y-130690620D01*
X177286353Y-130315173D01*
X177266600Y-130306970D01*
X177266600Y-126670110D01*
X178320855Y-125615855D01*
X178480530Y-125376885D01*
X178536600Y-125095000D01*
X178536600Y-121237405D01*
X178803587Y-121348268D01*
X179334086Y-121348731D01*
X179603400Y-121237452D01*
X179603400Y-134620000D01*
X179659470Y-134901885D01*
X179819145Y-135140855D01*
X180873400Y-136195110D01*
X180873400Y-141873399D01*
X180639226Y-141783131D01*
X180365400Y-141979832D01*
X180365400Y-143484600D01*
X180385400Y-143484600D01*
X180385400Y-143535400D01*
X180365400Y-143535400D01*
X180365400Y-143555400D01*
X180314600Y-143555400D01*
X180314600Y-143535400D01*
X180314600Y-143484600D01*
X180314600Y-141979832D01*
X180040774Y-141783131D01*
X179402707Y-142029090D01*
X179070000Y-142345705D01*
X178737293Y-142029090D01*
X178176946Y-141813090D01*
X178176946Y-134968433D01*
X177941915Y-134359987D01*
X177897200Y-134293067D01*
X177572712Y-134248209D01*
X176565921Y-135255000D01*
X177572712Y-136261791D01*
X177897200Y-136216933D01*
X178161244Y-135620506D01*
X178176946Y-134968433D01*
X178176946Y-141813090D01*
X178099226Y-141783131D01*
X177825400Y-141979832D01*
X177825400Y-143484600D01*
X178809861Y-143484600D01*
X179330139Y-143484600D01*
X180314600Y-143484600D01*
X180314600Y-143535400D01*
X179330139Y-143535400D01*
X178809861Y-143535400D01*
X177825400Y-143535400D01*
X177825400Y-144519832D01*
X177825400Y-145040168D01*
X177825400Y-146024600D01*
X177845400Y-146024600D01*
X177845400Y-146075400D01*
X177825400Y-146075400D01*
X177825400Y-147580168D01*
X178099226Y-147776869D01*
X178737293Y-147530910D01*
X179223361Y-147068350D01*
X179250971Y-147109670D01*
X179737152Y-147434526D01*
X180310641Y-147548600D01*
X180369359Y-147548600D01*
X180942848Y-147434526D01*
X181429029Y-147109670D01*
X181610000Y-146838827D01*
X181790971Y-147109670D01*
X182277152Y-147434526D01*
X182850641Y-147548600D01*
X182909359Y-147548600D01*
X183482848Y-147434526D01*
X183969029Y-147109670D01*
X184150000Y-146838827D01*
X184330971Y-147109670D01*
X184817152Y-147434526D01*
X185390641Y-147548600D01*
X185449359Y-147548600D01*
X186022848Y-147434526D01*
X186509029Y-147109670D01*
X186833885Y-146623489D01*
X186947959Y-146050000D01*
X186833885Y-145476511D01*
X186509029Y-144990330D01*
X186420242Y-144931004D01*
X186852666Y-144519496D01*
X187129928Y-143894395D01*
X187146867Y-143809226D01*
X187146867Y-143210774D01*
X187129928Y-143125605D01*
X186852666Y-142500504D01*
X186357293Y-142029090D01*
X185719226Y-141783131D01*
X185445400Y-141979832D01*
X185445400Y-143484600D01*
X186950139Y-143484600D01*
X187146867Y-143210774D01*
X187146867Y-143809226D01*
X186950139Y-143535400D01*
X185445400Y-143535400D01*
X185445400Y-143555400D01*
X185394600Y-143555400D01*
X185394600Y-143535400D01*
X185374600Y-143535400D01*
X185374600Y-143484600D01*
X185394600Y-143484600D01*
X185394600Y-141979832D01*
X185120774Y-141783131D01*
X184886600Y-141873399D01*
X184886600Y-141759997D01*
X185064622Y-141582286D01*
X185229313Y-141185668D01*
X185229687Y-140756216D01*
X185065689Y-140359311D01*
X184762286Y-140055378D01*
X184365668Y-139890687D01*
X183936216Y-139890313D01*
X183616600Y-140022375D01*
X183616600Y-130677080D01*
X183629145Y-130695855D01*
X184899145Y-131965855D01*
X185138115Y-132125530D01*
X185420000Y-132181600D01*
X185749890Y-132181600D01*
X185768824Y-132200534D01*
X185690794Y-132388453D01*
X185690226Y-133038694D01*
X185938538Y-133639655D01*
X186397927Y-134099846D01*
X186998453Y-134349206D01*
X187648694Y-134349774D01*
X188249655Y-134101462D01*
X188709846Y-133642073D01*
X188959206Y-133041547D01*
X188959774Y-132391306D01*
X188711462Y-131790345D01*
X188252073Y-131330154D01*
X187651547Y-131080794D01*
X187001306Y-131080226D01*
X186810694Y-131158984D01*
X186575855Y-130924145D01*
X186336885Y-130764470D01*
X186055000Y-130708400D01*
X185725110Y-130708400D01*
X185015501Y-129998791D01*
X185323944Y-129690887D01*
X185535329Y-129181816D01*
X185535736Y-128714601D01*
X185633784Y-128714687D01*
X186030689Y-128550689D01*
X186334622Y-128247286D01*
X186499313Y-127850668D01*
X186499687Y-127421216D01*
X186335689Y-127024311D01*
X186156600Y-126844909D01*
X186156600Y-124171844D01*
X186199200Y-124189490D01*
X186451819Y-124189490D01*
X188450799Y-124189490D01*
X188684188Y-124092817D01*
X188862817Y-123914189D01*
X188959490Y-123680800D01*
X188959490Y-123428181D01*
X188959490Y-121429201D01*
X188862817Y-121195812D01*
X188684189Y-121017183D01*
X188468000Y-120927634D01*
X188468000Y-108585000D01*
X188380994Y-108147593D01*
X188133223Y-107776777D01*
X186925987Y-106569541D01*
X186833885Y-106106511D01*
X186509029Y-105620330D01*
X186420242Y-105561004D01*
X186852666Y-105149496D01*
X187129928Y-104524395D01*
X187146867Y-104439226D01*
X187146867Y-103840774D01*
X187129928Y-103755605D01*
X186852666Y-103130504D01*
X186357293Y-102659090D01*
X185719226Y-102413131D01*
X185445400Y-102609832D01*
X185445400Y-104114600D01*
X186950139Y-104114600D01*
X187146867Y-103840774D01*
X187146867Y-104439226D01*
X186950139Y-104165400D01*
X185445400Y-104165400D01*
X185445400Y-104185400D01*
X185394600Y-104185400D01*
X185394600Y-104165400D01*
X185394600Y-104114600D01*
X185394600Y-102609832D01*
X185120774Y-102413131D01*
X184482707Y-102659090D01*
X184150000Y-102975705D01*
X183817293Y-102659090D01*
X183179226Y-102413131D01*
X182905400Y-102609832D01*
X182905400Y-104114600D01*
X183889861Y-104114600D01*
X184410139Y-104114600D01*
X185394600Y-104114600D01*
X185394600Y-104165400D01*
X184410139Y-104165400D01*
X183889861Y-104165400D01*
X182905400Y-104165400D01*
X182905400Y-104185400D01*
X182854600Y-104185400D01*
X182854600Y-104165400D01*
X182854600Y-104114600D01*
X182854600Y-102609832D01*
X182580774Y-102413131D01*
X181942707Y-102659090D01*
X181610000Y-102975705D01*
X181277293Y-102659090D01*
X180639226Y-102413131D01*
X180365400Y-102609832D01*
X180365400Y-104114600D01*
X181349861Y-104114600D01*
X181870139Y-104114600D01*
X182854600Y-104114600D01*
X182854600Y-104165400D01*
X181870139Y-104165400D01*
X181349861Y-104165400D01*
X180365400Y-104165400D01*
X180365400Y-104185400D01*
X180314600Y-104185400D01*
X180314600Y-104165400D01*
X180314600Y-104114600D01*
X180314600Y-102609832D01*
X180040774Y-102413131D01*
X179402707Y-102659090D01*
X179070000Y-102975705D01*
X178737293Y-102659090D01*
X178099226Y-102413131D01*
X177825400Y-102609832D01*
X177825400Y-104114600D01*
X178809861Y-104114600D01*
X179330139Y-104114600D01*
X180314600Y-104114600D01*
X180314600Y-104165400D01*
X179330139Y-104165400D01*
X178809861Y-104165400D01*
X177825400Y-104165400D01*
X177825400Y-105149832D01*
X177825400Y-105670168D01*
X177825400Y-106654600D01*
X177845400Y-106654600D01*
X177845400Y-106705400D01*
X177825400Y-106705400D01*
X177825400Y-108210168D01*
X178099226Y-108406869D01*
X178737293Y-108160910D01*
X179223361Y-107698350D01*
X179250971Y-107739670D01*
X179603400Y-107975155D01*
X179603400Y-108914890D01*
X177279145Y-111239145D01*
X177267096Y-111257176D01*
X176796413Y-111061732D01*
X176265914Y-111061269D01*
X175792660Y-111256813D01*
X175780855Y-111239145D01*
X172720310Y-108178600D01*
X172749359Y-108178600D01*
X173322848Y-108064526D01*
X173809029Y-107739670D01*
X173990000Y-107468827D01*
X174170971Y-107739670D01*
X174657152Y-108064526D01*
X175230641Y-108178600D01*
X175289359Y-108178600D01*
X175862848Y-108064526D01*
X176349029Y-107739670D01*
X176376638Y-107698350D01*
X176862707Y-108160910D01*
X177500774Y-108406869D01*
X177774600Y-108210168D01*
X177774600Y-106705400D01*
X177754600Y-106705400D01*
X177754600Y-106654600D01*
X177774600Y-106654600D01*
X177774600Y-105670168D01*
X177774600Y-105149832D01*
X177774600Y-104165400D01*
X177774600Y-104114600D01*
X177774600Y-102609832D01*
X177500774Y-102413131D01*
X176862707Y-102659090D01*
X176530000Y-102975705D01*
X176197293Y-102659090D01*
X175559226Y-102413131D01*
X175285400Y-102609832D01*
X175285400Y-104114600D01*
X176269861Y-104114600D01*
X176790139Y-104114600D01*
X177774600Y-104114600D01*
X177774600Y-104165400D01*
X176790139Y-104165400D01*
X176269861Y-104165400D01*
X175285400Y-104165400D01*
X175285400Y-104185400D01*
X175234600Y-104185400D01*
X175234600Y-104165400D01*
X175234600Y-104114600D01*
X175234600Y-102609832D01*
X174960774Y-102413131D01*
X174322707Y-102659090D01*
X173990000Y-102975705D01*
X173657293Y-102659090D01*
X173019226Y-102413131D01*
X172745400Y-102609832D01*
X172745400Y-104114600D01*
X173729861Y-104114600D01*
X174250139Y-104114600D01*
X175234600Y-104114600D01*
X175234600Y-104165400D01*
X174250139Y-104165400D01*
X173729861Y-104165400D01*
X172745400Y-104165400D01*
X172745400Y-104185400D01*
X172694600Y-104185400D01*
X172694600Y-104165400D01*
X172694600Y-104114600D01*
X172694600Y-102609832D01*
X172420774Y-102413131D01*
X171782707Y-102659090D01*
X171450000Y-102975705D01*
X171117293Y-102659090D01*
X170479226Y-102413131D01*
X170205400Y-102609832D01*
X170205400Y-104114600D01*
X171189861Y-104114600D01*
X171710139Y-104114600D01*
X172694600Y-104114600D01*
X172694600Y-104165400D01*
X171710139Y-104165400D01*
X171189861Y-104165400D01*
X170205400Y-104165400D01*
X170205400Y-104185400D01*
X170154600Y-104185400D01*
X170154600Y-104165400D01*
X170154600Y-104114600D01*
X170154600Y-102609832D01*
X169880774Y-102413131D01*
X169242707Y-102659090D01*
X168910000Y-102975705D01*
X168577293Y-102659090D01*
X167939226Y-102413131D01*
X167665400Y-102609832D01*
X167665400Y-104114600D01*
X168649861Y-104114600D01*
X169170139Y-104114600D01*
X170154600Y-104114600D01*
X170154600Y-104165400D01*
X169170139Y-104165400D01*
X168649861Y-104165400D01*
X167665400Y-104165400D01*
X167665400Y-105149832D01*
X167665400Y-105670168D01*
X167665400Y-106654600D01*
X167685400Y-106654600D01*
X167685400Y-106705400D01*
X167665400Y-106705400D01*
X167665400Y-108210168D01*
X167939226Y-108406869D01*
X168173400Y-108316600D01*
X168173400Y-108585000D01*
X168229470Y-108866885D01*
X168389145Y-109105855D01*
X169443400Y-110160110D01*
X169443400Y-111172594D01*
X169176413Y-111061732D01*
X168645914Y-111061269D01*
X168155620Y-111263854D01*
X167780173Y-111638647D01*
X167576732Y-112128587D01*
X167576269Y-112659086D01*
X167778854Y-113149380D01*
X168153647Y-113524827D01*
X168643587Y-113728268D01*
X169174086Y-113728731D01*
X169443400Y-113617452D01*
X169443400Y-115702919D01*
X169430855Y-115684145D01*
X165836600Y-112089890D01*
X165836600Y-111914997D01*
X166014622Y-111737286D01*
X166179313Y-111340668D01*
X166179687Y-110911216D01*
X166015689Y-110514311D01*
X165712286Y-110210378D01*
X165315668Y-110045687D01*
X164886216Y-110045313D01*
X164566600Y-110177375D01*
X164566600Y-108078340D01*
X165070641Y-108178600D01*
X165129359Y-108178600D01*
X165702848Y-108064526D01*
X166189029Y-107739670D01*
X166216638Y-107698350D01*
X166702707Y-108160910D01*
X167340774Y-108406869D01*
X167614600Y-108210168D01*
X167614600Y-106705400D01*
X167594600Y-106705400D01*
X167594600Y-106654600D01*
X167614600Y-106654600D01*
X167614600Y-105670168D01*
X167614600Y-105149832D01*
X167614600Y-104165400D01*
X167614600Y-104114600D01*
X167614600Y-102609832D01*
X167340774Y-102413131D01*
X166702707Y-102659090D01*
X166370000Y-102975705D01*
X166037293Y-102659090D01*
X165399226Y-102413131D01*
X165125400Y-102609832D01*
X165125400Y-104114600D01*
X166109861Y-104114600D01*
X166630139Y-104114600D01*
X167614600Y-104114600D01*
X167614600Y-104165400D01*
X166630139Y-104165400D01*
X166109861Y-104165400D01*
X165125400Y-104165400D01*
X165125400Y-104185400D01*
X165074600Y-104185400D01*
X165074600Y-104165400D01*
X165074600Y-104114600D01*
X165074600Y-102609832D01*
X164800774Y-102413131D01*
X164162707Y-102659090D01*
X163830000Y-102975705D01*
X163497293Y-102659090D01*
X162859226Y-102413131D01*
X162585400Y-102609832D01*
X162585400Y-104114600D01*
X163569861Y-104114600D01*
X164090139Y-104114600D01*
X165074600Y-104114600D01*
X165074600Y-104165400D01*
X164090139Y-104165400D01*
X163569861Y-104165400D01*
X162585400Y-104165400D01*
X162585400Y-104185400D01*
X162534600Y-104185400D01*
X162534600Y-104165400D01*
X162534600Y-104114600D01*
X162534600Y-102609832D01*
X162260774Y-102413131D01*
X161622707Y-102659090D01*
X161290000Y-102975705D01*
X160957293Y-102659090D01*
X160319226Y-102413131D01*
X160045400Y-102609832D01*
X160045400Y-104114600D01*
X161029861Y-104114600D01*
X161550139Y-104114600D01*
X162534600Y-104114600D01*
X162534600Y-104165400D01*
X161550139Y-104165400D01*
X161029861Y-104165400D01*
X160045400Y-104165400D01*
X160045400Y-104185400D01*
X159994600Y-104185400D01*
X159994600Y-104165400D01*
X159994600Y-104114600D01*
X159994600Y-102609832D01*
X159720774Y-102413131D01*
X159082707Y-102659090D01*
X158750000Y-102975705D01*
X158417293Y-102659090D01*
X157779226Y-102413131D01*
X157505400Y-102609832D01*
X157505400Y-104114600D01*
X158489861Y-104114600D01*
X159010139Y-104114600D01*
X159994600Y-104114600D01*
X159994600Y-104165400D01*
X159010139Y-104165400D01*
X158489861Y-104165400D01*
X157505400Y-104165400D01*
X157505400Y-105149832D01*
X157505400Y-105670168D01*
X157505400Y-106654600D01*
X157525400Y-106654600D01*
X157525400Y-106705400D01*
X157505400Y-106705400D01*
X157505400Y-108210168D01*
X157779226Y-108406869D01*
X158417293Y-108160910D01*
X158903361Y-107698350D01*
X158930971Y-107739670D01*
X159417152Y-108064526D01*
X159990641Y-108178600D01*
X160049359Y-108178600D01*
X160622848Y-108064526D01*
X161109029Y-107739670D01*
X161290000Y-107468827D01*
X161470971Y-107739670D01*
X161823400Y-107975155D01*
X161823400Y-110184890D01*
X155689145Y-116319145D01*
X155676600Y-116337919D01*
X155676600Y-109220000D01*
X155620530Y-108938115D01*
X155460855Y-108699145D01*
X154940310Y-108178600D01*
X154969359Y-108178600D01*
X155542848Y-108064526D01*
X156029029Y-107739670D01*
X156056638Y-107698350D01*
X156542707Y-108160910D01*
X157180774Y-108406869D01*
X157454600Y-108210168D01*
X157454600Y-106705400D01*
X157434600Y-106705400D01*
X157434600Y-106654600D01*
X157454600Y-106654600D01*
X157454600Y-105670168D01*
X157454600Y-105149832D01*
X157454600Y-104165400D01*
X157454600Y-104114600D01*
X157454600Y-102609832D01*
X157180774Y-102413131D01*
X156542707Y-102659090D01*
X156210000Y-102975705D01*
X155877293Y-102659090D01*
X155239226Y-102413131D01*
X154965400Y-102609832D01*
X154965400Y-104114600D01*
X155949861Y-104114600D01*
X156470139Y-104114600D01*
X157454600Y-104114600D01*
X157454600Y-104165400D01*
X156470139Y-104165400D01*
X155949861Y-104165400D01*
X154965400Y-104165400D01*
X154965400Y-104185400D01*
X154914600Y-104185400D01*
X154914600Y-104165400D01*
X154914600Y-104114600D01*
X154914600Y-102609832D01*
X154640774Y-102413131D01*
X154002707Y-102659090D01*
X153670000Y-102975705D01*
X153337293Y-102659090D01*
X152699226Y-102413131D01*
X152425400Y-102609832D01*
X152425400Y-104114600D01*
X153409861Y-104114600D01*
X153930139Y-104114600D01*
X154914600Y-104114600D01*
X154914600Y-104165400D01*
X153930139Y-104165400D01*
X153409861Y-104165400D01*
X152425400Y-104165400D01*
X152425400Y-104185400D01*
X152374600Y-104185400D01*
X152374600Y-104165400D01*
X152374600Y-104114600D01*
X152374600Y-102609832D01*
X152100774Y-102413131D01*
X151462707Y-102659090D01*
X151130000Y-102975705D01*
X150797293Y-102659090D01*
X150159226Y-102413131D01*
X149885400Y-102609832D01*
X149885400Y-104114600D01*
X150869861Y-104114600D01*
X151390139Y-104114600D01*
X152374600Y-104114600D01*
X152374600Y-104165400D01*
X151390139Y-104165400D01*
X150869861Y-104165400D01*
X149885400Y-104165400D01*
X149885400Y-104185400D01*
X149834600Y-104185400D01*
X149834600Y-104165400D01*
X149834600Y-104114600D01*
X149834600Y-102609832D01*
X149560774Y-102413131D01*
X148922707Y-102659090D01*
X148590000Y-102975705D01*
X148257293Y-102659090D01*
X147619226Y-102413131D01*
X147345400Y-102609832D01*
X147345400Y-104114600D01*
X148329861Y-104114600D01*
X148850139Y-104114600D01*
X149834600Y-104114600D01*
X149834600Y-104165400D01*
X148850139Y-104165400D01*
X148329861Y-104165400D01*
X147345400Y-104165400D01*
X147345400Y-105149832D01*
X147345400Y-105670168D01*
X147345400Y-106654600D01*
X147365400Y-106654600D01*
X147365400Y-106705400D01*
X147345400Y-106705400D01*
X147345400Y-108210168D01*
X147619226Y-108406869D01*
X148257293Y-108160910D01*
X148743361Y-107698350D01*
X148770971Y-107739670D01*
X149257152Y-108064526D01*
X149830641Y-108178600D01*
X149889359Y-108178600D01*
X150462848Y-108064526D01*
X150687624Y-107914334D01*
X152590532Y-109817242D01*
X152590313Y-110068784D01*
X152754311Y-110465689D01*
X153057714Y-110769622D01*
X153454332Y-110934313D01*
X153883784Y-110934687D01*
X154203400Y-110802624D01*
X154203400Y-111730781D01*
X154166146Y-111640620D01*
X153791353Y-111265173D01*
X153301413Y-111061732D01*
X152770914Y-111061269D01*
X152280620Y-111263854D01*
X151905173Y-111638647D01*
X151764906Y-111976446D01*
X151626146Y-111640620D01*
X151251353Y-111265173D01*
X150761413Y-111061732D01*
X150230914Y-111061269D01*
X149961600Y-111172547D01*
X149961600Y-111125000D01*
X149905530Y-110843116D01*
X149905530Y-110843115D01*
X149745855Y-110604145D01*
X149110855Y-109969145D01*
X148871885Y-109809470D01*
X148590000Y-109753400D01*
X144450110Y-109753400D01*
X142976600Y-108279890D01*
X142976600Y-107975155D01*
X143329029Y-107739670D01*
X143510000Y-107468827D01*
X143690971Y-107739670D01*
X144177152Y-108064526D01*
X144750641Y-108178600D01*
X144809359Y-108178600D01*
X145382848Y-108064526D01*
X145869029Y-107739670D01*
X145896638Y-107698350D01*
X146382707Y-108160910D01*
X147020774Y-108406869D01*
X147294600Y-108210168D01*
X147294600Y-106705400D01*
X147274600Y-106705400D01*
X147274600Y-106654600D01*
X147294600Y-106654600D01*
X147294600Y-105670168D01*
X147294600Y-105149832D01*
X147294600Y-104165400D01*
X147294600Y-104114600D01*
X147294600Y-102609832D01*
X147020774Y-102413131D01*
X146382707Y-102659090D01*
X146050000Y-102975705D01*
X145717293Y-102659090D01*
X145079226Y-102413131D01*
X144805400Y-102609832D01*
X144805400Y-104114600D01*
X145789861Y-104114600D01*
X146310139Y-104114600D01*
X147294600Y-104114600D01*
X147294600Y-104165400D01*
X146310139Y-104165400D01*
X145789861Y-104165400D01*
X144805400Y-104165400D01*
X144805400Y-104185400D01*
X144754600Y-104185400D01*
X144754600Y-104165400D01*
X144754600Y-104114600D01*
X144754600Y-102609832D01*
X144480774Y-102413131D01*
X143842707Y-102659090D01*
X143510000Y-102975705D01*
X143177293Y-102659090D01*
X142539226Y-102413131D01*
X142265400Y-102609832D01*
X142265400Y-104114600D01*
X143249861Y-104114600D01*
X143770139Y-104114600D01*
X144754600Y-104114600D01*
X144754600Y-104165400D01*
X143770139Y-104165400D01*
X143249861Y-104165400D01*
X142265400Y-104165400D01*
X142265400Y-104185400D01*
X142214600Y-104185400D01*
X142214600Y-104165400D01*
X142214600Y-104114600D01*
X142214600Y-102609832D01*
X141940774Y-102413131D01*
X141302707Y-102659090D01*
X140970000Y-102975705D01*
X140637293Y-102659090D01*
X139999226Y-102413131D01*
X139725400Y-102609832D01*
X139725400Y-104114600D01*
X140709861Y-104114600D01*
X141230139Y-104114600D01*
X142214600Y-104114600D01*
X142214600Y-104165400D01*
X141230139Y-104165400D01*
X140709861Y-104165400D01*
X139725400Y-104165400D01*
X139725400Y-104185400D01*
X139674600Y-104185400D01*
X139674600Y-104165400D01*
X139674600Y-104114600D01*
X139674600Y-102609832D01*
X139400774Y-102413131D01*
X138762707Y-102659090D01*
X138430000Y-102975705D01*
X138097293Y-102659090D01*
X137459226Y-102413131D01*
X137185400Y-102609832D01*
X137185400Y-104114600D01*
X138169861Y-104114600D01*
X138690139Y-104114600D01*
X139674600Y-104114600D01*
X139674600Y-104165400D01*
X138690139Y-104165400D01*
X138169861Y-104165400D01*
X137185400Y-104165400D01*
X137185400Y-105149650D01*
X137185400Y-105670168D01*
X137185400Y-106654600D01*
X137205400Y-106654600D01*
X137205400Y-106705400D01*
X137185400Y-106705400D01*
X137185400Y-108210350D01*
X137407650Y-108432600D01*
X138200433Y-108432600D01*
X138527178Y-108297258D01*
X138777258Y-108047178D01*
X138840974Y-107893353D01*
X139097152Y-108064526D01*
X139670641Y-108178600D01*
X139729359Y-108178600D01*
X140085958Y-108107668D01*
X140868400Y-108890110D01*
X140868400Y-109700002D01*
X140690378Y-109877714D01*
X140525687Y-110274332D01*
X140525313Y-110703784D01*
X140688084Y-111097721D01*
X140601413Y-111061732D01*
X140070914Y-111061269D01*
X139580620Y-111263854D01*
X139205173Y-111638647D01*
X139064906Y-111976446D01*
X138926146Y-111640620D01*
X138551353Y-111265173D01*
X138061413Y-111061732D01*
X137530914Y-111061269D01*
X137134600Y-111225022D01*
X137134600Y-108210350D01*
X137134600Y-106705400D01*
X137134600Y-106654600D01*
X137134600Y-105670168D01*
X137134600Y-105149650D01*
X137134600Y-104165400D01*
X137134600Y-104114600D01*
X137134600Y-102609832D01*
X136860774Y-102413131D01*
X136222707Y-102659090D01*
X135727334Y-103130504D01*
X135450072Y-103755605D01*
X135433133Y-103840774D01*
X135629861Y-104114600D01*
X137134600Y-104114600D01*
X137134600Y-104165400D01*
X135629861Y-104165400D01*
X135433133Y-104439226D01*
X135450072Y-104524395D01*
X135720799Y-105134764D01*
X135542742Y-105312822D01*
X135407400Y-105639567D01*
X135407400Y-105993233D01*
X135407400Y-106432350D01*
X135629650Y-106654600D01*
X137134600Y-106654600D01*
X137134600Y-106705400D01*
X135629650Y-106705400D01*
X135407400Y-106927650D01*
X135407400Y-107366767D01*
X135407400Y-107720433D01*
X135542742Y-108047178D01*
X135792822Y-108297258D01*
X136119567Y-108432600D01*
X136912350Y-108432600D01*
X137134600Y-108210350D01*
X137134600Y-111225022D01*
X137040620Y-111263854D01*
X136665173Y-111638647D01*
X136461732Y-112128587D01*
X136461269Y-112659086D01*
X136652000Y-113120691D01*
X136652000Y-114461554D01*
X134996946Y-116116608D01*
X134996946Y-114648433D01*
X134761915Y-114039987D01*
X134717200Y-113973067D01*
X134392712Y-113928209D01*
X134356791Y-113964130D01*
X134356791Y-113892288D01*
X134311933Y-113567800D01*
X133715506Y-113303756D01*
X133063433Y-113288054D01*
X132454987Y-113523085D01*
X132388067Y-113567800D01*
X132343209Y-113892288D01*
X133350000Y-114899079D01*
X134356791Y-113892288D01*
X134356791Y-113964130D01*
X133385921Y-114935000D01*
X134392712Y-115941791D01*
X134717200Y-115896933D01*
X134981244Y-115300506D01*
X134996946Y-114648433D01*
X134996946Y-116116608D01*
X134781554Y-116332000D01*
X134267334Y-116332000D01*
X134311933Y-116302200D01*
X134356791Y-115977712D01*
X133350000Y-114970921D01*
X133314079Y-115006842D01*
X133314079Y-114935000D01*
X132307288Y-113928209D01*
X131982800Y-113973067D01*
X131809774Y-114363901D01*
X131809774Y-110801306D01*
X131561462Y-110200345D01*
X131102073Y-109740154D01*
X130501547Y-109490794D01*
X129851306Y-109490226D01*
X129250345Y-109738538D01*
X128790154Y-110197927D01*
X128540794Y-110798453D01*
X128540226Y-111448694D01*
X128788538Y-112049655D01*
X129247927Y-112509846D01*
X129848453Y-112759206D01*
X130498694Y-112759774D01*
X131099655Y-112511462D01*
X131559846Y-112052073D01*
X131809206Y-111451547D01*
X131809774Y-110801306D01*
X131809774Y-114363901D01*
X131718756Y-114569494D01*
X131703054Y-115221567D01*
X131938085Y-115830013D01*
X131982800Y-115896933D01*
X132307288Y-115941791D01*
X133314079Y-114935000D01*
X133314079Y-115006842D01*
X132343209Y-115977712D01*
X132388067Y-116302200D01*
X132509701Y-116356048D01*
X132176056Y-116689113D01*
X131964671Y-117198184D01*
X131964190Y-117749398D01*
X132174686Y-118258837D01*
X132564113Y-118648944D01*
X133073184Y-118860329D01*
X133624398Y-118860810D01*
X134133837Y-118650314D01*
X134166207Y-118618000D01*
X135255000Y-118618000D01*
X135692407Y-118530994D01*
X136063223Y-118283223D01*
X138603223Y-115743223D01*
X138850994Y-115372407D01*
X138938000Y-114935000D01*
X138938000Y-113119628D01*
X139065093Y-112813553D01*
X139203854Y-113149380D01*
X139578647Y-113524827D01*
X140068587Y-113728268D01*
X140599086Y-113728731D01*
X141089380Y-113526146D01*
X141464827Y-113151353D01*
X141605093Y-112813553D01*
X141743854Y-113149380D01*
X142118647Y-113524827D01*
X142608587Y-113728268D01*
X143065443Y-113728666D01*
X143065313Y-113878784D01*
X143229311Y-114275689D01*
X143408400Y-114455090D01*
X143408400Y-118792594D01*
X143141413Y-118681732D01*
X142610914Y-118681269D01*
X142341600Y-118792547D01*
X142341600Y-115724997D01*
X142519622Y-115547286D01*
X142684313Y-115150668D01*
X142684687Y-114721216D01*
X142520689Y-114324311D01*
X142217286Y-114020378D01*
X141820668Y-113855687D01*
X141391216Y-113855313D01*
X140994311Y-114019311D01*
X140690378Y-114322714D01*
X140525687Y-114719332D01*
X140525313Y-115148784D01*
X140689311Y-115545689D01*
X140868400Y-115725090D01*
X140868400Y-118792594D01*
X140601413Y-118681732D01*
X140070914Y-118681269D01*
X139580620Y-118883854D01*
X139205173Y-119258647D01*
X139128500Y-119443295D01*
X139128500Y-119190191D01*
X139031827Y-118956802D01*
X138853199Y-118778173D01*
X138619810Y-118681500D01*
X138367191Y-118681500D01*
X136970191Y-118681500D01*
X136736802Y-118778173D01*
X136558173Y-118956801D01*
X136461500Y-119190190D01*
X136461500Y-119442809D01*
X136461500Y-120839809D01*
X136558173Y-121073198D01*
X136736801Y-121251827D01*
X136970190Y-121348500D01*
X137222809Y-121348500D01*
X138619809Y-121348500D01*
X138853198Y-121251827D01*
X139031827Y-121073199D01*
X139128500Y-120839810D01*
X139128500Y-120587191D01*
X139128500Y-120587009D01*
X139203854Y-120769380D01*
X139578647Y-121144827D01*
X139924748Y-121288541D01*
X139179145Y-122034145D01*
X139019470Y-122273115D01*
X138963400Y-122555000D01*
X138963400Y-133044890D01*
X138794610Y-133213679D01*
X138794774Y-133026306D01*
X138546462Y-132425345D01*
X138087073Y-131965154D01*
X137486547Y-131715794D01*
X136836306Y-131715226D01*
X136235345Y-131963538D01*
X135991600Y-132206858D01*
X135991600Y-125400110D01*
X136645534Y-124746175D01*
X136833453Y-124824206D01*
X137483694Y-124824774D01*
X138084655Y-124576462D01*
X138544846Y-124117073D01*
X138794206Y-123516547D01*
X138794774Y-122866306D01*
X138546462Y-122265345D01*
X138087073Y-121805154D01*
X137486547Y-121555794D01*
X136836306Y-121555226D01*
X136235345Y-121803538D01*
X135775154Y-122262927D01*
X135525794Y-122863453D01*
X135525226Y-123513694D01*
X135603984Y-123704305D01*
X134734145Y-124574145D01*
X134574470Y-124813115D01*
X134518400Y-125095000D01*
X134518400Y-132206902D01*
X134277073Y-131965154D01*
X133676547Y-131715794D01*
X133026306Y-131715226D01*
X132425345Y-131963538D01*
X131965154Y-132422927D01*
X131715794Y-133023453D01*
X131715226Y-133673694D01*
X131963538Y-134274655D01*
X132422927Y-134734846D01*
X133023453Y-134984206D01*
X133673694Y-134984774D01*
X134274655Y-134736462D01*
X134518400Y-134493141D01*
X134518400Y-134949890D01*
X132829145Y-136639145D01*
X132669470Y-136878115D01*
X132613400Y-137160000D01*
X132613400Y-140029890D01*
X126775496Y-145867793D01*
X126664398Y-145821661D01*
X126068218Y-145821141D01*
X125517220Y-146048808D01*
X125095290Y-146470003D01*
X125094904Y-146470930D01*
X124674997Y-146050290D01*
X124124398Y-145821661D01*
X123825309Y-145821400D01*
X125615855Y-144030855D01*
X125775530Y-143791885D01*
X125775530Y-143791884D01*
X125831600Y-143510000D01*
X125831600Y-139700000D01*
X125775530Y-139418116D01*
X125775530Y-139418115D01*
X125615855Y-139179145D01*
X125474077Y-139037367D01*
X126122634Y-138788334D01*
X126206126Y-138732547D01*
X126281277Y-138382198D01*
X125095000Y-137195921D01*
X125080857Y-137210063D01*
X125044936Y-137174142D01*
X125059079Y-137160000D01*
X125044936Y-137145857D01*
X125080857Y-137109936D01*
X125095000Y-137124079D01*
X126281277Y-135937802D01*
X126206126Y-135587453D01*
X125876534Y-135440749D01*
X125990013Y-135396915D01*
X126056933Y-135352200D01*
X126101791Y-135027712D01*
X125095000Y-134020921D01*
X125080857Y-134035063D01*
X125044936Y-133999142D01*
X125059079Y-133985000D01*
X125044936Y-133970857D01*
X125080857Y-133934936D01*
X125095000Y-133949079D01*
X125109142Y-133934936D01*
X125145063Y-133970857D01*
X125130921Y-133985000D01*
X126137712Y-134991791D01*
X126462200Y-134946933D01*
X126492000Y-134879620D01*
X126492000Y-136011218D01*
X126317198Y-135973723D01*
X125130921Y-137160000D01*
X126317198Y-138346277D01*
X126492000Y-138308781D01*
X126492000Y-139700000D01*
X126579006Y-140137407D01*
X126826777Y-140508223D01*
X127197593Y-140755994D01*
X127635000Y-140843000D01*
X128072407Y-140755994D01*
X128443223Y-140508223D01*
X128690994Y-140137407D01*
X128778000Y-139700000D01*
X128778000Y-133985000D01*
X128690994Y-133547593D01*
X128443223Y-133176777D01*
X126480771Y-131214325D01*
X126480810Y-131170602D01*
X126270314Y-130661163D01*
X125886421Y-130276600D01*
X129540000Y-130276600D01*
X129821885Y-130220530D01*
X130060855Y-130060855D01*
X133870855Y-126250855D01*
X134030530Y-126011885D01*
X134030530Y-126011884D01*
X134086600Y-125730000D01*
X134086600Y-124654164D01*
X134274655Y-124576462D01*
X134734846Y-124117073D01*
X134984206Y-123516547D01*
X134984774Y-122866306D01*
X134736462Y-122265345D01*
X134277073Y-121805154D01*
X133676547Y-121555794D01*
X133026306Y-121555226D01*
X132425345Y-121803538D01*
X131965154Y-122262927D01*
X131809774Y-122637123D01*
X131809774Y-120961306D01*
X131561462Y-120360345D01*
X131102073Y-119900154D01*
X130501547Y-119650794D01*
X129851306Y-119650226D01*
X129250345Y-119898538D01*
X128790154Y-120357927D01*
X128540794Y-120958453D01*
X128540226Y-121608694D01*
X128618984Y-121799305D01*
X127749145Y-122669145D01*
X127627643Y-122850985D01*
X127627643Y-106353727D01*
X127358334Y-105652366D01*
X127302547Y-105568874D01*
X126952198Y-105493723D01*
X126916277Y-105529644D01*
X126916277Y-105457802D01*
X126841126Y-105107453D01*
X126154759Y-104801947D01*
X125403727Y-104782357D01*
X124702366Y-105051666D01*
X124618874Y-105107453D01*
X124543723Y-105457802D01*
X125730000Y-106644079D01*
X126916277Y-105457802D01*
X126916277Y-105529644D01*
X125765921Y-106680000D01*
X126952198Y-107866277D01*
X127302547Y-107791126D01*
X127608053Y-107104759D01*
X127627643Y-106353727D01*
X127627643Y-122850985D01*
X127589470Y-122908115D01*
X127533400Y-123190000D01*
X127533400Y-123252800D01*
X127479697Y-123274990D01*
X127364774Y-123389712D01*
X127364774Y-116516306D01*
X127116462Y-115915345D01*
X126916277Y-115714810D01*
X126916277Y-107902198D01*
X125730000Y-106715921D01*
X125694079Y-106751842D01*
X125694079Y-106680000D01*
X124507802Y-105493723D01*
X124157453Y-105568874D01*
X123851947Y-106255241D01*
X123832357Y-107006273D01*
X124101666Y-107707634D01*
X124157453Y-107791126D01*
X124507802Y-107866277D01*
X125694079Y-106680000D01*
X125694079Y-106751842D01*
X124543723Y-107902198D01*
X124618874Y-108252547D01*
X125305241Y-108558053D01*
X126056273Y-108577643D01*
X126757634Y-108308334D01*
X126841126Y-108252547D01*
X126916277Y-107902198D01*
X126916277Y-115714810D01*
X126657073Y-115455154D01*
X126056547Y-115205794D01*
X125406306Y-115205226D01*
X124805345Y-115453538D01*
X124345154Y-115912927D01*
X124095794Y-116513453D01*
X124095226Y-117163694D01*
X124173984Y-117354305D01*
X123304145Y-118224145D01*
X123190000Y-118394974D01*
X123190000Y-117397833D01*
X123190000Y-109594650D01*
X122967750Y-109372400D01*
X117500400Y-109372400D01*
X117500400Y-117887750D01*
X117722650Y-118110000D01*
X122124167Y-118110000D01*
X122477833Y-118110000D01*
X122804578Y-117974658D01*
X123054658Y-117724578D01*
X123190000Y-117397833D01*
X123190000Y-118394974D01*
X123144470Y-118463115D01*
X123088400Y-118745000D01*
X123088400Y-118820168D01*
X123041163Y-118839686D01*
X122651056Y-119229113D01*
X122439671Y-119738184D01*
X122439190Y-120289398D01*
X122649686Y-120798837D01*
X123039113Y-121188944D01*
X123270381Y-121284974D01*
X123041163Y-121379686D01*
X122651056Y-121769113D01*
X122439671Y-122278184D01*
X122439190Y-122829398D01*
X122649686Y-123338837D01*
X123039113Y-123728944D01*
X123548184Y-123940329D01*
X124099398Y-123940810D01*
X124608837Y-123730314D01*
X124998944Y-123340887D01*
X125210329Y-122831816D01*
X125210810Y-122280602D01*
X125000314Y-121771163D01*
X124610887Y-121381056D01*
X124379618Y-121285025D01*
X124608837Y-121190314D01*
X124998944Y-120800887D01*
X125210329Y-120291816D01*
X125210810Y-119740602D01*
X125000314Y-119231163D01*
X124690700Y-118921009D01*
X125215534Y-118396175D01*
X125403453Y-118474206D01*
X126053694Y-118474774D01*
X126654655Y-118226462D01*
X127114846Y-117767073D01*
X127364206Y-117166547D01*
X127364774Y-116516306D01*
X127364774Y-123389712D01*
X127086371Y-123667630D01*
X126873243Y-124180900D01*
X126872758Y-124736661D01*
X127084990Y-125250303D01*
X127400197Y-125566061D01*
X127368898Y-125578148D01*
X127301216Y-125623371D01*
X127254967Y-125949046D01*
X128270000Y-126964079D01*
X129285033Y-125949046D01*
X129238784Y-125623371D01*
X129130164Y-125575270D01*
X129453629Y-125252370D01*
X129666757Y-124739100D01*
X129667242Y-124183339D01*
X129455010Y-123669697D01*
X129143783Y-123357926D01*
X129660534Y-122841175D01*
X129848453Y-122919206D01*
X130498694Y-122919774D01*
X131099655Y-122671462D01*
X131559846Y-122212073D01*
X131809206Y-121611547D01*
X131809774Y-120961306D01*
X131809774Y-122637123D01*
X131715794Y-122863453D01*
X131715226Y-123513694D01*
X131963538Y-124114655D01*
X132422927Y-124574846D01*
X132613400Y-124653937D01*
X132613400Y-125424890D01*
X129928457Y-128109833D01*
X129928457Y-126711609D01*
X129691852Y-126098898D01*
X129646629Y-126031216D01*
X129320954Y-125984967D01*
X128305921Y-127000000D01*
X129320954Y-128015033D01*
X129646629Y-127968784D01*
X129912577Y-127368226D01*
X129928457Y-126711609D01*
X129928457Y-128109833D01*
X129285033Y-128753257D01*
X129285033Y-128050954D01*
X128270000Y-127035921D01*
X128234079Y-127071842D01*
X128234079Y-127000000D01*
X127219046Y-125984967D01*
X126893371Y-126031216D01*
X126627423Y-126631774D01*
X126611543Y-127288391D01*
X126848148Y-127901102D01*
X126893371Y-127968784D01*
X127219046Y-128015033D01*
X128234079Y-127000000D01*
X128234079Y-127071842D01*
X127254967Y-128050954D01*
X127301216Y-128376629D01*
X127901774Y-128642577D01*
X128558391Y-128658457D01*
X129171102Y-128421852D01*
X129238784Y-128376629D01*
X129285033Y-128050954D01*
X129285033Y-128753257D01*
X129234890Y-128803400D01*
X124460000Y-128803400D01*
X124178115Y-128859470D01*
X123939145Y-129019145D01*
X123291600Y-129666690D01*
X123291600Y-129210110D01*
X124980855Y-127520855D01*
X125140530Y-127281885D01*
X125140530Y-127281884D01*
X125196600Y-127000000D01*
X125196600Y-125884997D01*
X125374622Y-125707286D01*
X125539313Y-125310668D01*
X125539687Y-124881216D01*
X125375689Y-124484311D01*
X125072286Y-124180378D01*
X124675668Y-124015687D01*
X124246216Y-124015313D01*
X123849311Y-124179311D01*
X123545378Y-124482714D01*
X123380687Y-124879332D01*
X123380313Y-125308784D01*
X123544311Y-125705689D01*
X123723400Y-125885090D01*
X123723400Y-126694890D01*
X123063000Y-127355290D01*
X123063000Y-126546777D01*
X123093944Y-126515887D01*
X123305329Y-126006816D01*
X123305810Y-125455602D01*
X123095314Y-124946163D01*
X122705887Y-124556056D01*
X122196816Y-124344671D01*
X122151077Y-124344631D01*
X121158000Y-123351554D01*
X121158000Y-123142452D01*
X121386619Y-122800299D01*
X121499630Y-122232156D01*
X121499630Y-120337844D01*
X121386619Y-119769701D01*
X121064792Y-119288052D01*
X120583143Y-118966225D01*
X120015000Y-118853214D01*
X119446857Y-118966225D01*
X118965208Y-119288052D01*
X118879199Y-119416773D01*
X118686437Y-119137213D01*
X118116879Y-118768566D01*
X117772040Y-118671503D01*
X117500400Y-118868403D01*
X117500400Y-121259600D01*
X117520400Y-121259600D01*
X117520400Y-121310400D01*
X117500400Y-121310400D01*
X117500400Y-123701597D01*
X117772040Y-123898497D01*
X118116879Y-123801434D01*
X118686437Y-123432787D01*
X118872000Y-123163667D01*
X118872000Y-123825000D01*
X118935467Y-124144072D01*
X118484987Y-124318085D01*
X118418067Y-124362800D01*
X118373209Y-124687288D01*
X119380000Y-125694079D01*
X119394142Y-125679936D01*
X119430063Y-125715857D01*
X119415921Y-125730000D01*
X119430063Y-125744142D01*
X119394142Y-125780063D01*
X119380000Y-125765921D01*
X119365857Y-125780063D01*
X119344079Y-125758285D01*
X119329936Y-125744142D01*
X119344079Y-125730000D01*
X118337288Y-124723209D01*
X118012800Y-124768067D01*
X117787578Y-125276800D01*
X117616915Y-124834987D01*
X117572200Y-124768067D01*
X117449600Y-124751118D01*
X117247712Y-124723209D01*
X116240921Y-125730000D01*
X116255063Y-125744142D01*
X116219142Y-125780063D01*
X116205000Y-125765921D01*
X116190857Y-125780063D01*
X116154936Y-125744142D01*
X116169079Y-125730000D01*
X116154936Y-125715857D01*
X116190857Y-125679936D01*
X116205000Y-125694079D01*
X117211791Y-124687288D01*
X117166933Y-124362800D01*
X116570506Y-124098756D01*
X116078000Y-124086896D01*
X116078000Y-123163667D01*
X116263563Y-123432787D01*
X116833121Y-123801434D01*
X117177960Y-123898497D01*
X117449600Y-123701597D01*
X117449600Y-121310400D01*
X117429600Y-121310400D01*
X117429600Y-121259600D01*
X117449600Y-121259600D01*
X117449600Y-118868403D01*
X117449600Y-117887750D01*
X117449600Y-109372400D01*
X111982250Y-109372400D01*
X111760000Y-109594650D01*
X111760000Y-117397833D01*
X111895342Y-117724578D01*
X112145422Y-117974658D01*
X112472167Y-118110000D01*
X112825833Y-118110000D01*
X117227350Y-118110000D01*
X117449600Y-117887750D01*
X117449600Y-118868403D01*
X117177960Y-118671503D01*
X116833121Y-118768566D01*
X116263563Y-119137213D01*
X116070800Y-119416773D01*
X115984792Y-119288052D01*
X115503143Y-118966225D01*
X114935000Y-118853214D01*
X114366857Y-118966225D01*
X113885208Y-119288052D01*
X113563381Y-119769701D01*
X113450370Y-120337844D01*
X113450370Y-122232156D01*
X113563381Y-122800299D01*
X113792000Y-123142452D01*
X113792000Y-123986554D01*
X113434325Y-124344228D01*
X113390602Y-124344190D01*
X112881163Y-124554686D01*
X112491056Y-124944113D01*
X112279671Y-125453184D01*
X112279190Y-126004398D01*
X112489686Y-126513837D01*
X112879113Y-126903944D01*
X113388184Y-127115329D01*
X113939398Y-127115810D01*
X114448837Y-126905314D01*
X114775425Y-126579295D01*
X114793085Y-126625013D01*
X114837800Y-126691933D01*
X115162285Y-126736790D01*
X115006733Y-126892343D01*
X115012790Y-126898400D01*
X114935000Y-126898400D01*
X114653115Y-126954470D01*
X114414145Y-127114145D01*
X113949180Y-127579109D01*
X113931413Y-127571732D01*
X113400914Y-127571269D01*
X112910620Y-127773854D01*
X112535173Y-128148647D01*
X112331732Y-128638587D01*
X112331269Y-129169086D01*
X112533854Y-129659380D01*
X112908647Y-130034827D01*
X113398587Y-130238268D01*
X113929086Y-130238731D01*
X114419380Y-130036146D01*
X114794827Y-129661353D01*
X114935093Y-129323553D01*
X115073854Y-129659380D01*
X115448647Y-130034827D01*
X115938587Y-130238268D01*
X116469086Y-130238731D01*
X116488853Y-130230563D01*
X116738400Y-130480110D01*
X116738400Y-135025093D01*
X116558110Y-134945385D01*
X115926739Y-134930496D01*
X115337729Y-135158356D01*
X115274276Y-135200756D01*
X115235755Y-135519834D01*
X116205000Y-136489079D01*
X116219142Y-136474936D01*
X116255063Y-136510857D01*
X116240921Y-136525000D01*
X116255063Y-136539142D01*
X116219142Y-136575063D01*
X116205000Y-136560921D01*
X116169079Y-136596842D01*
X116169079Y-136525000D01*
X115199834Y-135555755D01*
X114951110Y-135585782D01*
X114901827Y-135466802D01*
X114723199Y-135288173D01*
X114489810Y-135191500D01*
X114237191Y-135191500D01*
X112840191Y-135191500D01*
X112606802Y-135288173D01*
X112428173Y-135466801D01*
X112331500Y-135700190D01*
X112331500Y-135952809D01*
X112331500Y-137349809D01*
X112428173Y-137583198D01*
X112606801Y-137761827D01*
X112840190Y-137858500D01*
X113092809Y-137858500D01*
X114489809Y-137858500D01*
X114723198Y-137761827D01*
X114901827Y-137583199D01*
X114951110Y-137464217D01*
X115199834Y-137494245D01*
X116169079Y-136525000D01*
X116169079Y-136596842D01*
X115235755Y-137530166D01*
X115274276Y-137849244D01*
X115851890Y-138104615D01*
X116483261Y-138119504D01*
X117072271Y-137891644D01*
X117127817Y-137854527D01*
X119494145Y-140220855D01*
X119733115Y-140380530D01*
X120015000Y-140436600D01*
X121090835Y-140436600D01*
X121168538Y-140624655D01*
X121627927Y-141084846D01*
X122116432Y-141287690D01*
X121630345Y-141488538D01*
X121170154Y-141947927D01*
X120920794Y-142548453D01*
X120920226Y-143198694D01*
X121168538Y-143799655D01*
X121627927Y-144259846D01*
X122228453Y-144509206D01*
X122878694Y-144509774D01*
X123176614Y-144386675D01*
X121695496Y-145867793D01*
X121584398Y-145821661D01*
X120988218Y-145821141D01*
X120437220Y-146048808D01*
X120015290Y-146470003D01*
X120014904Y-146470930D01*
X119594997Y-146050290D01*
X119044398Y-145821661D01*
X118448218Y-145821141D01*
X117897220Y-146048808D01*
X117475290Y-146470003D01*
X117474904Y-146470930D01*
X117054997Y-146050290D01*
X116504398Y-145821661D01*
X115908218Y-145821141D01*
X115357220Y-146048808D01*
X115332314Y-146073669D01*
X115282258Y-145952822D01*
X115032178Y-145702742D01*
X114705433Y-145567400D01*
X114029774Y-145567400D01*
X114029774Y-142551306D01*
X113781462Y-141950345D01*
X113322073Y-141490154D01*
X112833567Y-141287309D01*
X113319655Y-141086462D01*
X113779846Y-140627073D01*
X114029206Y-140026547D01*
X114029774Y-139376306D01*
X113781462Y-138775345D01*
X113322073Y-138315154D01*
X112721547Y-138065794D01*
X112071306Y-138065226D01*
X111470345Y-138313538D01*
X111010154Y-138772927D01*
X110760794Y-139373453D01*
X110760226Y-140023694D01*
X111008538Y-140624655D01*
X111467927Y-141084846D01*
X111956432Y-141287690D01*
X111470345Y-141488538D01*
X111010154Y-141947927D01*
X110760794Y-142548453D01*
X110760226Y-143198694D01*
X111008538Y-143799655D01*
X111467927Y-144259846D01*
X112068453Y-144509206D01*
X112718694Y-144509774D01*
X113319655Y-144261462D01*
X113779846Y-143802073D01*
X114029206Y-143201547D01*
X114029774Y-142551306D01*
X114029774Y-145567400D01*
X113912650Y-145567400D01*
X113690400Y-145789650D01*
X113690400Y-147294600D01*
X113710400Y-147294600D01*
X113710400Y-147345400D01*
X113690400Y-147345400D01*
X113690400Y-148850350D01*
X113912650Y-149072600D01*
X114705433Y-149072600D01*
X115032178Y-148937258D01*
X115282258Y-148687178D01*
X115332123Y-148566790D01*
X115355003Y-148589710D01*
X115905602Y-148818339D01*
X116501782Y-148818859D01*
X117052780Y-148591192D01*
X117474710Y-148169997D01*
X117475095Y-148169069D01*
X117895003Y-148589710D01*
X118445602Y-148818339D01*
X119041782Y-148818859D01*
X119592780Y-148591192D01*
X120014710Y-148169997D01*
X120015095Y-148169069D01*
X120435003Y-148589710D01*
X120985602Y-148818339D01*
X121581782Y-148818859D01*
X122132780Y-148591192D01*
X122554710Y-148169997D01*
X122555095Y-148169069D01*
X122975003Y-148589710D01*
X123525602Y-148818339D01*
X124121782Y-148818859D01*
X124235260Y-148771970D01*
X124561289Y-149098000D01*
X113639600Y-149098000D01*
X113639600Y-148850350D01*
X113639600Y-147345400D01*
X113639600Y-147294600D01*
X113639600Y-145789650D01*
X113417350Y-145567400D01*
X112624567Y-145567400D01*
X112297822Y-145702742D01*
X112047742Y-145952822D01*
X111912400Y-146279567D01*
X111912400Y-146633233D01*
X111912400Y-147072350D01*
X112134650Y-147294600D01*
X113639600Y-147294600D01*
X113639600Y-147345400D01*
X112134650Y-147345400D01*
X111912400Y-147567650D01*
X111912400Y-148006767D01*
X111912400Y-148360433D01*
X112047742Y-148687178D01*
X112297822Y-148937258D01*
X112624567Y-149072600D01*
X113417350Y-149072600D01*
X113639600Y-148850350D01*
X113639600Y-149098000D01*
X110083859Y-149098000D01*
X110083859Y-138133218D01*
X109856192Y-137582220D01*
X109434997Y-137160290D01*
X108912318Y-136943254D01*
X108912318Y-104354633D01*
X108367539Y-102906579D01*
X108222770Y-102689917D01*
X107664558Y-102371363D01*
X107628637Y-102407284D01*
X107628637Y-102335442D01*
X107310083Y-101777230D01*
X105900937Y-101138518D01*
X104354633Y-101087682D01*
X102906579Y-101632461D01*
X102689917Y-101777230D01*
X102371363Y-102335442D01*
X105000000Y-104964079D01*
X107628637Y-102335442D01*
X107628637Y-102407284D01*
X105035921Y-105000000D01*
X107664558Y-107628637D01*
X108222770Y-107310083D01*
X108861482Y-105900937D01*
X108912318Y-104354633D01*
X108912318Y-136943254D01*
X108884398Y-136931661D01*
X108338457Y-136931184D01*
X108338457Y-122266609D01*
X108101852Y-121653898D01*
X108077242Y-121617065D01*
X108077242Y-119738339D01*
X107865010Y-119224697D01*
X107628637Y-118987911D01*
X107628637Y-107664558D01*
X105000000Y-105035921D01*
X104964079Y-105071842D01*
X104964079Y-105000000D01*
X102335442Y-102371363D01*
X101777230Y-102689917D01*
X101138518Y-104099063D01*
X101087682Y-105645367D01*
X101632461Y-107093421D01*
X101777230Y-107310083D01*
X102335442Y-107628637D01*
X104964079Y-105000000D01*
X104964079Y-105071842D01*
X102371363Y-107664558D01*
X102689917Y-108222770D01*
X104099063Y-108861482D01*
X105645367Y-108912318D01*
X107093421Y-108367539D01*
X107310083Y-108222770D01*
X107628637Y-107664558D01*
X107628637Y-118987911D01*
X107472370Y-118831371D01*
X106959100Y-118618243D01*
X106403339Y-118617758D01*
X105889697Y-118829990D01*
X105537000Y-119182071D01*
X105537000Y-119126691D01*
X105440327Y-118893302D01*
X105261699Y-118714673D01*
X105028310Y-118618000D01*
X104775691Y-118618000D01*
X103251691Y-118618000D01*
X103018302Y-118714673D01*
X102839673Y-118893301D01*
X102743000Y-119126690D01*
X102743000Y-119379309D01*
X102743000Y-120903309D01*
X102839673Y-121136698D01*
X103018301Y-121315327D01*
X103144352Y-121367539D01*
X103124967Y-121504046D01*
X104140000Y-122519079D01*
X105155033Y-121504046D01*
X105135647Y-121367538D01*
X105261698Y-121315327D01*
X105440327Y-121136699D01*
X105537000Y-120903310D01*
X105537000Y-120847386D01*
X105810197Y-121121061D01*
X105778898Y-121133148D01*
X105711216Y-121178371D01*
X105664967Y-121504046D01*
X106680000Y-122519079D01*
X107695033Y-121504046D01*
X107648784Y-121178371D01*
X107540164Y-121130270D01*
X107863629Y-120807370D01*
X108076757Y-120294100D01*
X108077242Y-119738339D01*
X108077242Y-121617065D01*
X108056629Y-121586216D01*
X107730954Y-121539967D01*
X106715921Y-122555000D01*
X107730954Y-123570033D01*
X108056629Y-123523784D01*
X108322577Y-122923226D01*
X108338457Y-122266609D01*
X108338457Y-136931184D01*
X108288218Y-136931141D01*
X107737220Y-137158808D01*
X107315290Y-137580003D01*
X107314904Y-137580930D01*
X106894997Y-137160290D01*
X106344398Y-136931661D01*
X106007353Y-136931367D01*
X106090530Y-136806885D01*
X106090530Y-136806884D01*
X106146600Y-136525000D01*
X106146600Y-131466162D01*
X106400900Y-131571757D01*
X106956661Y-131572242D01*
X107470303Y-131360010D01*
X107863629Y-130967370D01*
X108076757Y-130454100D01*
X108077242Y-129898339D01*
X107865010Y-129384697D01*
X107472370Y-128991371D01*
X107264487Y-128905050D01*
X107470303Y-128820010D01*
X107863629Y-128427370D01*
X108076757Y-127914100D01*
X108077242Y-127358339D01*
X107865010Y-126844697D01*
X107472370Y-126451371D01*
X107264487Y-126365050D01*
X107470303Y-126280010D01*
X107863629Y-125887370D01*
X108076757Y-125374100D01*
X108077242Y-124818339D01*
X107865010Y-124304697D01*
X107549802Y-123988938D01*
X107581102Y-123976852D01*
X107648784Y-123931629D01*
X107695033Y-123605954D01*
X106680000Y-122590921D01*
X106644079Y-122626842D01*
X106644079Y-122555000D01*
X105629046Y-121539967D01*
X105410000Y-121571073D01*
X105190954Y-121539967D01*
X104175921Y-122555000D01*
X105190954Y-123570033D01*
X105410000Y-123538926D01*
X105629046Y-123570033D01*
X106644079Y-122555000D01*
X106644079Y-122626842D01*
X105664967Y-123605954D01*
X105711216Y-123931629D01*
X105819835Y-123979729D01*
X105496371Y-124302630D01*
X105410050Y-124510512D01*
X105325010Y-124304697D01*
X105009802Y-123988938D01*
X105041102Y-123976852D01*
X105108784Y-123931629D01*
X105155033Y-123605954D01*
X104140000Y-122590921D01*
X104104079Y-122626842D01*
X104104079Y-122555000D01*
X103089046Y-121539967D01*
X102763371Y-121586216D01*
X102497423Y-122186774D01*
X102481543Y-122843391D01*
X102718148Y-123456102D01*
X102763371Y-123523784D01*
X103089046Y-123570033D01*
X104104079Y-122555000D01*
X104104079Y-122626842D01*
X103124967Y-123605954D01*
X103171216Y-123931629D01*
X103279835Y-123979729D01*
X102956371Y-124302630D01*
X102743243Y-124815900D01*
X102742758Y-125371661D01*
X102954990Y-125885303D01*
X103347630Y-126278629D01*
X103555512Y-126364949D01*
X103349697Y-126449990D01*
X102956371Y-126842630D01*
X102743243Y-127355900D01*
X102742758Y-127911661D01*
X102954990Y-128425303D01*
X103347630Y-128818629D01*
X103555512Y-128904949D01*
X103349697Y-128989990D01*
X102956371Y-129382630D01*
X102743243Y-129895900D01*
X102742758Y-130451661D01*
X102954990Y-130965303D01*
X103347630Y-131358629D01*
X103860900Y-131571757D01*
X104416661Y-131572242D01*
X104673400Y-131466159D01*
X104673400Y-136219890D01*
X103961890Y-136931400D01*
X102515091Y-136931400D01*
X102281702Y-137028073D01*
X102103073Y-137206701D01*
X102006400Y-137440090D01*
X102006400Y-137692709D01*
X102006400Y-139419909D01*
X102103073Y-139653298D01*
X102281701Y-139831927D01*
X102515090Y-139928600D01*
X102767709Y-139928600D01*
X104494909Y-139928600D01*
X104728298Y-139831927D01*
X104906927Y-139653299D01*
X104977820Y-139482148D01*
X105195003Y-139699710D01*
X105745602Y-139928339D01*
X106341782Y-139928859D01*
X106892780Y-139701192D01*
X107314710Y-139279997D01*
X107315095Y-139279069D01*
X107735003Y-139699710D01*
X108285602Y-139928339D01*
X108881782Y-139928859D01*
X109432780Y-139701192D01*
X109854710Y-139279997D01*
X110083339Y-138729398D01*
X110083859Y-138133218D01*
X110083859Y-149098000D01*
X108912318Y-149098000D01*
X108912318Y-144354633D01*
X108367539Y-142906579D01*
X108222770Y-142689917D01*
X107664558Y-142371363D01*
X107628637Y-142407284D01*
X107628637Y-142335442D01*
X107310083Y-141777230D01*
X105900937Y-141138518D01*
X104354633Y-141087682D01*
X102906579Y-141632461D01*
X102689917Y-141777230D01*
X102371363Y-142335442D01*
X105000000Y-144964079D01*
X107628637Y-142335442D01*
X107628637Y-142407284D01*
X105035921Y-145000000D01*
X107664558Y-147628637D01*
X108222770Y-147310083D01*
X108861482Y-145900937D01*
X108912318Y-144354633D01*
X108912318Y-149098000D01*
X107628637Y-149098000D01*
X107628637Y-147664558D01*
X105000000Y-145035921D01*
X104964079Y-145071842D01*
X104964079Y-145000000D01*
X102335442Y-142371363D01*
X101777230Y-142689917D01*
X101138518Y-144099063D01*
X101087682Y-145645367D01*
X101632461Y-147093421D01*
X101777230Y-147310083D01*
X102335442Y-147628637D01*
X104964079Y-145000000D01*
X104964079Y-145071842D01*
X102371363Y-147664558D01*
X102689917Y-148222770D01*
X104099063Y-148861482D01*
X105645367Y-148912318D01*
X107093421Y-148367539D01*
X107310083Y-148222770D01*
X107628637Y-147664558D01*
X107628637Y-149098000D01*
X100685000Y-149098000D01*
X100685000Y-100685000D01*
X112228331Y-100685000D01*
X112145422Y-100719342D01*
X111895342Y-100969422D01*
X111760000Y-101296167D01*
X111760000Y-109099350D01*
X111982250Y-109321600D01*
X117449600Y-109321600D01*
X117449600Y-109301600D01*
X117500400Y-109301600D01*
X117500400Y-109321600D01*
X122967750Y-109321600D01*
X123190000Y-109099350D01*
X123190000Y-101296167D01*
X123054658Y-100969422D01*
X122804578Y-100719342D01*
X122721668Y-100685000D01*
X199263000Y-100685000D01*
X199263000Y-149098000D01*
M02*
