M48
;DRILL file {kicad (2014-jul-16 BZR unknown)-product} date Fri 03 Oct 2014 11:53:33 PM PDT
;FORMAT={-:-/ absolute / inch / decimal}
FMAT,2
INCH,TZ
T1C0.025
T2C0.030
T3C0.032
T4C0.032
T5C0.039
T6C0.040
T7C0.047
T8C0.050
T9C0.125
T10C0.150
%
G90
G05
M72
T1
X4.725Y-5.025
X4.9Y-4.925
X5.025Y-5.5
X5.575Y-4.35
X5.575Y-4.525
X5.675Y-4.475
X5.725Y-4.625
X6.05Y-4.325
X6.05Y-5.025
X6.1Y-4.925
X6.1Y-5.
X6.5Y-4.375
X6.75Y-4.325
X6.875Y-4.55
X6.875Y-4.975
X6.9Y-5.55
X7.Y-4.6
X7.025Y-4.975
X7.05Y-5.175
X7.15Y-5.125
X7.2Y-4.525
X7.2Y-5.55
X7.25Y-5.3
X7.25Y-5.55
X7.3Y-5.025
T2
X5.05Y-4.9
X5.05Y-5.
T3
X4.475Y-4.95
X4.575Y-4.95
X4.7Y-4.95
X4.8Y-4.95
X4.875Y-4.725
X4.875Y-4.825
X4.925Y-5.175
X4.925Y-5.275
X5.25Y-4.525
X5.25Y-4.625
X6.25Y-4.75
X6.25Y-5.3
X6.25Y-5.425
X6.35Y-4.75
X6.35Y-5.3
X6.35Y-5.425
X6.475Y-4.525
X6.475Y-4.625
X6.5539Y-5.375
X6.7461Y-5.375
X6.95Y-5.325
X6.95Y-5.425
X7.25Y-4.975
X7.25Y-5.075
T4
X4.475Y-5.075
X4.475Y-5.375
X4.575Y-5.075
X4.575Y-5.375
X4.675Y-5.075
X4.675Y-5.375
X4.775Y-5.075
X4.775Y-5.375
X5.425Y-4.425
X5.425Y-4.725
X5.525Y-4.425
X5.525Y-4.725
X5.625Y-4.425
X5.625Y-4.725
X5.65Y-4.875
X5.65Y-5.175
X5.725Y-4.425
X5.725Y-4.725
X5.75Y-4.875
X5.75Y-5.175
X5.825Y-4.425
X5.825Y-4.725
X5.85Y-4.875
X5.85Y-5.175
X5.925Y-4.425
X5.925Y-4.725
X5.95Y-4.875
X5.95Y-5.175
X6.025Y-4.425
X6.025Y-4.725
X6.05Y-4.875
X6.05Y-5.175
X6.15Y-4.875
X6.15Y-5.175
X6.25Y-4.875
X6.25Y-5.175
X6.35Y-4.875
X6.35Y-5.175
X6.45Y-4.875
X6.45Y-5.175
X6.55Y-4.875
X6.55Y-5.175
X6.65Y-4.425
X6.65Y-4.725
X6.65Y-4.875
X6.65Y-5.175
X6.75Y-4.425
X6.75Y-4.725
X6.75Y-4.875
X6.75Y-5.175
X6.85Y-4.425
X6.85Y-4.725
X6.85Y-4.875
X6.85Y-5.175
X6.95Y-4.425
X6.95Y-4.725
X6.95Y-4.875
X6.95Y-5.175
X7.05Y-4.425
X7.05Y-4.725
X7.15Y-4.425
X7.15Y-4.725
X7.25Y-4.425
X7.25Y-4.725
T5
X4.425Y-5.5
X4.425Y-5.625
X4.525Y-4.775
X4.625Y-4.775
X4.725Y-4.775
X4.825Y-5.5
X4.825Y-5.625
X4.925Y-5.4
X4.95Y-4.2
X4.95Y-4.6
X5.125Y-4.375
X5.125Y-4.775
X5.25Y-4.85
X5.25Y-5.25
X5.325Y-5.4
X5.4Y-4.85
X5.4Y-5.25
X5.475Y-5.4
X5.875Y-5.4
X7.375Y-4.825
X7.525Y-4.825
X7.525Y-5.225
T6
X4.075Y-5.45
X4.1Y-4.725
X4.1Y-4.825
X4.1Y-4.925
X4.1Y-5.025
X4.1Y-5.125
X4.175Y-5.45
X4.2Y-4.725
X4.2Y-4.825
X4.2Y-4.925
X4.2Y-5.025
X4.2Y-5.125
X4.275Y-5.45
X4.475Y-5.8
X4.575Y-5.8
X4.675Y-5.8
X4.775Y-5.8
X4.875Y-5.8
X4.975Y-5.8
X5.4Y-4.1
X5.4Y-4.2
X5.4Y-5.65
X5.4Y-5.75
X5.5Y-4.1
X5.5Y-4.2
X5.5Y-5.65
X5.5Y-5.75
X5.6Y-4.1
X5.6Y-4.2
X5.6Y-5.65
X5.6Y-5.75
X5.7Y-4.1
X5.7Y-4.2
X5.7Y-5.65
X5.7Y-5.75
X5.8Y-4.1
X5.8Y-4.2
X5.8Y-5.65
X5.8Y-5.75
X5.9Y-4.1
X5.9Y-4.2
X5.9Y-5.65
X5.9Y-5.75
X6.Y-4.1
X6.Y-4.2
X6.Y-5.65
X6.Y-5.75
X6.1Y-4.1
X6.1Y-4.2
X6.1Y-5.65
X6.1Y-5.75
X6.2Y-4.1
X6.2Y-4.2
X6.2Y-5.65
X6.2Y-5.75
X6.3Y-4.1
X6.3Y-4.2
X6.3Y-5.65
X6.3Y-5.75
X6.4Y-4.1
X6.4Y-4.2
X6.4Y-5.65
X6.4Y-5.75
X6.5Y-4.1
X6.5Y-4.2
X6.5Y-5.65
X6.5Y-5.75
X6.6Y-4.1
X6.6Y-4.2
X6.6Y-5.65
X6.6Y-5.75
X6.7Y-4.1
X6.7Y-4.2
X6.7Y-5.65
X6.7Y-5.75
X6.8Y-4.1
X6.8Y-4.2
X6.8Y-5.65
X6.8Y-5.75
X6.9Y-4.1
X6.9Y-4.2
X6.9Y-5.65
X6.9Y-5.75
X7.Y-4.1
X7.Y-4.2
X7.Y-5.65
X7.Y-5.75
X7.1Y-4.1
X7.1Y-4.2
X7.1Y-5.65
X7.1Y-5.75
X7.2Y-4.1
X7.2Y-4.2
X7.2Y-5.65
X7.2Y-5.75
X7.3Y-4.1
X7.3Y-4.2
X7.3Y-5.65
X7.3Y-5.75
T7
X7.725Y-4.822
X7.725Y-5.078
T8
X7.375Y-5.225
T9
X4.1339Y-4.1339
X4.1339Y-5.7087
X7.6772Y-4.1339
X7.6772Y-5.7087
T10
X4.625Y-4.115
T0
M30
