M48
;DRILL file {kicad (2014-jul-16 BZR unknown)-product} date Sun 05 Oct 2014 02:04:37 PM PDT
;FORMAT={2:4/ absolute / inch / suppress leading zeros}
FMAT,2
INCH,TZ
T1C0.025
T2C0.030
T3C0.032
T4C0.032
T5C0.039
T6C0.040
T7C0.047
T8C0.050
T9C0.125
T10C0.150
%
G90
G05
M72
T1
X47250Y-50250
X49000Y-49250
X50250Y-55000
X55750Y-43500
X55750Y-45250
X56750Y-44750
X57250Y-46250
X60500Y-43250
X60500Y-50250
X61000Y-49250
X61000Y-50000
X65000Y-43750
X67500Y-43250
X68750Y-45500
X68750Y-49750
X69000Y-55500
X70000Y-46000
X70250Y-49750
X70500Y-51750
X71500Y-51250
X72000Y-45250
X72000Y-55500
X72500Y-53000
X72500Y-55500
X73000Y-50250
T2
X50500Y-49000
X50500Y-50000
T3
X44750Y-49500
X45750Y-49500
X47000Y-49500
X48000Y-49500
X48750Y-47250
X48750Y-48250
X49250Y-51750
X49250Y-52750
X52500Y-45250
X52500Y-46250
X62500Y-47500
X62500Y-53000
X62500Y-54250
X63500Y-47500
X63500Y-53000
X63500Y-54250
X64750Y-45250
X64750Y-46250
X65539Y-53750
X67461Y-53750
X69500Y-53250
X69500Y-54250
X72500Y-49750
X72500Y-50750
T4
X44750Y-50750
X44750Y-53750
X45750Y-50750
X45750Y-53750
X46750Y-50750
X46750Y-53750
X47750Y-50750
X47750Y-53750
X54250Y-44250
X54250Y-47250
X55250Y-44250
X55250Y-47250
X56250Y-44250
X56250Y-47250
X56500Y-48750
X56500Y-51750
X57250Y-44250
X57250Y-47250
X57500Y-48750
X57500Y-51750
X58250Y-44250
X58250Y-47250
X58500Y-48750
X58500Y-51750
X59250Y-44250
X59250Y-47250
X59500Y-48750
X59500Y-51750
X60250Y-44250
X60250Y-47250
X60500Y-48750
X60500Y-51750
X61500Y-48750
X61500Y-51750
X62500Y-48750
X62500Y-51750
X63500Y-48750
X63500Y-51750
X64500Y-48750
X64500Y-51750
X65500Y-48750
X65500Y-51750
X66500Y-44250
X66500Y-47250
X66500Y-48750
X66500Y-51750
X67500Y-44250
X67500Y-47250
X67500Y-48750
X67500Y-51750
X68500Y-44250
X68500Y-47250
X68500Y-48750
X68500Y-51750
X69500Y-44250
X69500Y-47250
X69500Y-48750
X69500Y-51750
X70500Y-44250
X70500Y-47250
X71500Y-44250
X71500Y-47250
X72500Y-44250
X72500Y-47250
T5
X44250Y-55000
X44250Y-56250
X45250Y-47750
X46250Y-47750
X47250Y-47750
X48250Y-55000
X48250Y-56250
X49250Y-54000
X49500Y-42000
X49500Y-46000
X51250Y-43750
X51250Y-47750
X52500Y-48500
X52500Y-52500
X53250Y-54000
X54000Y-48500
X54000Y-52500
X54750Y-54000
X58750Y-54000
X73750Y-48250
X75250Y-48250
X75250Y-52250
T6
X40750Y-54500
X41000Y-47250
X41000Y-48250
X41000Y-49250
X41000Y-50250
X41000Y-51250
X41750Y-54500
X42000Y-47250
X42000Y-48250
X42000Y-49250
X42000Y-50250
X42000Y-51250
X42750Y-54500
X44750Y-58000
X45750Y-58000
X46750Y-58000
X47750Y-58000
X48750Y-58000
X49750Y-58000
X54000Y-41000
X54000Y-42000
X54000Y-56500
X54000Y-57500
X55000Y-41000
X55000Y-42000
X55000Y-56500
X55000Y-57500
X56000Y-41000
X56000Y-42000
X56000Y-56500
X56000Y-57500
X57000Y-41000
X57000Y-42000
X57000Y-56500
X57000Y-57500
X58000Y-41000
X58000Y-42000
X58000Y-56500
X58000Y-57500
X59000Y-41000
X59000Y-42000
X59000Y-56500
X59000Y-57500
X60000Y-41000
X60000Y-42000
X60000Y-56500
X60000Y-57500
X61000Y-41000
X61000Y-42000
X61000Y-56500
X61000Y-57500
X62000Y-41000
X62000Y-42000
X62000Y-56500
X62000Y-57500
X63000Y-41000
X63000Y-42000
X63000Y-56500
X63000Y-57500
X64000Y-41000
X64000Y-42000
X64000Y-56500
X64000Y-57500
X65000Y-41000
X65000Y-42000
X65000Y-56500
X65000Y-57500
X66000Y-41000
X66000Y-42000
X66000Y-56500
X66000Y-57500
X67000Y-41000
X67000Y-42000
X67000Y-56500
X67000Y-57500
X68000Y-41000
X68000Y-42000
X68000Y-56500
X68000Y-57500
X69000Y-41000
X69000Y-42000
X69000Y-56500
X69000Y-57500
X70000Y-41000
X70000Y-42000
X70000Y-56500
X70000Y-57500
X71000Y-41000
X71000Y-42000
X71000Y-56500
X71000Y-57500
X72000Y-41000
X72000Y-42000
X72000Y-56500
X72000Y-57500
X73000Y-41000
X73000Y-42000
X73000Y-56500
X73000Y-57500
T7
X77250Y-48220
X77250Y-50780
T8
X73750Y-52250
T9
X41339Y-41339
X41339Y-57087
X76772Y-41339
X76772Y-57087
T10
X46250Y-41150
T0
M30
