%FSLAX36Y36*%
G04 Gerber Fmt 3.6, Leading zero omitted, Abs format (unit inch)*
G04 Created by KiCad (PCBNEW (2014-jul-16 BZR unknown)-product) date Fri 17 Oct 2014 08:42:51 AM PDT*
%MOIN*%
G01*
G04 APERTURE LIST*
%ADD10C,0.003937*%
%ADD11C,0.008000*%
%ADD12C,0.000100*%
G04 APERTURE END LIST*
D10*
D11*
X7609966Y-4692702D02*
X7609966Y-4652702D01*
X7592823Y-4692702D02*
X7592823Y-4671749D01*
X7594728Y-4667940D01*
X7598538Y-4666035D01*
X7604252Y-4666035D01*
X7608061Y-4667940D01*
X7609966Y-4669844D01*
X7556633Y-4692702D02*
X7556633Y-4671749D01*
X7558538Y-4667940D01*
X7562347Y-4666035D01*
X7569966Y-4666035D01*
X7573776Y-4667940D01*
X7556633Y-4690797D02*
X7560442Y-4692702D01*
X7569966Y-4692702D01*
X7573776Y-4690797D01*
X7575681Y-4686987D01*
X7575681Y-4683178D01*
X7573776Y-4679368D01*
X7569966Y-4677463D01*
X7560442Y-4677463D01*
X7556633Y-4675559D01*
X7537585Y-4692702D02*
X7537585Y-4666035D01*
X7537585Y-4673654D02*
X7535681Y-4669844D01*
X7533776Y-4667940D01*
X7529966Y-4666035D01*
X7526157Y-4666035D01*
X7495681Y-4692702D02*
X7495681Y-4652702D01*
X7495681Y-4690797D02*
X7499490Y-4692702D01*
X7507109Y-4692702D01*
X7510919Y-4690797D01*
X7512823Y-4688892D01*
X7514728Y-4685082D01*
X7514728Y-4673654D01*
X7512823Y-4669844D01*
X7510919Y-4667940D01*
X7507109Y-4666035D01*
X7499490Y-4666035D01*
X7495681Y-4667940D01*
X7480442Y-4666035D02*
X7472823Y-4692702D01*
X7465204Y-4673654D01*
X7457585Y-4692702D01*
X7449966Y-4666035D01*
X7417585Y-4692702D02*
X7417585Y-4671749D01*
X7419490Y-4667940D01*
X7423300Y-4666035D01*
X7430919Y-4666035D01*
X7434728Y-4667940D01*
X7417585Y-4690797D02*
X7421395Y-4692702D01*
X7430919Y-4692702D01*
X7434728Y-4690797D01*
X7436633Y-4686987D01*
X7436633Y-4683178D01*
X7434728Y-4679368D01*
X7430919Y-4677463D01*
X7421395Y-4677463D01*
X7417585Y-4675559D01*
X7398538Y-4692702D02*
X7398538Y-4666035D01*
X7398538Y-4673654D02*
X7396633Y-4669844D01*
X7394728Y-4667940D01*
X7390919Y-4666035D01*
X7387109Y-4666035D01*
X7358538Y-4690797D02*
X7362347Y-4692702D01*
X7369966Y-4692702D01*
X7373776Y-4690797D01*
X7375681Y-4686987D01*
X7375681Y-4671749D01*
X7373776Y-4667940D01*
X7369966Y-4666035D01*
X7362347Y-4666035D01*
X7358538Y-4667940D01*
X7356633Y-4671749D01*
X7356633Y-4675559D01*
X7375681Y-4679368D01*
X7640476Y-4638095D02*
X7644286Y-4636190D01*
X7646190Y-4634286D01*
X7648095Y-4630476D01*
X7648095Y-4619048D01*
X7646190Y-4615238D01*
X7644286Y-4613333D01*
X7640476Y-4611429D01*
X7634762Y-4611429D01*
X7630952Y-4613333D01*
X7629048Y-4615238D01*
X7627143Y-4619048D01*
X7627143Y-4630476D01*
X7629048Y-4634286D01*
X7630952Y-4636190D01*
X7634762Y-4638095D01*
X7640476Y-4638095D01*
X7610000Y-4611429D02*
X7610000Y-4651429D01*
X7610000Y-4613333D02*
X7606190Y-4611429D01*
X7598571Y-4611429D01*
X7594762Y-4613333D01*
X7592857Y-4615238D01*
X7590952Y-4619048D01*
X7590952Y-4630476D01*
X7592857Y-4634286D01*
X7594762Y-4636190D01*
X7598571Y-4638095D01*
X7606190Y-4638095D01*
X7610000Y-4636190D01*
X7558571Y-4636190D02*
X7562381Y-4638095D01*
X7570000Y-4638095D01*
X7573809Y-4636190D01*
X7575714Y-4632381D01*
X7575714Y-4617143D01*
X7573809Y-4613333D01*
X7570000Y-4611429D01*
X7562381Y-4611429D01*
X7558571Y-4613333D01*
X7556667Y-4617143D01*
X7556667Y-4620952D01*
X7575714Y-4624762D01*
X7539524Y-4611429D02*
X7539524Y-4638095D01*
X7539524Y-4615238D02*
X7537619Y-4613333D01*
X7533809Y-4611429D01*
X7528095Y-4611429D01*
X7524286Y-4613333D01*
X7522381Y-4617143D01*
X7522381Y-4638095D01*
X7474762Y-4636190D02*
X7470952Y-4638095D01*
X7463333Y-4638095D01*
X7459524Y-4636190D01*
X7457619Y-4632381D01*
X7457619Y-4630476D01*
X7459524Y-4626667D01*
X7463333Y-4624762D01*
X7469048Y-4624762D01*
X7472857Y-4622857D01*
X7474762Y-4619048D01*
X7474762Y-4617143D01*
X7472857Y-4613333D01*
X7469048Y-4611429D01*
X7463333Y-4611429D01*
X7459524Y-4613333D01*
X7434762Y-4638095D02*
X7438571Y-4636190D01*
X7440476Y-4634286D01*
X7442381Y-4630476D01*
X7442381Y-4619048D01*
X7440476Y-4615238D01*
X7438571Y-4613333D01*
X7434762Y-4611429D01*
X7429048Y-4611429D01*
X7425238Y-4613333D01*
X7423333Y-4615238D01*
X7421429Y-4619048D01*
X7421429Y-4630476D01*
X7423333Y-4634286D01*
X7425238Y-4636190D01*
X7429048Y-4638095D01*
X7434762Y-4638095D01*
X7387143Y-4611429D02*
X7387143Y-4638095D01*
X7404286Y-4611429D02*
X7404286Y-4632381D01*
X7402381Y-4636190D01*
X7398571Y-4638095D01*
X7392857Y-4638095D01*
X7389048Y-4636190D01*
X7387143Y-4634286D01*
X7368095Y-4638095D02*
X7368095Y-4611429D01*
X7368095Y-4619048D02*
X7366190Y-4615238D01*
X7364286Y-4613333D01*
X7360476Y-4611429D01*
X7356667Y-4611429D01*
X7326191Y-4636190D02*
X7330000Y-4638095D01*
X7337619Y-4638095D01*
X7341429Y-4636190D01*
X7343333Y-4634286D01*
X7345238Y-4630476D01*
X7345238Y-4619048D01*
X7343333Y-4615238D01*
X7341429Y-4613333D01*
X7337619Y-4611429D01*
X7330000Y-4611429D01*
X7326191Y-4613333D01*
X7293810Y-4636190D02*
X7297619Y-4638095D01*
X7305238Y-4638095D01*
X7309048Y-4636190D01*
X7310952Y-4632381D01*
X7310952Y-4617143D01*
X7309048Y-4613333D01*
X7305238Y-4611429D01*
X7297619Y-4611429D01*
X7293810Y-4613333D01*
X7291905Y-4617143D01*
X7291905Y-4620952D01*
X7310952Y-4624762D01*
D12*
G36*
X7368800Y-4589600D02*
X7370900Y-4588600D01*
X7375600Y-4585600D01*
X7382200Y-4581200D01*
X7390100Y-4575900D01*
X7398000Y-4570600D01*
X7404600Y-4566200D01*
X7409100Y-4563300D01*
X7411000Y-4562200D01*
X7412000Y-4562600D01*
X7415800Y-4564400D01*
X7421300Y-4567300D01*
X7424400Y-4568900D01*
X7429500Y-4571100D01*
X7431900Y-4571500D01*
X7432400Y-4570800D01*
X7434200Y-4567000D01*
X7437100Y-4560400D01*
X7440900Y-4551800D01*
X7445200Y-4541600D01*
X7449800Y-4530700D01*
X7454500Y-4519500D01*
X7458900Y-4508800D01*
X7462800Y-4499300D01*
X7465900Y-4491500D01*
X7468000Y-4486100D01*
X7468800Y-4483700D01*
X7468500Y-4483300D01*
X7466000Y-4480800D01*
X7461600Y-4477500D01*
X7452200Y-4469900D01*
X7442800Y-4458200D01*
X7437100Y-4444900D01*
X7435300Y-4430200D01*
X7436900Y-4416600D01*
X7442200Y-4403500D01*
X7451400Y-4391700D01*
X7462500Y-4382900D01*
X7475400Y-4377400D01*
X7490000Y-4375600D01*
X7503900Y-4377200D01*
X7517300Y-4382400D01*
X7529100Y-4391400D01*
X7534100Y-4397200D01*
X7541000Y-4409100D01*
X7544900Y-4421900D01*
X7545300Y-4425200D01*
X7544700Y-4439200D01*
X7540600Y-4452700D01*
X7533100Y-4464700D01*
X7522800Y-4474600D01*
X7521600Y-4475500D01*
X7516800Y-4479100D01*
X7513600Y-4481500D01*
X7511100Y-4483600D01*
X7529000Y-4526600D01*
X7531800Y-4533500D01*
X7536700Y-4545200D01*
X7541100Y-4555400D01*
X7544500Y-4563500D01*
X7546900Y-4568800D01*
X7547900Y-4571000D01*
X7548100Y-4571100D01*
X7549600Y-4571400D01*
X7552900Y-4570200D01*
X7558900Y-4567300D01*
X7562900Y-4565300D01*
X7567500Y-4563100D01*
X7569500Y-4562200D01*
X7571200Y-4563200D01*
X7575700Y-4566000D01*
X7582100Y-4570300D01*
X7589800Y-4575500D01*
X7597100Y-4580500D01*
X7603800Y-4585000D01*
X7608800Y-4588100D01*
X7611100Y-4589400D01*
X7611500Y-4589400D01*
X7613600Y-4588200D01*
X7617500Y-4585000D01*
X7623400Y-4579400D01*
X7631700Y-4571300D01*
X7632900Y-4570000D01*
X7639700Y-4563100D01*
X7645300Y-4557200D01*
X7649000Y-4553100D01*
X7650300Y-4551200D01*
X7650300Y-4551200D01*
X7649100Y-4548900D01*
X7646000Y-4544000D01*
X7641500Y-4537100D01*
X7636100Y-4529100D01*
X7621800Y-4508400D01*
X7629700Y-4488900D01*
X7632100Y-4482900D01*
X7635100Y-4475600D01*
X7637400Y-4470400D01*
X7638600Y-4468200D01*
X7640700Y-4467400D01*
X7646000Y-4466100D01*
X7653800Y-4464500D01*
X7663000Y-4462800D01*
X7671800Y-4461200D01*
X7679800Y-4459700D01*
X7685600Y-4458600D01*
X7688200Y-4458000D01*
X7688800Y-4457700D01*
X7689300Y-4456400D01*
X7689600Y-4453700D01*
X7689800Y-4448900D01*
X7689900Y-4441300D01*
X7689900Y-4430200D01*
X7689900Y-4429000D01*
X7689800Y-4418500D01*
X7689700Y-4410100D01*
X7689400Y-4404700D01*
X7689000Y-4402500D01*
X7689000Y-4402500D01*
X7686500Y-4401900D01*
X7680900Y-4400700D01*
X7672900Y-4399100D01*
X7663400Y-4397300D01*
X7662800Y-4397200D01*
X7653400Y-4395400D01*
X7645400Y-4393700D01*
X7639900Y-4392400D01*
X7637500Y-4391700D01*
X7637100Y-4391000D01*
X7635100Y-4387400D01*
X7632400Y-4381500D01*
X7629300Y-4374300D01*
X7626200Y-4366900D01*
X7623500Y-4360200D01*
X7621700Y-4355200D01*
X7621200Y-4353000D01*
X7621200Y-4352900D01*
X7622700Y-4350600D01*
X7625900Y-4345800D01*
X7630500Y-4338900D01*
X7636000Y-4330900D01*
X7636500Y-4330300D01*
X7641900Y-4322300D01*
X7646300Y-4315500D01*
X7649200Y-4310700D01*
X7650300Y-4308500D01*
X7650300Y-4308400D01*
X7648500Y-4306000D01*
X7644400Y-4301500D01*
X7638600Y-4295400D01*
X7631600Y-4288300D01*
X7629400Y-4286100D01*
X7621600Y-4278500D01*
X7616200Y-4273600D01*
X7612800Y-4270900D01*
X7611200Y-4270300D01*
X7611200Y-4270400D01*
X7608800Y-4271800D01*
X7603700Y-4275100D01*
X7596900Y-4279800D01*
X7588800Y-4285300D01*
X7588200Y-4285700D01*
X7580200Y-4291100D01*
X7573500Y-4295600D01*
X7568800Y-4298700D01*
X7566700Y-4300000D01*
X7566400Y-4300000D01*
X7563100Y-4299000D01*
X7557400Y-4297000D01*
X7550400Y-4294300D01*
X7543000Y-4291400D01*
X7536300Y-4288500D01*
X7531300Y-4286200D01*
X7528900Y-4284900D01*
X7528800Y-4284700D01*
X7528000Y-4281900D01*
X7526600Y-4275900D01*
X7524900Y-4267700D01*
X7523100Y-4257900D01*
X7522800Y-4256300D01*
X7521000Y-4246800D01*
X7519400Y-4238900D01*
X7518300Y-4233500D01*
X7517800Y-4231200D01*
X7516400Y-4230900D01*
X7511700Y-4230600D01*
X7504600Y-4230400D01*
X7496000Y-4230300D01*
X7487000Y-4230400D01*
X7478100Y-4230500D01*
X7470600Y-4230800D01*
X7465200Y-4231200D01*
X7462900Y-4231600D01*
X7462900Y-4231800D01*
X7462000Y-4234700D01*
X7460700Y-4240700D01*
X7459000Y-4249000D01*
X7457200Y-4258800D01*
X7456800Y-4260500D01*
X7455000Y-4270000D01*
X7453400Y-4277800D01*
X7452300Y-4283200D01*
X7451700Y-4285300D01*
X7450800Y-4285800D01*
X7446900Y-4287500D01*
X7440500Y-4290100D01*
X7432600Y-4293300D01*
X7414300Y-4300700D01*
X7391900Y-4285300D01*
X7389800Y-4283900D01*
X7381700Y-4278400D01*
X7375100Y-4274000D01*
X7370500Y-4271000D01*
X7368600Y-4269900D01*
X7368400Y-4270000D01*
X7366200Y-4272000D01*
X7361700Y-4276200D01*
X7355700Y-4282100D01*
X7348600Y-4289100D01*
X7343400Y-4294300D01*
X7337200Y-4300600D01*
X7333300Y-4304900D01*
X7331100Y-4307600D01*
X7330400Y-4309200D01*
X7330500Y-4310300D01*
X7332000Y-4312600D01*
X7335300Y-4317600D01*
X7339900Y-4324400D01*
X7345400Y-4332300D01*
X7349900Y-4338900D01*
X7354800Y-4346500D01*
X7357900Y-4351900D01*
X7359000Y-4354500D01*
X7358700Y-4355600D01*
X7357200Y-4360000D01*
X7354500Y-4366600D01*
X7351100Y-4374500D01*
X7343300Y-4392300D01*
X7331700Y-4394500D01*
X7324600Y-4395900D01*
X7314800Y-4397800D01*
X7305300Y-4399600D01*
X7290600Y-4402500D01*
X7290000Y-4456700D01*
X7292300Y-4457600D01*
X7294500Y-4458200D01*
X7300000Y-4459400D01*
X7307800Y-4461000D01*
X7317000Y-4462700D01*
X7324800Y-4464200D01*
X7332700Y-4465700D01*
X7338400Y-4466800D01*
X7340900Y-4467300D01*
X7341500Y-4468200D01*
X7343500Y-4472000D01*
X7346300Y-4478100D01*
X7349500Y-4485400D01*
X7352600Y-4493000D01*
X7355400Y-4500000D01*
X7357300Y-4505300D01*
X7358100Y-4508100D01*
X7357000Y-4510200D01*
X7354000Y-4514800D01*
X7349600Y-4521400D01*
X7344300Y-4529300D01*
X7338900Y-4537100D01*
X7334400Y-4543800D01*
X7331200Y-4548700D01*
X7329900Y-4550900D01*
X7330500Y-4552400D01*
X7333700Y-4556200D01*
X7339600Y-4562300D01*
X7348400Y-4571000D01*
X7349900Y-4572400D01*
X7356900Y-4579200D01*
X7362800Y-4584600D01*
X7366900Y-4588300D01*
X7368800Y-4589600D01*
X7368800Y-4589600D01*
G37*
X7368800Y-4589600D02*
X7370900Y-4588600D01*
X7375600Y-4585600D01*
X7382200Y-4581200D01*
X7390100Y-4575900D01*
X7398000Y-4570600D01*
X7404600Y-4566200D01*
X7409100Y-4563300D01*
X7411000Y-4562200D01*
X7412000Y-4562600D01*
X7415800Y-4564400D01*
X7421300Y-4567300D01*
X7424400Y-4568900D01*
X7429500Y-4571100D01*
X7431900Y-4571500D01*
X7432400Y-4570800D01*
X7434200Y-4567000D01*
X7437100Y-4560400D01*
X7440900Y-4551800D01*
X7445200Y-4541600D01*
X7449800Y-4530700D01*
X7454500Y-4519500D01*
X7458900Y-4508800D01*
X7462800Y-4499300D01*
X7465900Y-4491500D01*
X7468000Y-4486100D01*
X7468800Y-4483700D01*
X7468500Y-4483300D01*
X7466000Y-4480800D01*
X7461600Y-4477500D01*
X7452200Y-4469900D01*
X7442800Y-4458200D01*
X7437100Y-4444900D01*
X7435300Y-4430200D01*
X7436900Y-4416600D01*
X7442200Y-4403500D01*
X7451400Y-4391700D01*
X7462500Y-4382900D01*
X7475400Y-4377400D01*
X7490000Y-4375600D01*
X7503900Y-4377200D01*
X7517300Y-4382400D01*
X7529100Y-4391400D01*
X7534100Y-4397200D01*
X7541000Y-4409100D01*
X7544900Y-4421900D01*
X7545300Y-4425200D01*
X7544700Y-4439200D01*
X7540600Y-4452700D01*
X7533100Y-4464700D01*
X7522800Y-4474600D01*
X7521600Y-4475500D01*
X7516800Y-4479100D01*
X7513600Y-4481500D01*
X7511100Y-4483600D01*
X7529000Y-4526600D01*
X7531800Y-4533500D01*
X7536700Y-4545200D01*
X7541100Y-4555400D01*
X7544500Y-4563500D01*
X7546900Y-4568800D01*
X7547900Y-4571000D01*
X7548100Y-4571100D01*
X7549600Y-4571400D01*
X7552900Y-4570200D01*
X7558900Y-4567300D01*
X7562900Y-4565300D01*
X7567500Y-4563100D01*
X7569500Y-4562200D01*
X7571200Y-4563200D01*
X7575700Y-4566000D01*
X7582100Y-4570300D01*
X7589800Y-4575500D01*
X7597100Y-4580500D01*
X7603800Y-4585000D01*
X7608800Y-4588100D01*
X7611100Y-4589400D01*
X7611500Y-4589400D01*
X7613600Y-4588200D01*
X7617500Y-4585000D01*
X7623400Y-4579400D01*
X7631700Y-4571300D01*
X7632900Y-4570000D01*
X7639700Y-4563100D01*
X7645300Y-4557200D01*
X7649000Y-4553100D01*
X7650300Y-4551200D01*
X7650300Y-4551200D01*
X7649100Y-4548900D01*
X7646000Y-4544000D01*
X7641500Y-4537100D01*
X7636100Y-4529100D01*
X7621800Y-4508400D01*
X7629700Y-4488900D01*
X7632100Y-4482900D01*
X7635100Y-4475600D01*
X7637400Y-4470400D01*
X7638600Y-4468200D01*
X7640700Y-4467400D01*
X7646000Y-4466100D01*
X7653800Y-4464500D01*
X7663000Y-4462800D01*
X7671800Y-4461200D01*
X7679800Y-4459700D01*
X7685600Y-4458600D01*
X7688200Y-4458000D01*
X7688800Y-4457700D01*
X7689300Y-4456400D01*
X7689600Y-4453700D01*
X7689800Y-4448900D01*
X7689900Y-4441300D01*
X7689900Y-4430200D01*
X7689900Y-4429000D01*
X7689800Y-4418500D01*
X7689700Y-4410100D01*
X7689400Y-4404700D01*
X7689000Y-4402500D01*
X7689000Y-4402500D01*
X7686500Y-4401900D01*
X7680900Y-4400700D01*
X7672900Y-4399100D01*
X7663400Y-4397300D01*
X7662800Y-4397200D01*
X7653400Y-4395400D01*
X7645400Y-4393700D01*
X7639900Y-4392400D01*
X7637500Y-4391700D01*
X7637100Y-4391000D01*
X7635100Y-4387400D01*
X7632400Y-4381500D01*
X7629300Y-4374300D01*
X7626200Y-4366900D01*
X7623500Y-4360200D01*
X7621700Y-4355200D01*
X7621200Y-4353000D01*
X7621200Y-4352900D01*
X7622700Y-4350600D01*
X7625900Y-4345800D01*
X7630500Y-4338900D01*
X7636000Y-4330900D01*
X7636500Y-4330300D01*
X7641900Y-4322300D01*
X7646300Y-4315500D01*
X7649200Y-4310700D01*
X7650300Y-4308500D01*
X7650300Y-4308400D01*
X7648500Y-4306000D01*
X7644400Y-4301500D01*
X7638600Y-4295400D01*
X7631600Y-4288300D01*
X7629400Y-4286100D01*
X7621600Y-4278500D01*
X7616200Y-4273600D01*
X7612800Y-4270900D01*
X7611200Y-4270300D01*
X7611200Y-4270400D01*
X7608800Y-4271800D01*
X7603700Y-4275100D01*
X7596900Y-4279800D01*
X7588800Y-4285300D01*
X7588200Y-4285700D01*
X7580200Y-4291100D01*
X7573500Y-4295600D01*
X7568800Y-4298700D01*
X7566700Y-4300000D01*
X7566400Y-4300000D01*
X7563100Y-4299000D01*
X7557400Y-4297000D01*
X7550400Y-4294300D01*
X7543000Y-4291400D01*
X7536300Y-4288500D01*
X7531300Y-4286200D01*
X7528900Y-4284900D01*
X7528800Y-4284700D01*
X7528000Y-4281900D01*
X7526600Y-4275900D01*
X7524900Y-4267700D01*
X7523100Y-4257900D01*
X7522800Y-4256300D01*
X7521000Y-4246800D01*
X7519400Y-4238900D01*
X7518300Y-4233500D01*
X7517800Y-4231200D01*
X7516400Y-4230900D01*
X7511700Y-4230600D01*
X7504600Y-4230400D01*
X7496000Y-4230300D01*
X7487000Y-4230400D01*
X7478100Y-4230500D01*
X7470600Y-4230800D01*
X7465200Y-4231200D01*
X7462900Y-4231600D01*
X7462900Y-4231800D01*
X7462000Y-4234700D01*
X7460700Y-4240700D01*
X7459000Y-4249000D01*
X7457200Y-4258800D01*
X7456800Y-4260500D01*
X7455000Y-4270000D01*
X7453400Y-4277800D01*
X7452300Y-4283200D01*
X7451700Y-4285300D01*
X7450800Y-4285800D01*
X7446900Y-4287500D01*
X7440500Y-4290100D01*
X7432600Y-4293300D01*
X7414300Y-4300700D01*
X7391900Y-4285300D01*
X7389800Y-4283900D01*
X7381700Y-4278400D01*
X7375100Y-4274000D01*
X7370500Y-4271000D01*
X7368600Y-4269900D01*
X7368400Y-4270000D01*
X7366200Y-4272000D01*
X7361700Y-4276200D01*
X7355700Y-4282100D01*
X7348600Y-4289100D01*
X7343400Y-4294300D01*
X7337200Y-4300600D01*
X7333300Y-4304900D01*
X7331100Y-4307600D01*
X7330400Y-4309200D01*
X7330500Y-4310300D01*
X7332000Y-4312600D01*
X7335300Y-4317600D01*
X7339900Y-4324400D01*
X7345400Y-4332300D01*
X7349900Y-4338900D01*
X7354800Y-4346500D01*
X7357900Y-4351900D01*
X7359000Y-4354500D01*
X7358700Y-4355600D01*
X7357200Y-4360000D01*
X7354500Y-4366600D01*
X7351100Y-4374500D01*
X7343300Y-4392300D01*
X7331700Y-4394500D01*
X7324600Y-4395900D01*
X7314800Y-4397800D01*
X7305300Y-4399600D01*
X7290600Y-4402500D01*
X7290000Y-4456700D01*
X7292300Y-4457600D01*
X7294500Y-4458200D01*
X7300000Y-4459400D01*
X7307800Y-4461000D01*
X7317000Y-4462700D01*
X7324800Y-4464200D01*
X7332700Y-4465700D01*
X7338400Y-4466800D01*
X7340900Y-4467300D01*
X7341500Y-4468200D01*
X7343500Y-4472000D01*
X7346300Y-4478100D01*
X7349500Y-4485400D01*
X7352600Y-4493000D01*
X7355400Y-4500000D01*
X7357300Y-4505300D01*
X7358100Y-4508100D01*
X7357000Y-4510200D01*
X7354000Y-4514800D01*
X7349600Y-4521400D01*
X7344300Y-4529300D01*
X7338900Y-4537100D01*
X7334400Y-4543800D01*
X7331200Y-4548700D01*
X7329900Y-4550900D01*
X7330500Y-4552400D01*
X7333700Y-4556200D01*
X7339600Y-4562300D01*
X7348400Y-4571000D01*
X7349900Y-4572400D01*
X7356900Y-4579200D01*
X7362800Y-4584600D01*
X7366900Y-4588300D01*
X7368800Y-4589600D01*
M02*
