%FSLAX36Y36*%
G04 Gerber Fmt 3.6, Leading zero omitted, Abs format (unit inch)*
G04 Created by KiCad (PCBNEW (2014-jul-16 BZR unknown)-product) date Sun 19 Oct 2014 06:56:34 PM PDT*
%MOIN*%
G01*
G04 APERTURE LIST*
%ADD10C,0.003937*%
%ADD11C,0.059100*%
%ADD12C,0.078700*%
%ADD13R,0.078700X0.078700*%
%ADD14C,0.236220*%
%ADD15R,0.068000X0.068000*%
%ADD16C,0.068000*%
%ADD17R,0.060000X0.060000*%
%ADD18C,0.060000*%
%ADD19O,0.068000X0.068000*%
%ADD20R,0.055000X0.055000*%
%ADD21C,0.055000*%
%ADD22O,0.066900X0.137800*%
G04 APERTURE END LIST*
D10*
D11*
X6350000Y-5425000D03*
X6250000Y-5425000D03*
X4475000Y-4950000D03*
X4575000Y-4950000D03*
X6950000Y-5425000D03*
X6950000Y-5325000D03*
X4875000Y-4825000D03*
X4875000Y-4725000D03*
X4800000Y-4950000D03*
X4700000Y-4950000D03*
X6250000Y-5300000D03*
X6350000Y-5300000D03*
X6350000Y-4750000D03*
X6250000Y-4750000D03*
X4925000Y-5175000D03*
X4925000Y-5275000D03*
X5250000Y-4625000D03*
X5250000Y-4525000D03*
X7250000Y-4975000D03*
X7250000Y-5075000D03*
X6475000Y-4525000D03*
X6475000Y-4625000D03*
D12*
X7375000Y-5225000D03*
D13*
X7375000Y-4825000D03*
D14*
X4133858Y-4133858D03*
X7677165Y-4133858D03*
X4133858Y-5708661D03*
X7677165Y-5708661D03*
D15*
X4075000Y-5450000D03*
D16*
X4175000Y-5450000D03*
X4275000Y-5450000D03*
D17*
X4100000Y-4725000D03*
D18*
X4200000Y-4725000D03*
X4100000Y-4825000D03*
X4200000Y-4825000D03*
X4100000Y-4925000D03*
X4200000Y-4925000D03*
X4100000Y-5025000D03*
X4200000Y-5025000D03*
X4100000Y-5125000D03*
X4200000Y-5125000D03*
D15*
X4475000Y-5800000D03*
D16*
X4575000Y-5800000D03*
X4675000Y-5800000D03*
X4775000Y-5800000D03*
X4875000Y-5800000D03*
X4975000Y-5800000D03*
D15*
X5400000Y-4200000D03*
D19*
X5400000Y-4100000D03*
X5500000Y-4200000D03*
X5500000Y-4100000D03*
X5600000Y-4200000D03*
X5600000Y-4100000D03*
X5700000Y-4200000D03*
X5700000Y-4100000D03*
X5800000Y-4200000D03*
X5800000Y-4100000D03*
X5900000Y-4200000D03*
X5900000Y-4100000D03*
X6000000Y-4200000D03*
X6000000Y-4100000D03*
X6100000Y-4200000D03*
X6100000Y-4100000D03*
X6200000Y-4200000D03*
X6200000Y-4100000D03*
X6300000Y-4200000D03*
X6300000Y-4100000D03*
X6400000Y-4200000D03*
X6400000Y-4100000D03*
X6500000Y-4200000D03*
X6500000Y-4100000D03*
X6600000Y-4200000D03*
X6600000Y-4100000D03*
X6700000Y-4200000D03*
X6700000Y-4100000D03*
X6800000Y-4200000D03*
X6800000Y-4100000D03*
X6900000Y-4200000D03*
X6900000Y-4100000D03*
X7000000Y-4200000D03*
X7000000Y-4100000D03*
X7100000Y-4200000D03*
X7100000Y-4100000D03*
X7200000Y-4200000D03*
X7200000Y-4100000D03*
X7300000Y-4200000D03*
X7300000Y-4100000D03*
D15*
X5400000Y-5750000D03*
D19*
X5400000Y-5650000D03*
X5500000Y-5750000D03*
X5500000Y-5650000D03*
X5600000Y-5750000D03*
X5600000Y-5650000D03*
X5700000Y-5750000D03*
X5700000Y-5650000D03*
X5800000Y-5750000D03*
X5800000Y-5650000D03*
X5900000Y-5750000D03*
X5900000Y-5650000D03*
X6000000Y-5750000D03*
X6000000Y-5650000D03*
X6100000Y-5750000D03*
X6100000Y-5650000D03*
X6200000Y-5750000D03*
X6200000Y-5650000D03*
X6300000Y-5750000D03*
X6300000Y-5650000D03*
X6400000Y-5750000D03*
X6400000Y-5650000D03*
X6500000Y-5750000D03*
X6500000Y-5650000D03*
X6600000Y-5750000D03*
X6600000Y-5650000D03*
X6700000Y-5750000D03*
X6700000Y-5650000D03*
X6800000Y-5750000D03*
X6800000Y-5650000D03*
X6900000Y-5750000D03*
X6900000Y-5650000D03*
X7000000Y-5750000D03*
X7000000Y-5650000D03*
X7100000Y-5750000D03*
X7100000Y-5650000D03*
X7200000Y-5750000D03*
X7200000Y-5650000D03*
X7300000Y-5750000D03*
X7300000Y-5650000D03*
D12*
X4950000Y-4200000D03*
X4950000Y-4600000D03*
X5475000Y-5400000D03*
X5875000Y-5400000D03*
X4925000Y-5400000D03*
X5325000Y-5400000D03*
X5250000Y-4850000D03*
X5250000Y-5250000D03*
X5400000Y-4850000D03*
X5400000Y-5250000D03*
X4825000Y-5500000D03*
X4425000Y-5500000D03*
X7525000Y-5225000D03*
X7525000Y-4825000D03*
D13*
X7725000Y-5272000D03*
D12*
X7725000Y-5528000D03*
D20*
X5425000Y-4725000D03*
D21*
X5525000Y-4725000D03*
X5625000Y-4725000D03*
X5725000Y-4725000D03*
X5825000Y-4725000D03*
X5925000Y-4725000D03*
X6025000Y-4725000D03*
X6025000Y-4425000D03*
X5925000Y-4425000D03*
X5825000Y-4425000D03*
X5725000Y-4425000D03*
X5625000Y-4425000D03*
X5525000Y-4425000D03*
X5425000Y-4425000D03*
D22*
X4625000Y-4775000D03*
X4525000Y-4775000D03*
X4725000Y-4775000D03*
D20*
X4475000Y-5375000D03*
D21*
X4575000Y-5375000D03*
X4675000Y-5375000D03*
X4775000Y-5375000D03*
X4775000Y-5075000D03*
X4675000Y-5075000D03*
X4575000Y-5075000D03*
X4475000Y-5075000D03*
X5750000Y-5175000D03*
X5850000Y-5175000D03*
X5950000Y-5175000D03*
X6050000Y-5175000D03*
X6150000Y-5175000D03*
X6250000Y-5175000D03*
X6350000Y-5175000D03*
X6450000Y-5175000D03*
X6550000Y-5175000D03*
X6650000Y-5175000D03*
X6750000Y-5175000D03*
X6850000Y-5175000D03*
X6950000Y-5175000D03*
D20*
X5650000Y-5175000D03*
D21*
X6950000Y-4875000D03*
X6850000Y-4875000D03*
X6750000Y-4875000D03*
X6650000Y-4875000D03*
X6550000Y-4875000D03*
X6450000Y-4875000D03*
X6350000Y-4875000D03*
X6250000Y-4875000D03*
X6150000Y-4875000D03*
X6050000Y-4875000D03*
X5950000Y-4875000D03*
X5850000Y-4875000D03*
X5750000Y-4875000D03*
X5650000Y-4875000D03*
D20*
X6650000Y-4725000D03*
D21*
X6750000Y-4725000D03*
X6850000Y-4725000D03*
X6950000Y-4725000D03*
X7050000Y-4725000D03*
X7150000Y-4725000D03*
X7250000Y-4725000D03*
X7250000Y-4425000D03*
X7150000Y-4425000D03*
X7050000Y-4425000D03*
X6950000Y-4425000D03*
X6850000Y-4425000D03*
X6750000Y-4425000D03*
X6650000Y-4425000D03*
D11*
X6553900Y-5375000D03*
X6746100Y-5375000D03*
D12*
X4825000Y-5625000D03*
X4425000Y-5625000D03*
X5125000Y-4375000D03*
X5125000Y-4775000D03*
D18*
X5050000Y-4900000D03*
X5050000Y-5000000D03*
D15*
X7750000Y-5125000D03*
D16*
X7750000Y-5025000D03*
X7750000Y-4925000D03*
X7750000Y-4825000D03*
X7750000Y-4725000D03*
X7750000Y-4625000D03*
X7750000Y-4525000D03*
X7750000Y-4425000D03*
X7750000Y-4325000D03*
M02*
